<?xml version="1.0" encoding="UTF-8" standalone="no"?>
<!DOCTYPE svg PUBLIC "-//W3C//DTD SVG 1.1//EN" "http://www.w3.org/Graphics/SVG/1.1/DTD/svg11.dtd">
<svg width="100%" height="100%" viewBox="0 0 128 128" version="1.1" xmlns="http://www.w3.org/2000/svg" xmlns:xlink="http://www.w3.org/1999/xlink" xml:space="preserve" xmlns:serif="http://www.serif.com/" style="fill-rule:evenodd;clip-rule:evenodd;stroke-linejoin:round;stroke-miterlimit:2;">
    <g transform="matrix(5.48711,0,0,5.48711,-7.32589,-14.6649)">
        <g id="b">
            <g id="Alley-Car-Rear" serif:id="Alley Car Rear">
                <g transform="matrix(0.383745,0,0,0.383745,-0.416897,4.42969)">
                    <path d="M24.944,48.952C24.944,48.12 24.268,47.443 23.435,47.443L20.417,47.443C19.584,47.443 18.907,48.12 18.907,48.952L18.907,54.701C18.907,55.534 19.584,56.21 20.417,56.21L23.435,56.21C24.268,56.21 24.944,55.534 24.944,54.701L24.944,48.952Z" style="fill:rgb(83,83,83);"/>
                </g>
                <g transform="matrix(0.383745,0,0,0.383745,9.64004,4.42969)">
                    <path d="M24.944,48.952C24.944,48.12 24.268,47.443 23.435,47.443L20.417,47.443C19.584,47.443 18.907,48.12 18.907,48.952L18.907,54.701C18.907,55.534 19.584,56.21 20.417,56.21L23.435,56.21C24.268,56.21 24.944,55.534 24.944,54.701L24.944,48.952Z" style="fill:rgb(83,83,83);"/>
                </g>
                <g transform="matrix(0.182245,0,0,0.182245,1.33511,2.67261)">
                    <path d="M27.221,99.894C27.537,98.086 28.159,95.766 29.382,93.573C30.468,91.627 34.16,90.129 34.662,89.229C35.631,87.491 39.687,62.058 42.732,61.093C48.813,59.164 81.38,59.899 85.885,61.184C90.327,62.45 91.934,85.079 93.82,88.369C94.105,88.867 97.316,90.994 99.177,93.573C101.011,96.114 101.035,98.462 101.105,99.502C101.23,101.323 101.17,102.928 101.159,103.189L101.159,115.965C101.159,117.002 100.318,117.842 99.283,117.842L28.774,117.842C27.738,117.842 26.897,117.002 26.897,115.965L26.897,103.155L26.894,103.155C26.894,103.155 26.893,103.075 26.897,102.925L26.897,100.946C26.897,100.556 27.017,100.194 27.221,99.894ZM33.649,82.845C33.649,82.066 33.015,81.432 32.235,81.432L26.45,81.432C25.67,81.432 25.039,82.066 25.039,82.845L25.039,85.673C25.039,86.452 25.67,87.085 26.45,87.085L32.235,87.085C33.015,87.085 33.649,86.452 33.649,85.673L33.649,82.845ZM102.974,82.845C102.974,82.066 102.341,81.432 101.561,81.432L95.776,81.432C94.995,81.432 94.364,82.066 94.364,82.845L94.364,85.673C94.364,86.452 94.995,87.085 95.776,87.085L101.561,87.085C102.341,87.085 102.974,86.452 102.974,85.673L102.974,82.845Z" style="fill:rgb(81,129,181);"/>
                </g>
                <g transform="matrix(0.452781,0,0,0.424909,16.4407,23.1512)">
                    <circle cx="1.5" cy="1.5" r="1.5" style="fill:rgb(54,54,54);"/>
                </g>
                <g transform="matrix(0.300079,0,0,0.108803,2.58476,12.3261)">
                    <path d="M46.719,44.413C46.266,44.634 23.373,45.809 22.404,44.413C21.851,43.618 23.368,19.876 25.013,18.348C26.502,16.965 42.772,17.367 44.703,18.66C46.511,19.869 47.964,43.807 46.719,44.413Z" style="fill:rgb(132,132,132);"/>
                </g>
                <g transform="matrix(0.407595,0,0,0.596547,-0.338826,-4.96068)">
                    <path d="M22.253,43.311C22.253,43.054 21.928,42.844 21.527,42.844L19.146,42.844C18.745,42.844 18.419,43.054 18.419,43.311L18.419,44.246C18.419,44.503 18.745,44.713 19.146,44.713L21.527,44.713C21.928,44.713 22.253,44.503 22.253,44.246L22.253,43.311Z" style="fill:rgb(204,10,0);"/>
                </g>
                <g transform="matrix(0.407595,0,0,0.596547,9.65041,-4.96068)">
                    <path d="M22.253,43.311C22.253,43.054 21.928,42.844 21.527,42.844L19.146,42.844C18.745,42.844 18.419,43.054 18.419,43.311L18.419,44.246C18.419,44.503 18.745,44.713 19.146,44.713L21.527,44.713C21.928,44.713 22.253,44.503 22.253,44.246L22.253,43.311Z" style="fill:rgb(204,10,0);"/>
                </g>
                <g transform="matrix(0.299781,0,0,1.54852,3.14848,-39.0818)">
                    <rect x="25.612" y="39.486" width="13.413" height="0.518" style="fill:rgb(83,83,83);"/>
                </g>
            </g>
        </g>
    </g>
</svg>
