<?xml version="1.0" encoding="UTF-8" standalone="no"?>
<!DOCTYPE svg PUBLIC "-//W3C//DTD SVG 1.1//EN" "http://www.w3.org/Graphics/SVG/1.1/DTD/svg11.dtd">
<svg width="100%" height="100%" viewBox="0 0 26 26" version="1.1" xmlns="http://www.w3.org/2000/svg" xmlns:xlink="http://www.w3.org/1999/xlink" xml:space="preserve" xmlns:serif="http://www.serif.com/" style="fill-rule:evenodd;clip-rule:evenodd;stroke-linejoin:round;stroke-miterlimit:2;">
    <g transform="matrix(6.12323e-17,1,-1,6.12323e-17,25.9447,-0.0553462)">
        <g id="b">
            <g id="Asphalt-Seamless" serif:id="Asphalt Seamless">
                <g>
                    <g>
                        <g transform="matrix(1,0,0,1,-2.53669,-1.60827)">
                            <path d="M2.008,1.608C2.411,1.608 3.663,2.416 3.752,2.82C3.841,3.224 2.944,4.032 2.54,4.032C2.136,4.032 1.418,3.224 1.329,2.82C1.24,2.416 1.604,1.608 2.008,1.608Z" style="fill:rgb(43,43,43);"/>
                        </g>
                        <g transform="matrix(0.707107,-0.707107,0.707107,0.707107,-3.78767,9.68422)">
                            <path d="M2.008,1.608C2.411,1.608 3.663,2.416 3.752,2.82C3.841,3.224 2.944,4.032 2.54,4.032C2.136,4.032 1.418,3.224 1.329,2.82C1.24,2.416 1.604,1.608 2.008,1.608Z" style="fill:rgb(43,43,43);"/>
                        </g>
                        <g transform="matrix(0.866025,0.5,-0.5,0.866025,-0.786894,12.3689)">
                            <path d="M2.008,1.608C2.411,1.608 3.663,2.416 3.752,2.82C3.841,3.224 2.944,4.032 2.54,4.032C2.136,4.032 1.418,3.224 1.329,2.82C1.24,2.416 1.604,1.608 2.008,1.608Z" style="fill:rgb(43,43,43);"/>
                        </g>
                        <g transform="matrix(1,0,0,1,23.4633,-1.60827)">
                            <path d="M2.008,1.608C2.411,1.608 3.663,2.416 3.752,2.82C3.841,3.224 2.944,4.032 2.54,4.032C2.136,4.032 1.418,3.224 1.329,2.82C1.24,2.416 1.604,1.608 2.008,1.608Z" style="fill:rgb(43,43,43);"/>
                        </g>
                        <g transform="matrix(0.707107,-0.707107,0.707107,0.707107,22.2123,9.68422)">
                            <path d="M2.008,1.608C2.411,1.608 3.663,2.416 3.752,2.82C3.841,3.224 2.944,4.032 2.54,4.032C2.136,4.032 1.418,3.224 1.329,2.82C1.24,2.416 1.604,1.608 2.008,1.608Z" style="fill:rgb(43,43,43);"/>
                        </g>
                        <g transform="matrix(0.707107,-0.707107,0.707107,0.707107,18.3963,-0.255597)">
                            <path d="M2.008,1.608C2.411,1.608 3.663,2.416 3.752,2.82C3.841,3.224 2.944,4.032 2.54,4.032C2.136,4.032 1.418,3.224 1.329,2.82C1.24,2.416 1.604,1.608 2.008,1.608Z" style="fill:rgb(43,43,43);"/>
                        </g>
                        <g transform="matrix(0.866025,0.5,-0.5,0.866025,13.5172,-3.76579)">
                            <path d="M2.008,1.608C2.411,1.608 3.663,2.416 3.752,2.82C3.841,3.224 2.944,4.032 2.54,4.032C2.136,4.032 1.418,3.224 1.329,2.82C1.24,2.416 1.604,1.608 2.008,1.608Z" style="fill:rgb(43,43,43);"/>
                        </g>
                        <g transform="matrix(-0.258819,-0.965926,0.965926,-0.258819,2.42408,3.12475)">
                            <path d="M2.008,1.608C2.411,1.608 3.663,2.416 3.752,2.82C3.841,3.224 2.944,4.032 2.54,4.032C2.136,4.032 1.418,3.224 1.329,2.82C1.24,2.416 1.604,1.608 2.008,1.608Z" style="fill:rgb(43,43,43);"/>
                        </g>
                        <g transform="matrix(-0.233623,-0.871893,0.871893,-0.233623,19.6061,13.9222)">
                            <path d="M2.008,1.608C2.411,1.608 3.663,2.416 3.752,2.82C3.841,3.224 2.944,4.032 2.54,4.032C2.136,4.032 1.418,3.224 1.329,2.82C1.24,2.416 1.604,1.608 2.008,1.608Z" style="fill:rgb(43,43,43);"/>
                        </g>
                        <g transform="matrix(-0.233623,-0.871893,0.871893,-0.233623,10.1189,24.7871)">
                            <path d="M2.008,1.608C2.411,1.608 3.663,2.416 3.752,2.82C3.841,3.224 2.944,4.032 2.54,4.032C2.136,4.032 1.418,3.224 1.329,2.82C1.24,2.416 1.604,1.608 2.008,1.608Z" style="fill:rgb(43,43,43);"/>
                        </g>
                        <g transform="matrix(-0.233623,-0.871893,0.871893,-0.233623,19.1677,26.4465)">
                            <path d="M2.008,1.608C2.411,1.608 3.663,2.416 3.752,2.82C3.841,3.224 2.944,4.032 2.54,4.032C2.136,4.032 1.418,3.224 1.329,2.82C1.24,2.416 1.604,1.608 2.008,1.608Z" style="fill:rgb(43,43,43);"/>
                        </g>
                        <g transform="matrix(1.26782,-0.0848183,0.0848183,1.26782,20.4405,18.1487)">
                            <path d="M2.008,1.608C2.411,1.608 3.663,2.416 3.752,2.82C3.841,3.224 2.944,4.032 2.54,4.032C2.136,4.032 1.418,3.224 1.329,2.82C1.24,2.416 1.604,1.608 2.008,1.608Z" style="fill:rgb(43,43,43);"/>
                        </g>
                        <g transform="matrix(-0.0533334,-1.26953,1.26953,-0.0533334,12.1851,23.8149)">
                            <path d="M2.008,1.608C2.411,1.608 3.663,2.416 3.752,2.82C3.841,3.224 2.944,4.032 2.54,4.032C2.136,4.032 1.418,3.224 1.329,2.82C1.24,2.416 1.604,1.608 2.008,1.608Z" style="fill:rgb(43,43,43);"/>
                        </g>
                        <g transform="matrix(1.19543,0.0705302,-0.0705302,1.19543,16.9822,14.1908)">
                            <path d="M2.008,1.608C2.411,1.608 3.663,2.416 3.752,2.82C3.841,3.224 2.944,4.032 2.54,4.032C2.136,4.032 1.418,3.224 1.329,2.82C1.24,2.416 1.604,1.608 2.008,1.608Z" style="fill:rgb(43,43,43);"/>
                        </g>
                        <g transform="matrix(1.01099,0.641816,-0.641816,1.01099,1.54001,14.5588)">
                            <path d="M2.008,1.608C2.411,1.608 3.663,2.416 3.752,2.82C3.841,3.224 2.944,4.032 2.54,4.032C2.136,4.032 1.418,3.224 1.329,2.82C1.24,2.416 1.604,1.608 2.008,1.608Z" style="fill:rgb(43,43,43);"/>
                        </g>
                        <g transform="matrix(1.01099,0.641816,-0.641816,1.01099,0.786711,1.67346)">
                            <path d="M2.008,1.608C2.411,1.608 3.663,2.416 3.752,2.82C3.841,3.224 2.944,4.032 2.54,4.032C2.136,4.032 1.418,3.224 1.329,2.82C1.24,2.416 1.604,1.608 2.008,1.608Z" style="fill:rgb(43,43,43);"/>
                        </g>
                        <g transform="matrix(-0.0401196,-0.954994,0.954994,-0.0401196,8.35169,14.5021)">
                            <path d="M2.008,1.608C2.411,1.608 3.663,2.416 3.752,2.82C3.841,3.224 2.944,4.032 2.54,4.032C2.136,4.032 1.418,3.224 1.329,2.82C1.24,2.416 1.604,1.608 2.008,1.608Z" style="fill:rgb(43,43,43);"/>
                        </g>
                        <g transform="matrix(-0.0401196,-0.954994,0.954994,-0.0401196,16.4612,16.4747)">
                            <path d="M2.008,1.608C2.411,1.608 3.663,2.416 3.752,2.82C3.841,3.224 2.944,4.032 2.54,4.032C2.136,4.032 1.418,3.224 1.329,2.82C1.24,2.416 1.604,1.608 2.008,1.608Z" style="fill:rgb(43,43,43);"/>
                        </g>
                        <g transform="matrix(0.428385,-0.854465,0.854465,0.428385,-0.0239144,16.3029)">
                            <path d="M2.008,1.608C2.411,1.608 3.663,2.416 3.752,2.82C3.841,3.224 2.944,4.032 2.54,4.032C2.136,4.032 1.418,3.224 1.329,2.82C1.24,2.416 1.604,1.608 2.008,1.608Z" style="fill:rgb(43,43,43);"/>
                        </g>
                        <g transform="matrix(0.428385,-0.854465,0.854465,0.428385,-0.777213,3.41751)">
                            <path d="M2.008,1.608C2.411,1.608 3.663,2.416 3.752,2.82C3.841,3.224 2.944,4.032 2.54,4.032C2.136,4.032 1.418,3.224 1.329,2.82C1.24,2.416 1.604,1.608 2.008,1.608Z" style="fill:rgb(43,43,43);"/>
                        </g>
                        <g transform="matrix(-0.0401196,-0.954994,0.954994,-0.0401196,7.73878,10.4879)">
                            <path d="M2.008,1.608C2.411,1.608 3.663,2.416 3.752,2.82C3.841,3.224 2.944,4.032 2.54,4.032C2.136,4.032 1.418,3.224 1.329,2.82C1.24,2.416 1.604,1.608 2.008,1.608Z" style="fill:rgb(43,43,43);"/>
                        </g>
                        <g transform="matrix(-0.0401196,-0.954994,0.954994,-0.0401196,10.078,6.60251)">
                            <path d="M2.008,1.608C2.411,1.608 3.663,2.416 3.752,2.82C3.841,3.224 2.944,4.032 2.54,4.032C2.136,4.032 1.418,3.224 1.329,2.82C1.24,2.416 1.604,1.608 2.008,1.608Z" style="fill:rgb(43,43,43);"/>
                        </g>
                        <g transform="matrix(-0.880313,0.372388,-0.372388,-0.880313,19.4037,18.1695)">
                            <path d="M2.008,1.608C2.411,1.608 3.663,2.416 3.752,2.82C3.841,3.224 2.944,4.032 2.54,4.032C2.136,4.032 1.418,3.224 1.329,2.82C1.24,2.416 1.604,1.608 2.008,1.608Z" style="fill:rgb(43,43,43);"/>
                        </g>
                        <g transform="matrix(-0.880313,0.372388,-0.372388,-0.880313,26.6592,4.80837)">
                            <path d="M2.008,1.608C2.411,1.608 3.663,2.416 3.752,2.82C3.841,3.224 2.944,4.032 2.54,4.032C2.136,4.032 1.418,3.224 1.329,2.82C1.24,2.416 1.604,1.608 2.008,1.608Z" style="fill:rgb(43,43,43);"/>
                        </g>
                        <g transform="matrix(-0.880313,0.372388,-0.372388,-0.880313,10.6813,12.1828)">
                            <path d="M2.008,1.608C2.411,1.608 3.663,2.416 3.752,2.82C3.841,3.224 2.944,4.032 2.54,4.032C2.136,4.032 1.418,3.224 1.329,2.82C1.24,2.416 1.604,1.608 2.008,1.608Z" style="fill:rgb(43,43,43);"/>
                        </g>
                        <g transform="matrix(-0.880313,0.372388,-0.372388,-0.880313,21.0689,10.7158)">
                            <path d="M2.008,1.608C2.411,1.608 3.663,2.416 3.752,2.82C3.841,3.224 2.944,4.032 2.54,4.032C2.136,4.032 1.418,3.224 1.329,2.82C1.24,2.416 1.604,1.608 2.008,1.608Z" style="fill:rgb(43,43,43);"/>
                        </g>
                        <g transform="matrix(-0.880313,0.372388,-0.372388,-0.880313,11.6725,17.5748)">
                            <path d="M2.008,1.608C2.411,1.608 3.663,2.416 3.752,2.82C3.841,3.224 2.944,4.032 2.54,4.032C2.136,4.032 1.418,3.224 1.329,2.82C1.24,2.416 1.604,1.608 2.008,1.608Z" style="fill:rgb(43,43,43);"/>
                        </g>
                        <g transform="matrix(0.954867,-0.0430477,0.0430477,0.954867,20.454,15.0503)">
                            <path d="M2.008,1.608C2.411,1.608 3.663,2.416 3.752,2.82C3.841,3.224 2.944,4.032 2.54,4.032C2.136,4.032 1.418,3.224 1.329,2.82C1.24,2.416 1.604,1.608 2.008,1.608Z" style="fill:rgb(43,43,43);"/>
                        </g>
                        <g transform="matrix(0.855774,0.425763,-0.425763,0.855774,4.15842,16.9952)">
                            <path d="M2.008,1.608C2.411,1.608 3.663,2.416 3.752,2.82C3.841,3.224 2.944,4.032 2.54,4.032C2.136,4.032 1.418,3.224 1.329,2.82C1.24,2.416 1.604,1.608 2.008,1.608Z" style="fill:rgb(43,43,43);"/>
                        </g>
                        <g transform="matrix(0.16204,-0.942001,0.942001,0.16204,5.94047,25.5636)">
                            <path d="M2.008,1.608C2.411,1.608 3.663,2.416 3.752,2.82C3.841,3.224 2.944,4.032 2.54,4.032C2.136,4.032 1.418,3.224 1.329,2.82C1.24,2.416 1.604,1.608 2.008,1.608Z" style="fill:rgb(43,43,43);"/>
                        </g>
                        <g transform="matrix(0.0907528,-0.52758,0.52758,0.0907528,13.3524,11.3453)">
                            <path d="M2.008,1.608C2.411,1.608 3.663,2.416 3.752,2.82C3.841,3.224 2.944,4.032 2.54,4.032C2.136,4.032 1.418,3.224 1.329,2.82C1.24,2.416 1.604,1.608 2.008,1.608Z" style="fill:rgb(43,43,43);"/>
                        </g>
                        <g transform="matrix(0.0907528,-0.52758,0.52758,0.0907528,4.62998,5.35854)">
                            <path d="M2.008,1.608C2.411,1.608 3.663,2.416 3.752,2.82C3.841,3.224 2.944,4.032 2.54,4.032C2.136,4.032 1.418,3.224 1.329,2.82C1.24,2.416 1.604,1.608 2.008,1.608Z" style="fill:rgb(43,43,43);"/>
                        </g>
                        <g transform="matrix(0.0907528,-0.52758,0.52758,0.0907528,15.0176,3.89159)">
                            <path d="M2.008,1.608C2.411,1.608 3.663,2.416 3.752,2.82C3.841,3.224 2.944,4.032 2.54,4.032C2.136,4.032 1.418,3.224 1.329,2.82C1.24,2.416 1.604,1.608 2.008,1.608Z" style="fill:rgb(43,43,43);"/>
                        </g>
                        <g transform="matrix(0.532292,-0.0569408,0.0569408,0.532292,17.1602,9.93958)">
                            <path d="M2.008,1.608C2.411,1.608 3.663,2.416 3.752,2.82C3.841,3.224 2.944,4.032 2.54,4.032C2.136,4.032 1.418,3.224 1.329,2.82C1.24,2.416 1.604,1.608 2.008,1.608Z" style="fill:rgb(43,43,43);"/>
                        </g>
                        <g transform="matrix(0.532292,-0.0569408,0.0569408,0.532292,18.8254,2.48589)">
                            <path d="M2.008,1.608C2.411,1.608 3.663,2.416 3.752,2.82C3.841,3.224 2.944,4.032 2.54,4.032C2.136,4.032 1.418,3.224 1.329,2.82C1.24,2.416 1.604,1.608 2.008,1.608Z" style="fill:rgb(43,43,43);"/>
                        </g>
                        <g transform="matrix(0.532292,-0.0569408,0.0569408,0.532292,10.5223,13.2272)">
                            <path d="M2.008,1.608C2.411,1.608 3.663,2.416 3.752,2.82C3.841,3.224 2.944,4.032 2.54,4.032C2.136,4.032 1.418,3.224 1.329,2.82C1.24,2.416 1.604,1.608 2.008,1.608Z" style="fill:rgb(43,43,43);"/>
                        </g>
                        <g transform="matrix(0.532292,-0.0569408,0.0569408,0.532292,1.79993,7.24048)">
                            <path d="M2.008,1.608C2.411,1.608 3.663,2.416 3.752,2.82C3.841,3.224 2.944,4.032 2.54,4.032C2.136,4.032 1.418,3.224 1.329,2.82C1.24,2.416 1.604,1.608 2.008,1.608Z" style="fill:rgb(43,43,43);"/>
                        </g>
                        <g transform="matrix(0.532292,-0.0569408,0.0569408,0.532292,12.1875,5.77353)">
                            <path d="M2.008,1.608C2.411,1.608 3.663,2.416 3.752,2.82C3.841,3.224 2.944,4.032 2.54,4.032C2.136,4.032 1.418,3.224 1.329,2.82C1.24,2.416 1.604,1.608 2.008,1.608Z" style="fill:rgb(43,43,43);"/>
                        </g>
                        <g transform="matrix(0.532292,-0.0569408,0.0569408,0.532292,18.851,19.2702)">
                            <path d="M2.008,1.608C2.411,1.608 3.663,2.416 3.752,2.82C3.841,3.224 2.944,4.032 2.54,4.032C2.136,4.032 1.418,3.224 1.329,2.82C1.24,2.416 1.604,1.608 2.008,1.608Z" style="fill:rgb(43,43,43);"/>
                        </g>
                        <g transform="matrix(0.49304,0.208538,-0.208538,0.49304,0.708933,19.9069)">
                            <path d="M2.008,1.608C2.411,1.608 3.663,2.416 3.752,2.82C3.841,3.224 2.944,4.032 2.54,4.032C2.136,4.032 1.418,3.224 1.329,2.82C1.24,2.416 1.604,1.608 2.008,1.608Z" style="fill:rgb(43,43,43);"/>
                        </g>
                        <g transform="matrix(0.532292,-0.0569408,0.0569408,0.532292,15.5999,23.1556)">
                            <path d="M2.008,1.608C2.411,1.608 3.663,2.416 3.752,2.82C3.841,3.224 2.944,4.032 2.54,4.032C2.136,4.032 1.418,3.224 1.329,2.82C1.24,2.416 1.604,1.608 2.008,1.608Z" style="fill:rgb(43,43,43);"/>
                        </g>
                        <g transform="matrix(0.202949,-0.495367,0.495367,0.202949,12.7409,24.0071)">
                            <path d="M2.008,1.608C2.411,1.608 3.663,2.416 3.752,2.82C3.841,3.224 2.944,4.032 2.54,4.032C2.136,4.032 1.418,3.224 1.329,2.82C1.24,2.416 1.604,1.608 2.008,1.608Z" style="fill:rgb(43,43,43);"/>
                        </g>
                        <g transform="matrix(0.202949,-0.495367,0.495367,0.202949,9.72773,25.474)">
                            <path d="M2.008,1.608C2.411,1.608 3.663,2.416 3.752,2.82C3.841,3.224 2.944,4.032 2.54,4.032C2.136,4.032 1.418,3.224 1.329,2.82C1.24,2.416 1.604,1.608 2.008,1.608Z" style="fill:rgb(43,43,43);"/>
                        </g>
                        <g transform="matrix(-0.131264,-0.518986,0.518986,-0.131264,20.108,17.2724)">
                            <path d="M2.008,1.608C2.411,1.608 3.663,2.416 3.752,2.82C3.841,3.224 2.944,4.032 2.54,4.032C2.136,4.032 1.418,3.224 1.329,2.82C1.24,2.416 1.604,1.608 2.008,1.608Z" style="fill:rgb(43,43,43);"/>
                        </g>
                        <g transform="matrix(0.137097,-0.517476,0.517476,0.137097,2.77756,18.7702)">
                            <path d="M2.008,1.608C2.411,1.608 3.663,2.416 3.752,2.82C3.841,3.224 2.944,4.032 2.54,4.032C2.136,4.032 1.418,3.224 1.329,2.82C1.24,2.416 1.604,1.608 2.008,1.608Z" style="fill:rgb(43,43,43);"/>
                        </g>
                        <g transform="matrix(0.137097,-0.517476,0.517476,0.137097,2.02426,5.8848)">
                            <path d="M2.008,1.608C2.411,1.608 3.663,2.416 3.752,2.82C3.841,3.224 2.944,4.032 2.54,4.032C2.136,4.032 1.418,3.224 1.329,2.82C1.24,2.416 1.604,1.608 2.008,1.608Z" style="fill:rgb(43,43,43);"/>
                        </g>
                        <g transform="matrix(-0.131264,-0.518986,0.518986,-0.131264,11.3856,11.2856)">
                            <path d="M2.008,1.608C2.411,1.608 3.663,2.416 3.752,2.82C3.841,3.224 2.944,4.032 2.54,4.032C2.136,4.032 1.418,3.224 1.329,2.82C1.24,2.416 1.604,1.608 2.008,1.608Z" style="fill:rgb(43,43,43);"/>
                        </g>
                        <g transform="matrix(-0.131264,-0.518986,0.518986,-0.131264,5.35924,15.3693)">
                            <path d="M2.008,1.608C2.411,1.608 3.663,2.416 3.752,2.82C3.841,3.224 2.944,4.032 2.54,4.032C2.136,4.032 1.418,3.224 1.329,2.82C1.24,2.416 1.604,1.608 2.008,1.608Z" style="fill:rgb(43,43,43);"/>
                        </g>
                        <g transform="matrix(-0.131264,-0.518986,0.518986,-0.131264,3.93194,24.9243)">
                            <path d="M2.008,1.608C2.411,1.608 3.663,2.416 3.752,2.82C3.841,3.224 2.944,4.032 2.54,4.032C2.136,4.032 1.418,3.224 1.329,2.82C1.24,2.416 1.604,1.608 2.008,1.608Z" style="fill:rgb(43,43,43);"/>
                        </g>
                        <g transform="matrix(-0.131264,-0.518986,0.518986,-0.131264,21.7732,9.81869)">
                            <path d="M2.008,1.608C2.411,1.608 3.663,2.416 3.752,2.82C3.841,3.224 2.944,4.032 2.54,4.032C2.136,4.032 1.418,3.224 1.329,2.82C1.24,2.416 1.604,1.608 2.008,1.608Z" style="fill:rgb(43,43,43);"/>
                        </g>
                        <g transform="matrix(-0.131264,-0.518986,0.518986,-0.131264,23.2005,7.43985)">
                            <path d="M2.008,1.608C2.411,1.608 3.663,2.416 3.752,2.82C3.841,3.224 2.944,4.032 2.54,4.032C2.136,4.032 1.418,3.224 1.329,2.82C1.24,2.416 1.604,1.608 2.008,1.608Z" style="fill:rgb(43,43,43);"/>
                        </g>
                        <g transform="matrix(-0.131264,-0.518986,0.518986,-0.131264,10.3944,3.1183)">
                            <path d="M2.008,1.608C2.411,1.608 3.663,2.416 3.752,2.82C3.841,3.224 2.944,4.032 2.54,4.032C2.136,4.032 1.418,3.224 1.329,2.82C1.24,2.416 1.604,1.608 2.008,1.608Z" style="fill:rgb(43,43,43);"/>
                        </g>
                        <g transform="matrix(-0.131264,-0.518986,0.518986,-0.131264,6.74689,3.35618)">
                            <path d="M2.008,1.608C2.411,1.608 3.663,2.416 3.752,2.82C3.841,3.224 2.944,4.032 2.54,4.032C2.136,4.032 1.418,3.224 1.329,2.82C1.24,2.416 1.604,1.608 2.008,1.608Z" style="fill:rgb(43,43,43);"/>
                        </g>
                        <g transform="matrix(0.737198,1.03494,-1.03494,0.737198,25.0694,8.16278)">
                            <path d="M2.008,1.608C2.411,1.608 3.663,2.416 3.752,2.82C3.841,3.224 2.944,4.032 2.54,4.032C2.136,4.032 1.418,3.224 1.329,2.82C1.24,2.416 1.604,1.608 2.008,1.608Z" style="fill:rgb(43,43,43);"/>
                        </g>
                        <g transform="matrix(0.737198,1.03494,-1.03494,0.737198,13.4844,13.1725)">
                            <path d="M2.008,1.608C2.411,1.608 3.663,2.416 3.752,2.82C3.841,3.224 2.944,4.032 2.54,4.032C2.136,4.032 1.418,3.224 1.329,2.82C1.24,2.416 1.604,1.608 2.008,1.608Z" style="fill:rgb(43,43,43);"/>
                        </g>
                        <g transform="matrix(-0.508729,1.16437,-1.16437,-0.508729,21.5648,3.90306)">
                            <path d="M2.008,1.608C2.411,1.608 3.663,2.416 3.752,2.82C3.841,3.224 2.944,4.032 2.54,4.032C2.136,4.032 1.418,3.224 1.329,2.82C1.24,2.416 1.604,1.608 2.008,1.608Z" style="fill:rgb(43,43,43);"/>
                        </g>
                        <g transform="matrix(0.707107,-0.707107,0.707107,0.707107,18.3963,25.7444)">
                            <path d="M2.008,1.608C2.411,1.608 3.663,2.416 3.752,2.82C3.841,3.224 2.944,4.032 2.54,4.032C2.136,4.032 1.418,3.224 1.329,2.82C1.24,2.416 1.604,1.608 2.008,1.608Z" style="fill:rgb(43,43,43);"/>
                        </g>
                        <g transform="matrix(0.866025,0.5,-0.5,0.866025,13.5172,22.2342)">
                            <path d="M2.008,1.608C2.411,1.608 3.663,2.416 3.752,2.82C3.841,3.224 2.944,4.032 2.54,4.032C2.136,4.032 1.418,3.224 1.329,2.82C1.24,2.416 1.604,1.608 2.008,1.608Z" style="fill:rgb(43,43,43);"/>
                        </g>
                        <g transform="matrix(-0.258819,-0.965926,0.965926,-0.258819,2.42408,29.1247)">
                            <path d="M2.008,1.608C2.411,1.608 3.663,2.416 3.752,2.82C3.841,3.224 2.944,4.032 2.54,4.032C2.136,4.032 1.418,3.224 1.329,2.82C1.24,2.416 1.604,1.608 2.008,1.608Z" style="fill:rgb(43,43,43);"/>
                        </g>
                        <g transform="matrix(0.866025,0.5,-0.5,0.866025,25.2131,12.3689)">
                            <path d="M2.008,1.608C2.411,1.608 3.663,2.416 3.752,2.82C3.841,3.224 2.944,4.032 2.54,4.032C2.136,4.032 1.418,3.224 1.329,2.82C1.24,2.416 1.604,1.608 2.008,1.608Z" style="fill:rgb(43,43,43);"/>
                        </g>
                    </g>
                    <g>
                        <g transform="matrix(6.12323e-17,-1,1,6.12323e-17,-2.81989,26.3968)">
                            <path d="M2.008,1.608C2.411,1.608 3.663,2.416 3.752,2.82C3.841,3.224 2.944,4.032 2.54,4.032C2.136,4.032 1.418,3.224 1.329,2.82C1.24,2.416 1.604,1.608 2.008,1.608Z" style="fill:rgb(43,43,43);"/>
                        </g>
                        <g transform="matrix(6.12323e-17,-1,1,6.12323e-17,23.1801,26.3968)">
                            <path d="M2.008,1.608C2.411,1.608 3.663,2.416 3.752,2.82C3.841,3.224 2.944,4.032 2.54,4.032C2.136,4.032 1.418,3.224 1.329,2.82C1.24,2.416 1.604,1.608 2.008,1.608Z" style="fill:rgb(43,43,43);"/>
                        </g>
                        <g transform="matrix(1.26782,-0.0848183,0.0848183,1.26782,4.85915,16.4836)">
                            <path d="M2.008,1.608C2.411,1.608 3.663,2.416 3.752,2.82C3.841,3.224 2.944,4.032 2.54,4.032C2.136,4.032 1.418,3.224 1.329,2.82C1.24,2.416 1.604,1.608 2.008,1.608Z" style="fill:rgb(43,43,43);"/>
                        </g>
                        <g transform="matrix(-0.0303026,-0.721314,0.721314,-0.0303026,16.3087,3.14724)">
                            <path d="M2.008,1.608C2.411,1.608 3.663,2.416 3.752,2.82C3.841,3.224 2.944,4.032 2.54,4.032C2.136,4.032 1.418,3.224 1.329,2.82C1.24,2.416 1.604,1.608 2.008,1.608Z" style="fill:rgb(43,43,43);"/>
                        </g>
                        <g transform="matrix(-0.0401196,-0.954994,0.954994,-0.0401196,0.681568,14.1751)">
                            <path d="M2.008,1.608C2.411,1.608 3.663,2.416 3.752,2.82C3.841,3.224 2.944,4.032 2.54,4.032C2.136,4.032 1.418,3.224 1.329,2.82C1.24,2.416 1.604,1.608 2.008,1.608Z" style="fill:rgb(43,43,43);"/>
                        </g>
                        <g transform="matrix(-0.0401196,-0.954994,0.954994,-0.0401196,18.1264,9.02099)">
                            <path d="M2.008,1.608C2.411,1.608 3.663,2.416 3.752,2.82C3.841,3.224 2.944,4.032 2.54,4.032C2.136,4.032 1.418,3.224 1.329,2.82C1.24,2.416 1.604,1.608 2.008,1.608Z" style="fill:rgb(43,43,43);"/>
                        </g>
                        <g transform="matrix(0.954867,-0.0430477,0.0430477,0.954867,16.0391,19.6843)">
                            <path d="M2.008,1.608C2.411,1.608 3.663,2.416 3.752,2.82C3.841,3.224 2.944,4.032 2.54,4.032C2.136,4.032 1.418,3.224 1.329,2.82C1.24,2.416 1.604,1.608 2.008,1.608Z" style="fill:rgb(43,43,43);"/>
                        </g>
                        <g transform="matrix(0.532292,-0.0569408,0.0569408,0.532292,8.43782,3.95284)">
                            <path d="M2.008,1.608C2.411,1.608 3.663,2.416 3.752,2.82C3.841,3.224 2.944,4.032 2.54,4.032C2.136,4.032 1.418,3.224 1.329,2.82C1.24,2.416 1.604,1.608 2.008,1.608Z" style="fill:rgb(43,43,43);"/>
                        </g>
                        <g transform="matrix(-0.508729,1.16437,-1.16437,-0.508729,19.8996,11.3568)">
                            <path d="M2.008,1.608C2.411,1.608 3.663,2.416 3.752,2.82C3.841,3.224 2.944,4.032 2.54,4.032C2.136,4.032 1.418,3.224 1.329,2.82C1.24,2.416 1.604,1.608 2.008,1.608Z" style="fill:rgb(43,43,43);"/>
                        </g>
                        <g transform="matrix(-0.508729,1.16437,-1.16437,-0.508729,11.1772,5.37001)">
                            <path d="M2.008,1.608C2.411,1.608 3.663,2.416 3.752,2.82C3.841,3.224 2.944,4.032 2.54,4.032C2.136,4.032 1.418,3.224 1.329,2.82C1.24,2.416 1.604,1.608 2.008,1.608Z" style="fill:rgb(43,43,43);"/>
                        </g>
                    </g>
                </g>
            </g>
        </g>
    </g>
</svg>
