<?xml version="1.0" encoding="UTF-8" standalone="no"?>
<!DOCTYPE svg PUBLIC "-//W3C//DTD SVG 1.1//EN" "http://www.w3.org/Graphics/SVG/1.1/DTD/svg11.dtd">
<svg width="100%" height="100%" viewBox="0 0 26 26" version="1.1" xmlns="http://www.w3.org/2000/svg" xmlns:xlink="http://www.w3.org/1999/xlink" xml:space="preserve" xmlns:serif="http://www.serif.com/" style="fill-rule:evenodd;clip-rule:evenodd;stroke-linejoin:round;stroke-miterlimit:2;">
    <path d="M5.98,23.922C6.347,24.159 6.776,24.298 7.233,24.301L8.894,24.301L8.894,25C8.894,25.552 8.445,26 7.894,26L6.98,26C6.428,26 5.98,25.552 5.98,25L5.98,23.922ZM19.87,24.078L19.87,25.286C19.87,25.677 19.527,25.998 19.108,26L17.717,26C17.297,25.997 16.954,25.674 16.956,25.282L16.956,24.301L18.884,24.301C19.227,24.301 19.562,24.223 19.87,24.078ZM5.192,9.316L5.192,9.312C5.19,8.145 5.619,7.024 6.384,6.193C7.145,5.367 8.185,4.902 9.269,4.901L16.844,4.901C19.093,4.916 20.933,6.906 20.922,9.312L20.922,9.33L21.988,9.33C22.382,9.357 22.682,9.68 22.654,10.047L22.654,13.634C22.683,14.001 22.382,14.325 21.988,14.352L20.922,14.352L20.922,21.286C20.922,21.951 20.676,22.591 20.239,23.065C19.804,23.537 19.209,23.803 18.59,23.803L7.521,23.803C6.236,23.795 5.184,22.657 5.192,21.282L5.192,14.338L4.014,14.338C3.62,14.311 3.321,13.987 3.349,13.621L3.349,10.033C3.321,9.666 3.62,9.343 4.014,9.316L5.192,9.316ZM18.386,19.685C19.143,19.685 19.757,20.264 19.757,20.977C19.757,21.69 19.143,22.269 18.386,22.269C17.629,22.269 17.015,21.69 17.015,20.977C17.015,20.264 17.629,19.685 18.386,19.685ZM7.727,19.685C8.483,19.685 9.098,20.264 9.098,20.977C9.098,21.69 8.483,22.269 7.727,22.269C6.97,22.269 6.355,21.69 6.355,20.977C6.355,20.264 6.97,19.685 7.727,19.685ZM19.064,10.31C19.064,9.207 18.167,8.311 17.063,8.311L9.05,8.311C7.946,8.311 7.05,9.207 7.05,10.31L7.05,14.564C7.05,15.667 7.946,16.563 9.05,16.563L17.063,16.563C18.167,16.563 19.064,15.667 19.064,14.564L19.064,10.31ZM16.261,6.914C16.261,6.474 15.904,6.116 15.465,6.116L10.648,6.116C10.208,6.116 9.851,6.474 9.851,6.914L9.851,6.965C9.851,7.405 10.208,7.762 10.648,7.762L15.465,7.762C15.904,7.762 16.261,7.405 16.261,6.965L16.261,6.914Z" style="fill:white;"/>
</svg>
