<?xml version="1.0" encoding="UTF-8" standalone="no"?>
<!DOCTYPE svg PUBLIC "-//W3C//DTD SVG 1.1//EN" "http://www.w3.org/Graphics/SVG/1.1/DTD/svg11.dtd">
<svg width="100%" height="100%" viewBox="0 0 32 32" version="1.1" xmlns="http://www.w3.org/2000/svg" xmlns:xlink="http://www.w3.org/1999/xlink" xml:space="preserve" xmlns:serif="http://www.serif.com/" style="fill-rule:evenodd;clip-rule:evenodd;stroke-linejoin:round;stroke-miterlimit:2;">
    <g transform="matrix(-1.23077,0,0,1.23077,32,0)">
        <g id="b">
            <g id="Bus-Tram-Front" serif:id="Bus Tram Front">
                <g id="Tram-Front" serif:id="Tram Front" transform="matrix(-0.947181,0,0,0.974443,25.312,0)">
                    <g transform="matrix(0.19624,0.0111483,-0.0115395,0.300046,15.2849,8.89525)">
                        <path d="M24.944,48.952C24.944,48.12 24.268,47.443 23.435,47.443L20.417,47.443C19.584,47.443 18.907,48.12 18.907,48.952L18.907,54.701C18.907,55.534 19.587,56.266 20.42,56.266L23.432,56.154C24.265,56.154 24.944,55.534 24.944,54.701L24.944,48.952Z" style="fill:rgb(90,70,59);"/>
                    </g>
                    <g transform="matrix(-0.196555,0.0111483,0.011558,0.300046,10.7079,8.89525)">
                        <path d="M24.944,48.952C24.944,48.12 24.268,47.443 23.435,47.443L20.417,47.443C19.584,47.443 18.907,48.12 18.907,48.952L18.907,54.701C18.907,55.534 19.587,56.266 20.42,56.266L23.432,56.154C24.265,56.154 24.944,55.534 24.944,54.701L24.944,48.952Z" style="fill:rgb(90,70,59);"/>
                    </g>
                    <g transform="matrix(1,0,0,1.0553,3.5,4)">
                        <path d="M3,0L16,0C17.646,-0 18.228,1.728 18.546,3C19.112,5.262 19.635,10.739 19.397,13.572C19.207,15.837 17.613,20 17.121,20L1.879,20C1.387,20 -0.207,15.837 -0.397,13.572C-0.635,10.739 -0.112,5.262 0.454,3C0.772,1.728 1.354,0 3,0Z" style="fill:rgb(179,85,255);fill-rule:nonzero;"/>
                    </g>
                    <g transform="matrix(0.895352,0,0,0.656444,4.49416,5.35957)">
                        <path d="M3,0L16,0C17.646,-0 18.228,1.728 18.546,3C19.112,5.262 19.518,10.739 19.397,13.572C19.303,15.776 18.355,20 17.818,20L1.182,20C0.645,20 -0.303,15.776 -0.397,13.572C-0.518,10.739 -0.112,5.262 0.454,3C0.772,1.728 1.354,0 3,0Z" style="fill:rgb(195,231,255);fill-rule:nonzero;"/>
                    </g>
                    <g transform="matrix(1,0,0,1,-0.142948,0)">
                        <g transform="matrix(0.690594,-0.752589,0.617205,0.566363,15.7167,21.907)">
                            <path d="M6.462,2.59C6.166,1.9 4.017,0.521 2.945,0.353C1.905,0.189 0.611,1.017 0.033,1.578C-0.496,2.093 -1.021,3.183 -0.523,3.723C-0.025,4.262 2.145,4.688 3.019,4.816C3.59,4.9 4.236,4.804 4.72,4.491C5.294,4.119 6.758,3.279 6.462,2.59Z" style="fill:rgb(90,90,90);"/>
                        </g>
                        <g transform="matrix(0.331967,0,0,0.331967,14.6209,13.0798)">
                            <path d="M19.256,17.954C20.155,17.876 20.961,18.547 21.047,19.446C21.092,20.328 20.413,21.095 19.531,21.157C19.517,21.158 19.504,21.159 19.49,21.16C18.59,21.238 17.784,20.566 17.698,19.668C17.653,18.785 18.332,18.018 19.214,17.956C19.228,17.955 19.242,17.954 19.256,17.954Z" style="fill:rgb(232,171,115);fill-rule:nonzero;"/>
                        </g>
                        <g transform="matrix(0.74701,0,0,0.74701,4.77863,6.37248)">
                            <path d="M19.256,17.954C20.155,17.876 20.961,18.547 21.047,19.446C21.092,20.328 20.413,21.095 19.531,21.157C19.517,21.158 19.504,21.159 19.49,21.16C18.59,21.238 17.784,20.566 17.698,19.668C17.653,18.785 18.332,18.018 19.214,17.956C19.228,17.955 19.242,17.954 19.256,17.954Z" style="fill:white;fill-rule:nonzero;"/>
                        </g>
                        <g transform="matrix(0.461462,0,0,0.461462,9.05823,14.151)">
                            <path d="M19.256,17.954C20.155,17.876 20.961,18.547 21.047,19.446C21.092,20.328 20.413,21.095 19.531,21.157C19.517,21.158 19.504,21.159 19.49,21.16C18.59,21.238 17.784,20.566 17.698,19.668C17.653,18.785 18.332,18.018 19.214,17.956C19.228,17.955 19.242,17.954 19.256,17.954Z" style="fill:rgb(193,117,98);fill-rule:nonzero;"/>
                        </g>
                    </g>
                    <g transform="matrix(-1,0,0,1,26.1429,0)">
                        <g transform="matrix(0.690594,-0.752589,0.617205,0.566363,15.7167,21.907)">
                            <path d="M6.462,2.59C6.166,1.9 4.017,0.521 2.945,0.353C1.905,0.189 0.611,1.017 0.033,1.578C-0.496,2.093 -1.021,3.183 -0.523,3.723C-0.025,4.262 2.145,4.688 3.019,4.816C3.59,4.9 4.236,4.804 4.72,4.491C5.294,4.119 6.758,3.279 6.462,2.59Z" style="fill:rgb(90,90,90);"/>
                        </g>
                        <g transform="matrix(0.331967,0,0,0.331967,14.6209,13.0798)">
                            <path d="M19.256,17.954C20.155,17.876 20.961,18.547 21.047,19.446C21.092,20.328 20.413,21.095 19.531,21.157C19.517,21.158 19.504,21.159 19.49,21.16C18.59,21.238 17.784,20.566 17.698,19.668C17.653,18.785 18.332,18.018 19.214,17.956C19.228,17.955 19.242,17.954 19.256,17.954Z" style="fill:rgb(232,171,115);fill-rule:nonzero;"/>
                        </g>
                        <g transform="matrix(0.74701,0,0,0.74701,4.77863,6.37248)">
                            <path d="M19.256,17.954C20.155,17.876 20.961,18.547 21.047,19.446C21.092,20.328 20.413,21.095 19.531,21.157C19.517,21.158 19.504,21.159 19.49,21.16C18.59,21.238 17.784,20.566 17.698,19.668C17.653,18.785 18.332,18.018 19.214,17.956C19.228,17.955 19.242,17.954 19.256,17.954Z" style="fill:white;fill-rule:nonzero;"/>
                        </g>
                        <g transform="matrix(0.461462,0,0,0.461462,9.05823,14.151)">
                            <path d="M19.256,17.954C20.155,17.876 20.961,18.547 21.047,19.446C21.092,20.328 20.413,21.095 19.531,21.157C19.517,21.158 19.504,21.159 19.49,21.16C18.59,21.238 17.784,20.566 17.698,19.668C17.653,18.785 18.332,18.018 19.214,17.956C19.228,17.955 19.242,17.954 19.256,17.954Z" style="fill:rgb(193,117,98);fill-rule:nonzero;"/>
                        </g>
                    </g>
                    <g transform="matrix(1,0,0,1,9.5,6)">
                        <path d="M9,0L0,0L9,0Z" style="fill:rgb(243,225,149);"/>
                    </g>
                    <g transform="matrix(1,0,0,1,7.5,0)">
                        <rect x="0" y="0" width="11" height="2" style="fill:rgb(111,108,108);"/>
                    </g>
                    <g transform="matrix(1,0,0,1,9.5,1)">
                        <rect x="0" y="0" width="2" height="3" style="fill:rgb(111,108,108);"/>
                    </g>
                    <g>
                        <g transform="matrix(0.519455,0,0,1,9.09999,-3.64589e-15)">
                            <g transform="matrix(1.73982,0,0,0.224511,17.2205,26.0084)">
                                <rect x="0" y="0" width="2" height="62.422" style="fill:rgb(105,105,105);"/>
                            </g>
                            <g transform="matrix(0.668485,0,0,0.306536,20.0316,25.7623)">
                                <rect x="0" y="0" width="2" height="46.522" style="fill:rgb(140,140,140);"/>
                            </g>
                            <g transform="matrix(0.668485,0,0,0.306536,16.552,25.7623)">
                                <rect x="0" y="0" width="2" height="46.522" style="fill:rgb(140,140,140);"/>
                            </g>
                        </g>
                        <g transform="matrix(0.520289,0,0,1,-2.81663,-3.64589e-15)">
                            <g transform="matrix(1.73982,0,0,0.224511,17.2205,26.0084)">
                                <rect x="0" y="0" width="2" height="62.422" style="fill:rgb(105,105,105);"/>
                            </g>
                            <g transform="matrix(0.668485,0,0,0.306536,20.0316,25.7623)">
                                <rect x="0" y="0" width="2" height="46.522" style="fill:rgb(140,140,140);"/>
                            </g>
                            <g transform="matrix(0.668485,0,0,0.306536,16.552,25.7623)">
                                <rect x="0" y="0" width="2" height="46.522" style="fill:rgb(140,140,140);"/>
                            </g>
                        </g>
                    </g>
                    <g transform="matrix(1,0,0,1,9.5,1)">
                        <rect x="0" y="0" width="2" height="3" style="fill:rgb(111,108,108);"/>
                    </g>
                    <g transform="matrix(1,0,0,1,14.5,1)">
                        <rect x="0" y="0" width="2" height="3" style="fill:rgb(111,108,108);"/>
                    </g>
                </g>
                <g transform="matrix(1.10942,0,0,1.03283,8.53464,7.34712)">
                    <g id="Bus-Front" serif:id="Bus Front">
                        <g>
                            <g>
                                <g transform="matrix(-1,-7.65714e-16,7.65714e-16,-1,13.2315,18.06)">
                                    <path d="M0.687,0L1.94,0C2.319,0.003 2.628,0.316 2.626,0.695L2.626,3.024C2.628,3.402 2.318,3.715 1.94,3.718L0.687,3.718C0.308,3.716 -0.002,3.403 0,3.024L0,0.695C-0,0.694 -0,0.692 -0,0.691C-0,0.313 0.309,0.002 0.687,0Z" style="fill:rgb(170,187,192);fill-rule:nonzero;"/>
                                </g>
                                <g transform="matrix(1,0,0,1,0.711818,14.342)">
                                    <rect x="0" y="0" width="2.626" height="3.718" style="fill:rgb(170,187,192);"/>
                                </g>
                                <g transform="matrix(0.901371,0,0,0.968215,-2.18408,-7.11359)">
                                    <path d="M2.424,9.316L2.424,9.312C2.423,8.145 2.851,7.024 3.617,6.193C4.378,5.367 5.417,4.902 6.501,4.901L14.076,4.901C16.326,4.916 18.166,6.906 18.155,9.312L18.155,9.33L19.221,9.33C19.614,9.358 19.914,9.681 19.887,10.047L19.887,13.634C19.915,14.001 19.615,14.325 19.221,14.352L18.155,14.352L18.155,21.286C18.154,21.952 17.909,22.591 17.471,23.065C17.036,23.537 16.442,23.803 15.823,23.803L4.754,23.803C3.468,23.795 2.417,22.657 2.424,21.282L2.424,14.337L1.247,14.337C0.853,14.31 0.553,13.987 0.581,13.621L0.581,10.033C0.553,9.666 0.853,9.343 1.247,9.316L2.424,9.316Z" style="fill:rgb(0,198,199);fill-rule:nonzero;"/>
                                </g>
                                <g transform="matrix(1,0,0,1,1.676,0.933166)">
                                    <rect x="0" y="0" width="10.829" height="7.99" style="fill:rgb(97,129,156);"/>
                                </g>
                                <g transform="matrix(1,0,0,1,4.201,-1.19183)">
                                    <rect x="0" y="0" width="5.778" height="1.594" style="fill:rgb(243,225,149);"/>
                                </g>
                            </g>
                            <g transform="matrix(1,0,0,1,10.658,11.946)">
                                <ellipse cx="1.236" cy="1.251" rx="1.236" ry="1.251" style="fill:white;"/>
                            </g>
                            <g transform="matrix(1,0,0,1,1.05,11.946)">
                                <ellipse cx="1.236" cy="1.251" rx="1.236" ry="1.251" style="fill:white;"/>
                            </g>
                        </g>
                    </g>
                </g>
            </g>
        </g>
    </g>
</svg>
