<?xml version="1.0" encoding="UTF-8" standalone="no"?>
<!DOCTYPE svg PUBLIC "-//W3C//DTD SVG 1.1//EN" "http://www.w3.org/Graphics/SVG/1.1/DTD/svg11.dtd">
<svg width="100%" height="100%" viewBox="0 0 26 26" version="1.1" xmlns="http://www.w3.org/2000/svg" xmlns:xlink="http://www.w3.org/1999/xlink" xml:space="preserve" xmlns:serif="http://www.serif.com/" style="fill-rule:evenodd;clip-rule:evenodd;stroke-linejoin:round;stroke-miterlimit:2;">
    <g transform="matrix(2.34634,0,0,3.36914,-6.33122,-65.0287)">
        <g id="b">
            <g id="Grass-Option" serif:id="Grass Option">
                <path d="M13.201,24.915C13.201,24.915 12.781,24.991 12.751,24.915C12.664,24.694 12.591,24.392 12.531,24.11C12.44,23.689 12.715,23.274 12.666,23.287C12.593,23.307 12.216,23.727 12.182,24.11C12.147,24.511 12.115,24.915 12.051,24.915C12.004,24.915 12.019,24.508 12.041,24.046C12.07,23.437 12.388,22.726 12.326,22.726C12.263,22.726 11.821,23.437 11.671,24.046C11.556,24.508 11.452,24.915 11.411,24.915C11.373,24.915 11.275,24.591 11.174,24.252C11.062,23.875 10.777,23.479 10.735,23.479C10.688,23.479 10.885,23.875 10.908,24.252C10.929,24.591 10.947,24.915 10.904,24.915C10.855,24.915 10.798,24.602 10.735,24.252C10.655,23.801 10.073,22.979 9.98,22.979C9.862,22.979 10.231,23.7 10.11,24.11C9.992,24.514 9.877,24.915 9.775,24.915C9.702,24.915 9.551,24.531 9.409,24.195C9.299,23.934 9.466,23.649 9.409,23.649C9.318,23.649 9.011,23.969 8.978,24.252C8.941,24.572 8.908,24.915 8.804,24.915C8.753,24.915 8.676,24.514 8.596,24.11C8.514,23.7 7.999,23.216 7.935,23.216C7.85,23.216 8.214,23.7 8.149,24.11C8.084,24.514 8.019,24.915 7.935,24.915C7.851,24.915 7.74,24.39 7.633,23.833C7.512,23.199 7.923,22.521 7.858,22.521C7.745,22.521 7.17,23.196 7.103,23.833C7.049,24.331 6.984,24.805 6.866,24.915C6.81,24.967 6.742,24.58 6.666,24.195C6.597,23.84 6.861,23.485 6.782,23.479C6.66,23.469 6.192,23.832 6.067,24.195C5.943,24.555 5.824,24.915 5.72,24.915C5.658,24.915 5.606,24.514 5.552,24.11C5.497,23.7 5.22,23.287 5.153,23.287C5.045,23.287 5.147,23.7 5.036,24.11C4.927,24.514 4.826,24.915 4.75,24.915C4.726,24.915 4.81,24.344 4.897,23.76C4.988,23.148 5.465,22.652 5.44,22.652C5.377,22.652 4.812,23.148 4.633,23.76C4.462,24.344 4.294,24.915 4.234,24.915C4.19,24.915 4.078,24.555 3.958,24.195C3.839,23.837 3.43,23.479 3.352,23.479C3.316,23.479 3.617,23.875 3.635,24.252C3.651,24.591 3.665,24.915 3.633,24.915L3.213,24.915L3.213,25.239C3.213,25.369 3.287,25.494 3.42,25.586C3.552,25.678 3.731,25.73 3.919,25.73C5.753,25.73 10.661,25.73 12.495,25.73C12.683,25.73 12.862,25.678 12.994,25.586C13.127,25.494 13.201,25.369 13.201,25.239C13.201,25.066 13.201,24.915 13.201,24.915Z" style="fill:white;"/>
            </g>
        </g>
    </g>
</svg>
