<?xml version="1.0" encoding="UTF-8" standalone="no"?>
<!DOCTYPE svg PUBLIC "-//W3C//DTD SVG 1.1//EN" "http://www.w3.org/Graphics/SVG/1.1/DTD/svg11.dtd">
<svg width="100%" height="100%" viewBox="0 0 26 26" version="1.1" xmlns="http://www.w3.org/2000/svg" xmlns:xlink="http://www.w3.org/1999/xlink" xml:space="preserve" xmlns:serif="http://www.serif.com/" style="fill-rule:evenodd;clip-rule:evenodd;stroke-linejoin:round;stroke-miterlimit:2;">
    <g id="b">
        <g id="Grass-Median" serif:id="Grass Median">
            <g transform="matrix(0.8,0,0,1,2.6,-0.690176)">
                <path d="M26,25.482C26,25.164 25.842,24.859 25.561,24.634C25.279,24.409 24.898,24.282 24.5,24.282C19.91,24.282 6.09,24.282 1.5,24.282C1.102,24.282 0.721,24.409 0.439,24.634C0.158,24.859 -0,25.164 -0,25.482C0,25.772 0,26.69 0,26.69L26,26.69L26,25.482Z" style="fill:rgb(160,160,160);"/>
            </g>
            <g transform="matrix(-0.845328,0,0,1,23.7883,-0.690176)">
                <path d="M22.3,24.282C22.3,24.282 21.853,24.412 21.835,24.282C21.72,23.418 21.644,21.037 21.581,21.225C21.509,21.437 21.453,24.282 21.37,24.282C21.201,24.282 20.871,24.458 20.819,24.282C20.63,23.645 20.407,20.459 20.234,20.459C20.061,20.459 20.002,24.033 19.781,24.282C19.672,24.405 19.478,21.677 19.297,21.64C19.157,21.612 19.033,24.282 18.905,24.282C18.809,24.282 18.706,21.225 18.602,21.225C18.389,21.225 18.175,24.282 18.018,24.282C17.911,24.282 17.85,21.64 17.743,21.64C17.679,21.64 17.569,24.282 17.505,24.282C17.457,24.282 17.204,20.459 17.154,20.459C17.014,20.459 17.072,24.282 16.931,24.282C16.795,24.282 16.638,21.64 16.478,21.64C16.375,21.64 16.272,24.282 16.173,24.282C16.058,24.282 16.306,20.938 16.173,20.938C15.995,20.938 15.436,24.282 15.299,24.282C15.215,24.282 15.062,21.225 14.978,21.225C14.878,21.225 14.846,24.282 14.745,24.282C14.644,24.282 14.325,20.21 14.205,20.21C14.07,20.21 14.133,24.282 14.002,24.282C13.827,24.282 13.896,20.938 13.691,20.938C13.56,20.938 13.156,24.282 13.029,24.282C12.939,24.282 12.781,24.358 12.751,24.282C12.534,23.733 12.407,21.243 12.326,21.265C12.177,21.307 12.177,24.282 12.051,24.282C11.944,24.282 12.16,20.67 12.051,20.67C11.941,20.67 11.506,24.282 11.411,24.282C11.332,24.282 10.984,21.417 10.904,21.417C10.815,21.417 10.994,24.282 10.904,24.282C10.792,24.282 10.639,21.225 10.473,21.225C10.239,21.225 9.98,24.282 9.775,24.282C9.646,24.282 9.268,21.64 9.139,21.64C8.944,21.64 8.999,24.282 8.804,24.282C8.702,24.282 8.492,21.225 8.365,21.225C8.196,21.225 8.105,24.282 7.935,24.282C7.755,24.282 7.453,20.459 7.331,20.459C7.131,20.459 7.135,24.033 6.866,24.282C6.757,24.383 6.606,21.43 6.442,21.417C6.2,21.398 5.929,24.282 5.72,24.282C5.596,24.282 5.507,21.225 5.374,21.225C5.159,21.225 4.903,24.282 4.75,24.282C4.701,24.282 5.106,20.459 5.057,20.459C4.934,20.459 4.357,24.282 4.234,24.282C4.146,24.282 3.789,21.417 3.633,21.417C3.563,21.417 3.701,24.282 3.633,24.282L3.213,24.282L3.213,26.69L22.3,26.69L22.3,24.282Z" style="fill:rgb(121,221,44);"/>
            </g>
            <g transform="matrix(0.845328,0,0,1,2.22147,-0.690176)">
                <path d="M22.3,24.282C22.3,24.282 21.853,24.412 21.835,24.282C21.72,23.418 21.644,22.467 21.581,22.655C21.509,22.867 21.453,24.282 21.37,24.282C21.201,24.282 20.898,24.448 20.819,24.282C20.63,23.883 20.407,21.889 20.234,21.889C20.061,21.889 20.002,24.033 19.781,24.282C19.672,24.405 19.478,23.107 19.297,23.07C19.157,23.041 19.033,24.282 18.905,24.282C18.809,24.282 18.706,22.655 18.602,22.655C18.389,22.655 18.175,24.282 18.018,24.282C17.911,24.282 17.85,23.07 17.743,23.07C17.679,23.07 17.569,24.282 17.505,24.282C17.457,24.282 17.204,21.889 17.154,21.889C17.014,21.889 17.072,24.282 16.931,24.282C16.795,24.282 16.638,23.07 16.478,23.07C16.375,23.07 16.272,24.282 16.173,24.282C16.058,24.282 16.306,22.368 16.173,22.368C15.995,22.368 15.436,24.282 15.299,24.282C15.215,24.282 15.062,22.655 14.978,22.655C14.878,22.655 14.846,24.282 14.745,24.282C14.644,24.282 14.325,21.64 14.205,21.64C14.07,21.64 14.133,24.282 14.002,24.282C13.827,24.282 13.896,22.368 13.691,22.368C13.56,22.368 13.156,24.282 13.029,24.282C12.939,24.282 12.781,24.358 12.751,24.282C12.534,23.733 12.407,22.673 12.326,22.695C12.177,22.736 12.177,24.282 12.051,24.282C11.944,24.282 12.16,22.1 12.051,22.1C11.941,22.1 11.506,24.282 11.411,24.282C11.332,24.282 10.984,22.846 10.904,22.846C10.815,22.846 10.994,24.282 10.904,24.282C10.792,24.282 10.639,22.655 10.473,22.655C10.239,22.655 9.98,24.282 9.775,24.282C9.646,24.282 9.268,23.07 9.139,23.07C8.944,23.07 8.999,24.282 8.804,24.282C8.702,24.282 8.492,22.655 8.365,22.655C8.196,22.655 8.105,24.282 7.935,24.282C7.755,24.282 7.453,21.889 7.331,21.889C7.131,21.889 7.135,24.033 6.866,24.282C6.757,24.383 6.606,22.859 6.442,22.846C6.2,22.827 5.929,24.282 5.72,24.282C5.596,24.282 5.507,22.655 5.374,22.655C5.159,22.655 4.903,24.282 4.75,24.282C4.701,24.282 5.106,21.889 5.057,21.889C4.934,21.889 4.357,24.282 4.234,24.282C4.146,24.282 3.789,22.846 3.633,22.846C3.563,22.846 3.701,24.282 3.633,24.282L3.213,24.282L3.213,26.69L22.3,26.69L22.3,24.282Z" style="fill:rgb(50,122,39);"/>
            </g>
        </g>
    </g>
</svg>
