<?xml version="1.0" encoding="UTF-8" standalone="no"?>
<!DOCTYPE svg PUBLIC "-//W3C//DTD SVG 1.1//EN" "http://www.w3.org/Graphics/SVG/1.1/DTD/svg11.dtd">
<svg width="100%" height="100%" viewBox="0 0 26 26" version="1.1" xmlns="http://www.w3.org/2000/svg" xmlns:xlink="http://www.w3.org/1999/xlink" xml:space="preserve" xmlns:serif="http://www.serif.com/" style="fill-rule:evenodd;clip-rule:evenodd;stroke-linejoin:round;stroke-miterlimit:2;">
    <g id="b">
        <g>
            <path d="M8.603,16.636L8.603,19.616L14.198,24.368L16.059,23.146L8.603,16.636ZM11.168,14.841L9.102,16.188L16.643,22.762L18.696,21.414L11.168,14.841ZM14.19,12.871L12.186,14.178L19.716,20.743L19.606,20.816L21.74,19.414L14.19,12.871ZM16.936,11.081L14.735,12.515L22.245,19.082L24.574,17.553L16.936,11.081ZM5.515,13.939L2.944,11.694L0.879,13.056L5.515,16.993L5.515,13.939ZM5.515,13.061L5.515,11.766C5.515,11.43 5.68,11.133 5.935,10.951L5.935,10.36L5.994,10.324L5.576,9.959L3.515,11.318L5.515,13.061ZM9.071,8.435L8.56,7.991L6.584,9.294L7.033,9.686L9.071,8.435ZM11.821,6.747L11.22,6.237L9.131,7.615L9.657,8.075L11.821,6.747Z" style="fill:white;fill-rule:nonzero;"/>
            <g transform="matrix(1.12416,0,0,0.886997,-1139.3,221.295)">
                <path d="M1020.48,-232.233L1031.6,-241.418L1031.6,-245.722L1020.48,-237.047L1020.48,-232.233M1019.48,-230.109L1019.48,-237.535L1032.6,-247.771L1032.6,-240.947L1019.48,-230.109Z" style="fill:white;fill-rule:nonzero;"/>
            </g>
            <path d="M20.549,8.678L18.3,10.144L18.3,11.96C18.3,12.512 18.749,12.96 19.3,12.96L19.549,12.96C20.101,12.96 20.549,12.512 20.549,11.96L20.549,8.678Z" style="fill:white;"/>
            <path d="M6.479,17.976L6.479,11.295C6.156,11.461 5.935,11.798 5.935,12.186L5.935,19.943C5.935,20.495 6.383,20.943 6.935,20.943L7.183,20.943C7.735,20.943 8.183,20.495 8.183,19.943L8.183,16.769L6.479,17.976Z" style="fill:white;"/>
        </g>
    </g>
</svg>
