<?xml version="1.0" encoding="UTF-8" standalone="no"?>
<!DOCTYPE svg PUBLIC "-//W3C//DTD SVG 1.1//EN" "http://www.w3.org/Graphics/SVG/1.1/DTD/svg11.dtd">
<svg width="100%" height="100%" viewBox="0 0 26 26" version="1.1" xmlns="http://www.w3.org/2000/svg" xmlns:xlink="http://www.w3.org/1999/xlink" xml:space="preserve" xmlns:serif="http://www.serif.com/" style="fill-rule:evenodd;clip-rule:evenodd;stroke-linejoin:round;stroke-miterlimit:2;">
    <g id="b">
        <g>
            <path d="M21.781,8.283C21.781,5.86 19.814,3.893 17.391,3.893L8.609,3.893C6.186,3.893 4.219,5.86 4.219,8.283L4.219,17.717C4.219,20.14 6.186,22.107 8.609,22.107L17.391,22.107C19.814,22.107 21.781,20.14 21.781,17.717L21.781,8.283ZM20.131,9.17C20.131,7.202 18.533,5.604 16.565,5.604L9.435,5.604C7.467,5.604 5.869,7.202 5.869,9.17L5.869,16.83C5.869,18.798 7.467,20.396 9.435,20.396L16.565,20.396C18.533,20.396 20.131,18.798 20.131,16.83L20.131,9.17Z" style="fill:white;"/>
            <g transform="matrix(3.20613,4.80451e-17,-4.80451e-17,3.20613,-28.2561,22.0305)">
                <path d="M11.546,-0.922L11.546,-4.698L12.77,-4.698C13.234,-4.698 13.536,-4.68 13.677,-4.642C13.893,-4.585 14.074,-4.462 14.22,-4.272C14.366,-4.082 14.439,-3.837 14.439,-3.537C14.439,-3.305 14.397,-3.11 14.313,-2.952C14.229,-2.794 14.122,-2.67 13.992,-2.58C13.863,-2.489 13.731,-2.43 13.597,-2.401C13.415,-2.364 13.151,-2.346 12.806,-2.346L12.309,-2.346L12.309,-0.922L11.546,-0.922ZM12.309,-4.06L12.309,-2.988L12.726,-2.988C13.027,-2.988 13.228,-3.008 13.329,-3.047C13.43,-3.087 13.51,-3.148 13.567,-3.233C13.625,-3.317 13.654,-3.415 13.654,-3.526C13.654,-3.664 13.613,-3.777 13.533,-3.866C13.452,-3.956 13.35,-4.011 13.226,-4.034C13.135,-4.051 12.952,-4.06 12.677,-4.06L12.309,-4.06Z" style="fill:white;fill-rule:nonzero;"/>
            </g>
            <g transform="matrix(1,0,0,1.09549,0.123867,-1.09009)">
                <path d="M6.04,6.111L21.356,17.246L19.664,19.613L4.396,8.059L6.04,6.111Z" style="fill:white;"/>
            </g>
        </g>
    </g>
</svg>
