<?xml version="1.0" encoding="UTF-8" standalone="no"?>
<!DOCTYPE svg PUBLIC "-//W3C//DTD SVG 1.1//EN" "http://www.w3.org/Graphics/SVG/1.1/DTD/svg11.dtd">
<svg width="100%" height="100%" viewBox="0 0 32 32" version="1.1" xmlns="http://www.w3.org/2000/svg" xmlns:xlink="http://www.w3.org/1999/xlink" xml:space="preserve" xmlns:serif="http://www.serif.com/" style="fill-rule:evenodd;clip-rule:evenodd;stroke-linejoin:round;stroke-miterlimit:2;">
    <g transform="matrix(1.23077,0,0,1.23077,22.258,0)">
        <g id="b">
            <g id="Parking-Rear-45-60" serif:id="Parking Rear 45-60">
                <g transform="matrix(1,3.14989e-17,-2.77556e-17,1.13487,-11.0636,-1.16489)">
                    <rect x="16.079" y="8.637" width="0.753" height="15.299" style="fill:rgb(105,105,105);"/>
                </g>
                <g transform="matrix(1.19144,0,0,1.18333,-14.664,-1.89188)">
                    <path d="M18.951,6.036C18.951,5.444 18.474,4.964 17.887,4.964L15.758,4.964C15.17,4.964 14.693,5.444 14.693,6.036L14.693,8.338C14.693,8.93 15.17,9.41 15.758,9.41L17.887,9.41C18.474,9.41 18.951,8.93 18.951,8.338L18.951,6.036Z" style="fill:rgb(0,99,174);"/>
                </g>
                <g transform="matrix(0.926087,1.12757e-17,-1.12757e-17,0.926087,-6.53791,9.22107)">
                    <path d="M11.546,-0.922L11.546,-4.698L12.77,-4.698C13.234,-4.698 13.536,-4.68 13.677,-4.642C13.893,-4.585 14.074,-4.462 14.22,-4.272C14.366,-4.082 14.439,-3.837 14.439,-3.537C14.439,-3.305 14.397,-3.11 14.313,-2.952C14.229,-2.794 14.122,-2.67 13.992,-2.58C13.863,-2.489 13.731,-2.43 13.597,-2.401C13.415,-2.364 13.151,-2.346 12.806,-2.346L12.309,-2.346L12.309,-0.922L11.546,-0.922ZM12.309,-4.06L12.309,-2.988L12.726,-2.988C13.027,-2.988 13.228,-3.008 13.329,-3.047C13.43,-3.087 13.51,-3.148 13.567,-3.233C13.625,-3.317 13.654,-3.415 13.654,-3.526C13.654,-3.664 13.613,-3.777 13.533,-3.866C13.452,-3.956 13.35,-4.011 13.226,-4.034C13.135,-4.051 12.952,-4.06 12.677,-4.06L12.309,-4.06Z" style="fill:white;fill-rule:nonzero;"/>
                </g>
                <g id="Car-Rear" serif:id="Car Rear" transform="matrix(1.11457,-2.25514e-17,2.25514e-17,1.11457,-19.574,-2.9788)">
                    <g transform="matrix(0.383745,0,0,0.383745,-3.87786,4.42969)">
                        <path d="M26.218,55.414C27.216,54.324 27.296,49.425 26.218,48.228C25.139,47.03 20.827,47.03 19.749,48.228C18.67,49.425 18.597,54.384 19.749,55.414C20.9,56.445 25.219,56.505 26.218,55.414Z" style="fill:rgb(83,83,83);"/>
                    </g>
                    <g transform="matrix(0.383745,1.54074e-33,-1.54074e-33,0.383745,-3.87786,4.42969)">
                        <path d="M51.335,55.414C52.333,54.324 52.413,49.425 51.335,48.228C50.256,47.03 45.944,47.03 44.866,48.228C43.787,49.425 43.714,54.384 44.866,55.414C46.017,56.445 50.336,56.505 51.335,55.414Z" style="fill:rgb(83,83,83);"/>
                    </g>
                    <g transform="matrix(0.383745,3.08149e-33,-3.08149e-33,0.383745,1.55672,4.42969)">
                        <path d="M51.335,55.414C52.333,54.324 52.413,49.425 51.335,48.228C50.256,47.03 45.944,47.03 44.866,48.228C43.787,49.425 43.714,54.384 44.866,55.414C46.017,56.445 50.336,56.505 51.335,55.414Z" style="fill:rgb(83,83,83);"/>
                    </g>
                    <g transform="matrix(0.444281,0,0,0.383745,0.0473793,3.42319)">
                        <path d="M15.885,37.388C15.885,37.018 15.625,36.717 15.305,36.717L12.932,36.717C12.612,36.717 12.353,37.018 12.353,37.388L12.353,38.731C12.353,39.101 12.612,39.402 12.932,39.402L15.305,39.402C15.625,39.402 15.885,39.101 15.885,38.731L15.885,37.388Z" style="fill:rgb(112,122,134);"/>
                    </g>
                    <g transform="matrix(0.435562,0,0,0.359699,-4.09976,7.13964)">
                        <path d="M59.811,39.882L14.488,39.84C14.488,39.84 14.351,37.616 15.193,35.63C15.313,35.348 15.888,34.225 16.71,32.679C17.303,31.566 19.689,31.666 20.459,30.272C22.993,25.681 24.397,18.985 25.206,18.648C27.992,17.485 45.95,16.711 50.508,18.648C51.778,19.188 54.518,27.607 54.83,30.272C54.998,31.704 57.019,30.628 58.7,32.06C59.813,33.008 59.73,36.933 59.789,37.995C59.846,39.004 59.811,39.882 59.811,39.882Z" style="fill:rgb(223,110,58);"/>
                    </g>
                    <g transform="matrix(0.395906,0,0,0.18511,-2.61284,10.9921)">
                        <path d="M39.54,37.581C39.129,37.83 23.5,39.151 22.62,37.581C22.118,36.687 24.275,20.707 25.92,19.179C27.409,17.796 38.602,17.367 40.533,18.66C42.341,19.869 40.669,36.899 39.54,37.581Z" style="fill:rgb(132,132,132);"/>
                    </g>
                    <g transform="matrix(0.395906,0,0,0.18511,-2.61284,10.9921)">
                        <path d="M53.549,37.581C53.138,37.83 44.28,39.151 43.4,37.581C42.898,36.687 43.702,19.876 45.347,18.348C46.836,16.965 47.662,17.367 49.593,18.66C51.401,19.869 54.678,36.899 53.549,37.581Z" style="fill:rgb(132,132,132);"/>
                    </g>
                    <g transform="matrix(0.394022,0,0,0.464005,-1.47616,-0.019474)">
                        <path d="M59.47,45.45C59.47,45.043 59.081,44.713 58.602,44.713L10.244,44.713C9.765,44.713 9.376,45.043 9.376,45.45L9.376,51.349C9.376,51.756 9.765,52.086 10.244,52.086L58.602,52.086C59.081,52.086 59.47,51.756 59.47,51.349L59.47,45.45Z" style="fill:rgb(223,110,58);"/>
                    </g>
                    <g transform="matrix(0.383745,0,0,0.596547,-3.88952,-5.91664)">
                        <path d="M24.858,43.311C24.858,43.054 24.533,42.844 24.132,42.844L19.146,42.844C18.745,42.844 18.419,43.054 18.419,43.311L18.419,44.246C18.419,44.503 18.745,44.713 19.146,44.713L24.132,44.713C24.533,44.713 24.858,44.503 24.858,44.246L24.858,43.311Z" style="fill:rgb(204,10,0);"/>
                    </g>
                    <g transform="matrix(0.383745,0,0,0.596547,5.03017,-5.91664)">
                        <path d="M24.858,43.311C24.858,43.054 24.533,42.844 24.132,42.844L19.146,42.844C18.745,42.844 18.419,43.054 18.419,43.311L18.419,44.246C18.419,44.503 18.745,44.713 19.146,44.713L24.132,44.713C24.533,44.713 24.858,44.503 24.858,44.246L24.858,43.311Z" style="fill:rgb(204,10,0);"/>
                    </g>
                    <g transform="matrix(0.263805,0,0,1.74249,0.348198,-46.104)">
                        <rect x="25.612" y="39.486" width="13.413" height="0.518" style="fill:rgb(83,83,83);"/>
                    </g>
                    <g transform="matrix(0.452781,0,0,0.424909,14.5693,23.1512)">
                        <path d="M-0.579,-0C0.248,-0 0.921,0.672 0.921,1.5C0.921,2.328 0.248,3 -0.579,3L-3.308,3L-3.308,-0L-0.579,-0Z" style="fill:rgb(71,71,71);"/>
                    </g>
                    <g transform="matrix(0.452781,-1.54074e-33,-1.54074e-33,0.424909,14.5693,23.1512)">
                        <circle cx="-3.308" cy="1.5" r="1.5" style="fill:rgb(54,54,54);"/>
                    </g>
                    <g transform="matrix(0.444281,-1.54074e-33,-3.08149e-33,0.383745,11.1729,3.42319)">
                        <path d="M22.07,37.388C22.07,37.018 21.81,36.717 21.49,36.717L19.117,36.717C18.797,36.717 18.538,37.018 18.538,37.388L18.538,38.731C18.538,39.101 18.797,39.402 19.117,39.402L21.49,39.402C21.81,39.402 22.07,39.101 22.07,38.731L22.07,37.388Z" style="fill:rgb(112,122,134);"/>
                    </g>
                </g>
            </g>
        </g>
    </g>
</svg>
