<?xml version="1.0" encoding="UTF-8" standalone="no"?>
<!DOCTYPE svg PUBLIC "-//W3C//DTD SVG 1.1//EN" "http://www.w3.org/Graphics/SVG/1.1/DTD/svg11.dtd">
<svg width="100%" height="100%" viewBox="0 0 32 32" version="1.1" xmlns="http://www.w3.org/2000/svg" xmlns:xlink="http://www.w3.org/1999/xlink" xml:space="preserve" xmlns:serif="http://www.serif.com/" style="fill-rule:evenodd;clip-rule:evenodd;stroke-linejoin:round;stroke-miterlimit:2;">
    <g transform="matrix(1.23077,0,0,1.23077,22.258,0)">
        <g id="b">
            <g id="Parking-Front-90" serif:id="Parking Front 90">
                <g transform="matrix(1,3.14989e-17,-2.77556e-17,1.13487,-11.0636,-1.16489)">
                    <rect x="16.079" y="8.637" width="0.753" height="15.299" style="fill:rgb(105,105,105);"/>
                </g>
                <g transform="matrix(1.19144,0,0,1.18333,-14.664,-1.89188)">
                    <path d="M18.951,6.036C18.951,5.444 18.474,4.964 17.887,4.964L15.758,4.964C15.17,4.964 14.693,5.444 14.693,6.036L14.693,8.338C14.693,8.93 15.17,9.41 15.758,9.41L17.887,9.41C18.474,9.41 18.951,8.93 18.951,8.338L18.951,6.036Z" style="fill:rgb(0,99,174);"/>
                </g>
                <g transform="matrix(-0.926087,1.12757e-17,1.12757e-17,0.926087,17.5272,9.22107)">
                    <path d="M11.546,-0.922L11.546,-4.698L12.77,-4.698C13.234,-4.698 13.536,-4.68 13.677,-4.642C13.893,-4.585 14.074,-4.462 14.22,-4.272C14.366,-4.082 14.439,-3.837 14.439,-3.537C14.439,-3.305 14.397,-3.11 14.313,-2.952C14.229,-2.794 14.122,-2.67 13.992,-2.58C13.863,-2.489 13.731,-2.43 13.597,-2.401C13.415,-2.364 13.151,-2.346 12.806,-2.346L12.309,-2.346L12.309,-0.922L11.546,-0.922ZM12.309,-4.06L12.309,-2.988L12.726,-2.988C13.027,-2.988 13.228,-3.008 13.329,-3.047C13.43,-3.087 13.51,-3.148 13.567,-3.233C13.625,-3.317 13.654,-3.415 13.654,-3.526C13.654,-3.664 13.613,-3.777 13.533,-3.866C13.452,-3.956 13.35,-4.011 13.226,-4.034C13.135,-4.051 12.952,-4.06 12.677,-4.06L12.309,-4.06Z" style="fill:white;fill-rule:nonzero;"/>
                </g>
                <g id="Car-Rear" serif:id="Car Rear" transform="matrix(-1.23538,-2.25514e-17,-2.49958e-17,1.11457,9.03973,-2.9788)">
                    <g transform="matrix(-0.829678,-1.67871e-17,-1.86067e-17,0.919608,29.5214,-3.42747)">
                        <circle cx="27.295" cy="29.449" r="2.551" style="fill:rgb(83,83,83);"/>
                    </g>
                    <g transform="matrix(-0.798301,-1.61523e-17,-1.7903e-17,0.88483,40.2446,-2.31457)">
                        <circle cx="27.295" cy="29.449" r="2.551" style="fill:rgb(83,83,83);"/>
                    </g>
                    <g transform="matrix(0.435562,0,0,0.359699,-4.09976,7.13964)">
                        <path d="M59.811,39.882L14.488,39.84C14.488,39.84 14.528,36.181 14.899,34.988C15.075,34.42 15.861,34.289 16.357,33.962C17.225,33.39 22.158,31.666 22.928,30.272C25.462,25.681 29.775,18.985 30.583,18.648C33.369,17.485 44.754,16.711 49.312,18.648C50.582,19.188 53.322,27.607 53.634,30.272C53.802,31.704 57.019,33.043 58.7,34.475C59.813,35.423 59.73,36.933 59.789,37.995C59.846,39.004 59.811,39.882 59.811,39.882Z" style="fill:rgb(213,69,71);"/>
                    </g>
                    <g transform="matrix(0.395906,0,0,0.18511,-2.61284,10.9921)">
                        <path d="M41.095,38.198L39.593,38.244" style="fill:none;"/>
                    </g>
                    <g transform="matrix(0.430274,6.95376e-19,3.2513e-19,0.18511,-3.48773,10.9921)">
                        <path d="M39.172,38.244C38.366,39.403 25.949,38.395 25.493,37.581C24.991,36.687 29.842,20.598 31.487,19.07C32.2,18.408 38.387,17.029 38.751,17.894C39.116,18.758 39.632,37.581 39.172,38.244Z" style="fill:rgb(231,239,241);"/>
                    </g>
                    <g transform="matrix(0.395906,0,0,0.18511,-2.61284,10.9921)">
                        <path d="M39.172,17.894L40.353,17.87" style="fill:none;"/>
                    </g>
                    <g transform="matrix(0.328839,-1.35698e-18,-6.34469e-19,0.18511,0.88469,10.9921)">
                        <path d="M40.34,17.916C40.69,17.086 47.246,18.094 48.151,18.7C49.959,19.909 53.037,36.899 51.907,37.581C51.725,37.691 41.532,39.011 41.082,38.244C40.721,37.628 39.99,18.746 40.34,17.916Z" style="fill:rgb(231,239,241);"/>
                    </g>
                    <g transform="matrix(0.394022,0,0,0.464005,-1.47616,-0.019474)">
                        <path d="M59.47,45.45C59.47,45.043 59.081,44.713 58.602,44.713L10.244,44.713C9.765,44.713 9.376,45.043 9.376,45.45L9.376,51.349C9.376,51.756 9.765,52.086 10.244,52.086L58.602,52.086C59.081,52.086 59.47,51.756 59.47,51.349L59.47,45.45Z" style="fill:rgb(213,69,71);"/>
                    </g>
                    <g transform="matrix(0.444281,-1.54074e-33,-3.08149e-33,0.383745,5.96543,3.42319)">
                        <path d="M6.542,37.473C6.542,37.056 6.249,36.717 5.888,36.717L3.216,36.717C2.856,36.717 2.564,37.056 2.564,37.473L2.564,38.985C2.564,39.401 2.856,39.74 3.216,39.74L5.888,39.74C6.249,39.74 6.542,39.401 6.542,38.985L6.542,37.473Z" style="fill:rgb(112,122,134);"/>
                    </g>
                    <g transform="matrix(0.12452,-6.4698e-18,-5.58826e-18,0.383745,2.14877,6.05753)">
                        <path d="M6.542,37.473C6.542,37.056 6.249,36.717 5.888,36.717L3.216,36.717C2.856,36.717 2.564,37.056 2.564,37.473L2.564,38.985C2.564,39.401 2.856,39.74 3.216,39.74L5.888,39.74C6.249,39.74 6.542,39.401 6.542,38.985L6.542,37.473Z" style="fill:rgb(255,231,159);"/>
                    </g>
                    <g transform="matrix(0.12452,-5.90966e-19,-5.10444e-19,0.132782,2.93855,15.2722)">
                        <path d="M6.542,37.473C6.542,37.056 6.249,36.717 5.888,36.717L3.216,36.717C2.856,36.717 2.564,37.056 2.564,37.473L2.564,38.985C2.564,39.401 2.856,39.74 3.216,39.74L5.888,39.74C6.249,39.74 6.542,39.401 6.542,38.985L6.542,37.473Z" style="fill:rgb(255,113,15);"/>
                    </g>
                    <g transform="matrix(0.12452,-5.90966e-19,-5.10444e-19,0.132782,19.6768,15.2722)">
                        <path d="M6.542,37.473C6.542,37.056 6.249,36.717 5.888,36.717L3.216,36.717C2.856,36.717 2.564,37.056 2.564,37.473L2.564,38.985C2.564,39.401 2.856,39.74 3.216,39.74L5.888,39.74C6.249,39.74 6.542,39.401 6.542,38.985L6.542,37.473Z" style="fill:rgb(255,113,15);"/>
                    </g>
                    <g transform="matrix(0.12452,-6.4698e-18,-5.58826e-18,0.383745,20.7537,6.05753)">
                        <path d="M6.542,37.473C6.542,37.056 6.249,36.717 5.888,36.717L3.216,36.717C2.856,36.717 2.564,37.056 2.564,37.473L2.564,38.985C2.564,39.401 2.856,39.74 3.216,39.74L5.888,39.74C6.249,39.74 6.542,39.401 6.542,38.985L6.542,37.473Z" style="fill:rgb(204,10,0);"/>
                    </g>
                    <g transform="matrix(0.114421,2.31511e-18,-7.76442e-18,0.383745,-0.712175,7.28559)">
                        <rect x="25.612" y="39.486" width="13.413" height="0.518" style="fill:rgb(83,83,83);"/>
                    </g>
                    <g transform="matrix(0.114421,2.31511e-18,-7.76442e-18,0.383745,17.491,7.28559)">
                        <rect x="25.612" y="39.486" width="13.413" height="0.518" style="fill:rgb(83,83,83);"/>
                    </g>
                </g>
            </g>
        </g>
    </g>
</svg>
