<?xml version="1.0" encoding="UTF-8" standalone="no"?>
<!DOCTYPE svg PUBLIC "-//W3C//DTD SVG 1.1//EN" "http://www.w3.org/Graphics/SVG/1.1/DTD/svg11.dtd">
<svg width="100%" height="100%" viewBox="0 0 26 26" version="1.1" xmlns="http://www.w3.org/2000/svg" xmlns:xlink="http://www.w3.org/1999/xlink" xml:space="preserve" xmlns:serif="http://www.serif.com/" style="fill-rule:evenodd;clip-rule:evenodd;stroke-linejoin:round;stroke-miterlimit:2;">
    <g transform="matrix(1,0,0,1,13,0)">
        <g id="b">
            <g id="Sidewalk-Right" serif:id="Sidewalk Right">
                <g transform="matrix(0.8,0,0,1,2.6,0)">
                    <path d="M26,25.482C26,25.164 25.842,24.859 25.561,24.634C25.279,24.409 24.898,24.282 24.5,24.282C19.91,24.282 6.09,24.282 1.5,24.282C1.102,24.282 0.721,24.409 0.439,24.634C0.158,24.859 -0,25.164 -0,25.482C0,25.772 0,26 0,26L26,26L26,25.482Z" style="fill:rgb(160,160,160);"/>
                </g>
                <g transform="matrix(0.845328,0,0,1,2.22147,0)">
                    <rect x="3.213" y="24.282" width="19.087" height="1.718" style="fill:rgb(125,125,125);"/>
                </g>
                <g transform="matrix(0.538296,0,0,0.538296,1.02867,9.92849)">
                    <g transform="matrix(-0.842726,1.03204e-16,-1.03204e-16,-0.842726,20.8585,26.1142)">
                        <path d="M1.745,-0.197C2.396,0.197 3.165,6.798 3.891,6.798C4.617,6.798 5.446,0.197 6.099,-0.197C6.752,-0.591 7.806,3.676 7.809,4.435C7.812,5.194 7.809,11.545 7.809,11.545C7.809,11.954 7.473,12.29 7.064,12.29L0.727,12.29C0.318,12.29 -0.018,11.954 -0.018,11.545C-0.018,11.545 -0.018,11.544 -0.018,11.544C-0.018,11.544 -0.042,5.218 -0.018,4.434C0.006,3.65 1.094,-0.591 1.745,-0.197Z" style="fill:rgb(97,138,152);fill-rule:nonzero;"/>
                    </g>
                    <g transform="matrix(-0.842726,1.03204e-16,-1.03204e-16,-0.842726,17.3945,27.7897)">
                        <path d="M2.335,1.865C3.19,2.407 4.15,8.791 5.117,8.791C6.084,8.791 7.256,2.407 8.139,1.865C9.023,1.323 10.415,4.53 10.418,5.541C10.421,6.552 10.418,13.392 10.418,13.392C10.418,13.937 9.969,14.386 9.424,14.386L0.979,14.386C0.434,14.386 -0.015,13.937 -0.015,13.392C-0.015,12.847 -0.047,6.586 -0.015,5.541C0.017,4.496 1.48,1.323 2.335,1.865Z" style="fill:rgb(123,192,215);fill-rule:nonzero;"/>
                    </g>
                    <g transform="matrix(0.842726,0,0,0.842726,14.3007,7.83655)">
                        <path d="M1.745,1.12C2.255,1.74 3.03,2.082 3.832,2.042C5.38,2.068 5.832,1.006 6.099,1.12C7.665,1.759 7.806,3.676 7.809,4.435C7.812,5.194 7.809,9.733 7.809,9.733C7.809,10.141 7.473,10.478 7.064,10.478L0.727,10.478C0.318,10.478 -0.018,10.141 -0.018,9.733C-0.018,9.732 -0.018,9.732 -0.018,9.732C-0.018,9.731 -0.042,5.218 -0.018,4.434C0.006,3.65 -0.026,1.766 1.745,1.12Z" style="fill:rgb(151,180,190);fill-rule:nonzero;"/>
                    </g>
                    <g transform="matrix(0.842726,0,0,0.842726,15.4687,4.4045)">
                        <circle cx="2.592" cy="2.592" r="2.592" style="fill:rgb(151,180,190);"/>
                    </g>
                    <g transform="matrix(0.842726,0,0,0.842726,8.63844,6.4292)">
                        <path d="M2.335,1.123C3.015,1.949 4.048,2.405 5.117,2.352C7.181,2.386 7.783,0.97 8.139,1.123C10.227,1.975 10.415,4.53 10.418,5.541C10.421,6.552 10.418,11.58 10.418,11.58C10.418,12.125 9.969,12.574 9.424,12.574L0.979,12.574C0.434,12.574 -0.015,12.125 -0.015,11.58C-0.015,11.034 -0.047,6.586 -0.015,5.541C0.017,4.496 -0.025,1.984 2.335,1.123Z" style="fill:rgb(194,240,255);fill-rule:nonzero;"/>
                    </g>
                    <g transform="matrix(0.842726,0,0,0.842726,10.3365,1.6235)">
                        <circle cx="3.518" cy="3.518" r="3.518" style="fill:rgb(194,240,255);"/>
                    </g>
                </g>
            </g>
        </g>
    </g>
</svg>
