<?xml version="1.0" encoding="UTF-8" standalone="no"?>
<!DOCTYPE svg PUBLIC "-//W3C//DTD SVG 1.1//EN" "http://www.w3.org/Graphics/SVG/1.1/DTD/svg11.dtd">
<svg width="100%" height="100%" viewBox="0 0 26 26" version="1.1" xmlns="http://www.w3.org/2000/svg" xmlns:xlink="http://www.w3.org/1999/xlink" xml:space="preserve" xmlns:serif="http://www.serif.com/" style="fill-rule:evenodd;clip-rule:evenodd;stroke-linejoin:round;stroke-miterlimit:2;">
    <g transform="matrix(1,0,0,1,13,0)">
        <g id="b">
            <g id="Sidewalk-Right-Grass" serif:id="Sidewalk Right Grass">
                <g transform="matrix(0.995495,0,0,1,-10.3942,-0.690176)">
                    <path d="M26,25.482C26,25.164 25.873,24.859 25.647,24.634C25.421,24.409 25.114,24.282 24.795,24.282C20.441,24.282 5.559,24.282 1.205,24.282C0.886,24.282 0.579,24.409 0.353,24.634C0.127,24.859 -0,25.164 -0,25.482C0,25.772 0,26.69 0,26.69L26,26.69L26,25.482Z" style="fill:rgb(160,160,160);"/>
                </g>
                <g transform="matrix(1.10321,0,0,1,-11.6013,-0.690176)">
                    <rect x="3.213" y="24.282" width="19.087" height="2.408" style="fill:rgb(125,125,125);"/>
                </g>
                <g id="Tree-median" serif:id="Tree median" transform="matrix(1.2381,0,0,1.2381,-52.2704,36.0249)">
                    <g id="Path_3564" transform="matrix(1,0,0,1,39.345,-15.422)">
                        <path d="M0.35,-1.667L2.505,-1.667L3.132,5.38C2.661,5.695 0.459,5.697 0,5.38L0.35,-1.667Z" style="fill:rgb(151,108,79);fill-rule:nonzero;"/>
                    </g>
                    <g transform="matrix(0.764682,0,0,0.764682,9.64805,-6.84706)">
                        <g id="Ellipse_885" transform="matrix(1,0,0,1,35,-24.097)">
                            <ellipse cx="6" cy="5.5" rx="6" ry="5.5" style="fill:rgb(84,182,11);"/>
                        </g>
                        <g id="Ellipse_886" transform="matrix(1,0,0,1,33,-26.097)">
                            <ellipse cx="5" cy="5.5" rx="5" ry="5.5" style="fill:rgb(84,182,11);"/>
                        </g>
                        <g id="Path_3565" transform="matrix(1,0,0,1,35.456,-25.286)">
                            <path d="M5.525,0C8.576,0 11.05,2.2 11.05,4.911C11.05,7.622 8.576,9.574 5.525,9.574C2.474,9.574 0,7.623 0,4.911C0,2.199 2.474,0 5.525,0Z" style="fill:rgb(121,221,44);fill-rule:nonzero;"/>
                        </g>
                        <g id="Ellipse_887" transform="matrix(1,0,0,1,33,-26.097)">
                            <ellipse cx="5" cy="4.5" rx="5" ry="4.5" style="fill:rgb(121,221,44);"/>
                        </g>
                        <g id="Ellipse_883" transform="matrix(1,0,0,1,43,-23.097)">
                            <circle cx="3" cy="3" r="3" style="fill:rgb(84,182,11);"/>
                        </g>
                        <g id="Ellipse_888" transform="matrix(1,0,0,1,35,-29.097)">
                            <ellipse cx="6" cy="5.5" rx="6" ry="5.5" style="fill:rgb(121,221,44);"/>
                        </g>
                        <g id="Ellipse_889" transform="matrix(1,0,0,1,42,-24.097)">
                            <ellipse cx="3" cy="2.5" rx="3" ry="2.5" style="fill:rgb(121,221,44);"/>
                        </g>
                    </g>
                </g>
                <g transform="matrix(0.538296,0,0,0.538296,2.20049,9.23831)">
                    <g transform="matrix(-0.975012,0,0,1,19.9658,1.45571)">
                        <g transform="matrix(-0.842726,1.03204e-16,-1.11579e-16,-0.911114,17.3945,27.9104)">
                            <path d="M10.977,17.122C10.831,16.699 11.336,6.86 11.329,5.898C11.324,5.198 11.164,3.586 11.387,3.287C11.551,3.067 11.752,2.935 12.108,2.97C12.181,2.977 12.901,2.887 12.994,4.011C13.19,5.854 13.056,10.841 13.204,12.993C13.244,13.579 13.621,13.848 13.692,13.91C13.884,14.074 14.163,13.514 14.249,12.807C14.364,11.876 14.737,10.447 14.775,9.29C14.807,8.312 14.538,4.782 14.615,3.314C14.652,2.979 15.976,3.136 16.058,3.227C16.354,3.556 16.739,8.668 16.741,9.202C16.748,10.845 16.476,13.091 16.218,14.864C16.06,15.945 16.056,16.84 15.692,17.34C15.2,18.016 14.307,17.064 13.25,16.985C12.328,16.916 11.218,17.816 10.977,17.122Z" style="fill:rgb(125,150,159);fill-rule:nonzero;"/>
                        </g>
                        <g transform="matrix(0.842726,0,0,0.842726,8.63844,6.4292)">
                            <path d="M-3.674,-1.715C-3.115,-1.857 -2.45,-1.857 -1.918,-1.715C-1.714,-1.66 -1.903,-1.237 -1.701,-1.144C-1.377,-0.995 -0.825,-0.904 -0.486,-0.858C0.923,-0.667 1.038,2.221 1.101,2.879C1.304,4.995 1.306,8.759 0.43,9.732C-0.033,10.247 0.542,5.729 0.333,5.166C0.203,4.817 -0.379,2.663 -0.411,2.912C-0.627,4.567 -0.701,5.851 -0.75,6.962C-0.793,7.955 -2.15,7.735 -3.061,7.736C-3.929,7.737 -5.533,7.821 -5.653,6.962C-5.867,5.43 -5.853,4.119 -5.949,2.879C-5.959,2.742 -6.91,5.358 -6.924,5.185C-6.935,5.048 -6.099,9.975 -6.607,10.328C-6.925,10.549 -7.6,7.024 -7.712,5.378C-7.806,4.009 -7.552,3.197 -7.528,2.967C-7.418,1.888 -6.854,-0.485 -5.729,-0.79C-5.281,-0.911 -4.549,-0.981 -4.113,-1.144C-3.981,-1.194 -3.804,-1.681 -3.674,-1.715Z" style="fill:rgb(151,180,190);fill-rule:nonzero;"/>
                        </g>
                        <g transform="matrix(0.451179,0,0,0.58023,4.54853,0.685696)">
                            <path d="M3.518,0C5.46,0 7.036,1.055 7.036,2.996C7.036,4.938 5.46,7.036 3.518,7.036C1.576,7.036 0,4.938 0,2.996C0,1.055 1.576,0 3.518,0Z" style="fill:rgb(151,180,190);"/>
                        </g>
                    </g>
                    <g transform="matrix(1,0,0,1,2.96302,-0.00238321)">
                        <g transform="matrix(-0.842726,1.03204e-16,-1.11579e-16,-0.911114,17.3945,27.9104)">
                            <path d="M10.977,17.122C10.831,16.699 11.336,6.86 11.329,5.898C11.324,5.198 11.164,3.586 11.387,3.287C11.551,3.067 11.752,2.935 12.108,2.97C12.181,2.977 12.901,2.887 12.994,4.011C13.19,5.854 13.056,10.841 13.204,12.993C13.244,13.579 13.621,13.848 13.692,13.91C13.884,14.074 14.163,13.514 14.249,12.807C14.364,11.876 14.737,10.447 14.775,9.29C14.807,8.312 13.755,3.036 13.832,1.568C13.868,1.233 15.193,1.391 15.274,1.481C15.57,1.81 15.754,4.083 16.054,5.862C16.333,7.513 16.739,8.668 16.741,9.202C16.748,10.845 16.476,13.091 16.218,14.864C16.06,15.945 16.056,16.84 15.692,17.34C15.2,18.016 14.307,17.064 13.25,16.985C12.328,16.916 11.218,17.816 10.977,17.122Z" style="fill:rgb(147,220,244);fill-rule:nonzero;"/>
                        </g>
                        <g transform="matrix(0.842726,0,0,0.842726,8.63844,6.4292)">
                            <path d="M-3.674,-1.715C-3.115,-1.857 -2.45,-1.857 -1.918,-1.715C-1.714,-1.66 -1.903,-1.237 -1.701,-1.144C-1.377,-0.995 -0.825,-0.904 -0.486,-0.858C0.923,-0.667 1.038,2.221 1.101,2.879C1.304,4.995 1.306,8.759 0.43,9.732C-0.033,10.247 0.542,5.729 0.333,5.166C0.203,4.817 -0.379,2.663 -0.411,2.912C-0.627,4.567 -0.701,5.851 -0.75,6.962C-0.793,7.955 -2.15,7.735 -3.061,7.736C-3.929,7.737 -5.533,7.821 -5.653,6.962C-5.867,5.43 -5.853,4.119 -5.949,2.879C-5.959,2.742 -6.91,5.358 -6.924,5.185C-6.935,5.048 -6.099,9.975 -6.607,10.328C-6.925,10.549 -7.6,7.024 -7.712,5.378C-7.806,4.009 -7.552,3.197 -7.528,2.967C-7.418,1.888 -6.854,-0.485 -5.729,-0.79C-5.281,-0.911 -4.549,-0.981 -4.113,-1.144C-3.981,-1.194 -3.804,-1.681 -3.674,-1.715Z" style="fill:rgb(194,240,255);fill-rule:nonzero;"/>
                        </g>
                        <g transform="matrix(0.451179,0,0,0.58023,4.54853,0.685696)">
                            <path d="M3.518,0C5.46,0 7.036,1.055 7.036,2.996C7.036,4.938 5.46,7.036 3.518,7.036C1.576,7.036 0,4.938 0,2.996C0,1.055 1.576,0 3.518,0Z" style="fill:rgb(194,240,255);"/>
                        </g>
                    </g>
                </g>
            </g>
        </g>
    </g>
</svg>
