<?xml version="1.0" encoding="UTF-8" standalone="no"?>
<!DOCTYPE svg PUBLIC "-//W3C//DTD SVG 1.1//EN" "http://www.w3.org/Graphics/SVG/1.1/DTD/svg11.dtd">
<svg width="100%" height="100%" viewBox="0 0 26 26" version="1.1" xmlns="http://www.w3.org/2000/svg" xmlns:xlink="http://www.w3.org/1999/xlink" xml:space="preserve" xmlns:serif="http://www.serif.com/" style="fill-rule:evenodd;clip-rule:evenodd;stroke-linejoin:round;stroke-miterlimit:2;">
    <g transform="matrix(0.947181,0,0,0.947181,0.687973,0)">
        <g id="b">
            <g id="Subway-White" serif:id="Subway White">
                <g transform="matrix(0.358554,0.0167596,-0.021084,0.451069,11.9622,-0.926093)">
                    <path d="M24.944,54.701L19.169,54.916C19.169,55.749 19.587,56.266 20.42,56.266L23.432,56.154C24.265,56.154 24.944,55.534 24.944,54.701Z" style="fill:white;"/>
                </g>
                <g transform="matrix(-0.358554,0.0167596,0.021084,0.451069,14.0378,-0.926093)">
                    <path d="M24.944,54.701L18.733,54.932C18.733,55.765 19.587,56.266 20.42,56.266L23.432,56.154C24.265,56.154 24.944,55.534 24.944,54.701Z" style="fill:white;"/>
                </g>
                <g transform="matrix(0.905617,0,0,1.05576,1.22557,0)">
                    <path d="M20.029,25.381L23.264,24.86L25.067,24.86L25.657,26L0.343,26L0.933,24.86L2.736,24.86L5.971,25.381L20.029,25.381Z" style="fill:white;"/>
                </g>
                <g transform="matrix(0.905617,0,0,0.558874,2.1501,11.969)">
                    <path d="M19.806,23.655L17.892,23.77L17.622,26L19.114,26L20.047,25.648L19.806,23.655Z" style="fill:white;"/>
                </g>
                <g transform="matrix(0.209226,0,0,1.37406,19.7024,-9.77481)">
                    <path d="M19.806,23.655L17.892,23.77L17.622,26L20.089,26L19.806,23.655Z" style="fill:white;"/>
                </g>
                <g transform="matrix(0.732574,0,0,1.08907,8.48446,-3.03333)">
                    <path d="M19.806,23.655L17.892,23.77L17.622,26L20.089,26L19.806,23.655Z" style="fill:white;"/>
                </g>
                <g transform="matrix(-0.905617,0,0,0.558874,23.8471,11.969)">
                    <path d="M19.806,23.655L17.892,23.77L17.622,26L18.982,26L20.034,25.546L19.806,23.655Z" style="fill:white;"/>
                </g>
                <g id="Rectangle_1799" transform="matrix(0.262571,0,0,0.177839,5.89765,3.75515)">
                    <path d="M9,2.5C9,1.12 8.241,0 7.307,0L1.693,0C0.759,0 0,1.12 0,2.5C0,3.88 0.759,5 1.693,5L7.307,5C8.241,5 9,3.88 9,2.5Z" style="fill:white;"/>
                </g>
                <g id="Rectangle_17991" serif:id="Rectangle_1799" transform="matrix(0.262571,0,0,0.177839,17.8564,3.75515)">
                    <path d="M9,2.5C9,1.12 8.241,0 7.307,0L1.693,0C0.759,0 0,1.12 0,2.5C0,3.88 0.759,5 1.693,5L7.307,5C8.241,5 9,3.88 9,2.5Z" style="fill:white;"/>
                </g>
                <g id="Rectangle_17992" serif:id="Rectangle_1799" transform="matrix(0.262571,0,0,0.177839,11.4437,8.66574)">
                    <path d="M17.251,-11.261C17.251,-13.114 15.379,-14.618 13.074,-14.618L-0.774,-14.618C-3.079,-14.618 -4.951,-13.114 -4.951,-11.261C-4.951,-9.408 -3.079,45.162 -0.774,45.162L13.074,45.162C15.379,45.162 17.251,-9.408 17.251,-11.261Z" style="fill:white;"/>
                </g>
                <g id="Rectangle_17993" serif:id="Rectangle_1799" transform="matrix(0.262571,0,0,0.177839,16.5859,8.66574)">
                    <path d="M16.371,-11.261C16.371,-13.114 14.499,-14.618 12.194,-14.618C12.194,-14.618 5.319,-13.723 2.197,-12.543C1.178,-12.157 0.923,-10.297 0.971,-9.401C1.53,1.033 -2.966,44.154 -2.342,42.101L12.883,38.46C15.158,37.913 16.371,-9.408 16.371,-11.261Z" style="fill:white;"/>
                </g>
                <g id="Rectangle_17994" serif:id="Rectangle_1799" transform="matrix(0.262571,0,0,0.177839,16.5859,8.66574)">
                    <path d="M-43.238,-11.261C-43.238,-13.114 -41.367,-14.618 -39.061,-14.618C-39.061,-14.618 -32.186,-13.723 -29.064,-12.543C-28.045,-12.157 -27.791,-10.297 -27.839,-9.401C-28.397,1.033 -23.902,44.154 -24.525,42.101L-39.75,38.46C-42.025,37.913 -43.238,-9.408 -43.238,-11.261Z" style="fill:white;"/>
                </g>
                <g transform="matrix(1.05576,0,0,1.05576,-0.726337,0)">
                    <path d="M18.738,22.56L7.375,22.56C5.758,22.645 4.253,21.228 4.167,19.461C3.893,14.698 3.161,9.162 3.784,4.072C3.784,2.262 7.057,1.518 7.057,1.518C8.963,0.944 17.043,0.96 19.057,1.518C21.071,2.075 22.33,2.264 22.33,4.072C22.87,8.942 22.156,14.471 21.947,19.461C21.86,21.228 20.356,22.645 18.738,22.56ZM15.506,21.238C15.506,20.686 15.058,20.238 14.506,20.238L11.561,20.238C11.009,20.238 10.561,20.686 10.561,21.238C10.561,21.79 11.009,22.238 11.561,22.238L14.506,22.238C15.058,22.238 15.506,21.79 15.506,21.238ZM17.928,20.136C18.305,20.136 18.61,20.442 18.61,20.818C18.61,21.194 18.305,21.5 17.928,21.5C17.552,21.5 17.246,21.194 17.246,20.818C17.246,20.442 17.552,20.136 17.928,20.136ZM8.074,20.136C8.451,20.136 8.756,20.442 8.756,20.818C8.756,21.194 8.451,21.5 8.074,21.5C7.698,21.5 7.392,21.194 7.392,20.818C7.392,20.442 7.698,20.136 8.074,20.136ZM20.226,17.232C20.55,16.892 20.749,16.432 20.749,15.926L21.242,3.557C21.242,2.512 16.215,1.882 15.736,1.882L10.377,1.882C9.899,1.882 4.871,2.512 4.871,3.557L5.254,15.926C5.254,16.453 5.469,16.93 5.817,17.273C5.381,17.548 5.09,18.033 5.09,18.586C5.09,19.442 5.785,20.136 6.64,20.136C7.495,20.136 8.189,19.442 8.189,18.586C8.189,18.393 8.154,18.208 8.089,18.037C11.616,18.784 14.921,18.757 18.027,18.031C17.961,18.204 17.924,18.391 17.924,18.586C17.924,19.442 18.619,20.136 19.474,20.136C20.329,20.136 21.023,19.442 21.023,18.586C21.023,18.004 20.702,17.497 20.226,17.232Z" style="fill:white;"/>
                </g>
                <g id="Ellipse_464" transform="matrix(0.479985,0,0,0.479985,13.3023,21.702)">
                    <circle cx="1.5" cy="1.5" r="1.5" style="fill:white;"/>
                </g>
                <g id="Ellipse_4641" serif:id="Ellipse_464" transform="matrix(0.479985,0,0,0.479985,11.2578,21.702)">
                    <circle cx="1.5" cy="1.5" r="1.5" style="fill:white;"/>
                </g>
            </g>
        </g>
    </g>
</svg>
