<?xml version="1.0" encoding="UTF-8" standalone="no"?>
<!DOCTYPE svg PUBLIC "-//W3C//DTD SVG 1.1//EN" "http://www.w3.org/Graphics/SVG/1.1/DTD/svg11.dtd">
<svg width="100%" height="100%" viewBox="0 0 32 32" version="1.1" xmlns="http://www.w3.org/2000/svg" xmlns:xlink="http://www.w3.org/1999/xlink" xml:space="preserve" xmlns:serif="http://www.serif.com/" style="fill-rule:evenodd;clip-rule:evenodd;stroke-linejoin:round;stroke-miterlimit:2;">
    <g transform="matrix(7.53629e-17,1.23077,-1.23077,7.53629e-17,31.9319,-0.0681184)">
        <g id="b">
            <g id="Shoulder">
                <g transform="matrix(-6.31752e-17,1.03173,1,6.12323e-17,1.27223,-0.20847)">
                    <path d="M22.3,24.783C22.3,24.783 20.138,24.317 19.039,24.282C16.398,24.199 9.096,24.199 6.459,24.282C5.364,24.317 3.213,24.783 3.213,24.783L3.213,37.783L22.3,37.783L22.3,24.783Z" style="fill:rgb(125,125,125);"/>
                </g>
                <g transform="matrix(4.97513e-17,-0.8125,0.8125,4.97513e-17,25.5545,20.9527)">
                    <path d="M0.99,16.32C1.112,16.287 1.553,16.429 1.612,16.543C1.671,16.657 0.869,16.352 0.99,16.32ZM10.846,16.32C10.968,16.287 11.409,16.429 11.468,16.543C11.527,16.657 10.725,16.352 10.846,16.32ZM3.769,16.033C3.759,16.199 2.748,16.36 2.758,16.193C2.768,16.027 3.118,15.751 3.286,15.724C3.455,15.697 3.779,15.867 3.769,16.033ZM13.625,16.033C13.615,16.199 12.604,16.36 12.614,16.193C12.624,16.027 12.974,15.751 13.143,15.724C13.311,15.697 13.635,15.867 13.625,16.033ZM2.475,16.289C2.483,16.363 2.049,16.508 2.041,16.434C2.033,16.36 2.167,16.212 2.239,16.188C2.311,16.164 2.467,16.215 2.475,16.289ZM12.331,16.289C12.339,16.363 11.905,16.508 11.897,16.434C11.889,16.36 12.023,16.212 12.095,16.188C12.168,16.164 12.323,16.215 12.331,16.289ZM8.257,16.28C8.265,16.354 7.831,16.499 7.823,16.425C7.815,16.351 7.949,16.203 8.021,16.179C8.094,16.155 8.249,16.206 8.257,16.28ZM10.028,12.9C10.036,12.974 9.602,13.119 9.594,13.045C9.586,12.971 9.72,12.823 9.792,12.799C9.865,12.775 10.02,12.826 10.028,12.9ZM14.232,15.567C14.365,15.562 14.788,15.81 14.823,15.942C14.857,16.073 14.574,16.351 14.441,16.357C14.308,16.363 14.06,16.107 14.025,15.975C13.991,15.843 14.099,15.573 14.232,15.567ZM4.376,15.567C4.509,15.562 4.932,15.81 4.967,15.942C5.001,16.073 4.718,16.351 4.585,16.357C4.452,16.363 4.204,16.107 4.169,15.975C4.135,15.843 4.243,15.573 4.376,15.567ZM5.689,15.706C5.697,15.78 5.573,16.026 5.501,16.05C5.429,16.074 5.263,15.926 5.255,15.852C5.247,15.777 5.381,15.63 5.454,15.606C5.526,15.581 5.681,15.632 5.689,15.706ZM15.545,15.706C15.553,15.78 15.429,16.026 15.357,16.05C15.285,16.074 15.119,15.926 15.111,15.852C15.103,15.777 15.237,15.63 15.31,15.606C15.382,15.581 15.537,15.632 15.545,15.706ZM5.907,15.838C5.856,15.716 5.94,15.232 6.051,15.154C6.162,15.075 6.522,15.243 6.574,15.366C6.626,15.488 6.473,15.81 6.362,15.888C6.251,15.967 5.959,15.96 5.907,15.838ZM15.763,15.838C15.712,15.716 15.796,15.232 15.907,15.154C16.018,15.075 16.378,15.243 16.43,15.366C16.482,15.488 16.329,15.81 16.218,15.888C16.107,15.967 15.815,15.96 15.763,15.838ZM7.501,15.827C7.339,15.756 6.978,15.213 7.013,15.035C7.049,14.858 7.55,14.691 7.712,14.762C7.874,14.832 8.021,15.282 7.985,15.46C7.95,15.638 7.663,15.898 7.501,15.827ZM17.357,15.827C17.195,15.756 16.834,15.213 16.869,15.035C16.905,14.858 17.406,14.691 17.568,14.762C17.73,14.832 17.877,15.282 17.841,15.46C17.806,15.638 17.519,15.898 17.357,15.827ZM9.037,11.094C9.045,11.168 8.921,11.414 8.849,11.438C8.777,11.462 8.611,11.314 8.603,11.239C8.595,11.165 8.729,11.018 8.802,10.994C8.874,10.969 9.029,11.02 9.037,11.094ZM10.992,15.169C11,15.243 10.877,15.488 10.804,15.512C10.732,15.537 10.566,15.388 10.558,15.314C10.55,15.24 10.684,15.092 10.757,15.068C10.829,15.044 10.984,15.095 10.992,15.169ZM8.343,14.924C8.416,14.936 8.618,15.122 8.622,15.198C8.625,15.274 8.437,15.393 8.364,15.381C8.29,15.368 8.185,15.199 8.181,15.123C8.178,15.046 8.269,14.911 8.343,14.924ZM18.199,14.924C18.272,14.936 18.474,15.122 18.478,15.198C18.482,15.274 18.293,15.393 18.22,15.381C18.146,15.368 18.041,15.199 18.038,15.123C18.034,15.046 18.125,14.911 18.199,14.924ZM3.34,15.264C3.288,15.142 3.372,14.659 3.483,14.58C3.594,14.501 3.954,14.669 4.006,14.792C4.058,14.914 3.905,15.236 3.794,15.315C3.683,15.393 3.391,15.387 3.34,15.264ZM13.196,15.264C13.144,15.142 13.228,14.659 13.339,14.58C13.45,14.501 13.81,14.669 13.862,14.792C13.914,14.914 13.761,15.236 13.65,15.315C13.539,15.393 13.247,15.387 13.196,15.264ZM11.928,14.259C12.105,14.252 12.667,14.582 12.713,14.757C12.76,14.932 12.382,15.302 12.206,15.309C12.029,15.317 11.7,14.977 11.654,14.802C11.607,14.627 11.752,14.267 11.928,14.259ZM2.072,14.259C2.249,14.252 2.811,14.582 2.857,14.757C2.904,14.932 2.526,15.302 2.35,15.309C2.173,15.317 1.844,14.977 1.797,14.802C1.751,14.627 1.895,14.267 2.072,14.259ZM5.775,14.35C5.848,14.362 6.051,14.548 6.054,14.625C6.058,14.701 5.869,14.82 5.796,14.807C5.723,14.794 5.617,14.625 5.614,14.549C5.61,14.473 5.702,14.337 5.775,14.35ZM15.631,14.35C15.704,14.362 15.907,14.548 15.91,14.625C15.914,14.701 15.725,14.82 15.652,14.807C15.579,14.794 15.473,14.625 15.47,14.549C15.466,14.473 15.558,14.337 15.631,14.35ZM0.883,14.373C0.814,14.494 0.357,14.728 0.221,14.685C0.086,14.642 -0.001,14.236 0.069,14.115C0.138,13.995 0.503,13.919 0.639,13.962C0.775,14.005 0.953,14.253 0.883,14.373ZM10.74,14.373C10.67,14.494 10.213,14.728 10.078,14.685C9.942,14.642 9.855,14.236 9.925,14.115C9.994,13.995 10.359,13.919 10.495,13.962C10.631,14.005 10.809,14.253 10.74,14.373ZM9.593,14.49C9.523,14.61 9.067,14.845 8.931,14.802C8.795,14.758 8.709,14.352 8.778,14.231C8.848,14.111 9.213,14.035 9.348,14.079C9.484,14.122 9.663,14.369 9.593,14.49ZM19.697,14.373C19.627,14.494 19.17,14.728 19.035,14.685C18.899,14.642 18.812,14.236 18.882,14.115C18.951,13.995 19.316,13.919 19.452,13.962C19.588,14.005 19.766,14.253 19.697,14.373ZM11.185,14.199C11.253,14.227 11.411,14.453 11.398,14.528C11.384,14.603 11.175,14.678 11.106,14.65C11.037,14.622 10.971,14.433 10.984,14.358C10.997,14.283 11.116,14.171 11.185,14.199ZM1.328,14.199C1.397,14.227 1.555,14.453 1.541,14.528C1.528,14.603 1.319,14.678 1.25,14.65C1.181,14.622 1.115,14.433 1.128,14.358C1.141,14.283 1.26,14.171 1.328,14.199ZM7.124,13.993C7.132,14.067 7.009,14.313 6.936,14.337C6.864,14.361 6.698,14.212 6.69,14.138C6.682,14.064 6.816,13.917 6.889,13.892C6.961,13.868 7.116,13.919 7.124,13.993ZM16.98,13.993C16.988,14.067 16.865,14.313 16.792,14.337C16.72,14.361 16.554,14.212 16.546,14.138C16.539,14.064 16.673,13.917 16.745,13.892C16.817,13.868 16.972,13.919 16.98,13.993ZM17.633,13.368C17.766,13.363 18.189,13.611 18.224,13.743C18.258,13.874 17.975,14.152 17.842,14.158C17.709,14.164 17.461,13.908 17.426,13.776C17.392,13.644 17.5,13.374 17.633,13.368ZM7.777,13.368C7.91,13.363 8.333,13.611 8.368,13.743C8.402,13.874 8.119,14.152 7.986,14.158C7.853,14.164 7.605,13.908 7.57,13.776C7.536,13.644 7.644,13.374 7.777,13.368ZM13.563,13.977C13.419,14.079 12.767,14.109 12.633,13.988C12.499,13.866 12.613,13.351 12.757,13.248C12.901,13.145 13.363,13.251 13.497,13.372C13.631,13.494 13.707,13.874 13.563,13.977ZM3.707,13.977C3.563,14.079 2.911,14.109 2.777,13.988C2.643,13.866 2.757,13.351 2.901,13.248C3.045,13.145 3.507,13.251 3.641,13.372C3.775,13.494 3.851,13.874 3.707,13.977ZM5.913,13.514C5.985,13.496 6.245,13.584 6.279,13.652C6.313,13.72 6.19,13.905 6.117,13.923C6.045,13.941 5.88,13.83 5.846,13.761C5.812,13.693 5.84,13.532 5.913,13.514ZM15.769,13.514C15.841,13.496 16.101,13.584 16.135,13.652C16.169,13.72 16.046,13.905 15.973,13.923C15.901,13.941 15.736,13.83 15.702,13.761C15.668,13.693 15.696,13.532 15.769,13.514ZM11.418,13.202C11.539,13.17 11.98,13.312 12.04,13.426C12.099,13.54 11.895,13.855 11.773,13.887C11.652,13.92 11.371,13.735 11.312,13.621C11.253,13.507 11.297,13.235 11.418,13.202ZM1.562,13.202C1.683,13.17 2.124,13.312 2.184,13.426C2.243,13.54 2.038,13.855 1.917,13.887C1.796,13.92 1.515,13.735 1.456,13.621C1.397,13.507 1.441,13.235 1.562,13.202ZM4.556,13.419C4.564,13.494 4.441,13.739 4.369,13.763C4.296,13.787 4.13,13.639 4.123,13.565C4.115,13.491 4.249,13.343 4.321,13.319C4.393,13.295 4.549,13.345 4.556,13.419ZM14.413,13.419C14.42,13.494 14.297,13.739 14.225,13.763C14.152,13.787 13.987,13.639 13.979,13.565C13.971,13.491 14.105,13.343 14.177,13.319C14.249,13.295 14.405,13.345 14.413,13.419ZM0.823,13.161C0.892,13.189 1.049,13.415 1.036,13.49C1.023,13.565 0.814,13.64 0.745,13.612C0.676,13.583 0.609,13.395 0.623,13.32C0.636,13.245 0.754,13.133 0.823,13.161ZM10.679,13.161C10.748,13.189 10.905,13.415 10.892,13.49C10.879,13.565 10.67,13.64 10.601,13.612C10.532,13.583 10.466,13.395 10.479,13.32C10.492,13.245 10.61,13.133 10.679,13.161ZM8.726,13.173C8.798,13.154 9.059,13.242 9.093,13.31C9.127,13.378 9.003,13.563 8.931,13.582C8.859,13.6 8.694,13.488 8.66,13.42C8.625,13.352 8.654,13.191 8.726,13.173ZM18.582,13.173C18.654,13.154 18.915,13.242 18.949,13.31C18.983,13.378 18.859,13.563 18.787,13.582C18.715,13.6 18.55,13.488 18.516,13.42C18.482,13.352 18.51,13.191 18.582,13.173ZM14.912,12.773C15.044,12.768 15.467,13.016 15.502,13.148C15.537,13.28 15.253,13.558 15.12,13.563C14.987,13.569 14.74,13.313 14.705,13.181C14.67,13.05 14.779,12.779 14.912,12.773ZM5.055,12.773C5.188,12.768 5.611,13.016 5.646,13.148C5.681,13.28 5.397,13.558 5.264,13.563C5.131,13.569 4.884,13.313 4.849,13.181C4.814,13.05 4.923,12.779 5.055,12.773ZM6.438,12.562C6.571,12.557 6.994,12.805 7.029,12.937C7.064,13.068 6.78,13.347 6.647,13.352C6.514,13.358 6.267,13.102 6.232,12.97C6.197,12.839 6.306,12.568 6.438,12.562ZM16.294,12.562C16.427,12.557 16.85,12.805 16.885,12.937C16.92,13.068 16.636,13.347 16.503,13.352C16.37,13.358 16.123,13.102 16.088,12.97C16.053,12.839 16.162,12.568 16.294,12.562ZM1.124,12.075C1.255,12.098 1.616,12.43 1.622,12.566C1.629,12.702 1.293,12.914 1.161,12.891C1.03,12.869 0.842,12.567 0.836,12.431C0.83,12.295 0.993,12.053 1.124,12.075ZM10.98,12.075C11.111,12.098 11.472,12.43 11.478,12.566C11.485,12.702 11.149,12.914 11.018,12.891C10.886,12.869 10.698,12.567 10.692,12.431C10.686,12.295 10.849,12.053 10.98,12.075ZM3.544,12.601C3.493,12.478 3.577,11.995 3.688,11.916C3.799,11.838 4.159,12.006 4.211,12.128C4.263,12.251 4.11,12.573 3.999,12.651C3.888,12.73 3.596,12.723 3.544,12.601ZM13.401,12.601C13.349,12.478 13.433,11.995 13.544,11.916C13.655,11.838 14.015,12.006 14.067,12.128C14.119,12.251 13.966,12.573 13.855,12.651C13.744,12.73 13.452,12.723 13.401,12.601ZM5.402,12.259C5.35,12.137 5.435,11.654 5.546,11.575C5.657,11.496 6.017,11.664 6.069,11.787C6.12,11.909 5.968,12.231 5.857,12.31C5.745,12.389 5.454,12.382 5.402,12.259ZM15.258,12.259C15.206,12.137 15.291,11.654 15.402,11.575C15.513,11.496 15.873,11.664 15.925,11.787C15.976,11.909 15.824,12.231 15.713,12.31C15.602,12.389 15.31,12.382 15.258,12.259ZM8.644,11.916C8.716,11.898 8.977,11.985 9.011,12.054C9.045,12.122 8.921,12.307 8.849,12.325C8.777,12.343 8.612,12.231 8.578,12.163C8.544,12.095 8.572,11.934 8.644,11.916ZM18.5,11.916C18.573,11.898 18.833,11.985 18.867,12.054C18.901,12.122 18.777,12.307 18.705,12.325C18.633,12.343 18.468,12.231 18.434,12.163C18.4,12.095 18.428,11.934 18.5,11.916ZM14.362,11.438C14.434,11.42 14.694,11.507 14.728,11.576C14.763,11.644 14.639,11.829 14.567,11.847C14.494,11.865 14.329,11.753 14.295,11.685C14.261,11.617 14.29,11.456 14.362,11.438ZM4.506,11.438C4.578,11.42 4.838,11.507 4.872,11.576C4.907,11.644 4.783,11.829 4.711,11.847C4.638,11.865 4.473,11.753 4.439,11.685C4.405,11.617 4.433,11.456 4.506,11.438ZM17.693,11.345C17.767,11.358 17.969,11.544 17.973,11.62C17.976,11.696 17.788,11.815 17.715,11.802C17.641,11.789 17.536,11.62 17.532,11.544C17.529,11.468 17.62,11.332 17.693,11.345ZM7.837,11.345C7.911,11.358 8.113,11.544 8.117,11.62C8.12,11.696 7.932,11.815 7.858,11.802C7.785,11.789 7.68,11.62 7.676,11.544C7.673,11.468 7.764,11.332 7.837,11.345ZM12.601,11.183C12.542,11.302 12.12,11.553 11.988,11.52C11.856,11.487 11.75,11.104 11.809,10.985C11.868,10.866 12.212,10.773 12.344,10.806C12.476,10.839 12.661,11.064 12.601,11.183ZM2.745,11.183C2.686,11.302 2.264,11.553 2.132,11.52C2,11.487 1.894,11.104 1.953,10.985C2.012,10.866 2.356,10.773 2.488,10.806C2.62,10.839 2.805,11.064 2.745,11.183ZM1.214,10.946C1.286,10.928 1.547,11.016 1.581,11.084C1.615,11.152 1.491,11.337 1.419,11.355C1.347,11.374 1.182,11.262 1.147,11.194C1.113,11.125 1.142,10.964 1.214,10.946ZM11.07,10.946C11.142,10.928 11.403,11.016 11.437,11.084C11.471,11.152 11.347,11.337 11.275,11.355C11.203,11.374 11.038,11.262 11.003,11.194C10.969,11.125 10.998,10.964 11.07,10.946ZM0.147,10.586C0.281,10.55 0.77,10.707 0.835,10.834C0.901,10.96 0.674,11.309 0.54,11.345C0.406,11.381 0.094,11.176 0.029,11.05C-0.037,10.923 0.012,10.622 0.147,10.586ZM9.684,11.612C9.819,11.576 10.307,11.733 10.373,11.859C10.438,11.986 10.212,12.334 10.078,12.37C9.943,12.407 9.632,12.202 9.566,12.075C9.501,11.949 9.55,11.648 9.684,11.612ZM9.684,10.486C9.819,10.45 10.307,10.607 10.373,10.733C10.438,10.86 10.212,11.208 10.078,11.244C9.943,11.28 9.632,11.076 9.566,10.949C9.501,10.823 9.55,10.522 9.684,10.486ZM18.96,10.586C19.094,10.55 19.583,10.707 19.648,10.834C19.714,10.96 19.488,11.309 19.353,11.345C19.219,11.381 18.908,11.176 18.842,11.05C18.776,10.923 18.825,10.622 18.96,10.586ZM3.184,10.733C3.256,10.752 3.441,10.955 3.438,11.032C3.435,11.108 3.237,11.209 3.165,11.19C3.093,11.171 3.003,10.993 3.006,10.917C3.009,10.841 3.112,10.714 3.184,10.733ZM13.04,10.733C13.112,10.752 13.297,10.955 13.294,11.032C13.291,11.108 13.093,11.209 13.021,11.19C12.949,11.171 12.859,10.993 12.862,10.917C12.865,10.841 12.968,10.714 13.04,10.733ZM13.962,10.156C14.081,10.216 14.33,10.638 14.297,10.77C14.263,10.902 13.88,11.008 13.761,10.948C13.642,10.889 13.55,10.545 13.583,10.413C13.617,10.281 13.843,10.097 13.962,10.156ZM4.106,10.156C4.225,10.216 4.474,10.638 4.441,10.77C4.407,10.902 4.024,11.008 3.905,10.948C3.786,10.889 3.694,10.545 3.727,10.413C3.761,10.281 3.987,10.097 4.106,10.156ZM17.479,10.474C17.551,10.493 17.736,10.696 17.733,10.772C17.73,10.848 17.532,10.95 17.46,10.931C17.388,10.912 17.298,10.734 17.301,10.658C17.304,10.581 17.407,10.455 17.479,10.474ZM7.623,10.474C7.695,10.493 7.88,10.696 7.877,10.772C7.874,10.848 7.676,10.95 7.604,10.931C7.532,10.912 7.442,10.734 7.445,10.658C7.448,10.581 7.551,10.455 7.623,10.474ZM16.475,10.415C16.483,10.489 16.359,10.734 16.287,10.758C16.215,10.782 16.049,10.634 16.041,10.56C16.033,10.486 16.167,10.338 16.239,10.314C16.312,10.29 16.467,10.341 16.475,10.415ZM6.619,10.415C6.627,10.489 6.503,10.734 6.431,10.758C6.359,10.782 6.193,10.634 6.185,10.56C6.177,10.486 6.311,10.338 6.383,10.314C6.456,10.29 6.611,10.341 6.619,10.415ZM18.401,9.897C18.52,9.956 18.769,10.379 18.736,10.511C18.702,10.643 18.319,10.748 18.2,10.689C18.081,10.629 17.989,10.285 18.023,10.153C18.056,10.021 18.282,9.837 18.401,9.897ZM8.545,9.897C8.664,9.956 8.913,10.379 8.88,10.511C8.846,10.643 8.463,10.748 8.344,10.689C8.225,10.629 8.133,10.285 8.166,10.153C8.2,10.021 8.426,9.837 8.545,9.897ZM3.349,10.269C3.26,10.41 2.702,10.667 2.542,10.609C2.381,10.55 2.298,10.059 2.387,9.919C2.477,9.778 2.917,9.706 3.077,9.765C3.238,9.823 3.439,10.128 3.349,10.269ZM13.205,10.269C13.116,10.41 12.558,10.667 12.398,10.609C12.237,10.55 12.154,10.059 12.244,9.919C12.333,9.778 12.773,9.706 12.933,9.765C13.094,9.823 13.295,10.128 13.205,10.269ZM17.644,10.009C17.555,10.15 16.997,10.408 16.837,10.349C16.676,10.291 16.593,9.8 16.683,9.659C16.772,9.519 17.212,9.447 17.372,9.505C17.533,9.564 17.734,9.869 17.644,10.009ZM7.788,10.009C7.699,10.15 7.141,10.408 6.981,10.349C6.82,10.291 6.737,9.8 6.826,9.659C6.916,9.519 7.356,9.447 7.516,9.505C7.677,9.564 7.878,9.869 7.788,10.009ZM2.093,9.865C2.064,9.933 1.837,10.088 1.762,10.074C1.687,10.06 1.615,9.85 1.644,9.781C1.673,9.712 1.861,9.648 1.936,9.662C2.011,9.676 2.122,9.796 2.093,9.865ZM11.95,9.865C11.921,9.933 11.693,10.088 11.618,10.074C11.543,10.06 11.471,9.85 11.5,9.781C11.529,9.712 11.718,9.648 11.792,9.662C11.867,9.676 11.979,9.796 11.95,9.865ZM9.023,9.341C9.022,9.337 9.022,9.333 9.022,9.329C9.022,9.19 9.3,8.942 9.439,8.912C9.579,8.881 9.857,9.006 9.857,9.146C9.857,9.149 9.857,9.154 9.856,9.158C9.857,9.162 9.857,9.166 9.857,9.17C9.857,9.309 9.579,9.74 9.439,9.771C9.3,9.802 9.022,9.493 9.022,9.354C9.022,9.35 9.022,9.346 9.023,9.341ZM18.391,9.409C18.39,9.404 18.39,9.4 18.39,9.396C18.39,9.257 18.668,9.009 18.807,8.979C18.947,8.948 19.225,9.073 19.225,9.213C19.225,9.217 19.225,9.221 19.224,9.225C19.225,9.229 19.225,9.233 19.225,9.237C19.225,9.376 18.947,9.808 18.807,9.838C18.668,9.869 18.39,9.56 18.39,9.421C18.39,9.417 18.39,9.413 18.391,9.409ZM5.604,9.438C5.602,9.307 5.627,9.166 5.669,9.101C5.746,8.981 6.031,8.872 6.13,8.971C6.206,9.047 6.289,9.369 6.286,9.564C6.287,9.63 6.279,9.685 6.26,9.716C6.183,9.836 5.768,9.814 5.669,9.716C5.621,9.668 5.602,9.555 5.604,9.438ZM15.46,9.438C15.458,9.307 15.483,9.166 15.525,9.101C15.602,8.981 15.888,8.872 15.986,8.971C16.063,9.047 16.145,9.369 16.142,9.564C16.143,9.63 16.135,9.685 16.116,9.716C16.039,9.836 15.624,9.814 15.525,9.716C15.478,9.668 15.458,9.555 15.46,9.438ZM13.299,9.329C13.298,9.27 13.305,9.219 13.323,9.187C13.393,9.067 13.758,8.991 13.894,9.034C14.012,9.072 14.163,9.265 14.153,9.394C14.155,9.422 14.151,9.448 14.138,9.47C14.069,9.591 13.612,9.825 13.476,9.782C13.371,9.749 13.295,9.497 13.299,9.329ZM3.443,9.329C3.442,9.27 3.449,9.219 3.467,9.187C3.537,9.067 3.902,8.991 4.038,9.034C4.156,9.072 4.307,9.265 4.297,9.394C4.299,9.422 4.295,9.448 4.282,9.47C4.213,9.591 3.756,9.825 3.62,9.782C3.515,9.749 3.439,9.497 3.443,9.329ZM2.473,8.428C2.485,8.604 2.168,9.175 1.995,9.225C1.821,9.276 1.442,8.908 1.43,8.732C1.418,8.555 1.75,8.218 1.924,8.167C2.098,8.116 2.461,8.252 2.473,8.428ZM12.329,8.428C12.341,8.604 12.024,9.175 11.851,9.225C11.677,9.276 11.298,8.908 11.286,8.732C11.274,8.555 11.606,8.218 11.78,8.167C11.954,8.116 12.317,8.252 12.329,8.428ZM15.289,9.035C15.145,9.138 14.493,9.168 14.359,9.046C14.225,8.925 14.339,8.409 14.483,8.307C14.627,8.204 15.089,8.309 15.223,8.431C15.357,8.552 15.433,8.933 15.289,9.035ZM5.433,9.035C5.289,9.138 4.637,9.168 4.503,9.046C4.369,8.925 4.483,8.409 4.627,8.307C4.771,8.204 5.233,8.309 5.367,8.431C5.501,8.552 5.577,8.933 5.433,9.035ZM17.093,8.652C17.166,8.634 17.426,8.721 17.46,8.79C17.494,8.858 17.371,9.043 17.298,9.061C17.226,9.079 17.061,8.967 17.027,8.899C16.993,8.831 17.021,8.67 17.093,8.652ZM7.237,8.652C7.31,8.634 7.57,8.721 7.604,8.79C7.638,8.858 7.514,9.043 7.442,9.061C7.37,9.079 7.205,8.967 7.171,8.899C7.137,8.831 7.165,8.67 7.237,8.652ZM17.799,8.831C17.747,8.709 17.831,8.226 17.942,8.147C18.053,8.068 18.413,8.236 18.465,8.359C18.517,8.481 18.364,8.803 18.253,8.882C18.142,8.961 17.85,8.954 17.799,8.831ZM7.943,8.831C7.891,8.709 7.975,8.226 8.086,8.147C8.197,8.068 8.557,8.236 8.609,8.359C8.661,8.481 8.508,8.803 8.397,8.882C8.286,8.961 7.994,8.954 7.943,8.831ZM13.541,8.193C13.547,8.326 13.3,8.75 13.168,8.785C13.037,8.82 12.758,8.537 12.752,8.404C12.746,8.271 13.001,8.023 13.132,7.988C13.264,7.953 13.535,8.06 13.541,8.193ZM3.685,8.193C3.691,8.326 3.444,8.75 3.312,8.785C3.18,8.82 2.901,8.537 2.895,8.404C2.889,8.271 3.145,8.023 3.276,7.988C3.408,7.953 3.679,8.06 3.685,8.193ZM16.274,8.16C16.346,8.142 16.607,8.23 16.641,8.298C16.675,8.366 16.551,8.551 16.479,8.569C16.407,8.588 16.242,8.476 16.207,8.407C16.173,8.339 16.202,8.178 16.274,8.16ZM6.418,8.16C6.49,8.142 6.75,8.23 6.785,8.298C6.819,8.366 6.695,8.551 6.623,8.569C6.551,8.588 6.385,8.476 6.351,8.407C6.317,8.339 6.346,8.178 6.418,8.16ZM9.948,3.284C10.046,3.383 10.154,3.884 10.078,4.004C10.001,4.124 9.586,4.103 9.487,4.004C9.389,3.906 9.411,3.534 9.487,3.414C9.564,3.294 9.849,3.186 9.948,3.284ZM19.41,7.681C19.509,7.779 19.617,8.281 19.54,8.401C19.463,8.521 19.048,8.499 18.95,8.401C18.851,8.302 18.873,7.931 18.95,7.811C19.026,7.691 19.312,7.582 19.41,7.681ZM10.453,7.681C10.552,7.779 10.66,8.281 10.583,8.401C10.506,8.521 10.091,8.499 9.993,8.401C9.894,8.302 9.916,7.931 9.993,7.811C10.069,7.691 10.355,7.582 10.453,7.681ZM0.597,7.681C0.695,7.779 0.804,8.281 0.727,8.401C0.65,8.521 0.235,8.499 0.137,8.401C0.038,8.302 0.06,7.931 0.137,7.811C0.213,7.691 0.499,7.582 0.597,7.681ZM5.305,7.538C5.426,7.506 5.867,7.648 5.927,7.762C5.986,7.876 5.781,8.191 5.66,8.223C5.539,8.256 5.258,8.071 5.199,7.957C5.139,7.843 5.184,7.571 5.305,7.538ZM15.161,7.538C15.282,7.506 15.723,7.648 15.783,7.762C15.842,7.876 15.637,8.191 15.516,8.223C15.395,8.256 15.114,8.071 15.055,7.957C14.996,7.843 15.04,7.571 15.161,7.538ZM0.99,7.387C1.112,7.355 1.553,7.497 1.612,7.611C1.671,7.725 1.467,8.04 1.345,8.072C1.224,8.105 0.943,7.92 0.884,7.806C0.825,7.692 0.869,7.42 0.99,7.387ZM10.846,7.387C10.968,7.355 11.409,7.497 11.468,7.611C11.527,7.725 11.323,8.04 11.202,8.072C11.08,8.105 10.799,7.92 10.74,7.806C10.681,7.692 10.725,7.42 10.846,7.387ZM3.85,7.586C3.922,7.568 4.183,7.656 4.217,7.724C4.251,7.792 4.127,7.977 4.055,7.996C3.983,8.014 3.818,7.902 3.784,7.834C3.749,7.766 3.778,7.605 3.85,7.586ZM13.706,7.586C13.778,7.568 14.039,7.656 14.073,7.724C14.107,7.792 13.983,7.977 13.911,7.996C13.839,8.014 13.674,7.902 13.64,7.834C13.605,7.766 13.634,7.605 13.706,7.586ZM3.769,7.1C3.759,7.267 3.396,7.763 3.228,7.789C3.059,7.816 2.748,7.427 2.758,7.261C2.768,7.095 3.118,6.818 3.286,6.792C3.455,6.765 3.779,6.934 3.769,7.1ZM13.625,7.1C13.615,7.267 13.252,7.763 13.084,7.789C12.915,7.816 12.604,7.427 12.614,7.261C12.624,7.095 12.974,6.818 13.143,6.792C13.311,6.765 13.635,6.934 13.625,7.1ZM12.331,7.356C12.339,7.43 12.215,7.676 12.143,7.7C12.07,7.724 11.905,7.576 11.897,7.502C11.889,7.427 12.023,7.28 12.095,7.256C12.168,7.231 12.323,7.282 12.331,7.356ZM2.475,7.356C2.483,7.43 2.359,7.676 2.287,7.7C2.214,7.724 2.049,7.576 2.041,7.502C2.033,7.427 2.167,7.28 2.239,7.256C2.311,7.231 2.467,7.282 2.475,7.356ZM8.257,7.347C8.265,7.422 8.141,7.667 8.069,7.691C7.997,7.715 7.831,7.567 7.823,7.493C7.815,7.419 7.949,7.271 8.021,7.247C8.094,7.223 8.249,7.273 8.257,7.347ZM18.113,7.347C18.121,7.422 17.997,7.667 17.925,7.691C17.853,7.715 17.687,7.567 17.679,7.493C17.671,7.419 17.805,7.271 17.877,7.247C17.95,7.223 18.105,7.273 18.113,7.347ZM14.232,6.635C14.365,6.629 14.788,6.878 14.823,7.009C14.857,7.141 14.574,7.419 14.441,7.425C14.308,7.43 14.06,7.174 14.025,7.043C13.991,6.911 14.099,6.64 14.232,6.635ZM4.376,6.635C4.509,6.629 4.932,6.878 4.967,7.009C5.001,7.141 4.718,7.419 4.585,7.425C4.452,7.43 4.204,7.174 4.169,7.043C4.135,6.911 4.243,6.64 4.376,6.635ZM5.689,6.774C5.697,6.848 5.573,7.093 5.501,7.117C5.429,7.142 5.263,6.993 5.255,6.919C5.247,6.845 5.381,6.697 5.454,6.673C5.526,6.649 5.681,6.7 5.689,6.774ZM15.545,6.774C15.553,6.848 15.429,7.093 15.357,7.117C15.285,7.142 15.119,6.993 15.111,6.919C15.103,6.845 15.237,6.697 15.31,6.673C15.382,6.649 15.537,6.7 15.545,6.774ZM15.763,6.906C15.712,6.783 15.796,6.3 15.907,6.221C16.018,6.142 16.378,6.311 16.43,6.433C16.482,6.556 16.329,6.877 16.218,6.956C16.107,7.035 15.815,7.028 15.763,6.906ZM5.907,6.906C5.856,6.783 5.94,6.3 6.051,6.221C6.162,6.142 6.522,6.311 6.574,6.433C6.626,6.556 6.473,6.877 6.362,6.956C6.251,7.035 5.959,7.028 5.907,6.906ZM7.501,6.895C7.339,6.824 6.978,6.28 7.013,6.103C7.049,5.925 7.55,5.758 7.712,5.829C7.874,5.9 8.021,6.35 7.985,6.528C7.95,6.705 7.663,6.965 7.501,6.895ZM17.357,6.895C17.195,6.824 16.834,6.28 16.869,6.103C16.905,5.925 17.406,5.758 17.568,5.829C17.73,5.9 17.877,6.35 17.841,6.528C17.806,6.705 17.519,6.965 17.357,6.895ZM1.136,6.236C1.144,6.31 1.02,6.556 0.948,6.58C0.876,6.604 0.71,6.456 0.702,6.382C0.694,6.307 0.828,6.16 0.901,6.136C0.973,6.111 1.128,6.162 1.136,6.236ZM10.992,6.236C11,6.31 10.877,6.556 10.804,6.58C10.732,6.604 10.566,6.456 10.558,6.382C10.55,6.307 10.684,6.16 10.757,6.136C10.829,6.111 10.984,6.162 10.992,6.236ZM8.343,5.991C8.416,6.004 8.618,6.19 8.622,6.266C8.625,6.342 8.437,6.461 8.364,6.448C8.29,6.436 8.185,6.266 8.181,6.19C8.178,6.114 8.269,5.978 8.343,5.991ZM18.199,5.991C18.272,6.004 18.474,6.19 18.478,6.266C18.482,6.342 18.293,6.461 18.22,6.448C18.146,6.436 18.041,6.266 18.038,6.19C18.034,6.114 18.125,5.978 18.199,5.991ZM3.34,6.332C3.288,6.209 3.372,5.726 3.483,5.647C3.594,5.569 3.954,5.737 4.006,5.859C4.058,5.982 3.905,6.304 3.794,6.382C3.683,6.461 3.391,6.454 3.34,6.332ZM13.196,6.332C13.144,6.209 13.228,5.726 13.339,5.647C13.45,5.569 13.81,5.737 13.862,5.859C13.914,5.982 13.761,6.304 13.65,6.382C13.539,6.461 13.247,6.454 13.196,6.332ZM2.072,5.327C2.249,5.319 2.811,5.65 2.857,5.825C2.904,6 2.526,6.369 2.35,6.377C2.173,6.384 1.844,6.044 1.797,5.869C1.751,5.694 1.895,5.334 2.072,5.327ZM11.928,5.327C12.105,5.319 12.667,5.65 12.713,5.825C12.76,6 12.382,6.369 12.206,6.377C12.029,6.384 11.7,6.044 11.654,5.869C11.607,5.694 11.752,5.334 11.928,5.327ZM5.775,5.417C5.848,5.43 6.051,5.616 6.054,5.692C6.058,5.768 5.869,5.887 5.796,5.874C5.723,5.862 5.617,5.693 5.614,5.616C5.61,5.54 5.702,5.405 5.775,5.417ZM15.631,5.417C15.704,5.43 15.907,5.616 15.91,5.692C15.914,5.768 15.725,5.887 15.652,5.874C15.579,5.862 15.473,5.693 15.47,5.616C15.466,5.54 15.558,5.405 15.631,5.417ZM0.883,5.441C0.814,5.562 0.357,5.796 0.221,5.753C0.086,5.71 -0.001,5.303 0.069,5.183C0.138,5.062 0.503,4.987 0.639,5.03C0.775,5.073 0.953,5.321 0.883,5.441ZM10.74,5.441C10.67,5.562 10.213,5.796 10.078,5.753C9.942,5.71 9.855,5.303 9.925,5.183C9.994,5.062 10.359,4.987 10.495,5.03C10.631,5.073 10.809,5.321 10.74,5.441ZM19.697,5.441C19.627,5.562 19.17,5.796 19.035,5.753C18.899,5.71 18.812,5.303 18.882,5.183C18.951,5.062 19.316,4.987 19.452,5.03C19.588,5.073 19.766,5.321 19.697,5.441ZM10.03,6.632C9.961,6.753 9.504,6.987 9.368,6.944C9.232,6.901 9.146,6.494 9.215,6.374C9.285,6.253 9.65,6.178 9.786,6.221C9.921,6.264 10.1,6.512 10.03,6.632ZM1.328,5.267C1.397,5.295 1.555,5.52 1.541,5.595C1.528,5.67 1.319,5.746 1.25,5.717C1.181,5.689 1.115,5.501 1.128,5.426C1.141,5.351 1.26,5.238 1.328,5.267ZM11.185,5.267C11.253,5.295 11.411,5.52 11.398,5.595C11.384,5.67 11.175,5.746 11.106,5.717C11.037,5.689 10.971,5.501 10.984,5.426C10.997,5.351 11.116,5.238 11.185,5.267ZM7.124,5.061C7.132,5.135 7.009,5.38 6.936,5.404C6.864,5.429 6.698,5.28 6.69,5.206C6.682,5.132 6.816,4.984 6.889,4.96C6.961,4.936 7.116,4.987 7.124,5.061ZM16.98,5.061C16.988,5.135 16.865,5.38 16.792,5.404C16.72,5.429 16.554,5.28 16.546,5.206C16.539,5.132 16.673,4.984 16.745,4.96C16.817,4.936 16.972,4.987 16.98,5.061ZM7.777,4.436C7.91,4.43 8.333,4.679 8.368,4.81C8.402,4.942 8.119,5.22 7.986,5.226C7.853,5.231 7.605,4.975 7.57,4.844C7.536,4.712 7.644,4.441 7.777,4.436ZM17.633,4.436C17.766,4.43 18.189,4.679 18.224,4.81C18.258,4.942 17.975,5.22 17.842,5.226C17.709,5.231 17.461,4.975 17.426,4.844C17.392,4.712 17.5,4.441 17.633,4.436ZM3.707,5.044C3.563,5.147 2.911,5.177 2.777,5.055C2.643,4.934 2.757,4.418 2.901,4.316C3.045,4.213 3.507,4.318 3.641,4.44C3.775,4.561 3.851,4.942 3.707,5.044ZM13.563,5.044C13.419,5.147 12.767,5.177 12.633,5.055C12.499,4.934 12.613,4.418 12.757,4.316C12.901,4.213 13.363,4.318 13.497,4.44C13.631,4.561 13.707,4.942 13.563,5.044ZM15.769,4.582C15.841,4.563 16.101,4.651 16.135,4.719C16.169,4.787 16.046,4.972 15.973,4.991C15.901,5.009 15.736,4.897 15.702,4.829C15.668,4.761 15.696,4.6 15.769,4.582ZM5.913,4.582C5.985,4.563 6.245,4.651 6.279,4.719C6.313,4.787 6.19,4.972 6.117,4.991C6.045,5.009 5.88,4.897 5.846,4.829C5.812,4.761 5.84,4.6 5.913,4.582ZM1.562,4.27C1.683,4.237 2.124,4.379 2.184,4.493C2.243,4.608 2.038,4.922 1.917,4.955C1.796,4.987 1.515,4.803 1.456,4.688C1.397,4.574 1.441,4.302 1.562,4.27ZM11.418,4.27C11.539,4.237 11.98,4.379 12.04,4.493C12.099,4.608 11.895,4.922 11.773,4.955C11.652,4.987 11.371,4.803 11.312,4.688C11.253,4.574 11.297,4.302 11.418,4.27ZM4.556,4.487C4.564,4.561 4.441,4.807 4.369,4.831C4.296,4.855 4.13,4.706 4.123,4.632C4.115,4.558 4.249,4.411 4.321,4.386C4.393,4.362 4.549,4.413 4.556,4.487ZM14.413,4.487C14.42,4.561 14.297,4.807 14.225,4.831C14.152,4.855 13.987,4.706 13.979,4.632C13.971,4.558 14.105,4.411 14.177,4.386C14.249,4.362 14.405,4.413 14.413,4.487ZM0.823,4.228C0.892,4.257 1.049,4.482 1.036,4.557C1.023,4.632 0.814,4.707 0.745,4.679C0.676,4.651 0.609,4.463 0.623,4.388C0.636,4.313 0.754,4.2 0.823,4.228ZM10.679,4.228C10.748,4.257 10.905,4.482 10.892,4.557C10.879,4.632 10.67,4.707 10.601,4.679C10.532,4.651 10.466,4.463 10.479,4.388C10.492,4.313 10.61,4.2 10.679,4.228ZM8.726,4.24C8.798,4.222 9.059,4.31 9.093,4.378C9.127,4.446 9.003,4.631 8.931,4.649C8.859,4.668 8.694,4.556 8.66,4.487C8.625,4.419 8.654,4.258 8.726,4.24ZM18.582,4.24C18.654,4.222 18.915,4.31 18.949,4.378C18.983,4.446 18.859,4.631 18.787,4.649C18.715,4.668 18.55,4.556 18.516,4.487C18.482,4.419 18.51,4.258 18.582,4.24ZM5.055,3.841C5.188,3.835 5.611,4.084 5.646,4.215C5.681,4.347 5.397,4.625 5.264,4.631C5.131,4.636 4.884,4.381 4.849,4.249C4.814,4.117 4.923,3.847 5.055,3.841ZM14.912,3.841C15.044,3.835 15.467,4.084 15.502,4.215C15.537,4.347 15.253,4.625 15.12,4.631C14.987,4.636 14.74,4.381 14.705,4.249C14.67,4.117 14.779,3.847 14.912,3.841ZM6.438,3.63C6.571,3.624 6.994,3.873 7.029,4.004C7.064,4.136 6.78,4.414 6.647,4.42C6.514,4.425 6.267,4.169 6.232,4.038C6.197,3.906 6.306,3.635 6.438,3.63ZM16.294,3.63C16.427,3.624 16.85,3.873 16.885,4.004C16.92,4.136 16.636,4.414 16.503,4.42C16.37,4.425 16.123,4.169 16.088,4.038C16.053,3.906 16.162,3.635 16.294,3.63ZM10.98,3.143C11.111,3.165 11.472,3.497 11.478,3.633C11.485,3.77 11.149,3.982 11.018,3.959C10.886,3.936 10.698,3.634 10.692,3.498C10.686,3.362 10.849,3.12 10.98,3.143ZM1.124,3.143C1.255,3.165 1.616,3.497 1.622,3.633C1.629,3.77 1.293,3.982 1.161,3.959C1.03,3.936 0.842,3.634 0.836,3.498C0.83,3.362 0.993,3.12 1.124,3.143ZM13.401,3.668C13.349,3.546 13.433,3.063 13.544,2.984C13.655,2.905 14.015,3.074 14.067,3.196C14.119,3.318 13.966,3.64 13.855,3.719C13.744,3.798 13.452,3.791 13.401,3.668ZM3.544,3.668C3.493,3.546 3.577,3.063 3.688,2.984C3.799,2.905 4.159,3.074 4.211,3.196C4.263,3.318 4.11,3.64 3.999,3.719C3.888,3.798 3.596,3.791 3.544,3.668ZM5.402,3.327C5.35,3.205 5.435,2.721 5.546,2.643C5.657,2.564 6.017,2.732 6.069,2.855C6.12,2.977 5.968,3.299 5.857,3.377C5.745,3.456 5.454,3.449 5.402,3.327ZM15.258,3.327C15.206,3.205 15.291,2.721 15.402,2.643C15.513,2.564 15.873,2.732 15.925,2.855C15.976,2.977 15.824,3.299 15.713,3.377C15.602,3.456 15.31,3.449 15.258,3.327ZM18.5,2.983C18.573,2.965 18.833,3.053 18.867,3.121C18.901,3.189 18.777,3.374 18.705,3.393C18.633,3.411 18.468,3.299 18.434,3.231C18.4,3.163 18.428,3.002 18.5,2.983ZM8.644,2.983C8.716,2.965 8.977,3.053 9.011,3.121C9.045,3.189 8.921,3.374 8.849,3.393C8.777,3.411 8.612,3.299 8.578,3.231C8.544,3.163 8.572,3.002 8.644,2.983ZM14.362,2.505C14.434,2.487 14.694,2.575 14.728,2.643C14.763,2.711 14.639,2.896 14.567,2.915C14.494,2.933 14.329,2.821 14.295,2.753C14.261,2.685 14.29,2.524 14.362,2.505ZM4.506,2.505C4.578,2.487 4.838,2.575 4.872,2.643C4.907,2.711 4.783,2.896 4.711,2.915C4.638,2.933 4.473,2.821 4.439,2.753C4.405,2.685 4.433,2.524 4.506,2.505ZM17.693,2.413C17.767,2.425 17.969,2.611 17.973,2.687C17.976,2.763 17.788,2.882 17.715,2.87C17.641,2.857 17.536,2.688 17.532,2.612C17.529,2.535 17.62,2.4 17.693,2.413ZM7.837,2.413C7.911,2.425 8.113,2.611 8.117,2.687C8.12,2.763 7.932,2.882 7.858,2.87C7.785,2.857 7.68,2.688 7.676,2.612C7.673,2.535 7.764,2.4 7.837,2.413ZM12.601,2.251C12.542,2.37 12.12,2.621 11.988,2.588C11.856,2.554 11.75,2.172 11.809,2.053C11.868,1.934 12.212,1.84 12.344,1.873C12.476,1.906 12.661,2.132 12.601,2.251ZM2.745,2.251C2.686,2.37 2.264,2.621 2.132,2.588C2,2.554 1.894,2.172 1.953,2.053C2.012,1.934 2.356,1.84 2.488,1.873C2.62,1.906 2.805,2.132 2.745,2.251ZM11.07,2.014C11.142,1.995 11.403,2.083 11.437,2.151C11.471,2.22 11.347,2.405 11.275,2.423C11.203,2.441 11.038,2.329 11.003,2.261C10.969,2.193 10.998,2.032 11.07,2.014ZM1.214,2.014C1.286,1.995 1.547,2.083 1.581,2.151C1.615,2.22 1.491,2.405 1.419,2.423C1.347,2.441 1.182,2.329 1.147,2.261C1.113,2.193 1.142,2.032 1.214,2.014ZM0.147,1.654C0.281,1.618 0.77,1.775 0.835,1.901C0.901,2.028 0.674,2.377 0.54,2.413C0.406,2.449 0.094,2.244 0.029,2.117C-0.037,1.991 0.012,1.69 0.147,1.654ZM9.104,1.654C9.238,1.618 9.727,1.775 9.792,1.901C9.858,2.028 9.632,2.377 9.497,2.413C9.363,2.449 9.051,2.244 8.986,2.117C8.92,1.991 8.969,1.69 9.104,1.654ZM9.91,0.76C10.045,0.724 10.533,0.881 10.599,1.008C10.664,1.134 10.438,1.483 10.303,1.519C10.169,1.555 9.858,1.35 9.792,1.224C9.727,1.097 9.776,0.796 9.91,0.76ZM18.96,1.654C19.094,1.618 19.583,1.775 19.648,1.901C19.714,2.028 19.488,2.377 19.353,2.413C19.219,2.449 18.908,2.244 18.842,2.117C18.776,1.991 18.825,1.69 18.96,1.654ZM13.04,1.801C13.112,1.82 13.297,2.023 13.294,2.099C13.291,2.175 13.093,2.277 13.021,2.258C12.949,2.239 12.859,2.061 12.862,1.985C12.865,1.909 12.968,1.782 13.04,1.801ZM3.184,1.801C3.256,1.82 3.441,2.023 3.438,2.099C3.435,2.175 3.237,2.277 3.165,2.258C3.093,2.239 3.003,2.061 3.006,1.985C3.009,1.909 3.112,1.782 3.184,1.801ZM4.106,1.224C4.225,1.283 4.474,1.706 4.441,1.838C4.407,1.97 4.024,2.075 3.905,2.016C3.786,1.956 3.694,1.612 3.727,1.48C3.761,1.348 3.987,1.164 4.106,1.224ZM13.962,1.224C14.081,1.283 14.33,1.706 14.297,1.838C14.263,1.97 13.88,2.075 13.761,2.016C13.642,1.956 13.55,1.612 13.583,1.48C13.617,1.348 13.843,1.164 13.962,1.224ZM17.479,1.541C17.551,1.56 17.736,1.763 17.733,1.84C17.73,1.916 17.532,2.018 17.46,1.998C17.388,1.979 17.298,1.801 17.301,1.725C17.304,1.649 17.407,1.522 17.479,1.541ZM7.623,1.541C7.695,1.56 7.88,1.763 7.877,1.84C7.874,1.916 7.676,2.018 7.604,1.998C7.532,1.979 7.442,1.801 7.445,1.725C7.448,1.649 7.551,1.522 7.623,1.541ZM16.475,1.482C16.483,1.556 16.359,1.802 16.287,1.826C16.215,1.85 16.049,1.701 16.041,1.627C16.033,1.553 16.167,1.406 16.239,1.381C16.312,1.357 16.467,1.408 16.475,1.482ZM6.619,1.482C6.627,1.556 6.503,1.802 6.431,1.826C6.359,1.85 6.193,1.701 6.185,1.627C6.177,1.553 6.311,1.406 6.383,1.381C6.456,1.357 6.611,1.408 6.619,1.482ZM18.401,0.964C18.52,1.024 18.769,1.446 18.736,1.578C18.702,1.71 18.319,1.816 18.2,1.756C18.081,1.697 17.989,1.353 18.023,1.221C18.056,1.089 18.282,0.905 18.401,0.964ZM8.545,0.964C8.664,1.024 8.913,1.446 8.88,1.578C8.846,1.71 8.463,1.816 8.344,1.756C8.225,1.697 8.133,1.353 8.166,1.221C8.2,1.089 8.426,0.905 8.545,0.964ZM3.349,1.337C3.26,1.477 2.702,1.735 2.542,1.676C2.381,1.618 2.298,1.127 2.387,0.986C2.477,0.846 2.917,0.774 3.077,0.832C3.238,0.891 3.439,1.196 3.349,1.337ZM13.205,1.337C13.116,1.477 12.558,1.735 12.398,1.676C12.237,1.618 12.154,1.127 12.244,0.986C12.333,0.846 12.773,0.774 12.933,0.832C13.094,0.891 13.295,1.196 13.205,1.337ZM17.644,1.077C17.555,1.218 16.997,1.475 16.837,1.417C16.676,1.358 16.593,0.867 16.683,0.727C16.772,0.586 17.212,0.514 17.372,0.573C17.533,0.631 17.734,0.936 17.644,1.077ZM7.788,1.077C7.699,1.218 7.141,1.475 6.981,1.417C6.82,1.358 6.737,0.867 6.826,0.727C6.916,0.586 7.356,0.514 7.516,0.573C7.677,0.631 7.878,0.936 7.788,1.077ZM2.093,0.932C2.064,1.001 1.837,1.155 1.762,1.141C1.687,1.127 1.615,0.917 1.644,0.849C1.673,0.78 1.861,0.716 1.936,0.73C2.011,0.744 2.122,0.863 2.093,0.932ZM11.95,0.932C11.921,1.001 11.693,1.155 11.618,1.141C11.543,1.127 11.471,0.917 11.5,0.849C11.529,0.78 11.718,0.716 11.792,0.73C11.867,0.744 11.979,0.863 11.95,0.932ZM9.369,0.28C9.369,0.419 9.091,0.85 8.951,0.881C8.812,0.912 8.534,0.603 8.534,0.464C8.534,0.325 8.812,0.077 8.951,0.046C9.091,0.016 9.369,0.141 9.369,0.28ZM19.225,0.28C19.225,0.419 18.947,0.85 18.807,0.881C18.668,0.912 18.39,0.603 18.39,0.464C18.39,0.325 18.668,0.077 18.807,0.046C18.947,0.016 19.225,0.141 19.225,0.28ZM15.986,0.038C16.084,0.137 16.192,0.638 16.116,0.758C16.039,0.878 15.624,0.857 15.525,0.758C15.427,0.66 15.449,0.288 15.525,0.168C15.602,0.048 15.888,-0.06 15.986,0.038ZM6.13,0.038C6.228,0.137 6.336,0.638 6.26,0.758C6.183,0.878 5.768,0.857 5.669,0.758C5.571,0.66 5.593,0.288 5.669,0.168C5.746,0.048 6.031,-0.06 6.13,0.038ZM14.138,0.513C14.069,0.634 13.612,0.868 13.476,0.825C13.34,0.782 13.254,0.375 13.323,0.255C13.393,0.134 13.758,0.059 13.894,0.102C14.029,0.145 14.208,0.393 14.138,0.513ZM4.282,0.513C4.213,0.634 3.756,0.868 3.62,0.825C3.484,0.782 3.398,0.375 3.467,0.255C3.537,0.134 3.902,0.059 4.038,0.102C4.173,0.145 4.352,0.393 4.282,0.513Z" style="fill:rgb(43,43,43);fill-opacity:0.15;"/>
                </g>
                <g transform="matrix(4.97513e-17,-0.8125,0.8125,4.97513e-17,25.5545,20.9527)">
                    <path d="M10.131,2.378C10.264,2.373 10.687,2.621 10.722,2.753C10.757,2.884 9.96,2.918 9.925,2.786C9.89,2.655 9.998,2.384 10.131,2.378ZM8.931,5.155C9.064,5.149 9.487,5.398 9.522,5.529C9.54,5.598 9.33,5.873 9.12,5.879C8.93,5.884 8.741,5.625 8.724,5.563C8.69,5.431 8.798,5.16 8.931,5.155ZM11.944,15.605C11.95,15.737 11.703,16.161 11.572,16.196C11.44,16.232 11.161,15.949 11.155,15.816C11.149,15.683 11.404,15.434 11.536,15.399C11.667,15.364 11.938,15.472 11.944,15.605ZM2.088,15.605C2.094,15.737 1.847,16.161 1.716,16.196C1.584,16.232 1.305,15.949 1.299,15.816C1.293,15.683 1.548,15.434 1.68,15.399C1.811,15.364 2.082,15.472 2.088,15.605ZM18.656,15.392C18.757,15.388 19.076,15.575 19.102,15.675C19.129,15.774 18.914,15.984 18.814,15.989C18.714,15.993 18.527,15.8 18.5,15.7C18.474,15.601 18.556,15.396 18.656,15.392ZM9.33,15.508C9.43,15.503 9.749,15.691 9.776,15.791C9.802,15.89 9.588,16.1 9.487,16.104C9.387,16.108 9.2,15.915 9.174,15.816C9.147,15.716 9.229,15.512 9.33,15.508ZM14.789,15.253C14.627,15.183 14.266,14.639 14.302,14.462C14.337,14.284 14.838,14.117 15,14.188C15.162,14.259 15.309,14.709 15.274,14.886C15.239,15.064 14.951,15.324 14.789,15.253ZM4.933,15.253C4.771,15.183 4.41,14.639 4.446,14.462C4.481,14.284 4.982,14.117 5.144,14.188C5.306,14.259 5.453,14.709 5.418,14.886C5.382,15.064 5.095,15.324 4.933,15.253ZM17.608,12.701C17.616,12.775 17.492,13.021 17.42,13.045C17.347,13.069 17.182,12.921 17.174,12.847C17.166,12.773 17.3,12.625 17.372,12.601C17.444,12.576 17.6,12.627 17.608,12.701ZM7.752,12.701C7.759,12.775 7.636,13.021 7.564,13.045C7.491,13.069 7.326,12.921 7.318,12.847C7.31,12.773 7.444,12.625 7.516,12.601C7.588,12.576 7.744,12.627 7.752,12.701ZM3.046,11.993C3.058,12.169 2.742,12.739 2.568,12.79C2.394,12.841 2.015,12.473 2.004,12.296C1.992,12.12 2.324,11.782 2.497,11.732C2.671,11.681 3.035,11.816 3.046,11.993ZM12.902,11.993C12.914,12.169 12.598,12.739 12.424,12.79C12.25,12.841 11.871,12.473 11.86,12.296C11.848,12.12 12.18,11.782 12.353,11.732C12.527,11.681 12.891,11.816 12.902,11.993ZM16.852,12.248C16.689,12.178 16.329,11.634 16.364,11.457C16.399,11.279 16.9,11.112 17.062,11.183C17.224,11.254 17.371,11.704 17.336,11.881C17.301,12.059 17.014,12.319 16.852,12.248ZM6.995,12.248C6.833,12.178 6.473,11.634 6.508,11.457C6.543,11.279 7.044,11.112 7.206,11.183C7.368,11.254 7.515,11.704 7.48,11.881C7.445,12.059 7.157,12.319 6.995,12.248ZM15.024,10.131C15.157,10.125 15.58,10.374 15.615,10.506C15.65,10.637 15.366,10.915 15.233,10.921C15.1,10.926 14.852,10.671 14.818,10.539C14.783,10.407 14.891,10.137 15.024,10.131ZM5.168,10.131C5.301,10.125 5.724,10.374 5.759,10.506C5.794,10.637 5.51,10.915 5.377,10.921C5.244,10.926 4.996,10.671 4.962,10.539C4.927,10.407 5.035,10.137 5.168,10.131ZM10.585,9.36C10.578,9.214 10.694,8.977 10.823,8.977C10.962,8.977 11.393,9.256 11.424,9.395C11.426,9.405 11.426,9.416 11.425,9.428C11.442,9.57 11.143,9.837 11.006,9.837C10.867,9.837 10.619,9.559 10.589,9.419C10.585,9.402 10.584,9.382 10.585,9.36ZM0.728,9.36C0.722,9.214 0.838,8.977 0.967,8.977C1.106,8.977 1.537,9.256 1.568,9.395C1.57,9.405 1.57,9.416 1.569,9.428C1.586,9.57 1.287,9.837 1.15,9.837C1.011,9.837 0.763,9.559 0.733,9.419C0.729,9.402 0.728,9.382 0.728,9.36ZM6.944,7.208C7.077,7.203 7.5,7.451 7.534,7.583C7.569,7.715 7.285,7.993 7.153,7.998C7.02,8.004 6.772,7.748 6.737,7.616C6.702,7.485 6.811,7.214 6.944,7.208ZM16.8,7.208C16.933,7.203 17.356,7.451 17.39,7.583C17.425,7.715 17.141,7.993 17.009,7.998C16.876,8.004 16.628,7.748 16.593,7.616C16.558,7.485 16.667,7.214 16.8,7.208ZM11.944,6.672C11.95,6.805 11.703,7.229 11.572,7.264C11.44,7.299 11.161,7.016 11.155,6.883C11.149,6.751 11.404,6.502 11.536,6.467C11.667,6.432 11.938,6.539 11.944,6.672ZM2.088,6.672C2.094,6.805 1.847,7.229 1.716,7.264C1.584,7.299 1.305,7.016 1.299,6.883C1.293,6.751 1.548,6.502 1.68,6.467C1.811,6.432 2.082,6.539 2.088,6.672ZM18.656,6.459C18.757,6.455 19.076,6.643 19.102,6.742C19.129,6.842 18.914,7.052 18.814,7.056C18.714,7.06 18.527,6.867 18.5,6.768C18.474,6.668 18.556,6.464 18.656,6.459ZM9.12,7.275C9.221,7.27 9.54,7.458 9.566,7.558C9.593,7.657 9.378,7.867 9.278,7.871C9.178,7.876 8.99,7.682 8.964,7.583C8.938,7.483 9.02,7.279 9.12,7.275ZM14.789,6.321C14.627,6.25 14.266,5.707 14.302,5.529C14.337,5.352 14.838,5.185 15,5.255C15.162,5.326 15.309,5.776 15.274,5.954C15.239,6.131 14.951,6.392 14.789,6.321ZM4.933,6.321C4.771,6.25 4.41,5.707 4.446,5.529C4.481,5.352 4.982,5.185 5.144,5.255C5.306,5.326 5.453,5.776 5.418,5.954C5.382,6.131 5.095,6.392 4.933,6.321ZM17.608,3.769C17.616,3.843 17.492,4.088 17.42,4.113C17.347,4.137 17.182,3.988 17.174,3.914C17.166,3.84 17.3,3.692 17.372,3.668C17.444,3.644 17.6,3.695 17.608,3.769ZM7.752,3.769C7.759,3.843 7.636,4.088 7.564,4.113C7.491,4.137 7.326,3.988 7.318,3.914C7.31,3.84 7.444,3.692 7.516,3.668C7.588,3.644 7.744,3.695 7.752,3.769ZM12.902,3.06C12.914,3.237 12.598,3.807 12.424,3.858C12.25,3.908 11.871,3.54 11.86,3.364C11.848,3.187 12.18,2.85 12.353,2.799C12.527,2.749 12.891,2.884 12.902,3.06ZM3.046,3.06C3.058,3.237 2.742,3.807 2.568,3.858C2.394,3.908 2.015,3.54 2.004,3.364C1.992,3.187 2.324,2.85 2.497,2.799C2.671,2.749 3.035,2.884 3.046,3.06ZM16.852,3.316C16.689,3.245 16.329,2.702 16.364,2.524C16.399,2.347 16.9,2.18 17.062,2.251C17.224,2.321 17.371,2.771 17.336,2.949C17.301,3.127 17.014,3.387 16.852,3.316ZM6.995,3.316C6.833,3.245 6.473,2.702 6.508,2.524C6.543,2.347 7.044,2.18 7.206,2.251C7.368,2.321 7.515,2.771 7.48,2.949C7.445,3.127 7.157,3.387 6.995,3.316ZM15.024,1.199C15.157,1.193 15.58,1.441 15.615,1.573C15.65,1.705 15.366,1.983 15.233,1.988C15.1,1.994 14.852,1.738 14.818,1.607C14.783,1.475 14.891,1.204 15.024,1.199ZM5.168,1.199C5.301,1.193 5.724,1.441 5.759,1.573C5.794,1.705 5.51,1.983 5.377,1.988C5.244,1.994 4.996,1.738 4.962,1.607C4.927,1.475 5.035,1.204 5.168,1.199ZM10.823,0.045C10.962,0.045 11.393,0.323 11.424,0.462C11.454,0.602 11.145,0.88 11.006,0.88C10.867,0.88 10.619,0.602 10.589,0.462C10.558,0.323 10.684,0.045 10.823,0.045ZM0.967,0.045C1.106,0.045 1.537,0.323 1.568,0.462C1.598,0.602 1.289,0.88 1.15,0.88C1.011,0.88 0.763,0.602 0.733,0.462C0.702,0.323 0.828,0.045 0.967,0.045Z" style="fill:rgb(43,43,43);fill-opacity:0.15;"/>
                </g>
            </g>
        </g>
    </g>
</svg>
