<?xml version="1.0" encoding="UTF-8" standalone="no"?>
<!DOCTYPE svg PUBLIC "-//W3C//DTD SVG 1.1//EN" "http://www.w3.org/Graphics/SVG/1.1/DTD/svg11.dtd">
<svg width="100%" height="100%" viewBox="0 0 26 26" version="1.1" xmlns="http://www.w3.org/2000/svg" xmlns:xlink="http://www.w3.org/1999/xlink" xml:space="preserve" xmlns:serif="http://www.serif.com/" style="fill-rule:evenodd;clip-rule:evenodd;stroke-linejoin:round;stroke-miterlimit:2;">
    <g transform="matrix(1,0,0,1,13,0)">
        <g id="b">
            <g id="Sidewalk-Right-Grass" serif:id="Sidewalk Right Grass">
                <g transform="matrix(0.995495,0,0,1,-10.3942,-0.690176)">
                    <path d="M26,25.482C26,25.164 25.873,24.859 25.647,24.634C25.421,24.409 25.114,24.282 24.795,24.282C20.441,24.282 5.559,24.282 1.205,24.282C0.886,24.282 0.579,24.409 0.353,24.634C0.127,24.859 -0,25.164 -0,25.482C0,25.772 0,26.69 0,26.69L26,26.69L26,25.482Z" style="fill:rgb(160,160,160);"/>
                </g>
                <g transform="matrix(1.10321,0,0,1,-11.6013,-0.690176)">
                    <rect x="3.213" y="24.282" width="19.087" height="2.408" style="fill:rgb(125,125,125);"/>
                </g>
                <g id="Tree-median" serif:id="Tree median" transform="matrix(1.2381,0,0,1.2381,-52.2704,36.0249)">
                    <g id="Path_3564" transform="matrix(1,0,0,1,39.345,-15.422)">
                        <path d="M0.35,-1.667L2.505,-1.667L3.132,5.38C2.661,5.695 0.459,5.697 0,5.38L0.35,-1.667Z" style="fill:rgb(151,108,79);fill-rule:nonzero;"/>
                    </g>
                    <g transform="matrix(0.764682,0,0,0.764682,9.64805,-6.84706)">
                        <g id="Ellipse_885" transform="matrix(1,0,0,1,35,-24.097)">
                            <ellipse cx="6" cy="5.5" rx="6" ry="5.5" style="fill:rgb(84,182,11);"/>
                        </g>
                        <g id="Ellipse_886" transform="matrix(1,0,0,1,33,-26.097)">
                            <ellipse cx="5" cy="5.5" rx="5" ry="5.5" style="fill:rgb(84,182,11);"/>
                        </g>
                        <g id="Path_3565" transform="matrix(1,0,0,1,35.456,-25.286)">
                            <path d="M5.525,0C8.576,0 11.05,2.2 11.05,4.911C11.05,7.622 8.576,9.574 5.525,9.574C2.474,9.574 0,7.623 0,4.911C0,2.199 2.474,0 5.525,0Z" style="fill:rgb(121,221,44);fill-rule:nonzero;"/>
                        </g>
                        <g id="Ellipse_887" transform="matrix(1,0,0,1,33,-26.097)">
                            <ellipse cx="5" cy="4.5" rx="5" ry="4.5" style="fill:rgb(121,221,44);"/>
                        </g>
                        <g id="Ellipse_883" transform="matrix(1,0,0,1,43,-23.097)">
                            <circle cx="3" cy="3" r="3" style="fill:rgb(84,182,11);"/>
                        </g>
                        <g id="Ellipse_888" transform="matrix(1,0,0,1,35,-29.097)">
                            <ellipse cx="6" cy="5.5" rx="6" ry="5.5" style="fill:rgb(121,221,44);"/>
                        </g>
                        <g id="Ellipse_889" transform="matrix(1,0,0,1,42,-24.097)">
                            <ellipse cx="3" cy="2.5" rx="3" ry="2.5" style="fill:rgb(121,221,44);"/>
                        </g>
                    </g>
                </g>
                <g id="Grass-Median" serif:id="Grass Median" transform="matrix(1,0,0,1,-14.5085,0)">
                    <g transform="matrix(-0.845328,0,0,1.71229,23.7883,-17.9065)">
                        <path d="M20.515,24.282C20.515,24.282 19.881,24.17 19.781,24.282C19.672,24.405 19.478,23.107 19.297,23.07C19.157,23.041 19.033,24.282 18.905,24.282C18.861,24.282 18.816,23.943 18.769,23.574C18.714,23.135 18.962,22.655 18.905,22.655C18.81,22.655 18.411,22.981 18.321,23.341C18.209,23.786 18.105,24.282 18.018,24.282C17.911,24.282 17.85,23.07 17.743,23.07C17.679,23.07 17.569,24.282 17.505,24.282C17.482,24.282 17.412,23.733 17.34,23.16C17.262,22.538 16.813,21.824 16.787,21.824C16.711,21.824 17.061,22.589 17.038,23.232C17.018,23.778 16.995,24.282 16.931,24.282C16.795,24.282 16.638,23.07 16.478,23.07C16.375,23.07 16.272,24.282 16.173,24.282C16.058,24.282 16.306,22.368 16.173,22.368C15.995,22.368 15.436,24.282 15.299,24.282C15.26,24.282 15.208,23.943 15.154,23.574C15.09,23.135 15.2,22.563 15.154,22.563C15.109,22.563 14.902,22.981 14.872,23.341C14.835,23.786 14.801,24.282 14.745,24.282C14.695,24.282 14.592,23.636 14.486,22.983C14.377,22.315 13.926,21.65 13.866,21.65C13.794,21.65 14.118,22.375 14.099,23.07C14.083,23.692 14.064,24.282 14.002,24.282C13.922,24.282 13.893,23.884 13.866,23.45C13.833,22.934 13.465,22.368 13.354,22.368C13.287,22.368 13.489,22.857 13.354,23.341C13.222,23.814 13.092,24.282 13.029,24.282C12.939,24.282 12.781,24.358 12.751,24.282C12.661,24.055 12.587,23.74 12.525,23.45C12.437,23.041 12.572,22.682 12.525,22.695C12.454,22.715 12.217,23.077 12.184,23.45C12.148,23.86 12.116,24.282 12.051,24.282C11.999,24.282 12.023,23.764 12.05,23.232C12.077,22.673 12.382,22.1 12.326,22.1C12.269,22.1 11.853,22.673 11.715,23.232C11.584,23.764 11.457,24.282 11.411,24.282C11.371,24.282 11.266,23.929 11.16,23.574C11.053,23.212 11.319,22.816 11.279,22.816C11.23,22.816 10.887,23.275 10.911,23.664C10.93,23.987 10.945,24.282 10.904,24.282C10.847,24.282 10.78,23.863 10.705,23.45C10.633,23.05 10.289,22.655 10.207,22.655C10.092,22.655 10.236,23.05 10.119,23.45C9.997,23.863 9.879,24.282 9.775,24.282C9.71,24.282 9.58,23.971 9.452,23.664C9.327,23.365 9.396,23.07 9.332,23.07C9.236,23.07 9.007,23.365 8.973,23.664C8.937,23.971 8.903,24.282 8.804,24.282C8.752,24.282 8.673,23.863 8.59,23.45C8.51,23.05 8.216,22.655 8.153,22.655C8.07,22.655 8.217,23.05 8.153,23.45C8.087,23.863 8.021,24.282 7.935,24.282C7.853,24.282 7.744,23.778 7.639,23.232C7.516,22.589 7.705,21.889 7.639,21.889C7.519,21.889 7.164,22.668 7.087,23.341C7.037,23.785 6.973,24.183 6.866,24.282C6.81,24.334 6.743,23.955 6.668,23.574C6.598,23.214 6.292,22.702 6.212,22.695C6.104,22.687 6.218,23.128 6.106,23.45C5.969,23.843 5.835,24.282 5.72,24.282L5.137,24.282L5.137,25.642L20.515,25.642L20.515,24.282Z" style="fill:rgb(121,221,44);"/>
                    </g>
                    <g transform="matrix(0.845328,0,0,1,2.22147,-0.690176)">
                        <path d="M20.376,24.282L19.781,24.282C19.672,24.405 19.478,23.107 19.297,23.07C19.157,23.041 19.033,24.282 18.905,24.282C18.861,24.282 18.816,23.943 18.769,23.574C18.714,23.135 18.962,22.655 18.905,22.655C18.81,22.655 18.411,22.981 18.321,23.341C18.209,23.786 18.105,24.282 18.018,24.282C17.911,24.282 17.85,23.07 17.743,23.07C17.679,23.07 17.569,24.282 17.505,24.282C17.482,24.282 17.412,23.733 17.34,23.16C17.262,22.538 16.813,21.824 16.787,21.824C16.711,21.824 17.061,22.589 17.038,23.232C17.018,23.778 16.995,24.282 16.931,24.282C16.795,24.282 16.638,23.07 16.478,23.07C16.375,23.07 16.272,24.282 16.173,24.282C16.058,24.282 16.306,22.368 16.173,22.368C15.995,22.368 15.436,24.282 15.299,24.282C15.26,24.282 15.208,23.943 15.154,23.574C15.09,23.135 15.2,22.563 15.154,22.563C15.109,22.563 14.902,22.981 14.872,23.341C14.835,23.786 14.801,24.282 14.745,24.282C14.695,24.282 14.592,23.636 14.486,22.983C14.377,22.315 13.926,21.65 13.866,21.65C13.794,21.65 14.118,22.375 14.099,23.07C14.083,23.692 14.064,24.282 14.002,24.282C13.922,24.282 13.893,23.884 13.866,23.45C13.833,22.934 13.465,22.368 13.354,22.368C13.287,22.368 13.489,22.857 13.354,23.341C13.222,23.814 13.092,24.282 13.029,24.282C12.939,24.282 12.781,24.358 12.751,24.282C12.661,24.055 12.587,23.74 12.525,23.45C12.437,23.041 12.572,22.682 12.525,22.695C12.454,22.715 12.217,23.077 12.184,23.45C12.148,23.86 12.116,24.282 12.051,24.282C11.999,24.282 12.023,23.764 12.05,23.232C12.077,22.673 12.382,22.1 12.326,22.1C12.269,22.1 11.853,22.673 11.715,23.232C11.584,23.764 11.457,24.282 11.411,24.282C11.371,24.282 11.266,23.929 11.16,23.574C11.053,23.212 11.319,22.816 11.279,22.816C11.23,22.816 10.887,23.275 10.911,23.664C10.93,23.987 10.945,24.282 10.904,24.282C10.847,24.282 10.78,23.863 10.705,23.45C10.633,23.05 10.289,22.655 10.207,22.655C10.092,22.655 10.236,23.05 10.119,23.45C9.997,23.863 9.879,24.282 9.775,24.282C9.71,24.282 9.58,23.971 9.452,23.664C9.327,23.365 9.396,23.07 9.332,23.07C9.236,23.07 9.007,23.365 8.973,23.664C8.937,23.971 8.903,24.282 8.804,24.282C8.752,24.282 8.673,23.863 8.59,23.45C8.51,23.05 8.216,22.655 8.153,22.655C8.07,22.655 8.217,23.05 8.153,23.45C8.087,23.863 8.021,24.282 7.935,24.282C7.853,24.282 7.744,23.778 7.639,23.232C7.516,22.589 7.705,21.889 7.639,21.889C7.519,21.889 7.164,22.668 7.087,23.341C7.037,23.785 6.973,24.183 6.866,24.282C6.81,24.334 6.743,23.955 6.668,23.574C6.598,23.214 6.292,22.702 6.212,22.695C6.104,22.687 6.218,23.128 6.106,23.45C5.969,23.843 5.835,24.282 5.72,24.282L4.998,24.282L4.998,26.69L20.376,26.69L20.376,24.282Z" style="fill:rgb(50,122,39);"/>
                    </g>
                </g>
                <g transform="matrix(0.538296,0,0,0.538296,2.20049,9.23831)">
                    <g transform="matrix(-0.975012,0,0,1,19.9658,1.45571)">
                        <g transform="matrix(-0.842726,1.03204e-16,-1.11579e-16,-0.911114,17.3945,27.9104)">
                            <path d="M10.977,17.122C10.831,16.699 11.336,6.86 11.329,5.898C11.324,5.198 11.164,3.586 11.387,3.287C11.551,3.067 11.752,2.935 12.108,2.97C12.181,2.977 12.901,2.887 12.994,4.011C13.19,5.854 13.056,10.841 13.204,12.993C13.244,13.579 13.621,13.848 13.692,13.91C13.884,14.074 14.163,13.514 14.249,12.807C14.364,11.876 14.737,10.447 14.775,9.29C14.807,8.312 14.538,4.782 14.615,3.314C14.652,2.979 15.976,3.136 16.058,3.227C16.354,3.556 16.739,8.668 16.741,9.202C16.748,10.845 16.476,13.091 16.218,14.864C16.06,15.945 16.056,16.84 15.692,17.34C15.2,18.016 14.307,17.064 13.25,16.985C12.328,16.916 11.218,17.816 10.977,17.122Z" style="fill:rgb(125,150,159);fill-rule:nonzero;"/>
                        </g>
                        <g transform="matrix(0.842726,0,0,0.842726,8.63844,6.4292)">
                            <path d="M-3.674,-1.715C-3.115,-1.857 -2.45,-1.857 -1.918,-1.715C-1.714,-1.66 -1.903,-1.237 -1.701,-1.144C-1.377,-0.995 -0.825,-0.904 -0.486,-0.858C0.923,-0.667 1.038,2.221 1.101,2.879C1.304,4.995 1.306,8.759 0.43,9.732C-0.033,10.247 0.542,5.729 0.333,5.166C0.203,4.817 -0.379,2.663 -0.411,2.912C-0.627,4.567 -0.701,5.851 -0.75,6.962C-0.793,7.955 -2.15,7.735 -3.061,7.736C-3.929,7.737 -5.533,7.821 -5.653,6.962C-5.867,5.43 -5.853,4.119 -5.949,2.879C-5.959,2.742 -6.91,5.358 -6.924,5.185C-6.935,5.048 -6.099,9.975 -6.607,10.328C-6.925,10.549 -7.6,7.024 -7.712,5.378C-7.806,4.009 -7.552,3.197 -7.528,2.967C-7.418,1.888 -6.854,-0.485 -5.729,-0.79C-5.281,-0.911 -4.549,-0.981 -4.113,-1.144C-3.981,-1.194 -3.804,-1.681 -3.674,-1.715Z" style="fill:rgb(151,180,190);fill-rule:nonzero;"/>
                        </g>
                        <g transform="matrix(0.451179,0,0,0.58023,4.54853,0.685696)">
                            <path d="M3.518,0C5.46,0 7.036,1.055 7.036,2.996C7.036,4.938 5.46,7.036 3.518,7.036C1.576,7.036 0,4.938 0,2.996C0,1.055 1.576,0 3.518,0Z" style="fill:rgb(151,180,190);"/>
                        </g>
                    </g>
                    <g transform="matrix(1,0,0,1,2.96302,-0.00238321)">
                        <g transform="matrix(-0.842726,1.03204e-16,-1.11579e-16,-0.911114,17.3945,27.9104)">
                            <path d="M10.977,17.122C10.831,16.699 11.336,6.86 11.329,5.898C11.324,5.198 11.164,3.586 11.387,3.287C11.551,3.067 11.752,2.935 12.108,2.97C12.181,2.977 12.901,2.887 12.994,4.011C13.19,5.854 13.056,10.841 13.204,12.993C13.244,13.579 13.621,13.848 13.692,13.91C13.884,14.074 14.163,13.514 14.249,12.807C14.364,11.876 14.737,10.447 14.775,9.29C14.807,8.312 13.755,3.036 13.832,1.568C13.868,1.233 15.193,1.391 15.274,1.481C15.57,1.81 15.754,4.083 16.054,5.862C16.333,7.513 16.739,8.668 16.741,9.202C16.748,10.845 16.476,13.091 16.218,14.864C16.06,15.945 16.056,16.84 15.692,17.34C15.2,18.016 14.307,17.064 13.25,16.985C12.328,16.916 11.218,17.816 10.977,17.122Z" style="fill:rgb(147,220,244);fill-rule:nonzero;"/>
                        </g>
                        <g transform="matrix(0.842726,0,0,0.842726,8.63844,6.4292)">
                            <path d="M-3.674,-1.715C-3.115,-1.857 -2.45,-1.857 -1.918,-1.715C-1.714,-1.66 -1.903,-1.237 -1.701,-1.144C-1.377,-0.995 -0.825,-0.904 -0.486,-0.858C0.923,-0.667 1.038,2.221 1.101,2.879C1.304,4.995 1.306,8.759 0.43,9.732C-0.033,10.247 0.542,5.729 0.333,5.166C0.203,4.817 -0.379,2.663 -0.411,2.912C-0.627,4.567 -0.701,5.851 -0.75,6.962C-0.793,7.955 -2.15,7.735 -3.061,7.736C-3.929,7.737 -5.533,7.821 -5.653,6.962C-5.867,5.43 -5.853,4.119 -5.949,2.879C-5.959,2.742 -6.91,5.358 -6.924,5.185C-6.935,5.048 -6.099,9.975 -6.607,10.328C-6.925,10.549 -7.6,7.024 -7.712,5.378C-7.806,4.009 -7.552,3.197 -7.528,2.967C-7.418,1.888 -6.854,-0.485 -5.729,-0.79C-5.281,-0.911 -4.549,-0.981 -4.113,-1.144C-3.981,-1.194 -3.804,-1.681 -3.674,-1.715Z" style="fill:rgb(194,240,255);fill-rule:nonzero;"/>
                        </g>
                        <g transform="matrix(0.451179,0,0,0.58023,4.54853,0.685696)">
                            <path d="M3.518,0C5.46,0 7.036,1.055 7.036,2.996C7.036,4.938 5.46,7.036 3.518,7.036C1.576,7.036 0,4.938 0,2.996C0,1.055 1.576,0 3.518,0Z" style="fill:rgb(194,240,255);"/>
                        </g>
                    </g>
                </g>
            </g>
        </g>
    </g>
</svg>
