<?xml version="1.0" encoding="UTF-8" standalone="no"?>
<!DOCTYPE svg PUBLIC "-//W3C//DTD SVG 1.1//EN" "http://www.w3.org/Graphics/SVG/1.1/DTD/svg11.dtd">
<svg width="100%" height="100%" viewBox="0 0 26 26" version="1.1" xmlns="http://www.w3.org/2000/svg" xmlns:xlink="http://www.w3.org/1999/xlink" xml:space="preserve" xmlns:serif="http://www.serif.com/" style="fill-rule:evenodd;clip-rule:evenodd;stroke-linejoin:round;stroke-miterlimit:2;">
    <g transform="matrix(0.947181,0,0,0.947181,0.687973,0)">
        <g id="b">
            <g id="Subway-Rear" serif:id="Subway Rear">
                <g transform="matrix(0.358554,0.0167596,-0.021084,0.451069,11.9622,0.283054)">
                    <path d="M24.944,48.952C24.944,48.12 24.268,47.443 23.435,47.443L20.417,47.443C19.584,47.443 18.907,48.12 18.907,48.952L18.907,54.701C18.907,55.534 19.587,56.266 20.42,56.266L23.432,56.154C24.265,56.154 24.944,55.534 24.944,54.701L24.944,48.952Z" style="fill:rgb(90,70,59);"/>
                </g>
                <g transform="matrix(-0.358554,0.0167596,0.021084,0.451069,14.0378,0.283054)">
                    <path d="M24.944,48.952C24.944,48.12 24.268,47.443 23.435,47.443L20.417,47.443C19.584,47.443 18.907,48.12 18.907,48.952L18.907,54.701C18.907,55.534 19.587,56.266 20.42,56.266L23.432,56.154C24.265,56.154 24.944,55.534 24.944,54.701L24.944,48.952Z" style="fill:rgb(90,70,59);"/>
                </g>
                <g transform="matrix(-0.905617,0,0,1.05576,24.7716,0)">
                    <path d="M20.029,25.381L23.264,24.86L25.067,24.86L25.657,26L0.343,26L0.933,24.86L2.736,24.86L5.971,25.381L20.029,25.381Z" style="fill:rgb(122,121,117);"/>
                </g>
                <g transform="matrix(-0.905617,0,0,0.902537,23.8471,3.62463)">
                    <path d="M19.806,23.655L17.892,23.77L17.622,26L20.089,26L19.806,23.655Z" style="fill:rgb(163,136,94);"/>
                </g>
                <g transform="matrix(-0.416878,0,0,1.64899,10.4663,-16.2784)">
                    <path d="M19.806,23.655L17.892,23.77L17.622,26L20.089,26L19.806,23.655Z" style="fill:rgb(208,208,208);"/>
                </g>
                <g transform="matrix(-0.905617,0,0,1.08907,20.5621,-3.03333)">
                    <path d="M19.806,23.655L17.892,23.77L17.622,26L20.089,26L19.806,23.655Z" style="fill:rgb(255,191,8);"/>
                </g>
                <g transform="matrix(0.905617,0,0,0.902537,2.1501,3.62463)">
                    <path d="M19.806,23.655L17.892,23.77L17.622,26L20.089,26L19.806,23.655Z" style="fill:rgb(163,136,94);"/>
                </g>
                <g id="Path_1192" transform="matrix(-1.09063,1.33564e-16,-1.47715e-16,-1.20619,22.3289,23.8176)">
                    <path d="M3,0L14,0C15.565,-0.075 17.022,1.165 17.106,2.712C17.371,6.881 18.08,11.727 17.477,16.182C17.477,17.766 14.308,18.418 14.308,18.418C12.463,18.92 4.641,18.906 2.692,18.418C0.742,17.93 -0.477,17.764 -0.477,16.182C-1,11.919 -0.308,7.079 -0.106,2.712C-0.022,1.165 1.435,-0.075 3,-0Z" style="fill:rgb(87,191,0);fill-rule:nonzero;"/>
                </g>
                <g id="Rectangle_861-2" transform="matrix(1.09063,0,0,1.09063,4.87885,5.45315)">
                    <path d="M15.424,-1.556C15.424,-2.568 10.557,-3.178 10.094,-3.178L4.906,-3.178C4.443,-3.178 -0.424,-2.568 -0.424,-1.556L-0.054,10.417C-0.054,11.429 0.768,12.251 1.78,12.251C5.846,13.26 9.612,13.219 13.112,12.251C14.125,12.251 14.946,11.429 14.946,10.417L15.424,-1.556Z" style="fill:rgb(43,43,43);"/>
                </g>
                <g id="Rectangle_1799" transform="matrix(0.262571,0,0,0.177839,5.89765,3.75515)">
                    <path d="M9,2.5C9,1.12 8.241,0 7.307,0L1.693,0C0.759,0 0,1.12 0,2.5C0,3.88 0.759,5 1.693,5L7.307,5C8.241,5 9,3.88 9,2.5Z" style="fill:rgb(85,85,85);"/>
                </g>
                <g id="Rectangle_17991" serif:id="Rectangle_1799" transform="matrix(0.262571,0,0,0.177839,17.8564,3.75515)">
                    <path d="M9,2.5C9,1.12 8.241,0 7.307,0L1.693,0C0.759,0 0,1.12 0,2.5C0,3.88 0.759,5 1.693,5L7.307,5C8.241,5 9,3.88 9,2.5Z" style="fill:rgb(85,85,85);"/>
                </g>
                <g id="Rectangle_17992" serif:id="Rectangle_1799" transform="matrix(0.262571,0,0,0.177839,11.4437,8.66574)">
                    <path d="M17.251,-11.261C17.251,-13.114 15.379,-14.618 13.074,-14.618L-0.774,-14.618C-3.079,-14.618 -4.951,-13.114 -4.951,-11.261C-4.951,-9.408 -3.079,45.162 -0.774,45.162L13.074,45.162C15.379,45.162 17.251,-9.408 17.251,-11.261Z" style="fill:rgb(48,59,64);"/>
                </g>
                <g id="Rectangle_17993" serif:id="Rectangle_1799" transform="matrix(0.262571,0,0,0.177839,16.5859,8.66574)">
                    <path d="M16.371,-11.261C16.371,-13.114 14.499,-14.618 12.194,-14.618C12.194,-14.618 5.319,-13.723 2.197,-12.543C1.178,-12.157 0.923,-10.297 0.971,-9.401C1.53,1.033 -2.966,44.154 -2.342,42.101L12.883,38.46C15.158,37.913 16.371,-9.408 16.371,-11.261Z" style="fill:rgb(48,59,64);"/>
                </g>
                <g id="Rectangle_17994" serif:id="Rectangle_1799" transform="matrix(0.262571,0,0,0.177839,16.5859,8.66574)">
                    <path d="M-43.238,-11.261C-43.238,-13.114 -41.367,-14.618 -39.061,-14.618C-39.061,-14.618 -32.186,-13.723 -29.064,-12.543C-28.045,-12.157 -27.791,-10.297 -27.839,-9.401C-28.397,1.033 -23.902,44.154 -24.525,42.101L-39.75,38.46C-42.025,37.913 -43.238,-9.408 -43.238,-11.261Z" style="fill:rgb(48,59,64);"/>
                </g>
                <g id="Ellipse_464" transform="matrix(1.09063,0,0,1.09063,18.1975,17.9869)">
                    <circle cx="1.5" cy="1.5" r="1.5" style="fill:rgb(255,91,91);"/>
                </g>
                <g id="Ellipse_466" transform="matrix(1.09063,0,0,1.09063,4.64777,17.9869)">
                    <circle cx="1.5" cy="1.5" r="1.5" style="fill:rgb(255,91,91);"/>
                </g>
                <g transform="matrix(0.745787,0,0,0.422285,10.4238,21.7101)">
                    <path d="M7,2.5C7,1.12 6.366,0 5.584,0L1.416,0C0.634,0 0,1.12 0,2.5C0,3.88 0.634,5 1.416,5L5.584,5C6.366,5 7,3.88 7,2.5Z" style="fill:rgb(43,43,43);"/>
                </g>
                <g id="Ellipse_4641" serif:id="Ellipse_464" transform="matrix(0.672557,0,0,0.672557,17.1928,20.97)">
                    <circle cx="1.5" cy="1.5" r="1.5" style="fill:rgb(255,0,0);"/>
                </g>
                <g id="Ellipse_4642" serif:id="Ellipse_464" transform="matrix(0.479985,0,0,0.479985,13.3023,22.0458)">
                    <circle cx="1.5" cy="1.5" r="1.5" style="fill:rgb(74,74,74);"/>
                </g>
                <g id="Ellipse_4643" serif:id="Ellipse_464" transform="matrix(0.479985,0,0,0.479985,11.2578,22.0458)">
                    <circle cx="1.5" cy="1.5" r="1.5" style="fill:rgb(74,74,74);"/>
                </g>
                <g id="Ellipse_4661" serif:id="Ellipse_466" transform="matrix(0.672557,0,0,0.672557,6.78949,20.97)">
                    <circle cx="1.5" cy="1.5" r="1.5" style="fill:rgb(255,0,0);"/>
                </g>
            </g>
        </g>
    </g>
</svg>
