<?xml version="1.0" encoding="UTF-8" standalone="no"?>
<!DOCTYPE svg PUBLIC "-//W3C//DTD SVG 1.1//EN" "http://www.w3.org/Graphics/SVG/1.1/DTD/svg11.dtd">
<svg width="100%" height="100%" viewBox="0 0 26 26" version="1.1" xmlns="http://www.w3.org/2000/svg" xmlns:xlink="http://www.w3.org/1999/xlink" xml:space="preserve" xmlns:serif="http://www.serif.com/" style="fill-rule:evenodd;clip-rule:evenodd;stroke-linejoin:round;stroke-miterlimit:2;">
    <g transform="matrix(1,0,0,1,13,0)">
        <g id="b">
            <g id="SoundBarrier">
                <g transform="matrix(0.35013,0,0,1.06213,-0.707952,-3.89015)">
                    <path d="M6.203,24.882C6.203,24.726 4.543,15.194 4.543,15.194C4.543,15.194 -5.362,4.82 -5.617,4.722C-6.117,4.53 -6.568,4.438 -6.869,4.467C-10.969,4.851 -4.361,4.231 -8.462,4.616C-8.763,4.644 -8.891,4.79 -8.817,5.022C-8.779,5.141 -0.441,15.194 -0.441,15.194C-0.441,15.194 -2.101,24.726 -2.101,24.882C-2.101,25.172 -2.101,26.69 -2.101,26.69L6.203,26.69L6.203,24.882Z" style="fill:rgb(141,141,141);"/>
                </g>
                <g transform="matrix(0.995495,0,0,1,-2.04201,-0.690176)">
                    <path d="M4.102,24.882C4.102,24.564 3.975,24.259 3.749,24.034C3.523,23.809 3.217,23.682 2.897,23.682C-1.456,23.682 5.559,23.682 1.205,23.682C0.886,23.682 0.579,23.809 0.353,24.034C0.127,24.259 -0,24.564 -0,24.882C0,25.172 0,26.69 0,26.69L4.102,26.69L4.102,24.882Z" style="fill:rgb(160,160,160);"/>
                </g>
                <g transform="matrix(0.510555,0,0,1,-1.04728,-0.690176)">
                    <rect x="-4.717" y="23.682" width="13.537" height="3.008" style="fill:rgb(160,160,160);"/>
                </g>
            </g>
        </g>
    </g>
</svg>
