<?xml version="1.0" encoding="UTF-8" standalone="no"?>
<!DOCTYPE svg PUBLIC "-//W3C//DTD SVG 1.1//EN" "http://www.w3.org/Graphics/SVG/1.1/DTD/svg11.dtd">
<svg width="100%" height="100%" viewBox="0 0 26 26" version="1.1" xmlns="http://www.w3.org/2000/svg" xmlns:xlink="http://www.w3.org/1999/xlink" xml:space="preserve" xmlns:serif="http://www.serif.com/" style="fill-rule:evenodd;clip-rule:evenodd;stroke-linejoin:round;stroke-miterlimit:2;">
    <g transform="matrix(1.00931,0,0,0.947181,-0.119708,0)">
        <g id="b">
            <g id="Train-Rear" serif:id="Train Rear">
                <g transform="matrix(0.336483,0.0167596,-0.0197861,0.451069,12.0261,0.283054)">
                    <path d="M24.944,48.952C24.944,48.12 24.268,47.443 23.435,47.443L20.417,47.443C19.584,47.443 18.907,48.12 18.907,48.952L18.907,54.701C18.907,55.534 19.587,56.266 20.42,56.266L23.432,56.154C24.265,56.154 24.944,55.534 24.944,54.701L24.944,48.952Z" style="fill:rgb(90,70,59);"/>
                </g>
                <g transform="matrix(-0.336483,0.0167596,0.0197861,0.451069,13.9739,0.283054)">
                    <path d="M24.944,48.952C24.944,48.12 24.268,47.443 23.435,47.443L20.417,47.443C19.584,47.443 18.907,48.12 18.907,48.952L18.907,54.701C18.907,55.534 19.587,56.266 20.42,56.266L23.432,56.154C24.265,56.154 24.944,55.534 24.944,54.701L24.944,48.952Z" style="fill:rgb(90,70,59);"/>
                </g>
                <g transform="matrix(0.849871,0,0,1.05576,1.95036,0)">
                    <path d="M20.029,25.381L23.264,24.86L25.067,24.86L25.657,26L0.343,26L0.933,24.86L2.736,24.86L5.971,25.381L20.029,25.381Z" style="fill:rgb(122,121,117);"/>
                </g>
                <g transform="matrix(0.849871,0,0,0.902537,2.81798,3.62463)">
                    <path d="M19.806,23.655L17.892,23.77L17.622,26L20.089,26L19.806,23.655Z" style="fill:rgb(163,136,94);"/>
                </g>
                <g transform="matrix(-0.849871,0,0,0.902537,23.1794,3.62463)">
                    <path d="M19.806,23.655L17.892,23.77L17.622,26L20.089,26L19.806,23.655Z" style="fill:rgb(163,136,94);"/>
                </g>
                <g transform="matrix(1.11045,0,0,1.14394,3.56121,1.079)">
                    <path d="M3.851,0L13.149,0C14.54,-0 17.098,2.97 17,7.596C17,7.596 16.725,14.933 16.268,17C15.964,18.375 14.235,19.409 13.149,20C11.971,20.64 10.154,20.808 8.619,20.842C7.007,20.793 5.406,20.51 3.851,20C2.297,19.49 1.036,18.375 0.732,17C0.275,14.933 0,7.596 0,7.596C0,2.92 2.46,0 3.851,0Z" style="fill:rgb(234,162,0);fill-rule:nonzero;"/>
                </g>
                <g transform="matrix(0.777262,-0.670447,0.590447,0.777262,14.7879,18.7559)">
                    <path d="M6.462,2.59C6.166,1.9 4.017,0.521 2.945,0.353C1.905,0.189 0.611,1.017 0.033,1.578C-0.496,2.093 -1.021,3.183 -0.523,3.723C-0.025,4.262 2.145,4.688 3.019,4.816C3.59,4.9 4.236,4.804 4.72,4.491C5.294,4.119 6.758,3.279 6.462,2.59Z" style="fill:rgb(196,86,65);"/>
                </g>
                <g transform="matrix(-0.777262,-0.670447,-0.590447,0.777262,11.2359,18.7559)">
                    <path d="M6.462,2.59C6.166,1.9 4.017,0.521 2.945,0.353C1.905,0.189 0.611,1.017 0.033,1.578C-0.496,2.093 -1.021,3.183 -0.523,3.723C-0.025,4.262 2.145,4.688 3.019,4.816C3.59,4.9 4.236,4.804 4.72,4.491C5.294,4.119 6.758,3.279 6.462,2.59Z" style="fill:rgb(196,86,65);"/>
                </g>
                <g transform="matrix(0.938444,0,0,1,-3.50449,0)">
                    <path d="M12.375,17.975C13.268,17.935 14.043,18.581 14.105,19.418C14.106,19.434 14.107,19.45 14.108,19.466C14.191,20.323 13.514,21.095 12.602,21.183C11.709,21.223 10.935,20.577 10.872,19.741C10.871,19.724 10.87,19.708 10.87,19.692C10.786,18.835 11.463,18.064 12.375,17.975ZM22.572,17.975C23.465,17.935 24.239,18.581 24.302,19.418C24.303,19.434 24.304,19.45 24.305,19.466C24.388,20.323 23.711,21.095 22.799,21.183C21.906,21.223 21.132,20.577 21.069,19.741C21.068,19.724 21.067,19.708 21.066,19.692C20.983,18.835 21.66,18.064 22.572,17.975Z" style="fill:rgb(156,156,156);fill-rule:nonzero;"/>
                </g>
                <g transform="matrix(0.938444,0,0,1,-1.20069,-2.0284)">
                    <path d="M7.521,18.762C7.976,18.741 8.371,19.07 8.403,19.497C8.403,19.505 8.404,19.513 8.404,19.521C8.447,19.958 8.102,20.352 7.637,20.397C7.182,20.417 6.787,20.088 6.755,19.661C6.754,19.653 6.754,19.645 6.754,19.637C6.711,19.2 7.056,18.807 7.521,18.762ZM22.628,18.762C23.083,18.741 23.477,19.07 23.509,19.497C23.51,19.505 23.51,19.513 23.511,19.521C23.553,19.958 23.208,20.352 22.743,20.397C22.288,20.417 21.893,20.088 21.862,19.661C21.861,19.653 21.86,19.645 21.86,19.637C21.818,19.2 22.163,18.807 22.628,18.762Z" style="fill:rgb(255,3,0);fill-rule:nonzero;"/>
                </g>
                <g transform="matrix(1,0,0,1,5.5,8.079)">
                    <path d="M13.123,3.711C13.123,3.117 14.762,-1.745 13.123,-2.542C11.249,-3.453 3.751,-3.453 1.877,-2.542C0.238,-1.745 1.877,3.117 1.877,3.711C1.877,4.305 2.697,4.722 3.284,4.787C4.924,4.966 10.076,4.966 11.716,4.787C12.303,4.722 13.123,4.305 13.123,3.711Z" style="fill:rgb(135,152,163);"/>
                </g>
                <g transform="matrix(1,0,0,1,9.5,0)">
                    <path d="M7.312,1.412C6.838,0.752 6.159,0 5.123,0L1.877,0C0.841,0 0.162,0.752 -0.312,1.412C-0.787,2.072 -1.336,3.363 -0.972,3.961C-0.607,4.559 0.841,5 1.877,5L5.123,5C6.159,5 7.607,4.559 7.972,3.961C8.336,3.363 7.787,2.072 7.312,1.412Z" style="fill:rgb(134,116,99);"/>
                </g>
                <g transform="matrix(1,0,0,1,11.5,1)">
                    <circle cx="1.5" cy="1.5" r="1.5" style="fill:rgb(135,135,135);"/>
                </g>
            </g>
        </g>
    </g>
</svg>
