<?xml version="1.0" encoding="UTF-8" standalone="no"?>
<!DOCTYPE svg PUBLIC "-//W3C//DTD SVG 1.1//EN" "http://www.w3.org/Graphics/SVG/1.1/DTD/svg11.dtd">
<svg width="100%" height="100%" viewBox="0 0 26 26" version="1.1" xmlns="http://www.w3.org/2000/svg" xmlns:xlink="http://www.w3.org/1999/xlink" xml:space="preserve" xmlns:serif="http://www.serif.com/" style="fill-rule:evenodd;clip-rule:evenodd;stroke-linejoin:round;stroke-miterlimit:2;">
    <g transform="matrix(0.683055,0,0,0.619375,14.2198,1.42871)">
        <g id="b">
            <g id="Tiled-Option" serif:id="Tiled Option">
                <g transform="matrix(-0.842726,1.01297e-16,-1.07193e-16,-0.849632,17.3945,27.8472)">
                    <path d="M13.771,15.341C11.635,15.286 11.066,16.223 11.08,15.51C11.136,12.723 11.455,6.329 11.45,5.563C11.445,4.862 11.285,3.251 11.508,2.952C11.672,2.732 11.873,2.599 12.229,2.635C12.301,2.642 13.022,2.551 13.115,3.676C13.311,5.518 13.177,10.506 13.324,12.658C13.365,13.243 13.742,13.513 13.813,13.574C14.005,13.739 14.283,13.179 14.37,12.471C14.484,11.541 14.858,10.112 14.896,8.955C14.928,7.977 13.876,2.701 13.953,1.233C13.989,0.898 15.313,1.055 15.395,1.146C15.691,1.475 15.875,3.748 16.175,5.526C16.454,7.177 16.86,8.333 16.862,8.867C16.869,10.509 16.597,12.756 16.339,14.528C16.279,14.938 16.241,15.32 16.198,15.665C16.126,16.231 15.738,15.392 13.771,15.341Z" style="fill:white;fill-rule:nonzero;"/>
                </g>
                <g transform="matrix(0.842726,0,0,0.822397,8.63844,6.9248)">
                    <path d="M-3.674,-1.715C-3.115,-1.857 -2.45,-1.857 -1.918,-1.715C-1.714,-1.66 -1.903,-1.237 -1.701,-1.144C-1.377,-0.995 -0.825,-0.904 -0.486,-0.858C0.923,-0.667 1.038,2.221 1.101,2.879C1.304,4.995 1.306,8.759 0.43,9.732C-0.033,10.247 0.542,5.729 0.333,5.166C0.203,4.817 -0.379,2.663 -0.411,2.912C-0.627,4.567 -0.701,5.851 -0.75,6.962C-0.793,7.955 -2.15,7.735 -3.061,7.736C-3.929,7.737 -5.533,7.821 -5.653,6.962C-5.867,5.43 -5.853,4.119 -5.949,2.879C-5.959,2.742 -6.91,5.358 -6.924,5.185C-6.935,5.048 -6.099,9.975 -6.607,10.328C-6.925,10.549 -7.6,7.024 -7.712,5.378C-7.806,4.009 -7.552,3.197 -7.528,2.967C-7.418,1.888 -6.854,-0.485 -5.729,-0.79C-5.281,-0.911 -4.549,-0.981 -4.113,-1.144C-3.981,-1.194 -3.804,-1.681 -3.674,-1.715Z" style="fill:white;fill-rule:nonzero;"/>
                </g>
                <g transform="matrix(0.451179,0,0,0.58023,4.54853,0.685696)">
                    <path d="M3.624,-0.453C5.565,-0.453 7.142,0.602 7.142,2.544C7.142,4.485 5.565,6.583 3.624,6.583C1.682,6.583 0.106,4.485 0.106,2.544C0.106,0.602 1.682,-0.453 3.624,-0.453Z" style="fill:white;"/>
                </g>
                <g transform="matrix(1.33499,0,0,1.67495,-19.0254,-5.79162)">
                    <g transform="matrix(1.09664,0,0,0.963926,-0.130562,0.892478)">
                        <path d="M22.19,17.012L11.273,24.296L1.599,15.226L1.599,15.829L11.273,25.158L22.19,17.476L22.19,17.012Z" style="fill:white;"/>
                    </g>
                    <g transform="matrix(1.09664,0,0,0.963926,-0.130562,0.892478)">
                        <path d="M20.126,14.344L19.96,17.131L20.574,17.341L22.19,16.339L20.126,14.344Z" style="fill:white;"/>
                    </g>
                    <g transform="matrix(1.09664,0,0,0.963926,-0.130562,0.892478)">
                        <path d="M13.072,12.794L12.578,14.495L13.93,14.878L13.798,14.13L13.971,13.053L13.072,12.794Z" style="fill:white;"/>
                    </g>
                    <g transform="matrix(1.09664,0,0,0.963926,-0.130562,0.892478)">
                        <path d="M10.648,10.426L13.432,11.171L13.274,9.426L11.312,8.81L10.648,10.426Z" style="fill:white;"/>
                    </g>
                    <g transform="matrix(1.09664,0,0,0.963926,-0.130562,0.892478)">
                        <path d="M8.347,20.777L11.526,12.294L9.963,11.89L7.062,19.535L8.347,20.777Z" style="fill:white;"/>
                    </g>
                    <g transform="matrix(1.09664,0,0,0.963926,-0.130562,0.892478)">
                        <path d="M14.129,17.324L14.083,16.727L12.171,16.096L9.963,22.285L11.376,23.567L12.224,23.088L14.129,17.324Z" style="fill:white;"/>
                    </g>
                    <g transform="matrix(1.09664,0,0,0.963926,-0.130562,0.892478)">
                        <path d="M5.243,13.647L4.76,14.962" style="fill:none;"/>
                    </g>
                    <g transform="matrix(1.09664,0,0,0.963926,-0.130562,0.892478)">
                        <path d="M4.76,14.962L4.103,16.746L5.822,18.401L6.896,15.738" style="fill:white;"/>
                    </g>
                    <g transform="matrix(1.09664,0,0,0.963926,-0.130562,0.892478)">
                        <path d="M6.896,15.738L7.503,14.233" style="fill:none;"/>
                    </g>
                    <g transform="matrix(1.09664,0,0,0.963926,-0.130562,0.892478)">
                        <path d="M7.503,14.233L9.423,9.473L5.925,11.793L5.243,13.647" style="fill:white;"/>
                    </g>
                    <g transform="matrix(1.09664,0,0,0.963926,-0.130562,0.892478)">
                        <path d="M3.037,15.829L4.103,13.065L1.692,14.427L3.037,15.829Z" style="fill:white;"/>
                    </g>
                    <g transform="matrix(1.09664,0,0,0.963926,-0.130562,0.892478)">
                        <path d="M12.711,7.148L11.895,7.72L13.357,8.122L13.463,7.879L12.711,7.148Z" style="fill:white;"/>
                    </g>
                    <g transform="matrix(1.09664,0,0,0.963926,-0.130562,0.892478)">
                        <path d="M15.242,21L14.477,20.805L14.129,21.699L15.242,21Z" style="fill:white;"/>
                    </g>
                </g>
            </g>
        </g>
    </g>
</svg>
