<?xml version="1.0" encoding="UTF-8" standalone="no"?>
<!DOCTYPE svg PUBLIC "-//W3C//DTD SVG 1.1//EN" "http://www.w3.org/Graphics/SVG/1.1/DTD/svg11.dtd">
<svg width="100%" height="100%" viewBox="0 0 128 128" version="1.1" xmlns="http://www.w3.org/2000/svg" xmlns:xlink="http://www.w3.org/1999/xlink" xml:space="preserve" xmlns:serif="http://www.serif.com/" style="fill-rule:evenodd;clip-rule:evenodd;stroke-linejoin:round;stroke-miterlimit:2;">
    <g id="Train-Pole" serif:id="Train Pole" transform="matrix(4.92308,0,0,4.92308,0,0)">
        <g transform="matrix(1.01033,0,0,0.649895,-0.0874172,27.8293)">
            <path d="M18.809,-41.725L18.809,-42.821L1.408,-54.064L1.408,-53.509L18.809,-41.725Z" style="fill:rgb(159,159,159);"/>
        </g>
        <g transform="matrix(0.203125,0,0,0.203125,0,0)">
            <path d="M101.349,-41.37L99.435,-41.37L99.023,-44.039L95.304,-44.039L95.043,-41.37L93.129,-41.37L93.054,125.966L101.274,125.966L101.349,-41.37ZM4.271,-12.797L31.464,-23.354L34.004,-22.247L9.017,-12.847L54.483,-13.326L59.426,-11.173L10.703,-11.001L10.703,-10.551C10.703,-10.551 10.687,-9.094 9.186,-9.094C7.684,-9.094 7.604,-10.551 7.604,-10.551L7.604,-10.99L3.645,-10.976L0,-12.753L4.271,-12.797ZM93.123,-30.548L93.126,-34.054L10.894,-33.867L14.539,-32.091L93.123,-30.548Z" style="fill:rgb(182,182,182);"/>
        </g>
        <g transform="matrix(0.203125,0,0,0.203125,0,0)">
            <path d="M91.492,2.795L92.577,-0.228L91.813,-0.546C91.813,-0.546 91.696,-2.433 91.338,-2.582C91.014,-2.716 89.668,-1.437 89.668,-1.437L88.272,-2.017C88.272,-2.017 88.254,-3.864 87.896,-4.012C87.538,-4.161 86.123,-2.911 86.123,-2.911L84.629,-3.531C84.629,-3.531 84.577,-5.392 84.201,-5.548C83.81,-5.711 82.28,-4.508 82.28,-4.508L80.885,-5.087C80.885,-5.087 80.78,-6.97 80.378,-7.137C79.966,-7.308 78.415,-6.114 78.415,-6.114L77.208,-6.616L76.044,-3.934L77.23,-3.417C77.23,-3.417 76.964,-0.983 77.393,-0.796C77.801,-0.618 79.803,-2.297 79.803,-2.297L81.258,-1.663C81.258,-1.663 80.87,0.719 81.269,0.893C81.668,1.066 83.649,-0.621 83.649,-0.621L85.075,-0C85.075,-0 84.769,2.417 85.146,2.581C85.481,2.727 87.334,0.984 87.334,0.984L88.642,1.554C88.642,1.554 88.18,3.903 88.53,4.055C88.87,4.204 90.737,2.466 90.737,2.466L91.492,2.795ZM93.123,-30.548L93.126,-34.054L92.019,-34.051C92.019,-34.051 91.214,-36.613 90.855,-36.611C90.526,-36.609 89.868,-34.047 89.868,-34.047L88.628,-34.044C88.628,-34.044 87.858,-36.594 87.473,-36.592C87.088,-36.59 86.318,-34.039 86.318,-34.039L84.77,-34.035C84.77,-34.035 83.944,-36.572 83.531,-36.57C83.118,-36.567 82.292,-34.029 82.292,-34.029L80.918,-34.026C80.918,-34.026 79.83,-36.549 79.318,-36.546C78.826,-36.543 77.844,-34.019 77.844,-34.019L76.771,-34.017L76.594,-30.872L77.894,-30.847C77.894,-30.847 78.884,-28.62 79.379,-28.596C79.873,-28.572 80.863,-30.789 80.863,-30.789L82.356,-30.759C82.356,-30.759 83.195,-28.41 83.6,-28.39C83.996,-28.371 84.787,-30.712 84.787,-30.712L86.325,-30.681C86.325,-30.681 87.035,-28.223 87.389,-28.206C87.774,-28.187 88.633,-30.636 88.633,-30.636L90.059,-30.608C90.059,-30.608 90.757,-28.042 91.083,-28.026C91.394,-28.011 92.016,-30.57 92.016,-30.57L93.123,-30.548Z" style="fill:rgb(134,116,99);"/>
        </g>
        <g transform="matrix(1.80416,0,0,0.0403742,-19.9971,22.6396)">
            <path d="M23.005,49.124L21.057,49.124L20.917,83.231L23.145,83.231L23.005,49.124Z" style="fill:rgb(91,91,91);"/>
        </g>
    </g>
</svg>
