<?xml version="1.0" encoding="UTF-8" standalone="no"?>
<!DOCTYPE svg PUBLIC "-//W3C//DTD SVG 1.1//EN" "http://www.w3.org/Graphics/SVG/1.1/DTD/svg11.dtd">
<svg width="100%" height="100%" viewBox="0 0 26 26" version="1.1" xmlns="http://www.w3.org/2000/svg" xmlns:xlink="http://www.w3.org/1999/xlink" xml:space="preserve" xmlns:serif="http://www.serif.com/" style="fill-rule:evenodd;clip-rule:evenodd;stroke-linejoin:round;stroke-miterlimit:2;">
    <g id="b">
        <g>
            <g transform="matrix(0.45846,-0.45846,0.603786,0.603786,0.426016,11.2884)">
                <rect x="0.327" y="0.786" width="7.089" height="1.903" style="fill:rgb(95,99,107);"/>
            </g>
            <g transform="matrix(0.45846,-0.45846,0.603786,0.603786,0.426016,4.98501)">
                <rect x="0.541" y="0.623" width="7.089" height="1.903" style="fill:rgb(95,99,107);"/>
            </g>
            <g transform="matrix(0.45846,-0.45846,0.603786,0.603786,0.426016,21.4276)">
                <rect x="4.296" y="-2.228" width="7.089" height="1.903" style="fill:rgb(95,99,107);"/>
            </g>
            <g transform="matrix(0.45846,-0.45846,0.603786,0.603786,0.426016,27.9276)">
                <rect x="4.296" y="-2.228" width="7.089" height="1.903" style="fill:rgb(95,99,107);"/>
            </g>
            <g transform="matrix(0.45846,0.45846,-0.603786,0.603786,5.57749,-7.27561)">
                <path d="M11.599,3.637L11.08,3.637L8.574,5.54L11.599,5.54L11.599,3.637Z" style="fill:rgb(95,99,107);"/>
            </g>
            <g transform="matrix(0.45846,0.45846,-0.603786,0.603786,5.57749,9.16694)">
                <rect x="0.756" y="0.786" width="7.089" height="1.903" style="fill:rgb(95,99,107);"/>
            </g>
            <g transform="matrix(0.45846,0.45846,-0.603786,0.603786,5.57749,2.86352)">
                <rect x="0.541" y="0.623" width="7.089" height="1.903" style="fill:rgb(95,99,107);"/>
            </g>
            <g transform="matrix(0.45846,0.45846,-0.603786,0.603786,5.57749,19.3061)">
                <rect x="-3.213" y="-2.228" width="7.089" height="1.903" style="fill:rgb(95,99,107);"/>
            </g>
            <g transform="matrix(0.45846,0.45846,-0.603786,0.603786,5.57749,25.8061)">
                <path d="M0.851,-0.325L3.357,-2.228L-3.213,-2.228L-3.213,-0.325L0.851,-0.325Z" style="fill:rgb(95,99,107);"/>
            </g>
            <g transform="matrix(0.45846,0.45846,-0.603786,0.603786,-0.922509,-7.27561)">
                <path d="M11.599,3.637L11.08,3.637L8.941,5.261L9.308,5.54L11.599,5.54L11.599,3.637Z" style="fill:rgb(95,99,107);"/>
            </g>
            <g transform="matrix(0.45846,0.45846,-0.603786,0.603786,-0.922509,9.16694)">
                <path d="M7.845,0.786L3.047,0.786L5.553,2.689L7.845,2.689L7.845,0.786Z" style="fill:rgb(95,99,107);"/>
            </g>
            <g transform="matrix(0.45846,0.45846,-0.603786,0.603786,-0.922509,2.86352)">
                <path d="M7.63,0.623L2.833,0.623L5.339,2.526L7.63,2.526L7.63,0.623Z" style="fill:rgb(95,99,107);"/>
            </g>
            <g transform="matrix(0.45846,0.45846,-0.603786,0.603786,-0.922509,19.3061)">
                <path d="M3.876,-2.228L-0.922,-2.228L1.585,-0.325L3.876,-0.325L3.876,-2.228Z" style="fill:rgb(95,99,107);"/>
            </g>
            <g transform="matrix(0.45846,0.45846,-0.603786,0.603786,-0.922509,25.8061)">
                <path d="M1.218,-0.603L3.357,-2.228L-0.922,-2.228L1.218,-0.603Z" style="fill:rgb(95,99,107);"/>
            </g>
            <g transform="matrix(0.45846,-0.45846,0.603786,0.603786,6.92602,11.2884)">
                <rect x="0.327" y="0.786" width="7.089" height="1.903" style="fill:rgb(95,99,107);"/>
            </g>
            <g transform="matrix(0.45846,-0.45846,0.603786,0.603786,6.92602,4.98501)">
                <rect x="0.541" y="0.623" width="7.089" height="1.903" style="fill:rgb(95,99,107);"/>
            </g>
            <g transform="matrix(0.45846,-0.45846,0.603786,0.603786,6.92602,21.4276)">
                <rect x="4.296" y="-2.228" width="7.089" height="1.903" style="fill:rgb(95,99,107);"/>
            </g>
            <g transform="matrix(0.45846,-0.45846,0.603786,0.603786,6.92602,27.9276)">
                <rect x="4.296" y="-2.228" width="7.089" height="1.903" style="fill:rgb(95,99,107);"/>
            </g>
            <g transform="matrix(0.45846,0.45846,-0.603786,0.603786,12.0775,-7.27561)">
                <path d="M11.599,3.637L11.08,3.637L8.574,5.54L11.599,5.54L11.599,3.637Z" style="fill:rgb(95,99,107);"/>
            </g>
            <g transform="matrix(0.45846,0.45846,-0.603786,0.603786,12.0775,9.16694)">
                <rect x="0.756" y="0.786" width="7.089" height="1.903" style="fill:rgb(95,99,107);"/>
            </g>
            <g transform="matrix(0.45846,0.45846,-0.603786,0.603786,12.0775,2.86352)">
                <rect x="0.541" y="0.623" width="7.089" height="1.903" style="fill:rgb(95,99,107);"/>
            </g>
            <g transform="matrix(0.45846,0.45846,-0.603786,0.603786,12.0775,19.3061)">
                <rect x="-3.213" y="-2.228" width="7.089" height="1.903" style="fill:rgb(95,99,107);"/>
            </g>
            <g transform="matrix(0.45846,0.45846,-0.603786,0.603786,12.0775,25.8061)">
                <path d="M0.851,-0.325L3.357,-2.228L-3.213,-2.228L-3.213,-0.325L0.851,-0.325Z" style="fill:rgb(95,99,107);"/>
            </g>
            <g transform="matrix(0.45846,-0.45846,0.603786,0.603786,13.426,11.2884)">
                <rect x="0.327" y="0.786" width="7.089" height="1.903" style="fill:rgb(95,99,107);"/>
            </g>
            <g transform="matrix(0.45846,-0.45846,0.603786,0.603786,13.426,4.98501)">
                <rect x="0.541" y="0.623" width="7.089" height="1.903" style="fill:rgb(95,99,107);"/>
            </g>
            <g transform="matrix(0.45846,-0.45846,0.603786,0.603786,13.426,21.4276)">
                <rect x="4.296" y="-2.228" width="7.089" height="1.903" style="fill:rgb(95,99,107);"/>
            </g>
            <g transform="matrix(0.45846,-0.45846,0.603786,0.603786,13.426,27.9276)">
                <rect x="4.296" y="-2.228" width="7.089" height="1.903" style="fill:rgb(95,99,107);"/>
            </g>
            <g transform="matrix(0.45846,0.45846,-0.603786,0.603786,18.5775,-7.27561)">
                <path d="M11.599,3.637L11.08,3.637L8.574,5.54L11.599,5.54L11.599,3.637Z" style="fill:rgb(95,99,107);"/>
            </g>
            <g transform="matrix(0.45846,0.45846,-0.603786,0.603786,18.5775,9.16694)">
                <rect x="0.756" y="0.786" width="7.089" height="1.903" style="fill:rgb(95,99,107);"/>
            </g>
            <g transform="matrix(0.45846,0.45846,-0.603786,0.603786,18.5775,2.86352)">
                <rect x="0.541" y="0.623" width="7.089" height="1.903" style="fill:rgb(95,99,107);"/>
            </g>
            <g transform="matrix(0.45846,0.45846,-0.603786,0.603786,18.5775,19.3061)">
                <rect x="-3.213" y="-2.228" width="7.089" height="1.903" style="fill:rgb(95,99,107);"/>
            </g>
            <g transform="matrix(0.45846,0.45846,-0.603786,0.603786,18.5775,25.8061)">
                <path d="M0.851,-0.325L3.357,-2.228L-3.213,-2.228L-3.213,-0.325L0.851,-0.325Z" style="fill:rgb(95,99,107);"/>
            </g>
            <g transform="matrix(0.45846,-0.45846,0.603786,0.603786,19.926,11.2884)">
                <rect x="0.327" y="0.786" width="7.089" height="1.903" style="fill:rgb(95,99,107);"/>
            </g>
            <g transform="matrix(0.45846,-0.45846,0.603786,0.603786,19.926,4.98501)">
                <rect x="0.541" y="0.623" width="7.089" height="1.903" style="fill:rgb(95,99,107);"/>
            </g>
            <g transform="matrix(0.45846,-0.45846,0.603786,0.603786,19.926,21.4276)">
                <rect x="4.296" y="-2.228" width="7.089" height="1.903" style="fill:rgb(95,99,107);"/>
            </g>
            <g transform="matrix(0.45846,-0.45846,0.603786,0.603786,19.926,27.9276)">
                <rect x="4.296" y="-2.228" width="7.089" height="1.903" style="fill:rgb(95,99,107);"/>
            </g>
            <g transform="matrix(0.45846,0.45846,-0.603786,0.603786,25.0775,-7.27561)">
                <path d="M8.941,5.261L8.574,5.54L9.308,5.54L8.941,5.261Z" style="fill:rgb(95,99,107);"/>
            </g>
            <g transform="matrix(0.45846,0.45846,-0.603786,0.603786,25.0775,9.16694)">
                <path d="M5.553,2.689L3.047,0.786L0.756,0.786L0.756,2.689L5.553,2.689Z" style="fill:rgb(95,99,107);"/>
            </g>
            <g transform="matrix(0.45846,0.45846,-0.603786,0.603786,25.0775,2.86352)">
                <path d="M5.339,2.526L2.833,0.623L0.541,0.623L0.541,2.526L5.339,2.526Z" style="fill:rgb(95,99,107);"/>
            </g>
            <g transform="matrix(0.45846,0.45846,-0.603786,0.603786,25.0775,19.3061)">
                <path d="M1.585,-0.325L-0.922,-2.228L-3.213,-2.228L-3.213,-0.325L1.585,-0.325Z" style="fill:rgb(95,99,107);"/>
            </g>
            <g transform="matrix(0.45846,0.45846,-0.603786,0.603786,25.0775,25.8061)">
                <path d="M1.218,-0.603L-0.922,-2.228L-3.213,-2.228L-3.213,-0.325L0.851,-0.325L1.218,-0.603Z" style="fill:rgb(95,99,107);"/>
            </g>
        </g>
        <g>
            <g transform="matrix(0.45846,-0.45846,0.603786,0.603786,0.426016,1.73501)">
                <path d="M7.111,2.526L4.605,0.623L0.541,0.623L0.541,2.526L7.111,2.526Z" style="fill:rgb(76,78,83);"/>
            </g>
            <g transform="matrix(0.45846,-0.45846,0.603786,0.603786,6.92602,1.73501)">
                <path d="M7.111,2.526L4.605,0.623L0.541,0.623L0.541,2.526L7.111,2.526Z" style="fill:rgb(76,78,83);"/>
            </g>
            <g transform="matrix(0.45846,-0.45846,0.603786,0.603786,19.926,1.73501)">
                <path d="M7.111,2.526L4.605,0.623L0.541,0.623L0.541,2.526L7.111,2.526Z" style="fill:rgb(76,78,83);"/>
            </g>
            <g transform="matrix(0.45846,-0.45846,0.603786,0.603786,13.426,1.73501)">
                <path d="M7.111,2.526L4.605,0.623L0.541,0.623L0.541,2.526L7.111,2.526Z" style="fill:rgb(76,78,83);"/>
            </g>
            <g transform="matrix(0.45846,-0.45846,0.603786,0.603786,0.426016,18.1776)">
                <rect x="4.296" y="-2.228" width="7.089" height="1.903" style="fill:rgb(76,78,83);"/>
            </g>
            <g transform="matrix(0.45846,-0.45846,0.603786,0.603786,0.426016,8.23501)">
                <rect x="0.541" y="0.623" width="7.089" height="1.903" style="fill:rgb(76,78,83);"/>
            </g>
            <g transform="matrix(0.45846,-0.45846,0.603786,0.603786,0.426016,24.6776)">
                <rect x="4.296" y="-2.228" width="7.089" height="1.903" style="fill:rgb(76,78,83);"/>
            </g>
            <g transform="matrix(0.45846,0.45846,-0.603786,0.603786,5.57749,-0.386484)">
                <rect x="0.541" y="0.623" width="7.089" height="1.903" style="fill:rgb(76,78,83);"/>
            </g>
            <g transform="matrix(0.45846,0.45846,-0.603786,0.603786,5.57749,16.0561)">
                <rect x="-3.213" y="-2.228" width="7.089" height="1.903" style="fill:rgb(76,78,83);"/>
            </g>
            <g transform="matrix(0.45846,0.45846,-0.603786,0.603786,5.57749,6.11352)">
                <rect x="0.541" y="0.623" width="7.089" height="1.903" style="fill:rgb(76,78,83);"/>
            </g>
            <g transform="matrix(0.45846,0.45846,-0.603786,0.603786,5.57749,22.5561)">
                <rect x="-3.213" y="-2.228" width="7.089" height="1.903" style="fill:rgb(76,78,83);"/>
            </g>
            <g transform="matrix(0.45846,0.45846,-0.603786,0.603786,-0.922509,-0.386484)">
                <path d="M7.63,0.623L2.833,0.623L5.339,2.526L7.63,2.526L7.63,0.623Z" style="fill:rgb(76,78,83);"/>
            </g>
            <g transform="matrix(0.45846,0.45846,-0.603786,0.603786,-0.922509,16.0561)">
                <path d="M3.876,-2.228L-0.922,-2.228L1.585,-0.325L3.876,-0.325L3.876,-2.228Z" style="fill:rgb(76,78,83);"/>
            </g>
            <g transform="matrix(0.45846,0.45846,-0.603786,0.603786,-0.922509,6.11352)">
                <path d="M7.63,0.623L2.833,0.623L5.339,2.526L7.63,2.526L7.63,0.623Z" style="fill:rgb(76,78,83);"/>
            </g>
            <g transform="matrix(0.45846,0.45846,-0.603786,0.603786,-0.922509,22.5561)">
                <path d="M3.876,-2.228L-0.922,-2.228L1.585,-0.325L3.876,-0.325L3.876,-2.228Z" style="fill:rgb(76,78,83);"/>
            </g>
            <g transform="matrix(0.45846,-0.45846,0.603786,0.603786,6.92602,18.1776)">
                <rect x="4.296" y="-2.228" width="7.089" height="1.903" style="fill:rgb(76,78,83);"/>
            </g>
            <g transform="matrix(0.45846,-0.45846,0.603786,0.603786,6.92602,8.23501)">
                <rect x="0.541" y="0.623" width="7.089" height="1.903" style="fill:rgb(76,78,83);"/>
            </g>
            <g transform="matrix(0.45846,-0.45846,0.603786,0.603786,6.92602,24.6776)">
                <rect x="4.296" y="-2.228" width="7.089" height="1.903" style="fill:rgb(76,78,83);"/>
            </g>
            <g transform="matrix(0.45846,0.45846,-0.603786,0.603786,12.0775,-0.386484)">
                <rect x="0.541" y="0.623" width="7.089" height="1.903" style="fill:rgb(76,78,83);"/>
            </g>
            <g transform="matrix(0.45846,0.45846,-0.603786,0.603786,12.0775,16.0561)">
                <rect x="-3.213" y="-2.228" width="7.089" height="1.903" style="fill:rgb(76,78,83);"/>
            </g>
            <g transform="matrix(0.45846,0.45846,-0.603786,0.603786,12.0775,6.11352)">
                <rect x="0.541" y="0.623" width="7.089" height="1.903" style="fill:rgb(76,78,83);"/>
            </g>
            <g transform="matrix(0.45846,0.45846,-0.603786,0.603786,12.0775,22.5561)">
                <rect x="-3.213" y="-2.228" width="7.089" height="1.903" style="fill:rgb(76,78,83);"/>
            </g>
            <g transform="matrix(0.45846,-0.45846,0.603786,0.603786,13.426,18.1776)">
                <rect x="4.296" y="-2.228" width="7.089" height="1.903" style="fill:rgb(76,78,83);"/>
            </g>
            <g transform="matrix(0.45846,-0.45846,0.603786,0.603786,13.426,8.23501)">
                <rect x="0.541" y="0.623" width="7.089" height="1.903" style="fill:rgb(76,78,83);"/>
            </g>
            <g transform="matrix(0.45846,-0.45846,0.603786,0.603786,13.426,24.6776)">
                <rect x="4.296" y="-2.228" width="7.089" height="1.903" style="fill:rgb(76,78,83);"/>
            </g>
            <g transform="matrix(0.45846,0.45846,-0.603786,0.603786,18.5775,-0.386484)">
                <rect x="0.541" y="0.623" width="7.089" height="1.903" style="fill:rgb(76,78,83);"/>
            </g>
            <g transform="matrix(0.45846,0.45846,-0.603786,0.603786,18.5775,16.0561)">
                <rect x="-3.213" y="-2.228" width="7.089" height="1.903" style="fill:rgb(76,78,83);"/>
            </g>
            <g transform="matrix(0.45846,0.45846,-0.603786,0.603786,18.5775,6.11352)">
                <rect x="0.541" y="0.623" width="7.089" height="1.903" style="fill:rgb(76,78,83);"/>
            </g>
            <g transform="matrix(0.45846,0.45846,-0.603786,0.603786,18.5775,22.5561)">
                <rect x="-3.213" y="-2.228" width="7.089" height="1.903" style="fill:rgb(76,78,83);"/>
            </g>
            <g transform="matrix(0.45846,-0.45846,0.603786,0.603786,19.926,18.1776)">
                <rect x="4.296" y="-2.228" width="7.089" height="1.903" style="fill:rgb(76,78,83);"/>
            </g>
            <g transform="matrix(0.45846,-0.45846,0.603786,0.603786,19.926,8.23501)">
                <rect x="0.541" y="0.623" width="7.089" height="1.903" style="fill:rgb(76,78,83);"/>
            </g>
            <g transform="matrix(0.45846,-0.45846,0.603786,0.603786,19.926,24.6776)">
                <rect x="4.296" y="-2.228" width="7.089" height="1.903" style="fill:rgb(76,78,83);"/>
            </g>
            <g transform="matrix(0.45846,0.45846,-0.603786,0.603786,25.0775,-0.386484)">
                <path d="M5.339,2.526L2.833,0.623L0.541,0.623L0.541,2.526L5.339,2.526Z" style="fill:rgb(76,78,83);"/>
            </g>
            <g transform="matrix(0.45846,0.45846,-0.603786,0.603786,25.0775,16.0561)">
                <path d="M1.585,-0.325L-0.922,-2.228L-3.213,-2.228L-3.213,-0.325L1.585,-0.325Z" style="fill:rgb(76,78,83);"/>
            </g>
            <g transform="matrix(0.45846,0.45846,-0.603786,0.603786,25.0775,6.11352)">
                <path d="M5.339,2.526L2.833,0.623L0.541,0.623L0.541,2.526L5.339,2.526Z" style="fill:rgb(76,78,83);"/>
            </g>
            <g transform="matrix(0.45846,0.45846,-0.603786,0.603786,25.0775,22.5561)">
                <path d="M1.585,-0.325L-0.922,-2.228L-3.213,-2.228L-3.213,-0.325L1.585,-0.325Z" style="fill:rgb(76,78,83);"/>
            </g>
            <g transform="matrix(0.45846,-0.45846,0.603786,0.603786,0.426016,27.9276)">
                <path d="M7.84,0.464L4.815,0.464L7.321,2.367L7.84,2.367L7.84,0.464Z" style="fill:rgb(76,78,83);"/>
            </g>
            <g transform="matrix(0.45846,-0.45846,0.603786,0.603786,6.92602,27.9276)">
                <path d="M7.84,0.464L4.815,0.464L7.321,2.367L7.84,2.367L7.84,0.464Z" style="fill:rgb(76,78,83);"/>
            </g>
            <g transform="matrix(0.45846,-0.45846,0.603786,0.603786,13.426,27.9276)">
                <path d="M7.84,0.464L4.815,0.464L7.321,2.367L7.84,2.367L7.84,0.464Z" style="fill:rgb(76,78,83);"/>
            </g>
            <g transform="matrix(0.45846,-0.45846,0.603786,0.603786,19.926,27.9276)">
                <path d="M7.84,0.464L4.815,0.464L7.321,2.367L7.84,2.367L7.84,0.464Z" style="fill:rgb(76,78,83);"/>
            </g>
        </g>
    </g>
</svg>
