<?xml version="1.0" encoding="UTF-8" standalone="no"?>
<!DOCTYPE svg PUBLIC "-//W3C//DTD SVG 1.1//EN" "http://www.w3.org/Graphics/SVG/1.1/DTD/svg11.dtd">
<svg width="100%" height="100%" viewBox="0 0 26 26" version="1.1" xmlns="http://www.w3.org/2000/svg" xmlns:xlink="http://www.w3.org/1999/xlink" xml:space="preserve" xmlns:serif="http://www.serif.com/" style="fill-rule:evenodd;clip-rule:evenodd;stroke-linejoin:round;stroke-miterlimit:2;">
    <g id="b">
        <g id="Tree-median" serif:id="Tree median" transform="matrix(1.2381,0,0,1.2381,-37.7619,36.0249)">
            <g id="Path_3564" transform="matrix(1,0,0,1,39.345,-15.422)">
                <path d="M0.35,0L2.505,0L3.132,5.38C2.661,5.695 0.459,5.697 0,5.38L0.35,0Z" style="fill:rgb(151,108,79);fill-rule:nonzero;"/>
            </g>
            <g transform="matrix(0.87219,0,0,0.87219,5.2402,-3.71888)">
                <g id="Ellipse_885" transform="matrix(1,0,0,1,35,-24.097)">
                    <ellipse cx="6" cy="5.5" rx="6" ry="5.5" style="fill:rgb(84,182,11);"/>
                </g>
                <g id="Ellipse_886" transform="matrix(1,0,0,1,33,-26.097)">
                    <ellipse cx="5" cy="5.5" rx="5" ry="5.5" style="fill:rgb(84,182,11);"/>
                </g>
                <g id="Path_3565" transform="matrix(1,0,0,1,35.456,-25.286)">
                    <path d="M5.525,0C8.576,0 11.05,2.2 11.05,4.911C11.05,7.622 8.576,9.574 5.525,9.574C2.474,9.574 0,7.623 0,4.911C0,2.199 2.474,0 5.525,0Z" style="fill:rgb(121,221,44);fill-rule:nonzero;"/>
                </g>
                <g id="Ellipse_887" transform="matrix(1,0,0,1,33,-26.097)">
                    <ellipse cx="5" cy="4.5" rx="5" ry="4.5" style="fill:rgb(121,221,44);"/>
                </g>
                <g id="Ellipse_883" transform="matrix(1,0,0,1,43,-23.097)">
                    <circle cx="3" cy="3" r="3" style="fill:rgb(84,182,11);"/>
                </g>
                <g id="Ellipse_888" transform="matrix(1,0,0,1,35,-29.097)">
                    <ellipse cx="6" cy="5.5" rx="6" ry="5.5" style="fill:rgb(121,221,44);"/>
                </g>
                <g id="Ellipse_889" transform="matrix(1,0,0,1,42,-24.097)">
                    <ellipse cx="3" cy="2.5" rx="3" ry="2.5" style="fill:rgb(121,221,44);"/>
                </g>
            </g>
        </g>
        <g id="Grass-Median" serif:id="Grass Median">
            <g transform="matrix(0.8,0,0,1,2.6,-0.690176)">
                <path d="M26,25.482C26,25.164 25.842,24.859 25.561,24.634C25.279,24.409 24.898,24.282 24.5,24.282C19.91,24.282 6.09,24.282 1.5,24.282C1.102,24.282 0.721,24.409 0.439,24.634C0.158,24.859 -0,25.164 -0,25.482C0,25.772 0,26.69 0,26.69L26,26.69L26,25.482Z" style="fill:rgb(160,160,160);"/>
            </g>
            <g transform="matrix(-0.845328,0,0,1.71229,23.7883,-17.9065)">
                <path d="M22.3,24.282C22.3,24.282 21.853,24.412 21.835,24.282C21.797,24 21.764,23.708 21.734,23.45C21.672,22.918 21.777,22.528 21.734,22.655C21.701,22.752 21.518,23.1 21.488,23.45C21.452,23.865 21.415,24.282 21.37,24.282C21.201,24.282 20.898,24.448 20.819,24.282C20.741,24.119 20.658,23.686 20.575,23.232C20.455,22.582 19.883,21.824 19.781,21.824C19.686,21.824 20.078,22.536 20.006,23.16C19.947,23.673 19.881,24.17 19.781,24.282C19.672,24.405 19.478,23.107 19.297,23.07C19.157,23.041 19.033,24.282 18.905,24.282C18.861,24.282 18.816,23.943 18.769,23.574C18.714,23.135 18.962,22.655 18.905,22.655C18.81,22.655 18.411,22.981 18.321,23.341C18.209,23.786 18.105,24.282 18.018,24.282C17.911,24.282 17.85,23.07 17.743,23.07C17.679,23.07 17.569,24.282 17.505,24.282C17.482,24.282 17.412,23.733 17.34,23.16C17.262,22.538 16.813,21.824 16.787,21.824C16.711,21.824 17.061,22.589 17.038,23.232C17.018,23.778 16.995,24.282 16.931,24.282C16.795,24.282 16.638,23.07 16.478,23.07C16.375,23.07 16.272,24.282 16.173,24.282C16.058,24.282 16.306,22.368 16.173,22.368C15.995,22.368 15.436,24.282 15.299,24.282C15.26,24.282 15.208,23.943 15.154,23.574C15.09,23.135 15.2,22.563 15.154,22.563C15.109,22.563 14.902,22.981 14.872,23.341C14.835,23.786 14.801,24.282 14.745,24.282C14.695,24.282 14.592,23.636 14.486,22.983C14.377,22.315 13.926,21.65 13.866,21.65C13.794,21.65 14.118,22.375 14.099,23.07C14.083,23.692 14.064,24.282 14.002,24.282C13.922,24.282 13.893,23.884 13.866,23.45C13.833,22.934 13.465,22.368 13.354,22.368C13.287,22.368 13.489,22.857 13.354,23.341C13.222,23.814 13.092,24.282 13.029,24.282C12.939,24.282 12.781,24.358 12.751,24.282C12.661,24.055 12.587,23.74 12.525,23.45C12.437,23.041 12.572,22.682 12.525,22.695C12.454,22.715 12.217,23.077 12.184,23.45C12.148,23.86 12.116,24.282 12.051,24.282C11.999,24.282 12.023,23.764 12.05,23.232C12.077,22.673 12.382,22.1 12.326,22.1C12.269,22.1 11.853,22.673 11.715,23.232C11.584,23.764 11.457,24.282 11.411,24.282C11.371,24.282 11.266,23.929 11.16,23.574C11.053,23.212 11.319,22.816 11.279,22.816C11.23,22.816 10.887,23.275 10.911,23.664C10.93,23.987 10.945,24.282 10.904,24.282C10.847,24.282 10.78,23.863 10.705,23.45C10.633,23.05 10.289,22.655 10.207,22.655C10.092,22.655 10.236,23.05 10.119,23.45C9.997,23.863 9.879,24.282 9.775,24.282C9.71,24.282 9.58,23.971 9.452,23.664C9.327,23.365 9.396,23.07 9.332,23.07C9.236,23.07 9.007,23.365 8.973,23.664C8.937,23.971 8.903,24.282 8.804,24.282C8.752,24.282 8.673,23.863 8.59,23.45C8.51,23.05 8.216,22.655 8.153,22.655C8.07,22.655 8.217,23.05 8.153,23.45C8.087,23.863 8.021,24.282 7.935,24.282C7.853,24.282 7.744,23.778 7.639,23.232C7.516,22.589 7.705,21.889 7.639,21.889C7.519,21.889 7.164,22.668 7.087,23.341C7.037,23.785 6.973,24.183 6.866,24.282C6.81,24.334 6.743,23.955 6.668,23.574C6.598,23.214 6.292,22.702 6.212,22.695C6.104,22.687 6.218,23.128 6.106,23.45C5.969,23.843 5.835,24.282 5.72,24.282C5.657,24.282 5.603,23.863 5.548,23.45C5.494,23.05 5.246,22.655 5.181,22.655C5.075,22.655 5.152,23.05 5.044,23.45C4.932,23.863 4.827,24.282 4.75,24.282C4.725,24.282 4.816,23.673 4.906,23.07C4.994,22.477 5.398,22.001 5.374,22.001C5.313,22.001 4.824,22.477 4.65,23.07C4.474,23.673 4.296,24.282 4.234,24.282C4.185,24.282 4.054,23.843 3.92,23.45C3.812,23.133 3.413,22.695 3.343,22.695C3.308,22.695 3.615,23.212 3.633,23.574C3.65,23.929 3.667,24.282 3.633,24.282L3.213,24.282L3.213,25.642L22.3,25.642L22.3,24.282Z" style="fill:rgb(121,221,44);"/>
            </g>
            <g transform="matrix(0.845328,0,0,1,2.22147,-0.690176)">
                <path d="M22.3,24.282C22.3,24.282 21.853,24.412 21.835,24.282C21.797,24 21.764,23.708 21.734,23.45C21.672,22.918 21.777,22.528 21.734,22.655C21.701,22.752 21.518,23.1 21.488,23.45C21.452,23.865 21.415,24.282 21.37,24.282C21.201,24.282 20.898,24.448 20.819,24.282C20.741,24.119 20.658,23.686 20.575,23.232C20.455,22.582 19.883,21.824 19.781,21.824C19.686,21.824 20.078,22.536 20.006,23.16C19.947,23.673 19.881,24.17 19.781,24.282C19.672,24.405 19.478,23.107 19.297,23.07C19.157,23.041 19.033,24.282 18.905,24.282C18.861,24.282 18.816,23.943 18.769,23.574C18.714,23.135 18.962,22.655 18.905,22.655C18.81,22.655 18.411,22.981 18.321,23.341C18.209,23.786 18.105,24.282 18.018,24.282C17.911,24.282 17.85,23.07 17.743,23.07C17.679,23.07 17.569,24.282 17.505,24.282C17.482,24.282 17.412,23.733 17.34,23.16C17.262,22.538 16.813,21.824 16.787,21.824C16.711,21.824 17.061,22.589 17.038,23.232C17.018,23.778 16.995,24.282 16.931,24.282C16.795,24.282 16.638,23.07 16.478,23.07C16.375,23.07 16.272,24.282 16.173,24.282C16.058,24.282 16.306,22.368 16.173,22.368C15.995,22.368 15.436,24.282 15.299,24.282C15.26,24.282 15.208,23.943 15.154,23.574C15.09,23.135 15.2,22.563 15.154,22.563C15.109,22.563 14.902,22.981 14.872,23.341C14.835,23.786 14.801,24.282 14.745,24.282C14.695,24.282 14.592,23.636 14.486,22.983C14.377,22.315 13.926,21.65 13.866,21.65C13.794,21.65 14.118,22.375 14.099,23.07C14.083,23.692 14.064,24.282 14.002,24.282C13.922,24.282 13.893,23.884 13.866,23.45C13.833,22.934 13.465,22.368 13.354,22.368C13.287,22.368 13.489,22.857 13.354,23.341C13.222,23.814 13.092,24.282 13.029,24.282C12.939,24.282 12.781,24.358 12.751,24.282C12.661,24.055 12.587,23.74 12.525,23.45C12.437,23.041 12.572,22.682 12.525,22.695C12.454,22.715 12.217,23.077 12.184,23.45C12.148,23.86 12.116,24.282 12.051,24.282C11.999,24.282 12.023,23.764 12.05,23.232C12.077,22.673 12.382,22.1 12.326,22.1C12.269,22.1 11.853,22.673 11.715,23.232C11.584,23.764 11.457,24.282 11.411,24.282C11.371,24.282 11.266,23.929 11.16,23.574C11.053,23.212 11.319,22.816 11.279,22.816C11.23,22.816 10.887,23.275 10.911,23.664C10.93,23.987 10.945,24.282 10.904,24.282C10.847,24.282 10.78,23.863 10.705,23.45C10.633,23.05 10.289,22.655 10.207,22.655C10.092,22.655 10.236,23.05 10.119,23.45C9.997,23.863 9.879,24.282 9.775,24.282C9.71,24.282 9.58,23.971 9.452,23.664C9.327,23.365 9.396,23.07 9.332,23.07C9.236,23.07 9.007,23.365 8.973,23.664C8.937,23.971 8.903,24.282 8.804,24.282C8.752,24.282 8.673,23.863 8.59,23.45C8.51,23.05 8.216,22.655 8.153,22.655C8.07,22.655 8.217,23.05 8.153,23.45C8.087,23.863 8.021,24.282 7.935,24.282C7.853,24.282 7.744,23.778 7.639,23.232C7.516,22.589 7.705,21.889 7.639,21.889C7.519,21.889 7.164,22.668 7.087,23.341C7.037,23.785 6.973,24.183 6.866,24.282C6.81,24.334 6.743,23.955 6.668,23.574C6.598,23.214 6.292,22.702 6.212,22.695C6.104,22.687 6.218,23.128 6.106,23.45C5.969,23.843 5.835,24.282 5.72,24.282C5.657,24.282 5.603,23.863 5.548,23.45C5.494,23.05 5.246,22.655 5.181,22.655C5.075,22.655 5.152,23.05 5.044,23.45C4.932,23.863 4.827,24.282 4.75,24.282C4.725,24.282 4.816,23.673 4.906,23.07C4.994,22.477 5.398,22.001 5.374,22.001C5.313,22.001 4.824,22.477 4.65,23.07C4.474,23.673 4.296,24.282 4.234,24.282C4.185,24.282 4.054,23.843 3.92,23.45C3.812,23.133 3.413,22.695 3.343,22.695C3.308,22.695 3.615,23.212 3.633,23.574C3.65,23.929 3.667,24.282 3.633,24.282L3.213,24.282L3.213,26.69L22.3,26.69L22.3,24.282Z" style="fill:rgb(50,122,39);"/>
            </g>
        </g>
    </g>
</svg>
