<?xml version="1.0" encoding="UTF-8" standalone="no"?>
<!DOCTYPE svg PUBLIC "-//W3C//DTD SVG 1.1//EN" "http://www.w3.org/Graphics/SVG/1.1/DTD/svg11.dtd">
<svg width="100%" height="100%" viewBox="0 0 26 26" version="1.1" xmlns="http://www.w3.org/2000/svg" xmlns:xlink="http://www.w3.org/1999/xlink" xml:space="preserve" xmlns:serif="http://www.serif.com/" style="fill-rule:evenodd;clip-rule:evenodd;stroke-linejoin:round;stroke-miterlimit:2;">
    <g transform="matrix(0.947181,0,0,0.974443,0.687973,0)">
        <g id="b">
            <g id="Tram-Rear" serif:id="Tram Rear">
                <g transform="matrix(0.377781,0.0111483,-0.0222146,0.300046,11.8952,8.89525)">
                    <path d="M24.944,48.952C24.944,48.12 24.268,47.443 23.435,47.443L20.417,47.443C19.584,47.443 18.907,48.12 18.907,48.952L18.907,54.701C18.907,55.534 19.587,56.266 20.42,56.266L23.432,56.154C24.265,56.154 24.944,55.534 24.944,54.701L24.944,48.952Z" style="fill:rgb(90,70,59);"/>
                </g>
                <g transform="matrix(-0.377781,0.0111483,0.0222146,0.300046,14.0822,8.89525)">
                    <path d="M24.944,48.952C24.944,48.12 24.268,47.443 23.435,47.443L20.417,47.443C19.584,47.443 18.907,48.12 18.907,48.952L18.907,54.701C18.907,55.534 19.587,56.266 20.42,56.266L23.432,56.154C24.265,56.154 24.944,55.534 24.944,54.701L24.944,48.952Z" style="fill:rgb(90,70,59);"/>
                </g>
                <g transform="matrix(1,0,0,1,-0.0112948,-3.64589e-15)">
                    <g transform="matrix(1.73982,0,0,0.224511,17.2205,26.0084)">
                        <rect x="0" y="0" width="2" height="3" style="fill:rgb(111,106,91);"/>
                    </g>
                    <g transform="matrix(0.668485,0,0,0.306536,20.0316,25.7623)">
                        <rect x="0" y="0" width="2" height="3" style="fill:rgb(157,157,157);"/>
                    </g>
                    <g transform="matrix(0.668485,0,0,0.306536,16.552,25.7623)">
                        <rect x="0" y="0" width="2" height="3" style="fill:rgb(157,157,157);"/>
                    </g>
                </g>
                <g transform="matrix(1,0,0,1,-11.9121,-3.64589e-15)">
                    <g transform="matrix(1.73982,0,0,0.224511,17.2205,26.0084)">
                        <rect x="0" y="0" width="2" height="3" style="fill:rgb(111,106,91);"/>
                    </g>
                    <g transform="matrix(0.668485,0,0,0.306536,20.0316,25.7623)">
                        <rect x="0" y="0" width="2" height="3" style="fill:rgb(157,157,157);"/>
                    </g>
                    <g transform="matrix(0.668485,0,0,0.306536,16.552,25.7623)">
                        <rect x="0" y="0" width="2" height="3" style="fill:rgb(157,157,157);"/>
                    </g>
                </g>
                <g>
                    <g transform="matrix(1,0,0,1,-0.0112948,-3.64589e-15)">
                        <g transform="matrix(1.73982,0,0,0.224511,17.2205,26.0084)">
                            <rect x="0" y="0" width="2" height="3" style="fill:rgb(94,89,77);"/>
                        </g>
                        <g transform="matrix(0.668485,0,0,0.306536,20.0316,25.7623)">
                            <rect x="0" y="0" width="2" height="3" style="fill:rgb(140,140,140);"/>
                        </g>
                        <g transform="matrix(0.668485,0,0,0.306536,16.552,25.7623)">
                            <rect x="0" y="0" width="2" height="3" style="fill:rgb(140,140,140);"/>
                        </g>
                    </g>
                    <g transform="matrix(1,0,0,1,-11.9121,-3.64589e-15)">
                        <g transform="matrix(1.73982,0,0,0.224511,17.2205,26.0084)">
                            <rect x="0" y="0" width="2" height="3" style="fill:rgb(94,89,77);"/>
                        </g>
                        <g transform="matrix(0.668485,0,0,0.306536,20.0316,25.7623)">
                            <rect x="0" y="0" width="2" height="3" style="fill:rgb(140,140,140);"/>
                        </g>
                        <g transform="matrix(0.668485,0,0,0.306536,16.552,25.7623)">
                            <rect x="0" y="0" width="2" height="3" style="fill:rgb(140,140,140);"/>
                        </g>
                        <g transform="matrix(1.35828,0,0,0.101662,29.4815,26.3769)">
                            <rect x="0" y="0" width="2" height="3" style="fill:rgb(140,140,140);"/>
                        </g>
                        <g transform="matrix(1.38702,0,0,0.101662,17.5232,26.3769)">
                            <rect x="0" y="0" width="2" height="3" style="fill:rgb(140,140,140);"/>
                        </g>
                    </g>
                </g>
                <g transform="matrix(1,0,0,1.0553,3.5,4)">
                    <path d="M3,0L16,0C17.646,-0 18.228,1.728 18.546,3C19.112,5.262 19.635,10.739 19.397,13.572C19.207,15.837 17.613,20 17.121,20L1.879,20C1.387,20 -0.207,15.837 -0.397,13.572C-0.635,10.739 -0.112,5.262 0.454,3C0.772,1.728 1.354,0 3,0Z" style="fill:rgb(179,85,255);fill-rule:nonzero;"/>
                </g>
                <g transform="matrix(0.895352,0,0,0.656444,4.49416,5.35957)">
                    <path d="M3,0L16,0C17.646,-0 18.228,1.728 18.546,3C19.112,5.262 19.518,10.739 19.397,13.572C19.303,15.776 18.355,20 17.818,20L1.182,20C0.645,20 -0.303,15.776 -0.397,13.572C-0.518,10.739 -0.112,5.262 0.454,3C0.772,1.728 1.354,0 3,0Z" style="fill:rgb(125,98,133);fill-rule:nonzero;"/>
                </g>
                <g transform="matrix(0.690594,-0.752589,0.617205,0.566363,15.5738,21.907)">
                    <path d="M6.462,2.59C6.166,1.9 4.017,0.521 2.945,0.353C1.905,0.189 0.611,1.017 0.033,1.578C-0.496,2.093 -1.021,3.183 -0.523,3.723C-0.025,4.262 2.145,4.688 3.019,4.816C3.59,4.9 4.236,4.804 4.72,4.491C5.294,4.119 6.758,3.279 6.462,2.59Z" style="fill:rgb(190,78,71);"/>
                </g>
                <g transform="matrix(0.331967,0,0,0.331967,14.478,13.0798)">
                    <path d="M19.256,17.954C20.155,17.876 20.961,18.547 21.047,19.446C21.092,20.328 20.413,21.095 19.531,21.157C19.517,21.158 19.504,21.159 19.49,21.16C18.59,21.238 17.784,20.566 17.698,19.668C17.653,18.785 18.332,18.018 19.214,17.956C19.228,17.955 19.242,17.954 19.256,17.954Z" style="fill:rgb(232,171,115);fill-rule:nonzero;"/>
                </g>
                <g transform="matrix(0.74701,0,0,0.74701,4.63568,6.37248)">
                    <path d="M19.256,17.954C20.155,17.876 20.961,18.547 21.047,19.446C21.092,20.328 20.413,21.095 19.531,21.157C19.517,21.158 19.504,21.159 19.49,21.16C18.59,21.238 17.784,20.566 17.698,19.668C17.653,18.785 18.332,18.018 19.214,17.956C19.228,17.955 19.242,17.954 19.256,17.954Z" style="fill:rgb(221,37,0);fill-rule:nonzero;"/>
                </g>
                <g transform="matrix(0.461462,0,0,0.461462,8.91528,14.151)">
                    <path d="M19.256,17.954C20.155,17.876 20.961,18.547 21.047,19.446C21.092,20.328 20.413,21.095 19.531,21.157C19.517,21.158 19.504,21.159 19.49,21.16C18.59,21.238 17.784,20.566 17.698,19.668C17.653,18.785 18.332,18.018 19.214,17.956C19.228,17.955 19.242,17.954 19.256,17.954Z" style="fill:rgb(255,49,0);fill-rule:nonzero;"/>
                </g>
                <g transform="matrix(-0.690594,-0.752589,-0.617205,0.566363,10.4262,21.907)">
                    <path d="M6.462,2.59C6.166,1.9 4.017,0.521 2.945,0.353C1.905,0.189 0.611,1.017 0.033,1.578C-0.496,2.093 -1.021,3.183 -0.523,3.723C-0.025,4.262 2.145,4.688 3.019,4.816C3.59,4.9 4.236,4.804 4.72,4.491C5.294,4.119 6.758,3.279 6.462,2.59Z" style="fill:rgb(190,78,71);"/>
                </g>
                <g transform="matrix(-0.331967,0,0,0.331967,11.522,13.0798)">
                    <path d="M19.256,17.954C20.155,17.876 20.961,18.547 21.047,19.446C21.092,20.328 20.413,21.095 19.531,21.157C19.517,21.158 19.504,21.159 19.49,21.16C18.59,21.238 17.784,20.566 17.698,19.668C17.653,18.785 18.332,18.018 19.214,17.956C19.228,17.955 19.242,17.954 19.256,17.954Z" style="fill:rgb(232,171,115);fill-rule:nonzero;"/>
                </g>
                <g transform="matrix(-0.74701,0,0,0.74701,21.3643,6.37248)">
                    <path d="M19.256,17.954C20.155,17.876 20.961,18.547 21.047,19.446C21.092,20.328 20.413,21.095 19.531,21.157C19.517,21.158 19.504,21.159 19.49,21.16C18.59,21.238 17.784,20.566 17.698,19.668C17.653,18.785 18.332,18.018 19.214,17.956C19.228,17.955 19.242,17.954 19.256,17.954Z" style="fill:rgb(221,37,0);fill-rule:nonzero;"/>
                </g>
                <g transform="matrix(-0.461462,0,0,0.461462,17.0847,14.151)">
                    <path d="M19.256,17.954C20.155,17.876 20.961,18.547 21.047,19.446C21.092,20.328 20.413,21.095 19.531,21.157C19.517,21.158 19.504,21.159 19.49,21.16C18.59,21.238 17.784,20.566 17.698,19.668C17.653,18.785 18.332,18.018 19.214,17.956C19.228,17.955 19.242,17.954 19.256,17.954Z" style="fill:rgb(255,49,0);fill-rule:nonzero;"/>
                </g>
                <g transform="matrix(1,0,0,1,9.5,6)">
                    <path d="M9,0L0,0L9,0Z" style="fill:rgb(243,225,149);"/>
                </g>
                <g transform="matrix(1,0,0,1,7.5,0)">
                    <rect x="0" y="0" width="11" height="2" style="fill:rgb(111,108,108);"/>
                </g>
                <g transform="matrix(1,0,0,1,9.5,1)">
                    <rect x="0" y="0" width="2" height="3" style="fill:rgb(111,108,108);"/>
                </g>
                <g transform="matrix(1,0,0,1,14.5,1)">
                    <rect x="0" y="0" width="2" height="3" style="fill:rgb(111,108,108);"/>
                </g>
            </g>
        </g>
    </g>
</svg>
