<?xml version="1.0" encoding="UTF-8" standalone="no"?>
<!DOCTYPE svg PUBLIC "-//W3C//DTD SVG 1.1//EN" "http://www.w3.org/Graphics/SVG/1.1/DTD/svg11.dtd">
<svg width="100%" height="100%" viewBox="0 0 26 26" version="1.1" xmlns="http://www.w3.org/2000/svg" xmlns:xlink="http://www.w3.org/1999/xlink" xml:space="preserve" xmlns:serif="http://www.serif.com/" style="fill-rule:evenodd;clip-rule:evenodd;stroke-linejoin:round;stroke-miterlimit:2;">
    <g id="b">
        <g id="Tiled-Median" serif:id="Tiled Median">
            <g transform="matrix(0.8,0,0,1,2.6,-0.690176)">
                <path d="M26,25.482C26,25.164 25.842,24.859 25.561,24.634C25.279,24.409 24.898,24.282 24.5,24.282C19.91,24.282 6.09,24.282 1.5,24.282C1.102,24.282 0.721,24.409 0.439,24.634C0.158,24.859 -0,25.164 -0,25.482C0,25.772 0,26.69 0,26.69L26,26.69L26,25.482Z" style="fill:rgb(160,160,160);"/>
            </g>
            <g transform="matrix(0.845328,0,0,1,2.22147,-0.690176)">
                <rect x="3.213" y="24.282" width="19.087" height="2.408" style="fill:rgb(125,125,125);"/>
            </g>
            <g transform="matrix(0.281776,0,0,0.386069,4.03226,14.2175)">
                <rect x="3.213" y="24.282" width="19.087" height="2.408" style="fill:rgb(98,98,98);"/>
            </g>
            <g transform="matrix(0.281776,0,0,0.386069,4.03226,15.1471)">
                <rect x="3.213" y="24.282" width="19.087" height="2.408" style="fill:rgb(78,78,78);"/>
            </g>
            <g transform="matrix(0.281776,0,0,0.386069,9.41043,14.2175)">
                <rect x="3.213" y="24.282" width="19.087" height="2.408" style="fill:rgb(78,78,78);"/>
            </g>
            <g transform="matrix(0.281776,0,0,0.386069,9.41043,15.1471)">
                <rect x="3.213" y="24.282" width="19.087" height="2.408" style="fill:rgb(98,98,98);"/>
            </g>
            <g transform="matrix(0.281776,0,0,0.386069,14.7886,14.2175)">
                <rect x="3.213" y="24.282" width="19.087" height="2.408" style="fill:rgb(98,98,98);"/>
            </g>
            <g transform="matrix(0.281776,0,0,0.386069,14.7886,15.1471)">
                <rect x="3.213" y="24.282" width="19.087" height="2.408" style="fill:rgb(78,78,78);"/>
            </g>
        </g>
    </g>
</svg>
