<?xml version="1.0" encoding="UTF-8" standalone="no"?>
<!DOCTYPE svg PUBLIC "-//W3C//DTD SVG 1.1//EN" "http://www.w3.org/Graphics/SVG/1.1/DTD/svg11.dtd">
<svg width="100%" height="100%" viewBox="0 0 26 26" version="1.1" xmlns="http://www.w3.org/2000/svg" xmlns:xlink="http://www.w3.org/1999/xlink" xml:space="preserve" xmlns:serif="http://www.serif.com/" style="fill-rule:evenodd;clip-rule:evenodd;stroke-linejoin:round;stroke-miterlimit:2;">
    <path d="M20.917,25.104L19.902,25.104L19.902,26L20.917,26L20.917,25.104ZM6.003,26L6.003,26L8.63,26L8.63,26L9.645,26L9.645,25.104L8.63,25.104L8.63,25.703L6.003,25.703L6.003,25.104L5.083,25.104L5.083,26L6.003,26ZM17.329,26L17.329,26L19.902,26L19.902,25.703L17.329,25.703L17.329,25.104L16.355,25.104L16.355,26L17.329,26ZM19.851,24.867L17.69,24.801L17.569,24.867C17.552,25.11 17.78,25.332 18.078,25.341L19.158,25.341C19.456,25.35 19.712,25.176 19.73,24.932L19.851,24.867ZM6.131,24.867L8.291,24.801L8.412,24.867C8.429,25.11 8.202,25.332 7.903,25.341L6.823,25.341C6.525,25.35 6.269,25.176 6.252,24.932L6.131,24.867ZM6.845,3.898L19.158,3.898C20.717,3.898 21.268,5.675 21.57,6.983C22.106,9.309 22.601,14.941 22.376,17.854C22.196,20.183 20.686,24.464 20.22,24.464L5.783,24.464C5.317,24.464 3.807,20.183 3.627,17.854C3.402,14.941 3.897,9.309 4.433,6.983C4.734,5.675 5.286,3.898 6.845,3.898ZM21.18,18.038C20.583,17.874 18.371,18.689 17.572,19.382C16.796,20.054 16.433,21.46 16.383,22.194C16.338,22.866 16.632,23.853 17.274,23.785C17.914,23.718 19.583,22.361 20.229,21.791C20.652,21.419 21.018,20.892 21.152,20.364C21.31,19.738 21.777,18.201 21.18,18.038ZM4.822,18.038C5.419,17.874 7.631,18.689 8.431,19.382C9.207,20.054 9.569,21.46 9.619,22.194C9.664,22.866 9.371,23.853 8.729,23.785C8.088,23.718 6.42,22.361 5.773,21.791C5.351,21.419 4.984,20.892 4.851,20.364C4.693,19.738 4.226,18.201 4.822,18.038ZM8.454,21.863C8.061,21.828 7.708,22.129 7.671,22.534C7.651,22.93 7.948,23.275 8.333,23.303C8.34,23.303 8.345,23.304 8.351,23.304C8.745,23.339 9.097,23.037 9.135,22.633C9.154,22.236 8.858,21.891 8.472,21.864C8.466,21.863 8.46,21.863 8.454,21.863ZM17.549,21.863C17.942,21.828 18.294,22.129 18.332,22.534C18.351,22.93 18.055,23.275 17.669,23.303C17.663,23.303 17.657,23.304 17.651,23.304C17.258,23.339 16.906,23.037 16.868,22.633C16.848,22.236 17.145,21.891 17.531,21.864C17.537,21.863 17.543,21.863 17.549,21.863ZM18.703,19.279C19.34,19.222 19.91,19.71 19.971,20.365C20.003,21.007 19.522,21.565 18.898,21.61C18.888,21.611 18.879,21.612 18.869,21.612C18.232,21.669 17.662,21.18 17.601,20.526C17.569,19.884 18.05,19.325 18.674,19.28C18.684,19.279 18.694,19.279 18.703,19.279ZM7.299,19.279C6.663,19.222 6.093,19.71 6.032,20.365C6,21.007 6.481,21.565 7.105,21.61C7.114,21.611 7.124,21.612 7.134,21.612C7.77,21.669 8.341,21.18 8.402,20.526C8.433,19.884 7.953,19.325 7.329,19.28C7.319,19.279 7.309,19.279 7.299,19.279ZM20.456,18.553C20.739,18.528 20.992,18.745 21.019,19.036C21.033,19.321 20.82,19.569 20.542,19.589C20.538,19.59 20.534,19.59 20.53,19.59C20.247,19.616 19.993,19.398 19.966,19.108C19.952,18.822 20.165,18.574 20.443,18.554C20.447,18.554 20.452,18.553 20.456,18.553ZM5.547,18.553C5.264,18.528 5.011,18.745 4.984,19.036C4.969,19.321 5.183,19.569 5.46,19.589C5.465,19.59 5.469,19.59 5.473,19.59C5.756,19.616 6.01,19.398 6.037,19.108C6.051,18.822 5.837,18.574 5.56,18.554C5.555,18.554 5.551,18.553 5.547,18.553ZM7.489,5.223L18.514,5.223C19.91,5.223 20.403,6.328 20.673,7.142C21.153,8.589 21.497,12.092 21.395,13.904C21.315,15.314 20.511,18.016 20.055,18.016L5.947,18.016C5.492,18.016 4.688,15.314 4.608,13.904C4.505,12.092 4.85,8.589 5.33,7.142C5.599,6.328 6.093,5.223 7.489,5.223ZM9.686,1.949L9.686,3.306L11.581,3.306L11.581,1.949L14.422,1.949L14.422,3.306L16.316,3.306L16.316,1.949L18.211,1.949L18.211,0L7.792,0L7.792,1.949L9.686,1.949Z" style="fill:white;"/>
</svg>
