<?xml version="1.0" encoding="UTF-8" standalone="no"?>
<!DOCTYPE svg PUBLIC "-//W3C//DTD SVG 1.1//EN" "http://www.w3.org/Graphics/SVG/1.1/DTD/svg11.dtd">
<svg width="100%" height="100%" viewBox="0 0 26 26" version="1.1" xmlns="http://www.w3.org/2000/svg" xmlns:xlink="http://www.w3.org/1999/xlink" xml:space="preserve" xmlns:serif="http://www.serif.com/" style="fill-rule:evenodd;clip-rule:evenodd;stroke-linejoin:round;stroke-miterlimit:2;">
    <g transform="matrix(1.376,0,0,1.22128,-8.85798,-1.86239)">
        <g id="b">
            <g id="Pipes">
                <g transform="matrix(0.940665,0,0,1.07205,6.00391,-3.60934)">
                    <path d="M3.902,12.721C3.857,12.717 10.947,8.051 10.947,8.051C11.354,7.689 11.847,7.411 12.392,7.237C13.801,6.791 15.334,7.135 16.575,8.032C16.405,7.989 17.008,8.281 17.403,8.76C17.938,9.328 18.377,10.018 18.671,10.801C19.651,13.416 18.654,16.126 16.442,17.041L9.446,21.456C9.452,21.439 9.458,21.421 9.463,21.404C8.141,22.298 5.625,22.323 3.52,20.177L3.499,20.153C3.06,19.642 2.697,19.041 2.444,18.369C1.609,16.149 2.625,13.614 3.902,12.721ZM4.152,19.62L3.52,20.177C3.734,19.984 3.946,19.796 4.149,19.617C3.391,18.797 2.922,17.692 2.922,16.497C2.922,14.105 4.799,12.251 7.111,12.359C9.423,12.466 11.3,14.495 11.3,16.887C11.3,19.279 9.423,21.133 7.111,21.025C5.956,20.971 4.91,20.438 4.152,19.62Z" style="fill:white;"/>
                </g>
                <g transform="matrix(0.333329,0,0,0.379887,10.1948,11.7651)">
                    <path d="M6.424,-0.673L1.241,5.968L6.424,5.968L-0.725,13.789L12.168,6.05C12.206,6.023 12.162,5.967 12.104,5.968L7.246,5.968L14.808,-0.601C14.952,-0.707 14.852,-0.673 14.752,-0.673L6.424,-0.673Z" style="fill:white;fill-rule:nonzero;"/>
                </g>
                <g transform="matrix(0.417469,0,0,0.417469,7.03075,16.0544)">
                    <rect x="0" y="0" width="18.387" height="13.773" style="fill:none;"/>
                </g>
            </g>
        </g>
    </g>
</svg>
