<?xml version="1.0" encoding="UTF-8" standalone="no"?>
<!DOCTYPE svg PUBLIC "-//W3C//DTD SVG 1.1//EN" "http://www.w3.org/Graphics/SVG/1.1/DTD/svg11.dtd">
<svg width="100%" height="100%" viewBox="0 0 128 128" version="1.1" xmlns="http://www.w3.org/2000/svg" xmlns:xlink="http://www.w3.org/1999/xlink" xml:space="preserve" xmlns:serif="http://www.serif.com/" style="fill-rule:evenodd;clip-rule:evenodd;stroke-linejoin:round;stroke-miterlimit:2;">
    <g transform="matrix(3.69322,0,0,3.69322,63.8691,16.247)">
        <g id="b">
            <g id="QuestionMark">
                <g transform="matrix(1.39192,0,0,0.979632,-22.8888,2.55095)">
                    <rect x="16.079" y="8.637" width="0.753" height="19.647" style="fill:rgb(105,105,105);"/>
                </g>
                <g transform="matrix(2.47848,0,0,0.0329612,-40.7681,25.211)">
                    <rect x="16.079" y="137.847" width="0.753" height="15.299" style="fill:rgb(159,159,159);"/>
                </g>
                <g transform="matrix(0.13055,0.134168,-0.131078,0.127442,-4.66178,-4.0987)">
                    <path d="M92.833,18.113C92.833,14.342 89.832,11.28 86.136,11.28L54.001,11.28C50.306,11.28 47.306,14.341 47.306,18.111L47.306,49.791C47.306,53.562 50.307,56.624 54.003,56.624L86.138,56.624C89.833,56.624 92.833,53.563 92.833,49.793L92.833,18.113Z" style="fill:rgb(251,165,50);stroke:rgb(189,129,49);stroke-width:2.13px;"/>
                </g>
                <g transform="matrix(0.102917,0.105769,-0.105811,0.102876,-3.5834,-1.26592)">
                    <path d="M93.148,18.113C93.148,14.201 89.972,11.024 86.059,11.024L54.077,11.024C50.166,11.024 46.99,14.2 46.99,18.111L46.99,49.791C46.99,53.703 50.167,56.88 54.08,56.88L86.062,56.88C89.973,56.88 93.148,53.704 93.148,49.793L93.148,18.113ZM89.9,18.112C89.9,15.993 88.18,14.272 86.061,14.272L54.078,14.272C51.959,14.272 50.238,15.993 50.238,18.112L50.238,49.792C50.238,51.911 51.959,53.632 54.078,53.632L86.061,53.632C88.18,53.632 89.9,51.911 89.9,49.792L89.9,18.112Z"/>
                </g>
                <g transform="matrix(1.21779,0,0,1.21779,-68.6731,-34.9775)">
                    <rect x="56.164" y="37.77" width="0.605" height="0.644"/>
                </g>
                <g transform="matrix(1.21779,0,0,1.21779,-68.6731,-34.9775)">
                    <path d="M56.667,37.405L56.164,37.405L56.164,37.057C56.164,36.94 56.188,36.848 56.235,36.781C56.282,36.714 56.386,36.619 56.545,36.495C56.789,36.308 56.911,36.11 56.911,35.9C56.911,35.742 56.864,35.617 56.768,35.524C56.673,35.431 56.549,35.385 56.396,35.385C56.042,35.385 55.834,35.63 55.77,36.119L55.208,36.019C55.243,35.653 55.378,35.366 55.614,35.157C55.85,34.948 56.133,34.844 56.463,34.844C56.791,34.844 57.062,34.941 57.277,35.136C57.492,35.331 57.599,35.574 57.599,35.864C57.599,36.008 57.569,36.145 57.51,36.275C57.451,36.405 57.384,36.505 57.308,36.576C57.232,36.648 57.073,36.773 56.829,36.951C56.76,37.001 56.716,37.049 56.697,37.097C56.679,37.144 56.668,37.247 56.667,37.405Z"/>
                </g>
            </g>
        </g>
    </g>
</svg>
