<?xml version="1.0" encoding="UTF-8" standalone="no"?>
<!DOCTYPE svg PUBLIC "-//W3C//DTD SVG 1.1//EN" "http://www.w3.org/Graphics/SVG/1.1/DTD/svg11.dtd">
<svg width="100%" height="100%" viewBox="0 0 32 32" version="1.1" xmlns="http://www.w3.org/2000/svg" xmlns:xlink="http://www.w3.org/1999/xlink" xml:space="preserve" xmlns:serif="http://www.serif.com/" style="fill-rule:evenodd;clip-rule:evenodd;stroke-linejoin:round;stroke-miterlimit:2;">
    <g id="Underground-Power" serif:id="Underground Power" transform="matrix(-0.429084,0,0,0.377876,30.6297,20.9665)">
        <g transform="matrix(0.940665,-0.202737,0,1.07205,5.83048,-2.61361)">
            <path d="M3.902,12.721C3.857,12.717 8.017,10.292 8.017,10.292L16.442,17.041L9.446,21.456C9.452,21.439 9.458,21.421 9.463,21.404C8.141,22.298 5.22,21.882 3.383,19.753L3.365,19.729C2.981,19.229 2.664,18.66 2.444,18.043C1.716,16.003 2.625,13.614 3.902,12.721ZM3.934,19.343L3.383,19.753C3.57,19.61 3.754,19.472 3.932,19.34C3.27,18.533 2.861,17.511 2.861,16.468C2.861,14.381 4.499,12.992 6.516,13.369C8.534,13.745 10.171,15.746 10.171,17.832C10.171,19.919 8.534,21.308 6.516,20.931C5.509,20.743 4.596,20.15 3.934,19.343Z" style="fill:white;"/>
        </g>
        <g transform="matrix(0.333329,0,0,0.379887,10.1948,11.7651)">
            <path d="M5.513,1.605L9.745,7.027L5.513,7.027L11.35,13.413L0.823,7.094C0.791,7.072 0.828,7.026 0.875,7.027L4.841,7.027L-1.333,1.663C-1.45,1.577 -1.369,1.605 -1.288,1.605L5.513,1.605Z" style="fill:white;fill-rule:nonzero;"/>
        </g>
    </g>
    <g transform="matrix(1.00684,0,0,0.999015,-0.742018,-1.36779)">
        <g transform="matrix(0.499566,0,0,0.499566,-363.578,166.955)">
            <path d="M733.426,-301.284L763.036,-275.915L786.171,-290.158L786.171,-293.23L763.104,-279.391L733.426,-304.78L733.426,-301.284Z" style="fill:white;fill-rule:nonzero;"/>
        </g>
        <g transform="matrix(0.894711,0,0,0.894711,1.68467,3.06974)">
            <path d="M7.332,9.465L8.583,8.706L7.332,9.465L2.406,12.471L18.091,25.595L22.798,22.772L7.332,9.465ZM14.755,6.05L13.98,5.409L8.583,8.706L24.056,22.016L22.798,22.772L29.85,18.541L27.318,16.446L27.318,18.241C27.154,18.558 26.734,18.764 26.277,18.751C25.785,18.728 25.333,18.539 25.053,18.237L25.264,14.746L18.629,9.256C18.547,9.222 18.474,9.183 18.413,9.138C18.331,9.077 18.272,9.005 18.232,8.928L16.798,7.74L16.798,9.726C16.634,10.043 16.214,10.249 15.757,10.236C15.265,10.214 14.813,10.024 14.533,9.723L14.755,6.05Z" style="fill:white;fill-rule:nonzero;"/>
        </g>
        <g transform="matrix(0.499566,0,0,0.499566,-1063.34,315.541)">
            <path d="M2179.72,-593.683L2179.72,-608.96L2178.84,-609.41L2175.67,-607.363L2173.2,-606.452L2172.16,-605.662C2172.16,-605.662 2171.67,-604.593 2172.16,-604.107C2172.64,-603.621 2174.04,-603.742 2174.04,-603.742L2174.92,-604.366L2176.64,-606.713L2178.44,-607.913L2177.8,-593.687C2178.04,-593.342 2178.42,-593.125 2178.84,-593.099C2179.23,-593.084 2179.58,-593.32 2179.72,-593.683Z" style="fill:white;fill-rule:nonzero;"/>
        </g>
        <g transform="matrix(0.499566,0,0,0.499566,-1072.8,308.047)">
            <path d="M2179.72,-593.683L2179.72,-608.96L2178.84,-609.41L2175.67,-607.363L2173.2,-606.452L2172.16,-605.662C2172.16,-605.662 2171.67,-604.593 2172.16,-604.107C2172.64,-603.621 2174.04,-603.742 2174.04,-603.742L2174.92,-604.366L2176.64,-606.713L2178.44,-607.913L2177.8,-593.687C2178.04,-593.342 2178.42,-593.125 2178.84,-593.099C2179.23,-593.084 2179.58,-593.32 2179.72,-593.683Z" style="fill:white;fill-rule:nonzero;"/>
        </g>
    </g>
</svg>
