<?xml version="1.0" encoding="UTF-8" standalone="no"?>
<!DOCTYPE svg PUBLIC "-//W3C//DTD SVG 1.1//EN" "http://www.w3.org/Graphics/SVG/1.1/DTD/svg11.dtd">
<svg width="100%" height="100%" viewBox="0 0 26 26" version="1.1" xmlns="http://www.w3.org/2000/svg" xmlns:xlink="http://www.w3.org/1999/xlink" xml:space="preserve" xmlns:serif="http://www.serif.com/" style="fill-rule:evenodd;clip-rule:evenodd;stroke-linejoin:round;stroke-miterlimit:2;">
    <g transform="matrix(1,0,0,1,13,0)">
        <g id="b">
            <g id="Sidewalk-Right-Wide" serif:id="Sidewalk Right Wide">
                <g transform="matrix(0.995495,0,0,1,-10.3942,-0.690176)">
                    <path d="M23.5,39.69L23.5,24.282C23.5,24.282 5.559,24.282 1.205,24.282C0.886,24.282 0.579,24.409 0.353,24.634C0.127,24.859 -0,25.164 -0,25.482C0,25.772 0,39.69 0,39.69L23.5,39.69Z" style="fill:rgb(160,160,160);"/>
                </g>
                <g transform="matrix(1.10321,0,0,1,-11.6013,-0.690176)">
                    <rect x="3.213" y="24.282" width="19.087" height="15.408" style="fill:rgb(125,125,125);"/>
                </g>
                <g transform="matrix(0.538296,0,0,0.538296,-4.42394,9.23831)">
                    <g transform="matrix(1,0,0,1,2.96302,-0.00238321)">
                        <g transform="matrix(-0.842726,1.03204e-16,-1.11579e-16,-0.911114,17.3945,27.9104)">
                            <path d="M10.977,17.122C10.831,16.699 11.336,6.86 11.329,5.898C11.324,5.198 11.164,3.586 11.387,3.287C11.551,3.067 11.752,2.935 12.108,2.97C12.181,2.977 12.901,2.887 12.994,4.011C13.19,5.854 13.056,10.841 13.204,12.993C13.244,13.579 13.621,13.848 13.692,13.91C13.884,14.074 14.163,13.514 14.249,12.807C14.364,11.876 14.737,10.447 14.775,9.29C14.807,8.312 13.755,3.036 13.832,1.568C13.868,1.233 15.193,1.391 15.274,1.481C15.57,1.81 15.754,4.083 16.054,5.862C16.333,7.513 16.739,8.668 16.741,9.202C16.748,10.845 16.476,13.091 16.218,14.864C16.06,15.945 16.056,16.84 15.692,17.34C15.2,18.016 14.307,17.064 13.25,16.985C12.328,16.916 11.218,17.816 10.977,17.122Z" style="fill:rgb(147,220,244);fill-rule:nonzero;"/>
                        </g>
                        <g transform="matrix(0.842726,0,0,0.842726,8.63844,6.4292)">
                            <path d="M-3.674,-1.715C-3.115,-1.857 -2.45,-1.857 -1.918,-1.715C-1.714,-1.66 -1.903,-1.237 -1.701,-1.144C-1.377,-0.995 -0.825,-0.904 -0.486,-0.858C0.923,-0.667 1.038,2.221 1.101,2.879C1.304,4.995 1.306,8.759 0.43,9.732C-0.033,10.247 0.542,5.729 0.333,5.166C0.203,4.817 -0.379,2.663 -0.411,2.912C-0.627,4.567 -0.701,5.851 -0.75,6.962C-0.793,7.955 -2.15,7.735 -3.061,7.736C-3.929,7.737 -5.533,7.821 -5.653,6.962C-5.867,5.43 -5.853,4.119 -5.949,2.879C-5.959,2.742 -6.91,5.358 -6.924,5.185C-6.935,5.048 -6.099,9.975 -6.607,10.328C-6.925,10.549 -7.6,7.024 -7.712,5.378C-7.806,4.009 -7.552,3.197 -7.528,2.967C-7.418,1.888 -6.854,-0.485 -5.729,-0.79C-5.281,-0.911 -4.549,-0.981 -4.113,-1.144C-3.981,-1.194 -3.804,-1.681 -3.674,-1.715Z" style="fill:rgb(194,240,255);fill-rule:nonzero;"/>
                        </g>
                        <g transform="matrix(0.451179,0,0,0.58023,4.54853,0.685696)">
                            <path d="M3.518,0C5.46,0 7.036,1.055 7.036,2.996C7.036,4.938 5.46,7.036 3.518,7.036C1.576,7.036 0,4.938 0,2.996C0,1.055 1.576,0 3.518,0Z" style="fill:rgb(194,240,255);"/>
                        </g>
                    </g>
                    <g transform="matrix(-0.975012,0,0,1,22.988,1.45571)">
                        <g transform="matrix(-0.842726,1.03204e-16,-1.11579e-16,-0.911114,17.3945,27.9104)">
                            <path d="M10.977,17.122C10.831,16.699 11.336,6.86 11.329,5.898C11.324,5.198 11.164,3.586 11.387,3.287C11.551,3.067 11.752,2.935 12.108,2.97C12.181,2.977 12.901,2.887 12.994,4.011C13.19,5.854 13.056,10.841 13.204,12.993C13.244,13.579 13.621,13.848 13.692,13.91C13.884,14.074 14.163,13.514 14.249,12.807C14.364,11.876 14.737,10.447 14.775,9.29C14.807,8.312 14.538,4.782 14.615,3.314C14.652,2.979 15.976,3.136 16.058,3.227C16.354,3.556 16.739,8.668 16.741,9.202C16.748,10.845 16.476,13.091 16.218,14.864C16.06,15.945 16.056,16.84 15.692,17.34C15.2,18.016 14.307,17.064 13.25,16.985C12.328,16.916 11.218,17.816 10.977,17.122Z" style="fill:rgb(125,150,159);fill-rule:nonzero;"/>
                        </g>
                        <g transform="matrix(0.842726,0,0,0.842726,8.63844,6.4292)">
                            <path d="M-3.674,-1.715C-3.115,-1.857 -2.45,-1.857 -1.918,-1.715C-1.714,-1.66 -1.903,-1.237 -1.701,-1.144C-1.377,-0.995 -0.825,-0.904 -0.486,-0.858C0.923,-0.667 1.038,2.221 1.101,2.879C1.304,4.995 1.306,8.759 0.43,9.732C-0.033,10.247 0.542,5.729 0.333,5.166C0.203,4.817 -0.379,2.663 -0.411,2.912C-0.627,4.567 -0.701,5.851 -0.75,6.962C-0.793,7.955 -2.15,7.735 -3.061,7.736C-3.929,7.737 -5.533,7.821 -5.653,6.962C-5.867,5.43 -5.853,4.119 -5.949,2.879C-5.959,2.742 -6.91,5.358 -6.924,5.185C-6.935,5.048 -6.099,9.975 -6.607,10.328C-6.925,10.549 -7.6,7.024 -7.712,5.378C-7.806,4.009 -7.552,3.197 -7.528,2.967C-7.418,1.888 -6.854,-0.485 -5.729,-0.79C-5.281,-0.911 -4.549,-0.981 -4.113,-1.144C-3.981,-1.194 -3.804,-1.681 -3.674,-1.715Z" style="fill:rgb(151,180,190);fill-rule:nonzero;"/>
                        </g>
                        <g transform="matrix(0.451179,0,0,0.58023,4.54853,0.685696)">
                            <path d="M3.518,0C5.46,0 7.036,1.055 7.036,2.996C7.036,4.938 5.46,7.036 3.518,7.036C1.576,7.036 0,4.938 0,2.996C0,1.055 1.576,0 3.518,0Z" style="fill:rgb(151,180,190);"/>
                        </g>
                    </g>
                    <g transform="matrix(0.968897,0,0,0.913959,-5.20943,3.62476)">
                        <g transform="matrix(-0.842726,1.03204e-16,-1.11579e-16,-0.911114,17.3945,27.9104)">
                            <path d="M10.977,17.122C10.831,16.699 11.336,6.86 11.329,5.898C11.324,5.198 11.164,3.586 11.387,3.287C11.551,3.067 11.752,2.935 12.108,2.97C12.181,2.977 12.901,2.887 12.994,4.011C13.19,5.854 13.056,10.841 13.204,12.993C13.244,13.579 13.621,13.848 13.692,13.91C13.884,14.074 14.163,13.514 14.249,12.807C14.364,11.876 14.737,10.447 14.775,9.29C14.807,8.312 14.538,4.782 14.615,3.314C14.652,2.979 15.976,3.136 16.058,3.227C16.354,3.556 16.739,8.668 16.741,9.202C16.748,10.845 16.476,13.091 16.218,14.864C16.06,15.945 16.056,16.84 15.692,17.34C15.2,18.016 14.307,17.064 13.25,16.985C12.328,16.916 11.218,17.816 10.977,17.122Z" style="fill:rgb(162,162,133);fill-rule:nonzero;"/>
                        </g>
                        <g transform="matrix(-0.816361,0,0,0.842726,3.47121,6.3321)">
                            <path d="M-3.674,-1.715C-3.115,-1.857 -2.45,-1.857 -1.918,-1.715C-1.714,-1.66 -1.903,-1.237 -1.701,-1.144C-1.377,-0.995 -0.825,-0.904 -0.486,-0.858C0.923,-0.667 1.038,2.221 1.101,2.879C1.304,4.995 1.306,8.759 0.43,9.732C-0.033,10.247 0.542,5.729 0.333,5.166C0.203,4.817 -0.379,2.663 -0.411,2.912C-0.627,4.567 -0.701,5.851 -0.75,6.962C-0.793,7.955 -2.15,7.735 -3.061,7.736C-3.929,7.737 -5.533,7.821 -5.653,6.962C-5.867,5.43 -5.853,4.119 -5.949,2.879C-5.959,2.742 -6.91,5.358 -6.924,5.185C-6.935,5.048 -6.099,9.975 -6.607,10.328C-6.925,10.549 -7.6,7.024 -7.712,5.378C-7.806,4.009 -7.552,3.197 -7.528,2.967C-7.418,1.888 -6.854,-0.485 -5.729,-0.79C-5.281,-0.911 -4.549,-0.981 -4.113,-1.144C-3.981,-1.194 -3.804,-1.681 -3.674,-1.715Z" style="fill:rgb(190,190,151);fill-rule:nonzero;"/>
                        </g>
                        <g transform="matrix(0.39307,0,0,0.5055,4.47344,0.954978)">
                            <path d="M3.518,0C5.46,0 7.036,1.055 7.036,2.996C7.036,4.938 5.46,7.036 3.518,7.036C1.576,7.036 0,4.938 0,2.996C0,1.055 1.576,0 3.518,0Z" style="fill:rgb(190,190,151);"/>
                        </g>
                    </g>
                </g>
            </g>
        </g>
    </g>
    <g id="Street-Lamp" serif:id="Street Lamp">
        <g transform="matrix(1.01033,0,0,0.787888,-0.0874172,4.59095)">
            <path d="M15.642,-28.594L14.912,-28.818L15.358,-29.249L24.921,-23.204L25.083,-0.219L25.107,-23.204L24.921,-23.763L14.912,-29.43L13.507,-29.249L12.61,-29.524C12.61,-29.524 12.669,-28.999 13.99,-28.594C15.31,-28.188 15.642,-28.594 15.642,-28.594Z" style="fill:rgb(255,225,0);"/>
        </g>
        <path d="M15.716,-18.139L24.928,-13.37L25.182,5.477L25.596,5.477L25.182,-15.23L15.716,-18.873L15.716,-19.108L12.686,-19.598C12.686,-19.598 12.373,-19.633 12.378,-19.108C12.381,-18.763 12.653,-18.671 12.653,-18.671L15.716,-17.938L15.716,-18.139Z" style="fill:rgb(204,204,204);"/>
        <g transform="matrix(1.01033,0,0,0.787888,-0.0874172,4.59095)">
            <path d="M25.462,-25.653L24.746,-25.653L24.759,23.592L25.568,23.592L25.462,-25.653Z" style="fill:rgb(182,182,182);"/>
        </g>
        <g transform="matrix(1.80416,0,0,0.0403742,-19.9971,22.6396)">
            <path d="M25.449,3.122L24.806,3.122L24.759,23.592L25.495,23.592L25.449,3.122Z" style="fill:rgb(91,91,91);"/>
        </g>
    </g>
</svg>
