<?xml version="1.0" encoding="UTF-8" standalone="no"?>
<!DOCTYPE svg PUBLIC "-//W3C//DTD SVG 1.1//EN" "http://www.w3.org/Graphics/SVG/1.1/DTD/svg11.dtd">
<svg width="100%" height="100%" viewBox="0 0 26 26" version="1.1" xmlns="http://www.w3.org/2000/svg" xmlns:xlink="http://www.w3.org/1999/xlink" xml:space="preserve" xmlns:serif="http://www.serif.com/" style="fill-rule:evenodd;clip-rule:evenodd;stroke-linejoin:round;stroke-miterlimit:2;">
    <g transform="matrix(1,0,0,1,13,0)">
        <g id="b">
            <g id="Sidewalk-Right-Wide" serif:id="Sidewalk Right Wide">
                <g transform="matrix(0.995495,0,0,1,-10.3942,0)">
                    <path d="M26,25.482C26,25.164 25.873,24.859 25.647,24.634C25.421,24.409 25.114,24.282 24.795,24.282C20.441,24.282 5.559,24.282 1.205,24.282C0.886,24.282 0.579,24.409 0.353,24.634C0.127,24.859 -0,25.164 -0,25.482C0,25.772 0,26 0,26L26,26L26,25.482Z" style="fill:rgb(160,160,160);"/>
                </g>
                <g transform="matrix(1.10321,0,0,1,-11.6013,0)">
                    <rect x="3.213" y="24.282" width="19.087" height="1.718" style="fill:rgb(125,125,125);"/>
                </g>
                <g transform="matrix(0.538296,0,0,0.538296,-4.42394,9.92849)">
                    <g transform="matrix(-0.842726,9.65724e-17,-1.11082e-16,-0.856961,25.098,26.111)">
                        <path d="M1.745,-0.197C2.396,0.197 3.165,6.798 3.891,6.798C4.617,6.798 5.446,0.197 6.099,-0.197C6.752,-0.591 7.806,3.676 7.809,4.435C7.812,5.194 7.809,10.466 7.809,10.466C7.809,10.875 7.473,11.211 7.064,11.211L0.727,11.211C0.318,11.211 -0.018,10.875 -0.018,10.466C-0.018,10.466 -0.018,10.465 -0.018,10.465C-0.018,10.465 -0.042,5.218 -0.018,4.434C0.006,3.65 1.094,-0.591 1.745,-0.197Z" style="fill:rgb(125,150,159);fill-rule:nonzero;"/>
                    </g>
                    <g transform="matrix(-0.842726,8.72441e-17,-1.10381e-16,-0.78079,7.08018,26.128)">
                        <path d="M1.745,-0.197C2.396,0.197 3.165,6.798 3.891,6.798C4.617,6.798 5.446,0.197 6.099,-0.197C6.752,-0.591 7.806,3.676 7.809,4.435C7.812,5.194 7.809,10.466 7.809,10.466C7.809,10.875 7.473,11.211 7.064,11.211L0.727,11.211C0.318,11.211 -0.018,10.875 -0.018,10.466C-0.018,10.466 -0.018,10.465 -0.018,10.465C-0.018,10.465 -0.042,5.218 -0.018,4.434C0.006,3.65 1.094,-0.591 1.745,-0.197Z" style="fill:rgb(162,162,133);fill-rule:nonzero;"/>
                    </g>
                    <g transform="matrix(-0.842726,1.03204e-16,-1.11579e-16,-0.911114,17.3945,27.9104)">
                        <path d="M2.335,1.865C3.19,2.407 4.15,8.791 5.117,8.791C6.084,8.791 7.256,2.407 8.139,1.865C9.023,1.323 10.415,4.53 10.418,5.541C10.421,6.552 10.418,12.313 10.418,12.313C10.418,12.858 9.969,13.307 9.424,13.307L0.979,13.307C0.434,13.307 -0.015,12.858 -0.015,12.313C-0.015,11.768 -0.047,6.586 -0.015,5.541C0.017,4.496 1.48,1.323 2.335,1.865Z" style="fill:rgb(147,220,244);fill-rule:nonzero;"/>
                    </g>
                    <g transform="matrix(0.842726,0,0,0.792638,18.5402,8.93407)">
                        <path d="M1.745,1.12C2.255,1.74 3.03,2.082 3.832,2.042C5.38,2.068 5.832,1.006 6.099,1.12C7.665,1.759 7.806,3.676 7.809,4.435C7.812,5.194 7.809,9.479 7.809,9.479C7.809,9.887 7.473,10.224 7.064,10.224L0.727,10.224C0.318,10.224 -0.018,9.887 -0.018,9.479C-0.018,9.478 -0.018,9.478 -0.018,9.478C-0.018,9.477 -0.042,5.218 -0.018,4.434C0.006,3.65 -0.026,1.766 1.745,1.12Z" style="fill:rgb(151,180,190);fill-rule:nonzero;"/>
                    </g>
                    <g transform="matrix(0.842726,0,0,0.722184,0.522363,10.4778)">
                        <path d="M1.745,1.12C2.255,1.74 3.03,2.082 3.832,2.042C5.38,2.068 5.832,1.006 6.099,1.12C7.665,1.759 7.806,3.676 7.809,4.435C7.812,5.194 7.809,9.539 7.809,9.539C7.809,9.948 7.473,10.284 7.064,10.284L0.727,10.284C0.318,10.284 -0.018,9.948 -0.018,9.539C-0.018,9.539 -0.018,9.539 -0.018,9.538C-0.018,9.538 -0.042,5.218 -0.018,4.434C0.006,3.65 -0.026,1.766 1.745,1.12Z" style="fill:rgb(190,190,151);fill-rule:nonzero;"/>
                    </g>
                    <g transform="matrix(0.842726,0,0,0.792638,19.7082,5.706)">
                        <circle cx="2.592" cy="2.592" r="2.592" style="fill:rgb(151,180,190);"/>
                    </g>
                    <g transform="matrix(0.842726,0,0,0.722184,1.69038,7.53669)">
                        <circle cx="2.592" cy="2.592" r="2.592" style="fill:rgb(190,190,151);"/>
                    </g>
                    <g transform="matrix(0.842726,0,0,0.842726,8.63844,6.4292)">
                        <path d="M2.335,1.123C3.015,1.949 4.048,2.405 5.117,2.352C7.181,2.386 7.783,0.97 8.139,1.123C10.227,1.975 10.415,4.53 10.418,5.541C10.421,6.552 10.418,11.289 10.418,11.289C10.418,11.834 9.969,12.283 9.424,12.283L0.979,12.283C0.434,12.283 -0.015,11.834 -0.015,11.289C-0.015,10.743 -0.047,6.586 -0.015,5.541C0.017,4.496 -0.025,1.984 2.335,1.123Z" style="fill:rgb(194,240,255);fill-rule:nonzero;"/>
                    </g>
                    <g transform="matrix(0.842726,0,0,0.842726,10.3365,1.6235)">
                        <circle cx="3.518" cy="3.518" r="3.518" style="fill:rgb(194,240,255);"/>
                    </g>
                </g>
            </g>
        </g>
    </g>
</svg>
