<?xml version="1.0" encoding="UTF-8" standalone="no"?>
<!DOCTYPE svg PUBLIC "-//W3C//DTD SVG 1.1//EN" "http://www.w3.org/Graphics/SVG/1.1/DTD/svg11.dtd">
<svg width="100%" height="100%" viewBox="0 0 32 32" version="1.1" xmlns="http://www.w3.org/2000/svg" xmlns:xlink="http://www.w3.org/1999/xlink" xml:space="preserve" xmlns:serif="http://www.serif.com/" style="fill-rule:evenodd;clip-rule:evenodd;stroke-linejoin:round;stroke-miterlimit:2;">
    <g id="b">
    </g>
    <g transform="matrix(0.914883,0,0,0.94295,-1.48595,-0.460166)">
        <path d="M9.939,3.458L6.771,3.458L6.771,28.372L9.939,28.359L9.939,3.458Z" style="fill:white;"/>
    </g>
    <g transform="matrix(0.707107,0.707107,-0.707107,0.707107,20.3228,2.7079)">
        <path d="M10.018,21.537L10.018,26.294L12.916,26.282L12.916,21.537L10.018,21.537ZM10.018,12.53L10.018,17.287L12.916,17.275L12.916,12.53L10.018,12.53ZM12.916,7.424L12.916,2.801L10.018,2.801L10.018,7.424L12.916,7.424Z" style="fill:white;"/>
    </g>
    <g id="_40" serif:id="40" transform="matrix(0.64692,0.64692,-0.471032,0.471032,14.0103,4.75683)">
        <path d="M11.702,5.774L8.535,5.774L8.535,31.469L11.702,35.819L11.702,5.774Z" style="fill:white;"/>
    </g>
    <path d="M16.881,10.036L18.034,9.938C18.119,10.5 18.317,10.921 18.628,11.204C18.939,11.487 19.315,11.628 19.754,11.628C20.282,11.628 20.73,11.429 21.095,11.03C21.461,10.632 21.644,10.103 21.644,9.444C21.644,8.818 21.469,8.324 21.117,7.962C20.765,7.6 20.305,7.42 19.735,7.42C19.382,7.42 19.062,7.5 18.778,7.66C18.493,7.821 18.27,8.029 18.107,8.286L17.076,8.151L17.942,3.559L22.388,3.559L22.388,4.608L18.821,4.608L18.339,7.011C18.875,6.637 19.439,6.45 20.028,6.45C20.809,6.45 21.467,6.72 22.004,7.261C22.541,7.802 22.809,8.497 22.809,9.347C22.809,10.156 22.573,10.855 22.102,11.445C21.528,12.169 20.746,12.53 19.754,12.53C18.94,12.53 18.277,12.303 17.762,11.847C17.248,11.392 16.954,10.788 16.881,10.036ZM13.453,12.378L13.453,10.237L9.575,10.237L9.575,9.231L13.655,3.437L14.551,3.437L14.551,9.231L15.759,9.231L15.759,10.237L14.551,10.237L14.551,12.378L13.453,12.378ZM13.453,9.231L13.453,5.2L10.654,9.231L13.453,9.231ZM24.09,4.974C24.09,4.506 24.256,4.108 24.587,3.778C24.918,3.449 25.316,3.284 25.779,3.284C26.251,3.284 26.652,3.449 26.981,3.778C27.31,4.108 27.475,4.506 27.475,4.974C27.475,5.441 27.309,5.841 26.978,6.172C26.647,6.504 26.247,6.669 25.779,6.669C25.316,6.669 24.918,6.505 24.587,6.175C24.256,5.846 24.09,5.446 24.09,4.974ZM24.755,4.974C24.755,5.258 24.855,5.501 25.057,5.703C25.258,5.904 25.501,6.005 25.786,6.005C26.066,6.005 26.307,5.904 26.508,5.703C26.71,5.501 26.81,5.258 26.81,4.974C26.81,4.689 26.71,4.446 26.508,4.245C26.307,4.044 26.066,3.943 25.786,3.943C25.501,3.943 25.258,4.044 25.057,4.245C24.855,4.446 24.755,4.689 24.755,4.974Z" style="fill:white;fill-rule:nonzero;"/>
</svg>
