<?xml version="1.0" encoding="UTF-8" standalone="no"?>
<!DOCTYPE svg PUBLIC "-//W3C//DTD SVG 1.1//EN" "http://www.w3.org/Graphics/SVG/1.1/DTD/svg11.dtd">
<svg width="100%" height="100%" viewBox="0 0 32 32" version="1.1" xmlns="http://www.w3.org/2000/svg" xmlns:xlink="http://www.w3.org/1999/xlink" xml:space="preserve" xmlns:serif="http://www.serif.com/" style="fill-rule:evenodd;clip-rule:evenodd;stroke-linejoin:round;stroke-miterlimit:2;">
    <g id="b">
    </g>
    <g transform="matrix(0.914883,0,0,0.843825,-1.48595,-0.117344)">
        <path d="M9.939,3.458L6.771,3.458L6.771,28.372L9.939,28.359L9.939,3.458Z" style="fill:white;"/>
    </g>
    <g transform="matrix(6.12323e-17,1,-0.969065,5.93381e-17,30.1893,15.7291)">
        <path d="M10.018,21.537L10.018,26.294L12.916,26.282L12.916,21.537L10.018,21.537ZM10.018,12.53L10.018,17.287L12.916,17.275L12.916,12.53L10.018,12.53ZM12.916,7.424L12.916,2.801L10.018,2.801L10.018,7.424L12.916,7.424Z" style="fill:white;"/>
    </g>
    <g id="_90" serif:id="90" transform="matrix(5.60204e-17,0.914883,-0.859846,5.26504e-17,32.8897,12.6762)">
        <rect x="9.018" y="6.297" width="3.167" height="26.477" style="fill:white;"/>
    </g>
    <path d="M10.099,10.31L11.154,10.213C11.244,10.709 11.414,11.069 11.666,11.292C11.919,11.516 12.242,11.628 12.636,11.628C12.974,11.628 13.269,11.551 13.524,11.396C13.778,11.242 13.986,11.035 14.149,10.777C14.311,10.519 14.448,10.17 14.557,9.731C14.667,9.292 14.722,8.845 14.722,8.389C14.722,8.34 14.72,8.267 14.716,8.17C14.496,8.519 14.197,8.803 13.816,9.021C13.436,9.238 13.024,9.347 12.581,9.347C11.841,9.347 11.215,9.078 10.703,8.542C10.191,8.005 9.934,7.298 9.934,6.419C9.934,5.513 10.202,4.783 10.736,4.23C11.271,3.677 11.941,3.4 12.746,3.4C13.327,3.4 13.859,3.557 14.341,3.87C14.823,4.183 15.189,4.629 15.439,5.209C15.689,5.788 15.814,6.627 15.814,7.724C15.814,8.867 15.69,9.777 15.442,10.454C15.194,11.131 14.825,11.646 14.335,12C13.845,12.354 13.27,12.53 12.612,12.53C11.912,12.53 11.341,12.336 10.898,11.948C10.455,11.56 10.188,11.014 10.099,10.31ZM16.881,7.968C16.881,6.911 16.99,6.06 17.207,5.416C17.425,4.772 17.748,4.275 18.177,3.925C18.606,3.575 19.146,3.4 19.796,3.4C20.276,3.4 20.697,3.497 21.059,3.69C21.421,3.883 21.72,4.162 21.955,4.526C22.191,4.889 22.376,5.333 22.51,5.855C22.645,6.378 22.712,7.082 22.712,7.968C22.712,9.017 22.604,9.864 22.388,10.509C22.173,11.153 21.851,11.651 21.422,12.003C20.993,12.355 20.451,12.53 19.796,12.53C18.934,12.53 18.257,12.221 17.765,11.603C17.176,10.859 16.881,9.648 16.881,7.968ZM18.009,7.968C18.009,9.436 18.181,10.413 18.525,10.899C18.868,11.385 19.292,11.628 19.796,11.628C20.301,11.628 20.724,11.384 21.068,10.896C21.412,10.408 21.583,9.432 21.583,7.968C21.583,6.497 21.412,5.519 21.068,5.035C20.724,4.551 20.296,4.309 19.784,4.309C19.28,4.309 18.877,4.523 18.577,4.949C18.198,5.494 18.009,6.501 18.009,7.968ZM14.594,6.364C14.594,5.734 14.426,5.234 14.091,4.864C13.755,4.494 13.352,4.309 12.88,4.309C12.392,4.309 11.967,4.508 11.605,4.907C11.244,5.305 11.063,5.822 11.063,6.456C11.063,7.025 11.234,7.488 11.578,7.843C11.922,8.199 12.345,8.377 12.85,8.377C13.358,8.377 13.776,8.199 14.103,7.843C14.43,7.488 14.594,6.995 14.594,6.364ZM24.09,4.974C24.09,4.506 24.256,4.108 24.587,3.778C24.918,3.449 25.316,3.284 25.779,3.284C26.251,3.284 26.652,3.449 26.981,3.778C27.31,4.108 27.475,4.506 27.475,4.974C27.475,5.441 27.309,5.841 26.978,6.172C26.647,6.504 26.247,6.669 25.779,6.669C25.316,6.669 24.918,6.505 24.587,6.175C24.256,5.846 24.09,5.446 24.09,4.974ZM24.755,4.974C24.755,5.258 24.855,5.501 25.057,5.703C25.258,5.904 25.501,6.005 25.786,6.005C26.066,6.005 26.307,5.904 26.508,5.703C26.71,5.501 26.81,5.258 26.81,4.974C26.81,4.689 26.71,4.446 26.508,4.245C26.307,4.044 26.066,3.943 25.786,3.943C25.501,3.943 25.258,4.044 25.057,4.245C24.855,4.446 24.755,4.689 24.755,4.974Z" style="fill:white;fill-rule:nonzero;"/>
</svg>
