<?xml version="1.0" encoding="UTF-8" standalone="no"?>
<!DOCTYPE svg PUBLIC "-//W3C//DTD SVG 1.1//EN" "http://www.w3.org/Graphics/SVG/1.1/DTD/svg11.dtd">
<svg width="100%" height="100%" viewBox="0 0 32 32" version="1.1" xmlns="http://www.w3.org/2000/svg" xmlns:xlink="http://www.w3.org/1999/xlink" xml:space="preserve" xmlns:serif="http://www.serif.com/" style="fill-rule:evenodd;clip-rule:evenodd;stroke-linejoin:round;stroke-miterlimit:2;">
    <g id="b">
    </g>
    <g transform="matrix(0.914883,0,0,0.94295,-1.48595,-0.460166)">
        <path d="M9.939,3.458L6.771,3.458L6.771,28.372L9.939,28.359L9.939,3.458Z" style="fill:white;"/>
    </g>
    <g transform="matrix(0.5,0.866025,-0.728692,0.420711,24.507,7.77869)">
        <path d="M10.018,21.537L10.018,26.294L12.916,26.282L12.916,21.537L10.018,21.537ZM10.018,12.53L10.018,17.287L12.916,17.275L12.916,12.53L10.018,12.53ZM12.916,7.424L12.916,2.801L10.018,2.801L10.018,7.424L12.916,7.424Z" style="fill:white;"/>
    </g>
    <g id="_60" serif:id="60" transform="matrix(0.457441,0.796268,-0.792311,0.459725,28.5756,1.18865)">
        <path d="M12.429,9.647L9.261,9.647L9.261,35.47L12.429,37.298L12.429,9.647Z" style="fill:white;"/>
    </g>
    <path d="M15.631,5.626L14.539,5.712C14.441,5.281 14.303,4.968 14.124,4.773C13.828,4.46 13.462,4.303 13.027,4.303C12.677,4.303 12.37,4.401 12.106,4.596C11.76,4.848 11.488,5.216 11.288,5.7C11.089,6.183 10.985,6.873 10.977,7.767C11.242,7.365 11.565,7.066 11.947,6.871C12.329,6.675 12.73,6.578 13.148,6.578C13.88,6.578 14.503,6.847 15.018,7.386C15.532,7.925 15.789,8.621 15.789,9.475C15.789,10.036 15.668,10.557 15.426,11.039C15.185,11.521 14.852,11.89 14.429,12.146C14.006,12.402 13.527,12.53 12.99,12.53C12.075,12.53 11.329,12.194 10.752,11.521C10.174,10.848 9.886,9.739 9.886,8.194C9.886,6.466 10.205,5.21 10.843,4.425C11.4,3.742 12.15,3.4 13.094,3.4C13.797,3.4 14.373,3.598 14.823,3.992C15.272,4.386 15.541,4.931 15.631,5.626ZM16.881,7.968C16.881,6.911 16.99,6.06 17.207,5.416C17.425,4.772 17.748,4.275 18.177,3.925C18.606,3.575 19.146,3.4 19.796,3.4C20.276,3.4 20.697,3.497 21.059,3.69C21.421,3.883 21.72,4.162 21.955,4.526C22.191,4.889 22.376,5.333 22.51,5.855C22.645,6.378 22.712,7.082 22.712,7.968C22.712,9.017 22.604,9.864 22.388,10.509C22.173,11.153 21.851,11.651 21.422,12.003C20.993,12.355 20.451,12.53 19.796,12.53C18.934,12.53 18.257,12.221 17.765,11.603C17.176,10.859 16.881,9.648 16.881,7.968ZM11.148,9.481C11.148,9.859 11.228,10.221 11.389,10.567C11.55,10.912 11.774,11.175 12.063,11.356C12.352,11.537 12.654,11.628 12.972,11.628C13.435,11.628 13.834,11.441 14.167,11.067C14.5,10.693 14.667,10.184 14.667,9.542C14.667,8.924 14.502,8.437 14.173,8.081C13.844,7.726 13.429,7.548 12.929,7.548C12.433,7.548 12.012,7.726 11.666,8.081C11.321,8.437 11.148,8.904 11.148,9.481ZM18.009,7.968C18.009,9.436 18.181,10.413 18.525,10.899C18.868,11.385 19.292,11.628 19.796,11.628C20.301,11.628 20.724,11.384 21.068,10.896C21.412,10.408 21.583,9.432 21.583,7.968C21.583,6.497 21.412,5.519 21.068,5.035C20.724,4.551 20.296,4.309 19.784,4.309C19.28,4.309 18.877,4.523 18.577,4.949C18.198,5.494 18.009,6.501 18.009,7.968ZM24.09,4.974C24.09,4.506 24.256,4.108 24.587,3.778C24.918,3.449 25.316,3.284 25.779,3.284C26.251,3.284 26.652,3.449 26.981,3.778C27.31,4.108 27.475,4.506 27.475,4.974C27.475,5.441 27.309,5.841 26.978,6.172C26.647,6.504 26.247,6.669 25.779,6.669C25.316,6.669 24.918,6.505 24.587,6.175C24.256,5.846 24.09,5.446 24.09,4.974ZM24.755,4.974C24.755,5.258 24.855,5.501 25.057,5.703C25.258,5.904 25.501,6.005 25.786,6.005C26.066,6.005 26.307,5.904 26.508,5.703C26.71,5.501 26.81,5.258 26.81,4.974C26.81,4.689 26.71,4.446 26.508,4.245C26.307,4.044 26.066,3.943 25.786,3.943C25.501,3.943 25.258,4.044 25.057,4.245C24.855,4.446 24.755,4.689 24.755,4.974Z" style="fill:white;fill-rule:nonzero;"/>
</svg>
