<?xml version="1.0" encoding="UTF-8" standalone="no"?>
<!DOCTYPE svg PUBLIC "-//W3C//DTD SVG 1.1//EN" "http://www.w3.org/Graphics/SVG/1.1/DTD/svg11.dtd">
<svg width="100%" height="100%" viewBox="0 0 26 26" version="1.1" xmlns="http://www.w3.org/2000/svg" xmlns:xlink="http://www.w3.org/1999/xlink" xml:space="preserve" xmlns:serif="http://www.serif.com/" style="fill-rule:evenodd;clip-rule:evenodd;stroke-linejoin:round;stroke-miterlimit:2;">
    <g id="b">
        <g>
            <path d="M21.781,8.283C21.781,5.86 19.814,3.893 17.391,3.893L8.609,3.893C6.186,3.893 4.219,5.86 4.219,8.283L4.219,17.717C4.219,20.14 6.186,22.107 8.609,22.107L17.391,22.107C19.814,22.107 21.781,20.14 21.781,17.717L21.781,8.283ZM8.763,19.075L8.763,6.967L12.686,6.967C14.173,6.967 15.142,7.027 15.594,7.148C16.287,7.33 16.868,7.725 17.336,8.334C17.804,8.942 18.038,9.728 18.038,10.692C18.038,11.435 17.903,12.06 17.634,12.567C17.364,13.073 17.021,13.471 16.605,13.76C16.19,14.049 15.767,14.24 15.338,14.334C14.754,14.45 13.909,14.508 12.802,14.508L11.208,14.508L11.208,19.075L8.763,19.075ZM11.208,9.015L11.208,12.451L12.546,12.451C13.509,12.451 14.154,12.388 14.479,12.261C14.803,12.134 15.058,11.936 15.243,11.666C15.427,11.396 15.519,11.083 15.519,10.725C15.519,10.284 15.39,9.921 15.131,9.634C14.872,9.348 14.545,9.169 14.148,9.098C13.856,9.043 13.27,9.015 12.389,9.015L11.208,9.015Z" style="fill:white;"/>
        </g>
    </g>
</svg>
