<?xml version="1.0" encoding="UTF-8" standalone="no"?>
<!DOCTYPE svg PUBLIC "-//W3C//DTD SVG 1.1//EN" "http://www.w3.org/Graphics/SVG/1.1/DTD/svg11.dtd">
<svg width="100%" height="100%" viewBox="0 0 100 100" version="1.1" xmlns="http://www.w3.org/2000/svg" xmlns:xlink="http://www.w3.org/1999/xlink" xml:space="preserve" xmlns:serif="http://www.serif.com/" style="fill-rule:evenodd;clip-rule:evenodd;stroke-linejoin:round;stroke-miterlimit:2;">
    <g transform="matrix(0.2,0,0,0.2,8.5,-4.92018)">
        <path d="M350,364.635L299.973,394.567L65,199.635L65,184.635L115.027,154.703L350,349.635L350,364.635Z" style="fill:rgb(67,67,67);"/>
    </g>
    <g transform="matrix(0.2,0,0,0.2,8.5,-4.92018)">
        <path d="M350,349.635L299.973,379.567L65,184.635L115.027,154.703L350,349.635Z" style="fill:rgb(176,172,172);"/>
    </g>
    <g transform="matrix(0.851442,-0.524447,0.922341,0.755592,-41.8728,40.8258)">
        <path d="M59.159,73.12L58.033,74.247L60.308,74.269L59.159,73.12ZM52.659,73.12L51.609,74.17L53.736,74.197L52.659,73.12ZM50.559,71.495L49.334,70.27L49.316,72.55L49.41,72.644L50.559,71.495ZM57.059,71.495L53.809,68.245L52.66,69.394L55.91,72.644L57.059,71.495ZM60.967,71.201L60.952,68.888L60.309,68.245L59.16,69.394L60.967,71.201ZM59.159,66.62L55.909,69.87L57.058,71.019L60.308,67.769L59.159,66.62ZM52.659,66.62L49.409,69.87L50.558,71.019L53.808,67.769L52.659,66.62ZM50.559,64.995L49.384,63.82L49.41,66.144L50.559,64.995ZM60.985,64.719L61.002,62.438L60.309,61.745L59.16,62.894L60.985,64.719ZM57.059,64.995L53.809,61.745L52.66,62.894L55.91,66.144L57.059,64.995ZM59.159,60.12L55.909,63.37L57.058,64.519L60.308,61.269L59.159,60.12ZM52.659,60.12L49.409,63.37L50.558,64.519L53.808,61.269L52.659,60.12ZM50.558,58.495L49.434,57.37L49.409,59.644L50.558,58.495ZM61.044,58.279L61.052,55.989L60.308,55.245L59.159,56.394L61.044,58.279ZM57.058,58.495L53.808,55.245L52.659,56.394L55.909,59.644L57.058,58.495ZM52.659,53.62L49.409,56.87L50.558,58.019L53.808,54.769L52.659,53.62ZM59.159,53.62L55.909,56.87L57.058,58.019L60.308,54.769L59.159,53.62ZM50.558,51.995L49.484,50.921L49.467,53.085L50.558,51.995ZM57.058,51.995L53.808,48.745L52.659,49.894L55.909,53.144L57.058,51.995ZM61.097,51.831L61.103,49.539L60.308,48.745L59.159,49.894L61.097,51.831ZM60.07,48.507L57.772,48.507L55.909,50.37L57.058,51.519L60.07,48.507ZM53.57,48.507L51.272,48.507L49.508,50.271L49.488,50.449L50.558,51.519L53.57,48.507ZM59.159,47.12L57.772,48.507L60.07,48.507L60.308,48.269L59.159,47.12ZM52.659,47.12L51.272,48.507L53.57,48.507L53.808,48.269L52.659,47.12ZM50.559,45.494L49.534,44.47L49.532,46.521L50.559,45.494ZM57.059,45.494L53.809,42.244L52.66,43.393L55.91,46.643L57.059,45.494ZM61.135,45.369L61.188,43.124L60.309,42.244L59.16,43.393L61.135,45.369ZM59.159,40.619L55.909,43.869L57.058,45.018L60.308,41.768L59.159,40.619ZM52.659,40.619L49.54,43.738L49.538,43.998L50.558,45.018L53.808,41.768L52.659,40.619ZM50.559,38.994L49.585,38.02L49.569,39.984L50.559,38.994ZM61.227,38.96L61.203,36.639L60.309,35.744L59.16,36.893L61.227,38.96ZM57.059,38.994L53.809,35.744L52.66,36.893L55.91,40.143L57.059,38.994ZM59.159,34.119L55.909,37.369L57.058,38.518L60.308,35.268L59.159,34.119ZM52.659,34.119L49.591,37.187L49.588,37.548L50.558,38.518L53.808,35.268L52.659,34.119ZM50.558,32.494L49.635,31.571L49.62,33.432L50.558,32.494ZM61.227,32.461L61.253,30.189L60.308,29.244L59.159,30.393L61.227,32.461ZM57.058,32.494L53.808,29.244L52.659,30.393L55.909,33.643L57.058,32.494ZM52.659,27.62L49.642,30.637L49.638,31.099L50.558,32.019L53.808,28.769L52.659,27.62ZM59.159,27.62L55.909,30.87L57.058,32.019L60.308,28.769L59.159,27.62ZM50.558,25.994L49.685,25.121L49.665,26.887L50.558,25.994ZM57.058,25.994L53.938,22.874L53.68,22.872L52.659,23.893L55.909,27.143L57.058,25.994ZM61.286,26.02L61.303,23.739L60.515,22.951L60.106,22.946L59.159,23.893L61.286,26.02ZM59.636,22.941L57.364,22.915L55.909,24.37L57.058,25.519L59.636,22.941ZM53.21,22.867L50.938,22.841L49.693,24.086L49.689,24.649L50.558,25.519L53.21,22.867Z" style="fill:rgb(121,124,132);"/>
    </g>
    <g transform="matrix(0.851442,-0.524447,0.922341,0.755592,-41.8728,40.8258)">
        <path d="M60.91,74.28L60.927,72.113L60.309,71.495L59.16,72.644L60.794,74.278L60.91,74.28ZM49.309,73.495L49.303,74.146L49.968,74.154L49.309,73.495ZM54.219,74.203L56.543,74.23L53.809,71.495L52.66,72.644L54.219,74.203ZM52.659,69.87L49.409,73.12L50.462,74.173L50.665,74.162L53.808,71.019L52.659,69.87ZM59.159,69.87L55.909,73.12L57.058,74.269L60.308,71.019L59.159,69.87ZM50.559,68.245L49.372,67.058L49.341,69.325L49.41,69.394L50.559,68.245ZM60.959,67.944L60.977,65.663L60.309,64.995L59.16,66.144L60.959,67.944ZM57.059,68.245L53.809,64.995L52.66,66.144L55.91,69.394L57.059,68.245ZM59.159,63.37L55.909,66.62L57.058,67.769L60.308,64.519L59.159,63.37ZM52.659,63.37L49.409,66.62L50.558,67.769L53.808,64.519L52.659,63.37ZM50.558,61.745L49.409,60.596L49.409,62.894L50.558,61.745ZM57.058,61.745L53.808,58.495L52.659,59.644L55.909,62.894L57.058,61.745ZM60.967,61.452L61.027,59.214L60.308,58.495L59.159,59.644L60.967,61.452ZM59.159,56.87L55.909,60.12L57.058,61.269L60.308,58.019L59.159,56.87ZM52.659,56.87L49.409,60.12L50.558,61.269L53.808,58.019L52.659,56.87ZM50.558,55.245L49.459,54.145L49.409,56.394L50.558,55.245ZM57.058,55.245L53.808,51.995L52.659,53.144L55.909,56.394L57.058,55.245ZM61.097,55.081L61.078,52.764L60.308,51.995L59.159,53.144L61.097,55.081ZM59.159,50.37L55.909,53.62L57.058,54.769L60.308,51.519L59.159,50.37ZM52.659,50.37L49.409,53.62L50.558,54.769L53.808,51.519L52.659,50.37ZM50.558,48.745L49.509,47.695L49.493,49.81L50.558,48.745ZM57.058,48.745L56.82,48.507L54.522,48.507L55.909,49.894L57.058,48.745ZM61.023,48.506L61.128,46.313L60.309,45.494L59.16,46.643L61.023,48.506ZM54.523,48.506L56.821,48.506L53.809,45.494L52.66,46.643L54.523,48.506ZM52.659,43.869L49.409,47.119L50.558,48.268L53.808,45.018L52.659,43.869ZM59.159,43.869L55.909,47.119L57.058,48.268L60.308,45.018L59.159,43.869ZM50.559,42.244L49.559,41.245L49.544,43.259L50.559,42.244ZM61.16,42.144L61.178,39.864L60.309,38.994L59.16,40.143L61.16,42.144ZM57.059,42.244L53.809,38.994L52.66,40.143L55.91,43.393L57.059,42.244ZM59.159,37.369L55.909,40.619L57.058,41.768L60.308,38.518L59.159,37.369ZM52.659,37.369L49.566,40.463L49.563,40.773L50.558,41.768L53.808,38.518L52.659,37.369ZM50.558,35.745L49.61,34.796L49.595,36.708L50.558,35.745ZM57.058,35.745L53.808,32.495L52.659,33.644L55.909,36.894L57.058,35.745ZM61.21,35.695L61.228,33.414L60.308,32.495L59.159,33.644L61.21,35.695ZM59.159,30.869L55.909,34.119L57.058,35.268L60.308,32.018L59.159,30.869ZM52.659,30.869L49.616,33.912L49.613,34.323L50.558,35.268L53.808,32.018L52.659,30.869ZM50.558,29.244L49.66,28.346L49.646,30.157L50.558,29.244ZM57.058,29.244L53.808,25.994L52.659,27.143L55.909,30.393L57.058,29.244ZM61.261,29.244L61.278,26.964L60.308,25.994L59.159,27.143L61.261,29.244ZM59.159,24.37L55.909,27.62L57.058,28.769L60.308,25.519L59.159,24.37ZM52.659,24.37L49.667,27.361L49.663,27.874L50.558,28.769L53.808,25.519L52.659,24.37ZM50.46,22.843L49.672,22.792L49.697,23.606L50.46,22.843ZM56.893,22.909L54.902,22.886L55.909,23.893L56.893,22.909Z" style="fill:rgb(135,140,149);"/>
    </g>
    <g transform="matrix(0.2,0,0,0.2,8.5,-4.92018)">
        <path d="M318.261,368.625L306.109,375.896L71.136,180.964L83.289,173.693L318.261,368.625Z" style="fill:rgb(94,94,94);"/>
    </g>
    <g transform="matrix(0.2,0,0,0.2,8.5,-4.92018)">
        <path d="M315.527,370.261L309.124,374.091L74.151,179.16L80.554,175.329L315.527,370.261Z" style="fill:rgb(216,213,213);"/>
    </g>
    <g transform="matrix(0.2,0,0,0.2,8.5,-4.92018)">
        <path d="M343.044,353.797L330.688,361.19L95.715,166.258L108.072,158.865L343.044,353.797Z" style="fill:rgb(94,94,94);"/>
    </g>
    <g transform="matrix(0.2,0,0,0.2,8.5,-4.92018)">
        <path d="M340.106,355.555L333.703,359.386L98.73,164.454L105.133,160.623L340.106,355.555Z" style="fill:rgb(216,213,213);"/>
    </g>
    <rect id="Position" x="68.495" y="68.007" width="10.005" height="5.986" style="fill:none;"/>
    <rect id="Extents" x="21.442" y="26.02" width="57.058" height="47.973" style="fill:none;"/>
</svg>
