<?xml version="1.0" encoding="UTF-8" standalone="no"?><!DOCTYPE svg PUBLIC "-//W3C//DTD SVG 1.1//EN" "http://www.w3.org/Graphics/SVG/1.1/DTD/svg11.dtd"><svg width="100%" height="100%" viewBox="0 0 417 417" version="1.1" xmlns="http://www.w3.org/2000/svg" xmlns:xlink="http://www.w3.org/1999/xlink" xml:space="preserve" xmlns:serif="http://www.serif.com/" style="fill-rule:evenodd;clip-rule:evenodd;stroke-linejoin:round;stroke-miterlimit:2;"><rect id="Thumb_Upgrade_MedianPlatform" x="0" y="0" width="416.667" height="416.667" style="fill:none;"/><g id="Thumb_Upgrade_MedianPlatform1" serif:id="Thumb_Upgrade_MedianPlatform"><g id="Sidewalk"><path d="M406.571,252.235l-45.71,27.349l-214.696,-178.11l-0,-18.275l45.71,-27.349l214.696,178.111l-0,18.274Z" style="fill:#434343;"/><path d="M406.571,233.961l-45.71,27.349l-214.696,-178.111l45.71,-27.349l214.696,178.111Z" style="fill:#b0acac;"/><rect id="Position" x="360.863" y="252.235" width="45.708" height="27.347" style="fill:none;"/><rect id="Extents" x="146.165" y="55.849" width="260.406" height="223.734" style="fill:none;"/></g><g id="Car-Lane" serif:id="Car Lane"><path d="M361.234,279.234l-45.71,27.349l-214.695,-178.11l-0,-13.706l45.71,-27.349l214.695,178.11l0,13.706Z" style="fill:#434343;"/><path d="M361.234,265.528l-45.71,27.349l-214.695,-178.11l45.71,-27.349l214.695,178.11Z" style="fill:#929191;"/><rect id="Position1" serif:id="Position" x="315.526" y="279.235" width="45.708" height="27.347" style="fill:none;"/><rect id="Extents1" serif:id="Extents" x="100.829" y="87.416" width="260.406" height="219.166" style="fill:none;"/></g><g><path d="M315.71,306.415l-45.709,27.349l-214.696,-178.111l-0,-18.274l45.71,-27.349l214.695,178.111l0,18.274Z" style="fill:#434343;"/></g><g><path d="M315.71,288.141l-45.709,27.349l-214.696,-178.111l45.71,-27.349l214.695,178.111Z" style="fill:#bebebe;"/><g id="Transit-Stop" serif:id="Transit Stop"><path d="M200.676,156.503c-0,-0.962 -0.782,-1.744 -1.744,-1.744c-0.962,0 -1.743,0.782 -1.743,1.744l0,65.493c0,0.962 0.781,1.744 1.743,1.744c0.962,-0 1.744,-0.782 1.744,-1.744l-0,-65.493Z" style="fill:#464646;"/><g id="Bus-Stop-Ring" serif:id="Bus Stop Ring"><path d="M198.932,140.511c6.12,4.493 11.089,14.781 11.089,22.96c-0,8.179 -4.969,11.17 -11.089,6.677c-6.119,-4.494 -11.088,-14.782 -11.088,-22.961c0,-8.178 4.969,-11.17 11.088,-6.676Z" style="fill:#797ec3;"/><path d="M192.155,138.625l-2.465,0.817l13.812,33.323l2.68,-0.888l-14.027,-33.252Z" style="fill:#797ec3;"/><path d="M196.596,141.285c6.12,4.494 11.088,14.782 11.088,22.961c0,8.178 -4.968,11.17 -11.088,6.676c-6.12,-4.493 -11.088,-14.781 -11.088,-22.96c-0,-8.179 4.968,-11.17 11.088,-6.677Z" style="fill:#494fa2;"/><path d="M196.596,143.775c5.091,3.739 9.225,12.298 9.225,19.102c-0,6.805 -4.134,9.294 -9.225,5.555c-5.091,-3.738 -9.225,-12.297 -9.225,-19.102c-0,-6.804 4.134,-9.293 9.225,-5.555Z" style="fill:#b5b5b5;"/></g></g></g><g id="Car-Lane1" serif:id="Car Lane"><path d="M270.502,333.469l-45.71,27.349l-214.696,-178.11l0,-13.706l45.71,-27.349l214.696,178.111l-0,13.705Z" style="fill:#434343;"/><path d="M270.502,319.764l-45.71,27.349l-214.696,-178.111l45.71,-27.349l214.696,178.111Z" style="fill:#929191;"/><rect id="Position2" serif:id="Position" x="224.794" y="333.47" width="45.708" height="27.347" style="fill:none;"/><rect id="Extents2" serif:id="Extents" x="10.096" y="141.652" width="260.406" height="219.166" style="fill:none;"/></g><rect id="Position3" serif:id="Position" x="270.002" y="306.415" width="45.708" height="27.347" style="fill:none;"/><rect id="Extents3" serif:id="Extents" x="55.305" y="110.028" width="260.406" height="223.734" style="fill:none;"/></g></svg>