<?xml version="1.0" encoding="UTF-8" standalone="no"?>
<!DOCTYPE svg PUBLIC "-//W3C//DTD SVG 1.1//EN" "http://www.w3.org/Graphics/SVG/1.1/DTD/svg11.dtd">
<svg width="100%" height="100%" viewBox="0 0 100 100" version="1.1" xmlns="http://www.w3.org/2000/svg" xmlns:xlink="http://www.w3.org/1999/xlink" xml:space="preserve" xmlns:serif="http://www.serif.com/" style="fill-rule:evenodd;clip-rule:evenodd;stroke-linejoin:round;stroke-miterlimit:2;">
    <g transform="matrix(0.2,0,0,0.2,13.0376,-6.7477)">
        <path d="M309.126,389.09L295.471,397.26L60.498,202.329L60.498,187.329L73.359,179.634L309.126,374.09L309.126,389.09Z" style="fill:rgb(67,67,67);"/>
    </g>
    <g transform="matrix(0.2,0,0,0.2,13.0376,-6.7477)">
        <path d="M74.153,179.159L309.126,374.09L295.471,382.26L60.498,187.329L74.153,179.159Z" style="fill:rgb(113,103,88);"/>
    </g>
    <g transform="matrix(0.2,0,0,0.2,13.0376,-6.7477)">
        <path d="M291.784,361.835L294.237,363.869L294.237,369.982L291.671,371.517L289.219,369.482L289.219,363.37L291.784,361.835Z" style="fill:rgb(128,128,128);"/>
    </g>
    <g transform="matrix(0.2,0,0,0.2,13.0376,-6.7477)">
        <path d="M289.219,369.482L289.219,363.37L291.671,365.404L291.671,371.517L289.219,369.482Z" style="fill:rgb(181,175,175);"/>
    </g>
    <g transform="matrix(0.2,0,0,0.2,13.0376,-6.7477)">
        <path d="M74.475,181.556L76.927,183.59L76.927,189.703L74.361,191.238L71.909,189.204L71.909,183.091L74.475,181.556Z" style="fill:rgb(128,128,128);"/>
    </g>
    <g transform="matrix(0.2,0,0,0.2,13.0376,-6.7477)">
        <path d="M71.909,189.204L71.909,183.091L74.361,185.125L74.361,191.238L71.909,189.204Z" style="fill:rgb(181,175,175);"/>
    </g>
    <g transform="matrix(0.2,0,0,0.2,13.0376,-6.7477)">
        <path d="M143.787,239.057L146.239,241.091L146.239,247.204L143.674,248.739L141.221,246.705L141.221,240.592L143.787,239.057Z" style="fill:rgb(128,128,128);"/>
    </g>
    <g transform="matrix(0.2,0,0,0.2,13.0376,-6.7477)">
        <path d="M141.221,246.705L141.221,240.592L143.674,242.626L143.674,248.739L141.221,246.705Z" style="fill:rgb(181,175,175);"/>
    </g>
    <g transform="matrix(0.2,0,0,0.2,13.0376,-6.7477)">
        <path d="M220.921,303.047L223.374,305.082L223.374,311.194L220.808,312.729L218.356,310.695L218.356,304.582L220.921,303.047Z" style="fill:rgb(128,128,128);"/>
    </g>
    <g transform="matrix(0.2,0,0,0.2,13.0376,-6.7477)">
        <path d="M218.356,310.695L218.356,304.582L220.808,306.617L220.808,312.729L218.356,310.695Z" style="fill:rgb(181,175,175);"/>
    </g>
    <g transform="matrix(0.2,0,0,0.2,13.0376,-6.7477)">
        <path d="M68.174,170.217L302.085,364.268L302.085,370.38L299.52,371.915L65.609,177.864L65.609,171.752L68.174,170.217Z" style="fill:rgb(151,112,0);"/>
    </g>
    <g transform="matrix(0.2,0,0,0.2,13.0376,-6.7477)">
        <path d="M68.174,170.217L302.085,364.268L299.52,365.803L299.52,371.915L65.609,177.864L65.609,171.752L68.174,170.217Z" style="fill:rgb(255,233,172);"/>
    </g>
    <g transform="matrix(0.2,0,0,0.2,13.0376,-6.7477)">
        <path d="M65.609,171.752L299.52,365.803L299.52,371.915L65.609,177.864L65.609,171.752Z" style="fill:rgb(255,191,8);"/>
    </g>
    <rect id="Position" x="72.132" y="71.07" width="2.731" height="1.634" style="fill:none;"/>
    <rect id="Extents" x="25.137" y="27.295" width="49.726" height="45.409" style="fill:none;"/>
</svg>
