<svg width="80" height="80" viewBox="0 0 80 80" fill="none" xmlns="http://www.w3.org/2000/svg">
<path fill-rule="evenodd" clip-rule="evenodd" d="M72.8889 10.9012C72.8889 9.24438 71.5457 7.90123 69.8889 7.90123H10.1111C8.45426 7.90123 7.11111 9.24438 7.11111 10.9012V69.0988C7.11111 70.7556 8.45426 72.0988 10.1111 72.0988H69.8889C71.5457 72.0988 72.8889 70.7556 72.8889 69.0988V10.9012ZM3 0C1.34315 0 0 1.34315 0 3V77C0 78.6569 1.34315 80 3 80H77C78.6569 80 80 78.6569 80 77V3C80 1.34315 78.6569 0 77 0H3Z" fill="black"/>
</svg>
