<svg xmlns="http://www.w3.org/2000/svg" xml:space="preserve" fill-rule="evenodd" stroke-linejoin="round" stroke-miterlimit="2" clip-rule="evenodd" viewBox="0 0 64 64">
  <g id="white">
    <path fill="#f3f4f4" d="M37.365 43.454a20.15 20.15 0 0 1-10.68 3.046c-11.177 0-20.25-9.074-20.25-20.25S15.508 6 26.685 6c11.176 0 20.25 9.074 20.25 20.25 0 4.376-1.391 8.429-3.755 11.742a.065.065 0 0 1 .009.008l12.104 12.104a6.764 6.764 0 0 1 2.272 5.056c0 1.764-.366 1.925-.617 2.204-.278.31-.519.636-2.222.636a6.766 6.766 0 0 1-5.06-2.268L37.565 43.627a7.975 7.975 0 0 1-.2-.173ZM26.685 9.825c-9.066 0-16.425 7.36-16.425 16.425 0 9.065 7.359 16.425 16.425 16.425 9.065 0 16.425-7.36 16.425-16.425 0-9.065-7.36-16.425-16.425-16.425Z"/>
  </g>
</svg>
