<?xml version="1.0" encoding="UTF-8" standalone="no"?>
<!DOCTYPE svg PUBLIC "-//W3C//DTD SVG 1.1//EN" "http://www.w3.org/Graphics/SVG/1.1/DTD/svg11.dtd">
<svg width="100%" height="100%" viewBox="0 0 128 128" version="1.1" xmlns="http://www.w3.org/2000/svg" xmlns:xlink="http://www.w3.org/1999/xlink" xml:space="preserve" xmlns:serif="http://www.serif.com/" style="fill-rule:evenodd;clip-rule:evenodd;stroke-linejoin:round;stroke-miterlimit:2;">
    <g id="b" transform="matrix(4.92308,0,0,4.92308,0,0)">
        <g transform="matrix(0.0267076,0,0,0.0262299,1.22153,1.41825)">
            <g transform="matrix(22.2222,0,0,22.2222,0,0)">
                <path d="M36.359,16.984L32.045,19.566L16.158,6.386L20.473,3.805L36.359,16.984Z" style="fill:white;"/>
            </g>
            <g transform="matrix(8.07764,0,0,8.41599,-34.0622,-69.357)">
                <path d="M59.698,91.058L59.35,82.788L51.367,87.372L7.663,52.573L7.828,60.986L51.467,95.785L59.698,91.058ZM86.452,71.496L89.439,73.979L104.315,65.436L104.243,57.278L93.368,63.523L93.368,67.525L86.452,71.496Z" style="fill:white;"/>
            </g>
            <g transform="matrix(8.07764,0,0,8.41599,-34.0622,-69.357)">
                <path d="M59.018,74.901L59.197,79.141L51.394,83.622L7.69,48.823L18.483,42.625L59.018,74.901ZM39.462,40.645L42.862,38.693L52.426,46.309L49.026,48.261L39.462,40.645ZM58.812,69.998L23.8,42.12L45.865,29.449L89.569,64.248L82.568,68.268L62.275,51.402C61.503,50.76 60.426,50.634 59.527,51.079C58.628,51.524 58.075,52.457 58.117,53.46L58.812,69.998Z" style="fill:white;"/>
            </g>
        </g>
        <g transform="matrix(0.764124,0,0,0.781889,13.3332,9.81255)">
            <g transform="matrix(0.319275,0,0,0.319275,-14.9114,-1.79728)">
                <path d="M49.299,16.757L51.066,62.416L66.974,52.695L82.586,46.804L49.299,16.757ZM52.451,23.448L77.215,45.802C77.215,45.802 65.932,50.059 65.932,50.059C65.761,50.124 65.596,50.204 65.441,50.3L53.767,57.434L52.451,23.448Z" style="fill:white;"/>
            </g>
            <g transform="matrix(0.319275,0,0,0.319275,-14.9114,-1.79728)">
                <path d="M49.299,16.757L66.974,52.695L82.586,46.804L49.299,16.757Z" style="fill:white;"/>
                <path d="M49.299,16.757L66.974,52.695L82.586,46.804L49.299,16.757ZM58.469,28.881L77.215,45.802C77.215,45.802 68.423,49.12 68.423,49.12L58.469,28.881Z" style="fill:white;"/>
            </g>
        </g>
    </g>
</svg>
