<?xml version="1.0" encoding="UTF-8" standalone="no"?>
<!DOCTYPE svg PUBLIC "-//W3C//DTD SVG 1.1//EN" "http://www.w3.org/Graphics/SVG/1.1/DTD/svg11.dtd">
<svg width="100%" height="100%" viewBox="0 0 36 36" version="1.1" xmlns="http://www.w3.org/2000/svg" xmlns:xlink="http://www.w3.org/1999/xlink" xml:space="preserve" xmlns:serif="http://www.serif.com/" style="fill-rule:evenodd;clip-rule:evenodd;stroke-linejoin:round;stroke-miterlimit:2;">
    <g transform="matrix(0.041427,0,0,0.041427,0.130461,5.17124)">
        <g transform="matrix(19.4872,0,0,18.7038,33.2714,54.3577)">
            <path d="M1.253,15.37L1.313,19.975L17.175,33.154L36.385,21.661L36.359,16.985L31.824,16.019L32.045,19.566L32.045,21.661L21.082,28.225L21.072,26.201L5.186,13.022L1.253,15.37Z" style="fill:white;"/>
        </g>
        <g transform="matrix(25.4025,0,0,25.4024,-28.4027,-112.653)">
            <path d="M7.889,16.022L6.588,16.307L18.593,25.866L15.583,27.595L3.396,17.891L6.406,16.163L6.588,16.307L7.889,16.022ZM19.371,16.732C19.571,17.974 19.931,19.627 20.285,20.705L18.538,19.313L17.59,19.858L20.257,21.981L20.735,21.707C20.782,21.764 20.827,21.799 20.87,21.808C21.195,21.881 22.587,21.173 23.947,20.376L26.228,22.192L18.772,26.474L20.076,25.725L7.889,16.022L14.042,12.488L19.371,16.732ZM12.256,15.611L13.204,15.066L15.871,17.19L14.923,17.734L12.256,15.611Z" style="fill:white;"/>
        </g>
        <g transform="matrix(25.4025,0,0,25.4024,-28.4027,-112.653)">
            <path d="M27.505,16.838L30.32,19.08L27.011,20.981L25.248,19.577C26.106,19.025 26.766,18.542 26.841,18.369L27.505,16.838ZM20.789,11.491L19.328,14.864L14.824,11.277L18.133,9.376L20.789,11.491Z" style="fill:white;"/>
        </g>
        <g transform="matrix(-23.4618,-10.1653,8.45184,-19.507,639.014,373.381)">
            <path d="M3.843,-3.364C4.309,-3.492 6.756,1.668 6.756,2.216L6.756,18.113C6.756,18.655 6.385,19.102 5.933,19.102L1.797,19.102C1.345,19.102 0.974,18.655 0.974,18.113L0.974,2.216C0.974,1.668 3.378,-3.235 3.843,-3.364Z" style="fill:white;"/>
        </g>
    </g>
</svg>
