<?xml version="1.0" encoding="UTF-8" standalone="no"?>
<!DOCTYPE svg PUBLIC "-//W3C//DTD SVG 1.1//EN" "http://www.w3.org/Graphics/SVG/1.1/DTD/svg11.dtd">
<svg width="100%" height="100%" viewBox="0 0 40 40" version="1.1" xmlns="http://www.w3.org/2000/svg" xmlns:xlink="http://www.w3.org/1999/xlink" xml:space="preserve" xmlns:serif="http://www.serif.com/" style="fill-rule:evenodd;clip-rule:evenodd;stroke-linejoin:round;stroke-miterlimit:2;">
    <g id="EditPrefab">
        <g transform="matrix(0.896757,0,0,0.896757,1.75848,2.9606)">
            <g transform="matrix(0.0930575,0,0,0.0930575,11.929,-7.74733)">
                <path d="M261.4,347.324L61.29,467.051L-87.969,343.227L-87.969,322.83L62.113,233.035L62.113,220.991L112.141,191.059L261.4,314.884L261.4,347.324Z" style="fill:rgb(164,164,164);"/>
            </g>
            <g transform="matrix(0.0930575,0,0,0.0930575,11.929,-7.74733)">
                <path d="M261.4,314.884L211.372,344.815L62.113,220.991L112.141,191.059L261.4,314.884Z" style="fill:rgb(242,239,239);"/>
            </g>
            <g transform="matrix(0.0930575,0,0,0.0930575,7.00492,-4.21078)">
                <path d="M264.287,318.856L164.232,378.719L14.973,254.895L115.027,195.032L264.287,318.856Z" style="fill:rgb(194,194,194);"/>
            </g>
            <g transform="matrix(0.0930575,0,0,0.0930575,7.00492,-4.21078)">
                <path d="M107.412,267.828L79.007,244.263L89.443,238.019L118.716,262.303" style="fill:white;"/>
            </g>
            <g transform="matrix(0.0930575,0,0,0.0930575,7.00492,-4.21078)">
                <path d="M161.239,297.581L195.636,326.115L185.199,332.36L150.415,303.503" style="fill:white;"/>
            </g>
            <g transform="matrix(0.0930575,0,0,0.0930575,11.929,-7.74733)">
                <path d="M61.29,434.61L61.29,467.051L-87.969,343.227L-87.969,310.786L61.29,434.61Z" style="fill:rgb(218,218,217);"/>
            </g>
            <g transform="matrix(0.0930575,0,0,0.0930575,11.929,-7.74733)">
                <path d="M211.372,344.815L211.372,356.86L62.113,233.035L62.113,220.991L211.372,344.815Z" style="fill:rgb(218,218,217);"/>
            </g>
            <g transform="matrix(0.0930575,0,0,0.0930575,11.929,-7.74733)">
                <path d="M111.317,404.679L61.29,434.61L-87.969,310.786L-37.942,280.854L111.317,404.679Z" style="fill:rgb(242,239,239);"/>
            </g>
            <g transform="matrix(0.0930575,0,0,0.0930575,11.929,-7.74733)">
                <path d="M111.317,437.119L61.29,467.051L61.29,434.61L111.317,404.679L111.317,437.119Z" style="fill:rgb(164,164,164);"/>
            </g>
        </g>
        <g transform="matrix(-1.1144,-0.482836,0.401449,-0.926552,27.7648,24.0935)">
            <path d="M3.607,-4.456C4.073,-4.584 6.756,1.668 6.756,2.216L6.756,18.113C6.756,18.655 6.385,19.102 5.933,19.102L1.797,19.102C1.345,19.102 0.648,18.414 0.648,17.872L0.648,1.399C0.648,0.851 3.142,-4.327 3.607,-4.456Z" style="fill:rgb(22,117,157);"/>
        </g>
        <g transform="matrix(-1.1144,-0.482836,0.401449,-0.926552,27.7648,24.0935)">
            <path d="M3.843,-3.364C4.309,-3.492 6.756,1.668 6.756,2.216L6.756,18.113C6.756,18.655 6.385,19.102 5.933,19.102L1.797,19.102C1.345,19.102 0.974,18.655 0.974,18.113L0.974,2.216C0.974,1.668 3.378,-3.235 3.843,-3.364Z" style="fill:rgb(92,225,244);"/>
        </g>
    </g>
</svg>
