<?xml version="1.0" encoding="UTF-8" standalone="no"?>
<!DOCTYPE svg PUBLIC "-//W3C//DTD SVG 1.1//EN" "http://www.w3.org/Graphics/SVG/1.1/DTD/svg11.dtd">
<svg width="100%" height="100%" viewBox="0 0 64 64" version="1.1" xmlns="http://www.w3.org/2000/svg" xmlns:xlink="http://www.w3.org/1999/xlink" xml:space="preserve" xmlns:serif="http://www.serif.com/" style="fill-rule:evenodd;clip-rule:evenodd;stroke-linejoin:round;stroke-miterlimit:2;">
    <g id="blue">
        <path d="M59.2,0L4.8,0C2.15,0 0,2.15 0,4.8L0,59.2C0,61.85 2.15,64 4.8,64L59.2,64C61.85,64 64,61.85 64,59.2L64,4.8C64,2.15 61.85,0 59.2,0Z" style="fill:rgb(75,197,232);fill-rule:nonzero;"/>
        <path d="M54.144,61.853L9.942,61.853C5.689,61.852 2.189,58.352 2.189,54.099L2.189,9.901C2.189,5.648 5.689,2.148 9.942,2.147L51.242,2.147L61.894,12.8L61.894,54.099C61.894,58.352 58.394,61.852 54.141,61.853L54.144,61.853Z" style="fill:rgb(19,27,38);fill-rule:nonzero;"/>
        <g transform="matrix(2.72905,0,0,2.72905,-41.9014,-2.34779)">
            <path d="M21.647,10.204L21.647,11.032L21.047,11.032L21.047,8.404L23.867,8.392C24.587,8.392 25.205,8.65 25.721,9.166C26.237,9.682 26.495,10.304 26.495,11.032C26.495,11.352 26.439,11.66 26.327,11.956C26.215,12.252 26.059,12.516 25.859,12.748C25.659,12.98 25.423,13.168 25.151,13.312L24.491,12.304L21.647,12.304L21.647,11.848L23.867,11.848C24.091,11.848 24.283,11.768 24.443,11.608C24.603,11.448 24.683,11.256 24.683,11.032C24.683,10.88 24.647,10.74 24.575,10.612C24.503,10.484 24.403,10.384 24.275,10.312C24.147,10.24 24.011,10.204 23.867,10.204L21.647,10.204ZM24.659,13.816L26.543,16.78L24.383,16.78L22.715,14.152L21.155,14.152L21.155,15.988L19.343,16.768L19.343,8.884L20.555,8.884L20.555,11.524L21.155,11.524L21.155,12.796L23.999,12.796L24.659,13.804L24.659,13.816Z" style="fill:white;fill-rule:nonzero;"/>
            <path d="M34.007,11.896C34.567,12.416 34.847,13.056 34.847,13.816C34.847,14.544 34.589,15.166 34.073,15.682C33.557,16.198 32.939,16.456 32.219,16.456L31.271,16.456L31.271,15.232L30.071,15.232L30.071,14.644L32.207,14.644C32.431,14.644 32.625,14.564 32.789,14.404C32.953,14.244 33.035,14.05 33.035,13.822C33.035,13.594 32.953,13.4 32.789,13.24C32.625,13.08 32.431,13 32.207,13L29.567,13L29.567,15.724L30.791,15.724L30.791,16.78L27.755,16.78L27.755,8.884L28.991,8.884L28.991,11.188L32.039,11.188C32.175,11.188 32.291,11.14 32.387,11.044C32.483,10.948 32.531,10.832 32.531,10.696C32.531,10.56 32.483,10.444 32.387,10.348C32.291,10.252 32.175,10.204 32.039,10.204L30.059,10.204L30.059,10.696L29.483,10.696L29.483,8.392L32.039,8.392C32.455,8.392 32.841,8.496 33.197,8.704C33.553,8.912 33.833,9.192 34.037,9.544C34.241,9.896 34.343,10.28 34.343,10.696C34.343,11.128 34.231,11.528 34.007,11.896Z" style="fill:white;fill-rule:nonzero;"/>
        </g>
    </g>
</svg>
