<?xml version="1.0" encoding="UTF-8" standalone="no"?>
<!DOCTYPE svg PUBLIC "-//W3C//DTD SVG 1.1//EN" "http://www.w3.org/Graphics/SVG/1.1/DTD/svg11.dtd">
<svg width="100%" height="100%" viewBox="0 0 32 32" version="1.1" xmlns="http://www.w3.org/2000/svg" xmlns:xlink="http://www.w3.org/1999/xlink" xml:space="preserve" xmlns:serif="http://www.serif.com/" style="fill-rule:evenodd;clip-rule:evenodd;stroke-linejoin:round;stroke-miterlimit:2;">
    <g id="b" transform="matrix(1.23077,0,0,1.23077,0,0)">
        <g id="Bus-Trams-Rear" serif:id="Bus Trams Rear">
            <g id="Tram-Rear" serif:id="Tram Rear" transform="matrix(0.947181,0,0,0.974443,0.687973,0)">
                <g transform="matrix(0.19624,0.0111483,-0.0115395,0.300046,15.2849,8.89525)">
                    <path d="M24.944,48.952C24.944,48.12 24.268,47.443 23.435,47.443L20.417,47.443C19.584,47.443 18.907,48.12 18.907,48.952L18.907,54.701C18.907,55.534 19.587,56.266 20.42,56.266L23.432,56.154C24.265,56.154 24.944,55.534 24.944,54.701L24.944,48.952Z" style="fill:rgb(90,70,59);"/>
                </g>
                <g transform="matrix(-0.196555,0.0111483,0.011558,0.300046,10.7079,8.89525)">
                    <path d="M24.944,48.952C24.944,48.12 24.268,47.443 23.435,47.443L20.417,47.443C19.584,47.443 18.907,48.12 18.907,48.952L18.907,54.701C18.907,55.534 19.587,56.266 20.42,56.266L23.432,56.154C24.265,56.154 24.944,55.534 24.944,54.701L24.944,48.952Z" style="fill:rgb(90,70,59);"/>
                </g>
                <g>
                    <g transform="matrix(0.519455,0,0,1,9.09999,-3.64589e-15)">
                        <g transform="matrix(1.73982,0,0,0.224511,17.2205,26.0084)">
                            <rect x="0" y="0" width="2" height="62.422" style="fill:rgb(105,105,105);"/>
                        </g>
                        <g transform="matrix(0.668485,0,0,0.306536,20.0316,25.7623)">
                            <rect x="0" y="0" width="2" height="46.522" style="fill:rgb(140,140,140);"/>
                        </g>
                        <g transform="matrix(0.668485,0,0,0.306536,16.552,25.7623)">
                            <rect x="0" y="0" width="2" height="46.522" style="fill:rgb(140,140,140);"/>
                        </g>
                    </g>
                    <g transform="matrix(0.520289,0,0,1,-2.81663,-3.64589e-15)">
                        <g transform="matrix(1.73982,0,0,0.224511,17.2205,26.0084)">
                            <rect x="0" y="0" width="2" height="62.422" style="fill:rgb(105,105,105);"/>
                        </g>
                        <g transform="matrix(0.668485,0,0,0.306536,20.0316,25.7623)">
                            <rect x="0" y="0" width="2" height="46.522" style="fill:rgb(140,140,140);"/>
                        </g>
                        <g transform="matrix(0.668485,0,0,0.306536,16.552,25.7623)">
                            <rect x="0" y="0" width="2" height="46.522" style="fill:rgb(140,140,140);"/>
                        </g>
                    </g>
                </g>
                <g transform="matrix(1,0,0,1.0553,3.5,4)">
                    <path d="M3,0L16,0C17.646,-0 18.228,1.728 18.546,3C19.112,5.262 19.635,10.739 19.397,13.572C19.207,15.837 17.613,20 17.121,20L1.879,20C1.387,20 -0.207,15.837 -0.397,13.572C-0.635,10.739 -0.112,5.262 0.454,3C0.772,1.728 1.354,0 3,0Z" style="fill:rgb(179,85,255);fill-rule:nonzero;"/>
                </g>
                <g transform="matrix(0.895352,0,0,0.656444,4.49416,5.35957)">
                    <path d="M3,0L16,0C17.646,-0 18.228,1.728 18.546,3C19.112,5.262 19.518,10.739 19.397,13.572C19.303,15.776 18.355,20 17.818,20L1.182,20C0.645,20 -0.303,15.776 -0.397,13.572C-0.518,10.739 -0.112,5.262 0.454,3C0.772,1.728 1.354,0 3,0Z" style="fill:rgb(125,98,133);fill-rule:nonzero;"/>
                </g>
                <g transform="matrix(0.690594,-0.752589,0.617205,0.566363,15.5738,21.907)">
                    <path d="M6.462,2.59C6.166,1.9 4.017,0.521 2.945,0.353C1.905,0.189 0.611,1.017 0.033,1.578C-0.496,2.093 -1.021,3.183 -0.523,3.723C-0.025,4.262 2.145,4.688 3.019,4.816C3.59,4.9 4.236,4.804 4.72,4.491C5.294,4.119 6.758,3.279 6.462,2.59Z" style="fill:rgb(190,78,71);"/>
                </g>
                <g transform="matrix(0.331967,0,0,0.331967,14.478,13.0798)">
                    <path d="M19.256,17.954C20.155,17.876 20.961,18.547 21.047,19.446C21.092,20.328 20.413,21.095 19.531,21.157C19.517,21.158 19.504,21.159 19.49,21.16C18.59,21.238 17.784,20.566 17.698,19.668C17.653,18.785 18.332,18.018 19.214,17.956C19.228,17.955 19.242,17.954 19.256,17.954Z" style="fill:rgb(232,171,115);fill-rule:nonzero;"/>
                </g>
                <g transform="matrix(0.74701,0,0,0.74701,4.63568,6.37248)">
                    <path d="M19.256,17.954C20.155,17.876 20.961,18.547 21.047,19.446C21.092,20.328 20.413,21.095 19.531,21.157C19.517,21.158 19.504,21.159 19.49,21.16C18.59,21.238 17.784,20.566 17.698,19.668C17.653,18.785 18.332,18.018 19.214,17.956C19.228,17.955 19.242,17.954 19.256,17.954Z" style="fill:rgb(221,37,0);fill-rule:nonzero;"/>
                </g>
                <g transform="matrix(0.461462,0,0,0.461462,8.91528,14.151)">
                    <path d="M19.256,17.954C20.155,17.876 20.961,18.547 21.047,19.446C21.092,20.328 20.413,21.095 19.531,21.157C19.517,21.158 19.504,21.159 19.49,21.16C18.59,21.238 17.784,20.566 17.698,19.668C17.653,18.785 18.332,18.018 19.214,17.956C19.228,17.955 19.242,17.954 19.256,17.954Z" style="fill:rgb(255,49,0);fill-rule:nonzero;"/>
                </g>
                <g transform="matrix(-0.690594,-0.752589,-0.617205,0.566363,10.4262,21.907)">
                    <path d="M6.462,2.59C6.166,1.9 4.017,0.521 2.945,0.353C1.905,0.189 0.611,1.017 0.033,1.578C-0.496,2.093 -1.021,3.183 -0.523,3.723C-0.025,4.262 2.145,4.688 3.019,4.816C3.59,4.9 4.236,4.804 4.72,4.491C5.294,4.119 6.758,3.279 6.462,2.59Z" style="fill:rgb(190,78,71);"/>
                </g>
                <g transform="matrix(-0.331967,0,0,0.331967,11.522,13.0798)">
                    <path d="M19.256,17.954C20.155,17.876 20.961,18.547 21.047,19.446C21.092,20.328 20.413,21.095 19.531,21.157C19.517,21.158 19.504,21.159 19.49,21.16C18.59,21.238 17.784,20.566 17.698,19.668C17.653,18.785 18.332,18.018 19.214,17.956C19.228,17.955 19.242,17.954 19.256,17.954Z" style="fill:rgb(232,171,115);fill-rule:nonzero;"/>
                </g>
                <g transform="matrix(-0.74701,0,0,0.74701,21.3643,6.37248)">
                    <path d="M19.256,17.954C20.155,17.876 20.961,18.547 21.047,19.446C21.092,20.328 20.413,21.095 19.531,21.157C19.517,21.158 19.504,21.159 19.49,21.16C18.59,21.238 17.784,20.566 17.698,19.668C17.653,18.785 18.332,18.018 19.214,17.956C19.228,17.955 19.242,17.954 19.256,17.954Z" style="fill:rgb(221,37,0);fill-rule:nonzero;"/>
                </g>
                <g transform="matrix(-0.461462,0,0,0.461462,17.0847,14.151)">
                    <path d="M19.256,17.954C20.155,17.876 20.961,18.547 21.047,19.446C21.092,20.328 20.413,21.095 19.531,21.157C19.517,21.158 19.504,21.159 19.49,21.16C18.59,21.238 17.784,20.566 17.698,19.668C17.653,18.785 18.332,18.018 19.214,17.956C19.228,17.955 19.242,17.954 19.256,17.954Z" style="fill:rgb(255,49,0);fill-rule:nonzero;"/>
                </g>
                <g transform="matrix(1,0,0,1,9.5,6)">
                    <path d="M9,0L0,0L9,0Z" style="fill:rgb(243,225,149);"/>
                </g>
                <g transform="matrix(1,0,0,1,7.5,0)">
                    <rect x="0" y="0" width="11" height="2" style="fill:rgb(111,108,108);"/>
                </g>
                <g transform="matrix(1,0,0,1,9.5,1)">
                    <rect x="0" y="0" width="2" height="3" style="fill:rgb(111,108,108);"/>
                </g>
                <g transform="matrix(1,0,0,1,14.5,1)">
                    <rect x="0" y="0" width="2" height="3" style="fill:rgb(111,108,108);"/>
                </g>
            </g>
            <g transform="matrix(1.10942,0,0,1.03283,8.4869,7.34712)">
                <g id="Bus-Rear" serif:id="Bus Rear">
                    <g>
                        <g transform="matrix(1,0,0,1,-1.06401,0.854182)">
                            <path d="M0.027,1.052L1.227,1.052L1.227,5.914L0.027,5.914C-0.328,5.888 -0.598,5.575 -0.573,5.22L-0.573,1.746C-0.598,1.391 -0.328,1.078 0.027,1.052Z" style="fill:rgb(0,158,158);fill-rule:nonzero;"/>
                        </g>
                        <g transform="matrix(1,0,0,1,14.1391,0.849182)">
                            <path d="M1.045,1.071L-0.155,1.071L-0.155,5.933L1.045,5.933C1.4,5.907 1.671,5.593 1.645,5.238L1.645,1.765C1.67,1.41 1.4,1.097 1.045,1.071Z" style="fill:rgb(0,158,158);fill-rule:nonzero;"/>
                        </g>
                        <g>
                            <g transform="matrix(-1,-7.65714e-16,7.65714e-16,-1,13.2315,18.06)">
                                <path d="M0.687,0L1.94,0C2.319,0.003 2.628,0.316 2.626,0.695L2.626,3.024C2.628,3.402 2.318,3.715 1.94,3.718L0.687,3.718C0.308,3.716 -0.002,3.403 0,3.024L0,0.695C-0,0.694 -0,0.692 -0,0.691C-0,0.313 0.309,0.002 0.687,0Z" style="fill:rgb(112,132,138);fill-rule:nonzero;"/>
                            </g>
                            <g transform="matrix(1,0,0,1,0.711818,14.342)">
                                <rect x="0" y="0" width="2.626" height="3.718" style="fill:rgb(112,132,138);"/>
                            </g>
                            <g transform="matrix(1,0,0,1.14866,-5.677,-5.81462)">
                                <path d="M9.353,3L16.181,3C18.208,3.013 19.867,4.69 19.857,6.718L19.857,16.811C19.857,17.372 19.635,17.911 19.241,18.311C18.849,18.709 18.313,18.933 17.755,18.933L7.778,18.933C6.619,18.926 5.671,17.967 5.678,16.808L5.678,6.718C5.677,5.735 6.063,4.79 6.753,4.089C7.439,3.393 8.376,3.001 9.353,3" style="fill:rgb(0,198,199);fill-rule:nonzero;"/>
                            </g>
                            <g transform="matrix(1,0,0,0.588886,1.676,0.933166)">
                                <rect x="0" y="0" width="10.829" height="7.99" style="fill:rgb(97,129,156);"/>
                            </g>
                            <g transform="matrix(0.852037,0,0,1,4.62847,-1.19183)">
                                <rect x="0" y="0" width="5.778" height="1.594" style="fill:rgb(170,167,155);"/>
                            </g>
                            <g transform="matrix(0.343619,0,0,0.664569,-3.9053,-20.0194)">
                                <path d="M49.174,46.556C49.174,45.539 48.032,44.713 46.626,44.713L17.374,44.713C15.968,44.713 14.826,45.539 14.826,46.556L14.826,50.243C14.826,51.26 15.968,52.086 17.374,52.086L46.626,52.086C48.032,52.086 49.174,51.26 49.174,50.243L49.174,46.556Z" style="fill:rgb(57,144,144);"/>
                            </g>
                            <g transform="matrix(0.385116,0,0,0.711778,3.70819,-22.6856)">
                                <path d="M24.858,43.311C24.858,43.054 24.533,42.844 24.132,42.844L19.146,42.844C18.745,42.844 18.419,43.054 18.419,43.311L18.419,44.246C18.419,44.503 18.745,44.713 19.146,44.713L24.132,44.713C24.533,44.713 24.858,44.503 24.858,44.246L24.858,43.311Z" style="fill:rgb(204,10,0);"/>
                            </g>
                            <g transform="matrix(0.385116,0,0,0.711778,-5.90426,-22.6856)">
                                <path d="M24.858,43.311C24.858,43.054 24.533,42.844 24.132,42.844L19.146,42.844C18.745,42.844 18.419,43.054 18.419,43.311L18.419,44.246C18.419,44.503 18.745,44.713 19.146,44.713L24.132,44.713C24.533,44.713 24.858,44.503 24.858,44.246L24.858,43.311Z" style="fill:rgb(204,10,0);"/>
                            </g>
                            <g transform="matrix(0.446795,0,0,0.521948,11.6514,14.5953)">
                                <circle cx="1.5" cy="1.5" r="1.5" style="fill:rgb(54,54,54);"/>
                            </g>
                        </g>
                    </g>
                </g>
            </g>
        </g>
    </g>
</svg>
