<?xml version="1.0" encoding="UTF-8" standalone="no"?>
<!DOCTYPE svg PUBLIC "-//W3C//DTD SVG 1.1//EN" "http://www.w3.org/Graphics/SVG/1.1/DTD/svg11.dtd">
<svg width="100%" height="100%" viewBox="0 0 26 26" version="1.1" xmlns="http://www.w3.org/2000/svg" xmlns:xlink="http://www.w3.org/1999/xlink" xml:space="preserve" xmlns:serif="http://www.serif.com/" style="fill-rule:evenodd;clip-rule:evenodd;stroke-linejoin:round;stroke-miterlimit:2;">
    <g transform="matrix(1.10942,0,0,1.03283,5.19047,7.34712)">
        <g id="b">
            <g id="Bus-Rear" serif:id="Bus Rear">
                <g>
                    <g transform="matrix(1,0,0,1,-1.06401,0.854182)">
                        <path d="M0.027,1.052L1.227,1.052L1.227,5.914L0.027,5.914C-0.328,5.888 -0.598,5.575 -0.573,5.22L-0.573,1.746C-0.598,1.391 -0.328,1.078 0.027,1.052Z" style="fill:rgb(0,158,158);fill-rule:nonzero;"/>
                    </g>
                    <g transform="matrix(1,0,0,1,14.1391,0.849182)">
                        <path d="M1.045,1.071L-0.155,1.071L-0.155,5.933L1.045,5.933C1.4,5.907 1.671,5.593 1.645,5.238L1.645,1.765C1.67,1.41 1.4,1.097 1.045,1.071Z" style="fill:rgb(0,158,158);fill-rule:nonzero;"/>
                    </g>
                    <g>
                        <g transform="matrix(-1,-7.65714e-16,7.65714e-16,-1,13.2315,18.06)">
                            <path d="M0.687,0L1.94,0C2.319,0.003 2.628,0.316 2.626,0.695L2.626,3.024C2.628,3.402 2.318,3.715 1.94,3.718L0.687,3.718C0.308,3.716 -0.002,3.403 0,3.024L0,0.695C-0,0.694 -0,0.692 -0,0.691C-0,0.313 0.309,0.002 0.687,0Z" style="fill:rgb(112,132,138);fill-rule:nonzero;"/>
                        </g>
                        <g transform="matrix(1,0,0,1,0.711818,14.342)">
                            <path d="M2.626,0.968C2.626,0.434 2.222,0 1.725,0L0.901,0C0.404,0 0,0.434 0,0.968L0,2.75C0,3.284 0.404,3.718 0.901,3.718L1.725,3.718C2.222,3.718 2.626,3.284 2.626,2.75L2.626,0.968Z" style="fill:rgb(112,132,138);"/>
                        </g>
                        <g transform="matrix(1,0,0,1.14866,-5.677,-5.81462)">
                            <path d="M9.353,3L16.181,3C18.208,3.013 19.867,4.69 19.857,6.718L19.857,16.811C19.857,17.372 19.635,17.911 19.241,18.311C18.849,18.709 18.313,18.933 17.755,18.933L7.778,18.933C6.619,18.926 5.671,17.967 5.678,16.808L5.678,6.718C5.677,5.735 6.063,4.79 6.753,4.089C7.439,3.393 8.376,3.001 9.353,3" style="fill:rgb(0,198,199);fill-rule:nonzero;"/>
                        </g>
                        <g transform="matrix(1,0,0,0.588886,1.676,0.933166)">
                            <path d="M10.829,3.288C10.829,1.473 10.021,0 9.026,0L1.803,0C0.808,0 0,1.473 0,3.288L0,4.702C0,6.517 0.808,7.99 1.803,7.99L9.026,7.99C10.021,7.99 10.829,6.517 10.829,4.702L10.829,3.288Z" style="fill:rgb(97,129,156);"/>
                        </g>
                        <g transform="matrix(0.852037,0,0,1,4.62847,-1.19183)">
                            <path d="M5.778,0.772C5.778,0.346 5.4,0 4.935,0L0.843,0C0.378,0 0,0.346 0,0.772L0,0.822C0,1.248 0.378,1.594 0.843,1.594L4.935,1.594C5.4,1.594 5.778,1.248 5.778,0.822L5.778,0.772Z" style="fill:rgb(170,167,155);"/>
                        </g>
                        <g transform="matrix(0.343619,0,0,0.664569,-3.9053,-20.0194)">
                            <path d="M49.174,46.556C49.174,45.539 48.032,44.713 46.626,44.713L17.374,44.713C15.968,44.713 14.826,45.539 14.826,46.556L14.826,50.243C14.826,51.26 15.968,52.086 17.374,52.086L46.626,52.086C48.032,52.086 49.174,51.26 49.174,50.243L49.174,46.556Z" style="fill:rgb(57,144,144);"/>
                        </g>
                        <g transform="matrix(0.385116,0,0,0.711778,3.70819,-22.6856)">
                            <path d="M24.858,43.311C24.858,43.054 24.533,42.844 24.132,42.844L19.146,42.844C18.745,42.844 18.419,43.054 18.419,43.311L18.419,44.246C18.419,44.503 18.745,44.713 19.146,44.713L24.132,44.713C24.533,44.713 24.858,44.503 24.858,44.246L24.858,43.311Z" style="fill:rgb(204,10,0);"/>
                        </g>
                        <g transform="matrix(0.385116,0,0,0.711778,-5.90426,-22.6856)">
                            <path d="M24.858,43.311C24.858,43.054 24.533,42.844 24.132,42.844L19.146,42.844C18.745,42.844 18.419,43.054 18.419,43.311L18.419,44.246C18.419,44.503 18.745,44.713 19.146,44.713L24.132,44.713C24.533,44.713 24.858,44.503 24.858,44.246L24.858,43.311Z" style="fill:rgb(204,10,0);"/>
                        </g>
                        <g transform="matrix(0.446795,0,0,0.521948,11.6514,14.5953)">
                            <circle cx="1.5" cy="1.5" r="1.5" style="fill:rgb(54,54,54);"/>
                        </g>
                    </g>
                </g>
            </g>
        </g>
    </g>
</svg>
