<?xml version="1.0" encoding="UTF-8" standalone="no"?>
<!DOCTYPE svg PUBLIC "-//W3C//DTD SVG 1.1//EN" "http://www.w3.org/Graphics/SVG/1.1/DTD/svg11.dtd">
<svg width="100%" height="100%" viewBox="0 0 512 512" version="1.1" xmlns="http://www.w3.org/2000/svg" xmlns:xlink="http://www.w3.org/1999/xlink" xml:space="preserve" xmlns:serif="http://www.serif.com/" style="fill-rule:evenodd;clip-rule:evenodd;stroke-linejoin:round;stroke-miterlimit:2;">
    <g transform="matrix(0.846429,0,0,0.846429,39.314279,39.314279)">
        <path d="M422.957,0L89.043,0C61.424,0 38.957,22.468 38.957,50.087L38.957,116.87C38.957,126.093 46.436,133.566 55.653,133.566L456.349,133.566C465.566,133.566 473.045,126.093 473.045,116.87L473.045,50.087C473.043,22.468 450.576,0 422.957,0Z" style="fill:rgb(226,231,236);fill-rule:nonzero;"/>
        <rect x="38.957" y="166.957" width="100.174" height="178.087" style="fill:rgb(226,231,236);"/>
        <rect x="372.87" y="155.826" width="100.174" height="166.957" style="fill:rgb(226,231,236);"/>
        <path d="M122.435,200.348L22.261,200.348C13.044,200.348 5.565,192.875 5.565,183.652L5.565,116.87C5.565,107.647 13.044,100.174 22.261,100.174L122.435,100.174C131.652,100.174 139.131,107.647 139.131,116.87L139.131,183.653C139.13,192.875 131.652,200.348 122.435,200.348Z" style="fill:rgb(183,197,210);fill-rule:nonzero;"/>
        <path d="M489.739,200.348L389.565,200.348C380.348,200.348 372.869,192.875 372.869,183.652L372.869,116.87C372.869,107.647 380.348,100.174 389.565,100.174L489.739,100.174C498.956,100.174 506.435,107.647 506.435,116.87L506.435,183.653C506.435,192.875 498.956,200.348 489.739,200.348Z" style="fill:rgb(183,197,210);fill-rule:nonzero;"/>
        <path d="M105.739,512L72.348,512C53.935,512 38.957,497.022 38.957,478.609L38.957,428.522C38.957,419.299 46.436,411.826 55.653,411.826L122.436,411.826C131.653,411.826 139.132,419.299 139.132,428.522L139.132,478.609C139.13,497.022 124.152,512 105.739,512Z" style="fill:rgb(110,96,87);fill-rule:nonzero;"/>
        <path d="M439.652,512L406.261,512C387.848,512 372.87,497.022 372.87,478.609L372.87,428.522C372.87,419.299 380.349,411.826 389.566,411.826L456.349,411.826C465.566,411.826 473.045,419.299 473.045,428.522L473.045,478.609C473.043,497.022 458.065,512 439.652,512Z" style="fill:rgb(110,96,87);fill-rule:nonzero;"/>
        <path d="M356.174,66.783L155.826,66.783C128.207,66.783 105.739,89.251 105.739,116.87L105.739,244.87L406.261,244.87L406.261,116.87C406.261,89.25 383.793,66.783 356.174,66.783Z" style="fill:rgb(122,151,71);fill-rule:nonzero;"/>
        <path d="M489.739,445.217L22.261,445.217C13.041,445.217 5.565,437.742 5.565,428.521L5.565,361.738C5.565,334.076 27.989,311.651 55.652,311.651L456.348,311.651C484.01,311.651 506.435,334.075 506.435,361.738L506.435,428.521C506.435,437.742 498.96,445.217 489.739,445.217Z" style="fill:rgb(183,197,210);fill-rule:nonzero;"/>
        <rect x="105.739" y="244.87" width="300.522" height="200.348" style="fill:rgb(141,176,81);fill-rule:nonzero;"/>
        <path d="M256,244.87C246.783,244.87 239.304,237.397 239.304,228.174L239.304,83.478C239.304,74.255 246.783,66.782 256,66.782C265.217,66.782 272.696,74.255 272.696,83.478L272.696,228.174C272.696,237.397 265.217,244.87 256,244.87Z" style="fill-rule:nonzero;"/>
        <g>
            <path d="M322.783,311.652L189.217,311.652C180,311.652 172.521,304.179 172.521,294.956C172.521,285.733 180,278.26 189.217,278.26L322.782,278.26C331.999,278.26 339.478,285.733 339.478,294.956C339.478,304.179 332,311.652 322.783,311.652Z" style="fill:rgb(110,96,87);fill-rule:nonzero;"/>
            <path d="M322.783,378.435L189.217,378.435C180,378.435 172.521,370.962 172.521,361.739C172.521,352.516 180,345.043 189.217,345.043L322.782,345.043C331.999,345.043 339.478,352.516 339.478,361.739C339.478,370.962 332,378.435 322.783,378.435Z" style="fill:rgb(110,96,87);fill-rule:nonzero;"/>
        </g>
        <g>
            <path d="M322.783,345.043L256,345.043L256,378.434L322.783,378.434C332,378.434 339.479,370.961 339.479,361.738C339.479,352.515 332,345.043 322.783,345.043Z" style="fill:rgb(110,96,87);fill-rule:nonzero;"/>
            <path d="M322.783,278.261L256,278.261L256,311.652L322.783,311.652C332,311.652 339.479,304.179 339.479,294.956C339.479,285.733 332,278.261 322.783,278.261Z" style="fill:rgb(110,96,87);fill-rule:nonzero;"/>
        </g>
        <path d="M139.13,211.479L139.13,116.87C139.13,107.664 146.62,100.174 155.826,100.174L356.174,100.174C365.38,100.174 372.87,107.664 372.87,116.87L372.87,211.479L139.13,211.479Z" style="fill:rgb(110,96,87);fill-rule:nonzero;"/>
        <path d="M356.174,100.174L256,100.174L256,211.478L372.87,211.478L372.87,116.87C372.87,107.664 365.38,100.174 356.174,100.174Z" style="fill:rgb(110,96,87);fill-rule:nonzero;"/>
        <rect x="239.304" y="66.783" width="33.391" height="178.087" style="fill:rgb(122,151,71);"/>
        <g id="Layer1" transform="matrix(1.181435,0,0,1.181435,-23.483053,-108.642039)">
            <circle cx="363.463" cy="412.275" r="27.979" style="fill:white;"/>
        </g>
        <g id="Layer11" serif:id="Layer1" transform="matrix(1.181435,0,0,1.181435,-323.668982,-108.642039)">
            <circle cx="363.463" cy="412.275" r="27.979" style="fill:white;"/>
        </g>
    </g>
</svg>
