<?xml version="1.0" encoding="UTF-8" standalone="no"?>
<!DOCTYPE svg PUBLIC "-//W3C//DTD SVG 1.1//EN" "http://www.w3.org/Graphics/SVG/1.1/DTD/svg11.dtd">
<svg width="100%" height="100%" viewBox="0 0 26 26" version="1.1" xmlns="http://www.w3.org/2000/svg" xmlns:xlink="http://www.w3.org/1999/xlink" xml:space="preserve" xmlns:serif="http://www.serif.com/" style="fill-rule:evenodd;clip-rule:evenodd;stroke-linejoin:round;stroke-miterlimit:2;">
    <g transform="matrix(-1,0,0,1,26,0)">
        <g id="b">
            <g id="Car-Bus-Front" serif:id="Car Bus Front">
                <g transform="matrix(1.10942,0,0,1.03283,3.02749,7.34712)">
                    <g id="Bus-Front" serif:id="Bus Front">
                        <g>
                            <g>
                                <g transform="matrix(-1,-7.65714e-16,7.65714e-16,-1,13.2315,18.06)">
                                    <path d="M0.687,0L1.94,0C2.319,0.003 2.628,0.316 2.626,0.695L2.626,3.024C2.628,3.402 2.318,3.715 1.94,3.718L0.687,3.718C0.308,3.716 -0.002,3.403 0,3.024L0,0.695C-0,0.694 -0,0.692 -0,0.691C-0,0.313 0.309,0.002 0.687,0Z" style="fill:rgb(170,187,192);fill-rule:nonzero;"/>
                                </g>
                                <g transform="matrix(1,0,0,1,0.711818,14.342)">
                                    <path d="M2.626,0.968C2.626,0.434 2.222,0 1.725,0L0.901,0C0.404,0 0,0.434 0,0.968L0,2.75C0,3.284 0.404,3.718 0.901,3.718L1.725,3.718C2.222,3.718 2.626,3.284 2.626,2.75L2.626,0.968Z" style="fill:rgb(170,187,192);"/>
                                </g>
                                <g transform="matrix(0.901371,0,0,0.968215,-2.18408,-7.11359)">
                                    <path d="M2.424,9.316L2.424,9.312C2.423,8.145 2.851,7.024 3.617,6.193C4.378,5.367 5.417,4.902 6.501,4.901L14.076,4.901C16.326,4.916 18.166,6.906 18.155,9.312L18.155,9.33L19.221,9.33C19.614,9.358 19.914,9.681 19.887,10.047L19.887,13.634C19.915,14.001 19.615,14.325 19.221,14.352L18.155,14.352L18.155,21.286C18.154,21.952 17.909,22.591 17.471,23.065C17.036,23.537 16.442,23.803 15.823,23.803L4.754,23.803C3.468,23.795 2.417,22.657 2.424,21.282L2.424,14.337L1.247,14.337C0.853,14.31 0.553,13.987 0.581,13.621L0.581,10.033C0.553,9.666 0.853,9.343 1.247,9.316L2.424,9.316Z" style="fill:rgb(0,198,199);fill-rule:nonzero;"/>
                                </g>
                                <g transform="matrix(1,0,0,1,1.676,0.933166)">
                                    <path d="M10.829,1.936C10.829,0.868 10.021,0 9.026,0L1.803,0C0.808,0 0,0.868 0,1.936L0,6.054C0,7.122 0.808,7.99 1.803,7.99L9.026,7.99C10.021,7.99 10.829,7.122 10.829,6.054L10.829,1.936Z" style="fill:rgb(97,129,156);"/>
                                </g>
                                <g transform="matrix(1,0,0,1,4.201,-1.19183)">
                                    <path d="M5.778,0.772C5.778,0.346 5.456,0 5.06,0L0.718,0C0.322,0 0,0.346 0,0.772L0,0.822C0,1.248 0.322,1.594 0.718,1.594L5.06,1.594C5.456,1.594 5.778,1.248 5.778,0.822L5.778,0.772Z" style="fill:rgb(243,225,149);"/>
                                </g>
                            </g>
                            <g transform="matrix(1,0,0,1,10.658,11.946)">
                                <ellipse cx="1.236" cy="1.251" rx="1.236" ry="1.251" style="fill:white;"/>
                            </g>
                            <g transform="matrix(1,0,0,1,1.05,11.946)">
                                <ellipse cx="1.236" cy="1.251" rx="1.236" ry="1.251" style="fill:white;"/>
                            </g>
                        </g>
                    </g>
                </g>
                <g id="Car-Front" serif:id="Car Front" transform="matrix(1.11457,0,0,1.11457,2.41139,-2.9788)">
                    <g transform="matrix(0.383745,0,0,0.383745,-0.416897,4.42969)">
                        <path d="M24.944,48.952C24.944,48.12 24.268,47.443 23.435,47.443L20.417,47.443C19.584,47.443 18.907,48.12 18.907,48.952L18.907,54.701C18.907,55.534 19.584,56.21 20.417,56.21L23.435,56.21C24.268,56.21 24.944,55.534 24.944,54.701L24.944,48.952Z" style="fill:rgb(83,83,83);"/>
                    </g>
                    <g transform="matrix(0.383745,0,0,0.383745,9.64004,4.42969)">
                        <path d="M24.944,48.952C24.944,48.12 24.268,47.443 23.435,47.443L20.417,47.443C19.584,47.443 18.907,48.12 18.907,48.952L18.907,54.701C18.907,55.534 19.584,56.21 20.417,56.21L23.435,56.21C24.268,56.21 24.944,55.534 24.944,54.701L24.944,48.952Z" style="fill:rgb(83,83,83);"/>
                    </g>
                    <g transform="matrix(0.435562,0,0,0.359699,-2.22833,7.13964)">
                        <path d="M50.507,39.882L19.434,39.846C19.434,39.846 19.297,37.622 20.139,35.636C20.628,34.482 23.811,19.23 25.206,18.648C27.992,17.485 42.913,17.928 44.977,18.703C47.012,19.466 49.031,32.881 49.982,35.065C50.268,35.722 50.426,36.933 50.485,37.995C50.542,39.004 50.507,39.882 50.507,39.882Z" style="fill:rgb(150,168,187);"/>
                    </g>
                    <g transform="matrix(0.444281,0,0,0.383745,0.410085,3.42319)">
                        <path d="M15.885,37.388C15.885,37.018 15.625,36.717 15.305,36.717L12.932,36.717C12.612,36.717 12.353,37.018 12.353,37.388L12.353,38.731C12.353,39.101 12.612,39.402 12.932,39.402L15.305,39.402C15.625,39.402 15.885,39.101 15.885,38.731L15.885,37.388Z" style="fill:rgb(150,168,187);"/>
                    </g>
                    <g transform="matrix(0.444281,0,0,0.383745,13.0443,3.42319)">
                        <path d="M15.885,37.388C15.885,37.018 15.625,36.717 15.305,36.717L12.932,36.717C12.612,36.717 12.353,37.018 12.353,37.388L12.353,38.731C12.353,39.101 12.612,39.402 12.932,39.402L15.305,39.402C15.625,39.402 15.885,39.101 15.885,38.731L15.885,37.388Z" style="fill:rgb(150,168,187);"/>
                    </g>
                    <g transform="matrix(0.395906,0,0,0.18511,-0.741403,10.9921)">
                        <path d="M48.238,44.371C47.728,44.62 21.976,45.941 20.885,44.371C20.263,43.477 23.368,19.876 25.013,18.348C26.502,16.965 42.772,17.367 44.703,18.66C46.511,19.869 49.638,43.689 48.238,44.371Z" style="fill:rgb(231,239,241);"/>
                    </g>
                    <g transform="matrix(0.394022,0,0,0.464005,0.395272,-0.019474)">
                        <path d="M49.174,45.45C49.174,45.043 48.785,44.713 48.306,44.713L15.694,44.713C15.215,44.713 14.826,45.043 14.826,45.45L14.826,51.349C14.826,51.756 15.215,52.086 15.694,52.086L48.306,52.086C48.785,52.086 49.174,51.756 49.174,51.349L49.174,45.45Z" style="fill:rgb(150,168,187);"/>
                    </g>
                    <g transform="matrix(0.383745,0,0,0.596547,0.591629,-3.61244)">
                        <path d="M24.858,43.311C24.858,43.054 24.533,42.844 24.132,42.844L19.146,42.844C18.745,42.844 18.419,43.054 18.419,43.311L18.419,44.246C18.419,44.503 18.745,44.713 19.146,44.713L24.132,44.713C24.533,44.713 24.858,44.503 24.858,44.246L24.858,43.311Z" style="fill:rgb(255,231,159);"/>
                    </g>
                    <g transform="matrix(0.383745,0,0,0.596547,8.80877,-3.61244)">
                        <path d="M24.858,43.311C24.858,43.054 24.533,42.844 24.132,42.844L19.146,42.844C18.745,42.844 18.419,43.054 18.419,43.311L18.419,44.246C18.419,44.503 18.745,44.713 19.146,44.713L24.132,44.713C24.533,44.713 24.858,44.503 24.858,44.246L24.858,43.311Z" style="fill:rgb(255,231,159);"/>
                    </g>
                    <g transform="matrix(0.383745,0,0,0.383745,0.670765,7.51383)">
                        <rect x="25.612" y="39.486" width="13.413" height="0.518" style="fill:rgb(83,83,83);"/>
                    </g>
                </g>
            </g>
        </g>
    </g>
</svg>
