<?xml version="1.0" encoding="UTF-8" standalone="no"?>
<!DOCTYPE svg PUBLIC "-//W3C//DTD SVG 1.1//EN" "http://www.w3.org/Graphics/SVG/1.1/DTD/svg11.dtd">
<svg width="100%" height="100%" viewBox="0 0 26 26" version="1.1" xmlns="http://www.w3.org/2000/svg" xmlns:xlink="http://www.w3.org/1999/xlink" xml:space="preserve" xmlns:serif="http://www.serif.com/" style="fill-rule:evenodd;clip-rule:evenodd;stroke-linejoin:round;stroke-miterlimit:2;">
    <g transform="matrix(0.465744,0,0,0.440605,-1.84692,1.53743)">
        <g id="b">
            <g id="Cargo-Rear" serif:id="Cargo Rear">
                <g transform="matrix(1.10648,0,0,1.15436,-5.7772,-9.71999)">
                    <path d="M49.663,16.24C49.663,14.98 48.69,13.957 47.49,13.957L20.793,13.957C19.594,13.957 18.62,14.98 18.62,16.24L18.62,46.885C18.62,48.145 19.594,49.168 20.793,49.168L47.49,49.168C48.69,49.168 49.663,48.145 49.663,46.885L49.663,16.24Z" style="fill:rgb(71,90,107);"/>
                </g>
                <g transform="matrix(1,0,0,1,-0.227876,-0.689578)">
                    <path d="M24.944,48.952C24.944,48.12 24.268,47.443 23.435,47.443L20.417,47.443C19.584,47.443 18.907,48.12 18.907,48.952L18.907,54.701C18.907,55.534 19.584,56.21 20.417,56.21L23.435,56.21C24.268,56.21 24.944,55.534 24.944,54.701L24.944,48.952Z" style="fill:rgb(83,83,83);"/>
                </g>
                <g transform="matrix(1,0,0,1,19.8928,-0.689578)">
                    <path d="M24.944,48.952C24.944,48.12 24.268,47.443 23.435,47.443L20.417,47.443C19.584,47.443 18.907,48.12 18.907,48.952L18.907,54.701C18.907,55.534 19.584,56.21 20.417,56.21L23.435,56.21C24.268,56.21 24.944,55.534 24.944,54.701L24.944,48.952Z" style="fill:rgb(83,83,83);"/>
                </g>
                <g transform="matrix(1.00112,0,0,0.804647,-0.0301479,6.07605)">
                    <path d="M49.174,46.556C49.174,45.539 48.032,44.713 46.626,44.713L17.374,44.713C15.968,44.713 14.826,45.539 14.826,46.556L14.826,50.243C14.826,51.26 15.968,52.086 17.374,52.086L46.626,52.086C48.032,52.086 49.174,51.26 49.174,50.243L49.174,46.556Z" style="fill:rgb(150,168,187);"/>
                </g>
                <g transform="matrix(1,0,0,1.70408,-2.29767,-29.8652)">
                    <path d="M24.858,43.311C24.858,43.054 24.533,42.844 24.132,42.844L19.146,42.844C18.745,42.844 18.419,43.054 18.419,43.311L18.419,44.246C18.419,44.503 18.745,44.713 19.146,44.713L24.132,44.713C24.533,44.713 24.858,44.503 24.858,44.246L24.858,43.311Z" style="fill:rgb(204,10,0);"/>
                </g>
                <g transform="matrix(1,0,0,1.70408,23.1983,-29.8652)">
                    <path d="M24.858,43.311C24.858,43.054 24.533,42.844 24.132,42.844L19.146,42.844C18.745,42.844 18.419,43.054 18.419,43.311L18.419,44.246C18.419,44.503 18.745,44.713 19.146,44.713L24.132,44.713C24.533,44.713 24.858,44.503 24.858,44.246L24.858,43.311Z" style="fill:rgb(204,10,0);"/>
                </g>
                <g transform="matrix(0.53292,0,0,4.63866,14.8264,-138.512)">
                    <rect x="25.612" y="39.486" width="13.413" height="0.518" style="fill:rgb(83,83,83);"/>
                </g>
                <g transform="matrix(1.08355,0,0,1.07486,38.3667,46.3746)">
                    <circle cx="1.5" cy="1.5" r="1.5" style="fill:rgb(54,54,54);"/>
                </g>
            </g>
        </g>
    </g>
</svg>
