<?xml version="1.0" encoding="UTF-8" standalone="no"?>
<!DOCTYPE svg PUBLIC "-//W3C//DTD SVG 1.1//EN" "http://www.w3.org/Graphics/SVG/1.1/DTD/svg11.dtd">
<svg width="100%" height="100%" viewBox="0 0 26 26" version="1.1" xmlns="http://www.w3.org/2000/svg" xmlns:xlink="http://www.w3.org/1999/xlink" xml:space="preserve" xmlns:serif="http://www.serif.com/" style="fill-rule:evenodd;clip-rule:evenodd;stroke-linejoin:round;stroke-miterlimit:2;">
    <path d="M8.716,24.448L6.134,24.448L6.134,25.355C6.134,25.711 6.424,26 6.78,26L8.071,26C8.427,26 8.716,25.711 8.716,25.355L8.716,24.448ZM19.925,24.448L17.343,24.448L17.343,25.355C17.343,25.711 17.633,26 17.989,26L19.28,26C19.636,26 19.925,25.711 19.925,25.355L19.925,24.448ZM6.633,16.554C7.185,14.71 7.872,12.591 8.265,12.455C9.617,11.989 16.861,12.166 17.863,12.477C18.467,12.664 19.069,14.749 19.55,16.541L20.629,16.541C20.788,16.541 20.917,16.67 20.917,16.828L20.917,17.402C20.917,17.56 20.788,17.689 20.629,17.689L19.858,17.689C20.03,18.32 20.178,18.818 20.293,19.037C20.432,19.3 20.508,19.786 20.537,20.211C20.562,20.58 20.55,20.906 20.548,20.96L20.548,23.555C20.548,23.766 20.377,23.937 20.167,23.937L5.845,23.937C5.634,23.937 5.464,23.766 5.464,23.555L5.463,20.953C5.463,20.953 5.453,20.826 5.464,20.625L5.464,20.505C5.464,20.462 5.471,20.421 5.483,20.383C5.52,20.064 5.606,19.653 5.805,19.266C5.875,19.13 6.057,18.507 6.297,17.689L5.373,17.689C5.214,17.689 5.086,17.56 5.086,17.402L5.086,16.828C5.086,16.67 5.214,16.541 5.373,16.541L6.548,16.541C6.577,16.541 6.606,16.545 6.633,16.554ZM18.962,21.792C18.962,21.621 18.823,21.482 18.651,21.482L16.519,21.482C16.347,21.482 16.208,21.621 16.208,21.792L16.208,22.414C16.208,22.585 16.347,22.724 16.519,22.724L18.651,22.724C18.823,22.724 18.962,22.585 18.962,22.414L18.962,21.792ZM9.803,21.792C9.803,21.621 9.664,21.482 9.493,21.482L7.36,21.482C7.189,21.482 7.049,21.621 7.049,21.792L7.049,22.414C7.049,22.585 7.189,22.724 7.36,22.724L9.493,22.724C9.664,22.724 9.803,22.585 9.803,22.414L9.803,21.792ZM15.951,22.284L10.214,22.284L10.214,22.506L15.951,22.506L15.951,22.284ZM18.971,18.427C18.746,18.479 7.383,18.751 6.901,18.427C6.627,18.243 7.997,13.373 8.723,13.058C9.38,12.773 16.559,12.856 17.411,13.123C18.209,13.372 19.589,18.286 18.971,18.427Z" style="fill:white;"/>
</svg>
