<!DOCTYPE svg PUBLIC "-//W3C//DTD SVG 1.1//EN" "http://www.w3.org/Graphics/SVG/1.1/DTD/svg11.dtd">
<!-- Uploaded to: SVG Repo, www.svgrepo.com, Transformed by: SVG Repo Mixer Tools -->
<svg width="800px" height="800px" viewBox="0 0 24 24" fill="none" xmlns="http://www.w3.org/2000/svg">
<g id="SVGRepo_bgCarrier" stroke-width="0"/>
<g id="SVGRepo_tracerCarrier" stroke-linecap="round" stroke-linejoin="round"/>
<g id="SVGRepo_iconCarrier"> <path d="M12 14C13.1046 14 14 13.1046 14 12C14 10.8954 13.1046 10 12 10C10.8954 10 10 10.8954 10 12C10 13.1046 10.8954 14 12 14Z" fill="#ffffff"/> <path fill-rule="evenodd" clip-rule="evenodd" d="M12 1C5.92487 1 1 5.92487 1 12C1 18.0751 5.92487 23 12 23C18.0751 23 23 18.0751 23 12C23 5.92487 18.0751 1 12 1ZM17.1887 8.07625C17.3085 7.71692 17.215 7.32075 16.9471 7.05292C16.6793 6.78509 16.2831 6.69156 15.9238 6.81134L9.56381 8.93134C9.2652 9.03088 9.03089 9.26519 8.93135 9.5638L6.81135 15.9238C6.69158 16.2831 6.7851 16.6793 7.05293 16.9471C7.32076 17.215 7.71693 17.3085 8.07626 17.1887L14.4363 15.0687C14.7349 14.9692 14.9692 14.7349 15.0687 14.4363L17.1887 8.07625Z" fill="#ffffff"/> </g>
</svg>