<?xml version="1.0" encoding="UTF-8" standalone="no"?>
<!DOCTYPE svg PUBLIC "-//W3C//DTD SVG 1.1//EN" "http://www.w3.org/Graphics/SVG/1.1/DTD/svg11.dtd">
<svg width="100%" height="100%" viewBox="0 0 32 32" version="1.1" xmlns="http://www.w3.org/2000/svg" xmlns:xlink="http://www.w3.org/1999/xlink" xml:space="preserve" xmlns:serif="http://www.serif.com/" style="fill-rule:evenodd;clip-rule:evenodd;stroke-linejoin:round;stroke-miterlimit:2;">
    <g transform="matrix(0.633906,0,0,0.633906,-21.6768,-31.5199)">
        <g transform="matrix(0.2,0,0,0.2,23.4936,18.7067)">
            <path d="M287.152,299.988L246.834,324.111L149.246,243.153L149.246,216.258L189.564,192.136L287.152,273.094L287.152,299.988Z" style="fill:rgb(77, 64, 59);"/>
        </g>
        <g transform="matrix(0.2,0,0,0.2,23.4936,18.7067)">
            <path d="M287.152,273.094L246.834,297.216L149.246,216.258L189.564,192.136L287.152,273.094Z" style="fill:rgb(57, 153, 43);"/>
        </g>
        <g transform="matrix(0.2,0,0,0.2,20.107,18.318)">
            <path d="M213.739,284.552L186.793,300.674L139.233,261.218L139.233,234.324L166.179,218.202L213.739,257.657L213.739,284.552Z" style="fill:rgb(94, 94, 94);"/>
        </g>
        <g transform="matrix(0.2,0,0,0.2,20.107,18.318)">
            <path d="M213.739,257.657L186.793,273.779L139.233,234.324L166.179,218.202L213.739,257.657Z" style="fill:rgb(201, 197, 197);"/>
        </g>
        <g transform="matrix(0.2,0,0,0.2,20.107,18.318)">
            <path d="M186.793,285.674L186.793,273.779L139.233,234.324L139.233,246.218L186.793,285.674Z" style="fill:rgb(209, 209, 209);"/>
        </g>
        <g transform="matrix(0.2,0,0,0.2,20.107,17.3364)">
            <path d="M263.767,330.962L236.821,347.084L186.793,305.582L186.793,290.582L213.739,262.565L263.767,304.067L263.767,330.962Z" style="fill:rgb(94, 94, 94);"/>
        </g>
        <g transform="matrix(0.2,0,0,0.2,20.107,17.3364)">
            <path d="M213.739,262.565L263.767,304.067L236.821,332.084L186.793,290.582L213.739,262.565Z" style="fill:rgb(148, 145, 145);"/>
        </g>
        <g transform="matrix(0.2,0,0,0.2,10.1547,24.2678)">
            <path d="M286.582,312.696L236.555,342.628L138.967,261.67L138.967,246.67L188.995,216.738L286.582,297.696L286.582,312.696Z" style="fill:rgb(94, 94, 94);"/>
        </g>
        <g transform="matrix(0.2,0,0,0.2,10.1547,24.2678)">
            <path d="M286.582,297.696L236.555,327.628L138.967,246.67L188.995,216.738L286.582,297.696Z" style="fill:rgb(171, 171, 171);"/>
        </g>
    </g>
</svg>
