<?xml version="1.0" encoding="UTF-8" standalone="no"?>
<!DOCTYPE svg PUBLIC "-//W3C//DTD SVG 1.1//EN" "http://www.w3.org/Graphics/SVG/1.1/DTD/svg11.dtd">
<svg width="100%" height="100%" viewBox="0 0 128 128" version="1.1" xmlns="http://www.w3.org/2000/svg" xmlns:xlink="http://www.w3.org/1999/xlink" xml:space="preserve" xmlns:serif="http://www.serif.com/" style="fill-rule:evenodd;clip-rule:evenodd;stroke-linecap:round;stroke-linejoin:round;stroke-miterlimit:1.5;">
    <g id="b" transform="matrix(4.92308,0,0,4.92308,0,0)">
        <g transform="matrix(1,0,0,1,1.0361,-2.04957)">
            <g transform="matrix(0.022529,0,0,0.0216233,0.534547,2.0419)">
                <g transform="matrix(22.2222,0,0,22.2222,0,0)">
                    <path d="M1.253,16.789L1.313,19.975L17.175,33.154L36.385,21.661L36.359,18.571L32.406,20.936L32.406,22.452L21.211,29.15L21.201,27.538L17.139,29.968L1.253,16.789Z" style="fill:white;"/>
                </g>
                <g transform="matrix(22.2222,0,0,22.2222,0,0)">
                    <path d="M21.072,26.201L17.149,28.548L1.263,15.369L5.186,13.022L5.422,13.218L7.118,12.831L15.139,8.032L31.025,21.211L21.305,27.026L23.005,26.01L7.118,12.831L5.422,13.218L21.072,26.201ZM19.765,18.041L21.001,17.301L24.477,20.185L23.241,20.925L19.765,18.041ZM12.811,12.272L14.047,11.533L17.524,14.417L16.288,15.156L12.811,12.272Z" style="fill:white;"/>
                </g>
                <g transform="matrix(22.2222,0,0,22.2222,0,0)">
                    <path d="M36.359,16.984L32.045,19.566L16.158,6.386L20.473,3.805L36.359,16.984Z" style="fill:white;"/>
                </g>
            </g>
            <g transform="matrix(0.0229397,0,0,0.0220175,0.362788,5.4882)">
                <g transform="matrix(22.2222,0,0,22.2222,0,0)">
                    <path d="M1.253,16.789L1.313,19.975L17.175,33.154L35.094,22.433L36.374,20.315L36.359,18.571L32.406,20.936L32.406,22.452L21.211,29.15L21.201,27.538L17.139,29.968L1.253,16.789Z" style="fill:none;stroke:white;stroke-width:0.41px;"/>
                </g>
                <g transform="matrix(22.2222,0,0,22.2222,0,0)">
                    <path d="M19.84,23.385L27.919,18.634L31.025,21.211L23.005,26.01L19.84,23.385Z" style="fill:none;stroke:white;stroke-width:0.41px;"/>
                </g>
                <g transform="matrix(22.2222,0,0,22.2222,0,0)">
                    <path d="M21.072,26.201L17.149,28.548L1.263,15.369L5.186,13.022L21.072,26.201Z" style="fill:none;stroke:white;stroke-width:0.41px;"/>
                </g>
                <g transform="matrix(22.2222,0,0,22.2222,0,0)">
                    <path d="M36.359,16.984L32.045,19.566L29.605,17.541L33.909,14.952L36.359,16.984Z" style="fill:none;stroke:white;stroke-width:0.41px;"/>
                </g>
            </g>
            <g transform="matrix(0.0229397,0,0,0.0220175,0.362788,9.06646)">
                <g transform="matrix(22.2222,0,0,22.2222,0,0)">
                    <path d="M1.253,16.789L1.313,19.975L17.175,33.154L31.537,24.561L32.406,20.936L32.406,22.452L21.211,29.15L21.201,27.538L17.139,29.968L1.253,16.789Z" style="fill:none;stroke:white;stroke-width:0.15px;"/>
                </g>
                <g transform="matrix(22.2222,0,0,22.2222,0,0)">
                    <path d="M20.501,23.932L28.514,19.128L31.025,21.211L23.005,26.01L20.501,23.932Z" style="fill:none;stroke:white;stroke-width:0.15px;"/>
                </g>
                <g transform="matrix(22.2222,0,0,22.2222,0,0)">
                    <path d="M21.072,26.201L17.149,28.548L1.263,15.369L3.201,14.209L17.2,25.841L19.204,24.651L21.072,26.201Z" style="fill:none;stroke:white;stroke-width:0.15px;"/>
                </g>
                <g transform="matrix(22.2222,0,0,22.2222,0,0)">
                    <path d="M34.575,15.505L33.924,18.441L32.045,19.566L30.272,18.095L34.575,15.505Z" style="fill:none;stroke:white;stroke-width:0.15px;"/>
                </g>
            </g>
            <g transform="matrix(-0.624443,-0.270554,0.224949,-0.519185,19.4148,24.9803)">
                <path d="M3.843,-3.364C4.309,-3.492 6.756,1.668 6.756,2.216L6.756,18.113C6.756,18.655 6.385,19.102 5.933,19.102L1.797,19.102C1.345,19.102 0.974,18.655 0.974,18.113L0.974,2.216C0.974,1.668 3.378,-3.235 3.843,-3.364Z" style="fill:white;"/>
                <path d="M3.843,-3.364C4.309,-3.492 6.756,1.668 6.756,2.216L6.756,18.113C6.756,18.655 6.385,19.102 5.933,19.102L1.797,19.102C1.345,19.102 0.974,18.655 0.974,18.113L0.974,2.216C0.974,1.668 3.378,-3.235 3.843,-3.364ZM1.7,2.313C1.741,2.199 1.899,1.765 2.056,1.408C2.534,0.321 3.31,-1.241 3.844,-2.107C4.307,-1.295 5.233,0.362 5.663,1.361C5.826,1.738 5.99,2.197 6.03,2.311L6.03,18.113C6.03,18.176 5.986,18.229 5.933,18.229L1.797,18.229C1.744,18.229 1.7,18.176 1.7,18.113L1.7,2.313Z" style="fill:white;"/>
            </g>
            <g transform="matrix(0.12341,0,0,0.266104,5.50369,-5.89586)">
                <rect x="75.701" y="118.693" width="28.857" height="2.029" style="fill:white;"/>
            </g>
        </g>
    </g>
    <g id="Mod-Icon" serif:id="Mod Icon">
    </g>
</svg>
