<?xml version="1.0" encoding="UTF-8" standalone="no"?>
<!DOCTYPE svg PUBLIC "-//W3C//DTD SVG 1.1//EN" "http://www.w3.org/Graphics/SVG/1.1/DTD/svg11.dtd">
<svg width="100%" height="100%" viewBox="0 0 26 26" version="1.1" xmlns="http://www.w3.org/2000/svg" xmlns:xlink="http://www.w3.org/1999/xlink" xml:space="preserve" xmlns:serif="http://www.serif.com/" style="fill-rule:evenodd;clip-rule:evenodd;stroke-linejoin:round;stroke-miterlimit:2;">
    <g transform="matrix(0.683055,0,0,0.619375,14.2198,1.42871)">
        <g id="b">
            <g id="Gravel-Option" serif:id="Gravel Option">
                <g transform="matrix(1.46401,0,0,1.61453,-19.1997,-4.29676)">
                    <path d="M22.19,17.012L11.273,24.296L1.599,15.226L1.599,15.829L11.273,25.158L22.19,17.476L22.19,17.012Z" style="fill:white;"/>
                </g>
                <g transform="matrix(1.46401,0,0,1.61453,-20.818,-2.30669)">
                    <path d="M12.546,22.197C12.522,22.142 12.504,22.086 12.492,22.032C12.409,21.632 12.606,20.799 12.831,20.562C12.925,20.463 13.07,20.424 13.227,20.424L13.236,20.424C13.455,20.427 13.695,20.506 13.846,20.609C13.981,20.702 14.105,20.889 14.203,21.091L12.546,22.197ZM8.246,18.435L8.25,18.431C8.427,18.3 8.793,18.231 9.136,18.232L9.149,18.232C9.387,18.234 9.611,18.269 9.751,18.343C10.098,18.523 10.326,19.157 10.327,19.512C10.328,19.719 10.213,19.952 10.07,20.145L8.246,18.435ZM15.786,20.036C15.389,19.898 15.098,19.245 15.078,18.858C15.057,18.469 15.41,17.939 15.663,17.706C15.845,17.539 16.115,17.435 16.374,17.434L16.382,17.434C16.456,17.435 16.528,17.443 16.597,17.461C16.944,17.55 17.599,17.871 17.744,18.239C17.791,18.357 17.812,18.515 17.809,18.685L15.786,20.036ZM12.76,16.328C12.995,16.329 13.205,16.359 13.347,16.422C13.799,16.623 14.049,17.425 14.017,17.884C13.985,18.343 13.49,18.93 13.156,19.178C12.945,19.334 12.661,19.425 12.386,19.426L12.377,19.426C12.251,19.426 12.127,19.407 12.013,19.367C11.615,19.226 10.886,18.778 10.769,18.33C10.651,17.882 10.876,16.996 11.306,16.678C11.598,16.461 12.227,16.328 12.742,16.328L12.76,16.328ZM18.564,14.697C18.634,14.697 18.704,14.706 18.771,14.723C19.103,14.808 19.731,15.116 19.87,15.469C20.009,15.822 19.917,16.553 19.604,16.84C19.362,17.062 18.76,17.229 18.323,17.234L18.31,17.234C18.187,17.234 18.078,17.221 17.995,17.193C17.613,17.063 17.333,16.435 17.313,16.062C17.293,15.69 17.631,15.181 17.874,14.958C18.049,14.797 18.307,14.698 18.557,14.697L18.564,14.697ZM8.586,13.976C8.904,13.978 9.235,14.118 9.403,14.254C9.614,14.425 9.714,14.78 9.624,15.13C9.526,15.514 9.188,16.287 8.816,16.554C8.578,16.725 8.18,16.847 7.849,16.851L7.837,16.851C7.656,16.851 7.495,16.816 7.393,16.732C7.101,16.496 6.922,15.586 7.067,15.136C7.213,14.685 7.876,14.175 8.265,14.028C8.363,13.991 8.468,13.976 8.576,13.976L8.586,13.976ZM21.413,16.282C21.249,16.025 21.117,15.73 21.053,15.516C20.945,15.153 20.982,14.702 21.166,14.427C21.354,14.145 21.818,13.704 22.185,13.703L22.189,13.703C22.212,13.703 22.235,13.705 22.257,13.709C22.633,13.773 23.271,14.307 23.421,14.81C23.432,14.845 23.441,14.883 23.448,14.924L21.413,16.282ZM14.981,13.449C15.192,13.45 15.399,13.487 15.545,13.546C15.891,13.686 16.207,14.209 16.306,14.524C16.398,14.817 16.337,15.193 16.138,15.435C15.926,15.692 15.406,16.111 15.03,16.114L14.994,16.113C14.616,16.089 13.994,15.695 13.867,15.289C13.74,14.884 13.952,13.973 14.232,13.682C14.391,13.517 14.683,13.45 14.969,13.449L14.981,13.449ZM3.402,13.893C3.469,13.533 3.64,13.151 3.883,12.971C4.147,12.775 4.716,12.655 5.182,12.654L5.198,12.654C5.411,12.656 5.601,12.682 5.729,12.739C6.138,12.921 6.364,13.646 6.335,14.061C6.306,14.477 5.858,15.007 5.556,15.231C5.414,15.336 5.236,15.409 5.051,15.439L3.402,13.893ZM11.296,13.239C11.544,13.241 11.814,13.307 11.965,13.444C12.211,13.67 12.435,14.365 12.366,14.666C12.296,14.968 11.834,15.217 11.548,15.253L11.486,15.256C11.205,15.255 10.83,15.042 10.652,14.879C10.474,14.716 10.363,14.439 10.399,14.2C10.438,13.939 10.625,13.438 10.886,13.312C10.986,13.264 11.132,13.239 11.287,13.239L11.296,13.239ZM18.891,10.947C19.268,10.95 19.68,11.05 19.909,11.259C20.284,11.603 20.625,12.661 20.519,13.12C20.414,13.579 19.71,13.959 19.275,14.012L19.181,14.018C18.752,14.017 18.181,13.692 17.91,13.443C17.639,13.195 17.47,12.774 17.525,12.41C17.584,12.013 17.87,11.25 18.267,11.058C18.419,10.985 18.641,10.947 18.877,10.947L18.891,10.947ZM8.206,10.287C8.674,10.29 9.336,10.662 9.608,10.941C9.897,11.237 9.933,11.788 9.856,12.068C9.784,12.327 9.5,12.56 9.145,12.618C9.015,12.64 8.834,12.654 8.635,12.654L8.621,12.654C8.233,12.654 7.783,12.602 7.526,12.449C7.134,12.217 6.697,11.584 6.796,11.224C6.896,10.864 7.653,10.338 8.121,10.291L8.206,10.287ZM16.259,9.56C16.377,9.561 16.481,9.584 16.558,9.635C16.847,9.825 17.096,10.642 17.004,11.067C16.912,11.493 16.352,12.018 16.008,12.187C15.896,12.242 15.767,12.266 15.636,12.267L15.627,12.267C15.363,12.268 15.094,12.179 14.945,12.08C14.736,11.943 14.611,11.627 14.661,11.298C14.715,10.939 14.954,10.201 15.27,9.923C15.5,9.722 15.923,9.56 16.248,9.56L16.259,9.56ZM12.544,10.287C12.691,10.288 12.823,10.306 12.911,10.346C13.194,10.471 13.35,10.973 13.33,11.26C13.31,11.547 13.001,11.914 12.792,12.069C12.66,12.166 12.482,12.223 12.311,12.224L12.305,12.224C12.226,12.224 12.149,12.212 12.077,12.187C11.829,12.099 11.373,11.819 11.299,11.539C11.225,11.259 11.366,10.705 11.635,10.506C11.818,10.371 12.211,10.287 12.533,10.287L12.544,10.287ZM12.877,6.784C13.212,6.787 13.579,6.876 13.782,7.062C14.116,7.368 14.42,8.31 14.326,8.718C14.232,9.126 13.605,9.464 13.218,9.512L13.134,9.517C12.753,9.516 12.245,9.227 12.003,9.006C11.762,8.785 11.612,8.41 11.661,8.086C11.714,7.733 11.968,7.054 12.321,6.883C12.457,6.818 12.654,6.784 12.864,6.784L12.877,6.784Z" style="fill:white;"/>
                </g>
            </g>
        </g>
    </g>
</svg>
