<?xml version="1.0" encoding="UTF-8" standalone="no"?>
<!DOCTYPE svg PUBLIC "-//W3C//DTD SVG 1.1//EN" "http://www.w3.org/Graphics/SVG/1.1/DTD/svg11.dtd">
<svg width="100%" height="100%" viewBox="0 0 800 800" version="1.1" xmlns="http://www.w3.org/2000/svg" xmlns:xlink="http://www.w3.org/1999/xlink" xml:space="preserve" xmlns:serif="http://www.serif.com/" style="fill-rule:evenodd;clip-rule:evenodd;stroke-linejoin:round;stroke-miterlimit:2;">
    <g transform="matrix(1,0,0,1,-1.12113,-22.1315)">
        <path d="M103.802,103.836C97.246,109.054 93.231,116.824 92.768,125.191C92.306,133.558 95.439,141.723 101.38,147.633C196.479,242.227 553.709,597.56 649.666,693.007C663.098,706.368 684.579,707.054 698.836,694.579C698.837,694.578 698.837,694.578 698.838,694.578C705.371,688.861 709.234,680.687 709.504,672.01C709.773,663.333 706.425,654.935 700.259,648.824C604.449,553.863 248.192,200.764 153.101,106.516C139.723,93.257 118.541,92.105 103.804,103.834C103.803,103.835 103.803,103.835 103.802,103.836Z" style="fill:white;"/>
    </g>
    <g transform="matrix(1,0,0,1,-11.6613,0.0029155)">
        <path d="M202.914,157.641L319.665,273.772C307.311,290.405 300,311.016 300,333.333C300,388.563 344.77,433.333 400,433.333C422.506,433.333 443.276,425.899 459.988,413.35L595.557,548.199C578.329,573.451 559.62,596.436 541.437,616.627C510.963,650.463 480.59,677.963 457.863,697.003C446.473,706.54 436.943,714.01 430.19,719.137C426.813,721.703 424.127,723.687 422.25,725.057C421.31,725.74 420.57,726.273 420.047,726.647L419.427,727.09L419.14,727.29C407.65,735.347 392.33,735.337 380.843,727.28L379.953,726.647C379.43,726.273 378.69,725.74 377.75,725.057C375.873,723.687 373.187,721.703 369.81,719.137C363.057,714.01 353.527,706.54 342.137,697.003C319.409,677.963 289.037,650.463 258.564,616.627C198.789,550.253 133.333,453.683 133.333,345.453C133.333,276.038 158.107,209.026 202.914,157.641ZM251.905,113.602C295.305,83.307 346.736,66.667 400,66.667C471.283,66.667 539.287,96.471 589.15,148.926C638.96,201.323 666.667,272.045 666.667,345.453C666.667,396.484 652.115,444.922 630.473,488.814L497.24,356.762C499.044,349.248 500,341.402 500,333.333C500,278.105 455.23,233.333 400,233.333C391.622,233.333 383.484,234.364 375.706,236.305L251.905,113.602Z" style="fill:white;"/>
    </g>
</svg>
