<?xml version="1.0" encoding="UTF-8" standalone="no"?>
<svg
   width="100%"
   height="100%"
   viewBox="0 0 26 26"
   version="1.1"
   xml:space="preserve"
   style="fill-rule:evenodd;clip-rule:evenodd;stroke-linejoin:round;stroke-miterlimit:2;"
   id="svg4"
   xmlns="http://www.w3.org/2000/svg"
   xmlns:svg="http://www.w3.org/2000/svg"><defs
   id="defs4" />
    <g
   id="b">
        <g
   id="g4">
            <path
   d="m 9.4712998,10.525359 0.03134,2.222369 a 2.1911423,2.1911423 45.318787 0 0 2.1356506,2.159549 l 1.855201,0.04681 a 0.8977214,0.8977214 45.847293 0 1 0.875067,0.901338 l -0.01632,3.753535 1.692,0.0819 -0.005,-4.097119 A 2.1658719,2.1658719 43.997698 0 0 13.800257,13.43174 l -1.58418,0.05352 a 1.1383968,1.1383968 43.839843 0 1 -1.176808,-1.13009 l -0.012,-1.784262 1.118666,-0.03087 -1.839761,-4.1855577 -1.9393202,4.2406767 z"
   style="clip-rule:evenodd;fill:#ffffff;fill-opacity:1;fill-rule:evenodd;stroke-linejoin:round;stroke-miterlimit:2"
   id="path4"
   transform="matrix(1,0,0,1.09549,0.123867,-1.09009)" /><path
   d="m 21.752554,8.8234814 c 0,-2.423 -1.938612,-4.9472074 -4.361554,-4.9304814 L 9.1494814,3.9498928 C 6.7265391,3.9666188 4.3247262,6.2298165 4.3327856,8.6528031 l 0.028446,8.5521619 c 0.00806,2.422987 2.6497319,4.939956 5.0727134,4.930481 L 16.708287,22.107 c 2.422981,-0.0095 5.044267,-2.450589 5.044267,-4.873589 z M 20.131,8.9424289 C 20.131,6.9744289 18.533,5.604 16.565,5.604 h -7.13 c -1.968,0 -3.566,1.598 -3.566,3.566 v 7.66 c 0,1.968 1.598,3.566 3.566,3.566 h 7.13 c 1.968,0 3.566,-1.598 3.566,-3.566 z"
   style="fill:#ff0000;fill-opacity:1"
   id="path1" />
            <g
   transform="matrix(3.20613,4.80451e-17,-4.80451e-17,3.20613,-28.2561,22.0305)"
   id="g2">
                
            </g>
            
        <path
   style="display:inline;opacity:1;fill:#ff0000;fill-opacity:1;fill-rule:evenodd;stroke-width:0.999999"
   d="m 5.7962697,19.63512 c -0.2350231,-0.254239 -0.4280075,-0.475054 -0.4288541,-0.4907 -8.466e-4,-0.01564 1.255307,-1.204633 2.7914527,-2.642196 1.5361454,-1.437562 2.9658037,-2.776378 3.1770177,-2.975147 2.142253,-2.016023 8.48347,-7.9373615 8.500195,-7.9373615 0.01192,0 0.221138,0.2084597 0.46493,0.4632437 L 20.744268,6.516203 19.133622,8.0267625 C 9.0527221,17.481229 6.2587649,20.097374 6.2426049,20.097374 c -0.010461,0 -0.2113121,-0.208014 -0.4463352,-0.462254 z"
   id="path5" /></g>
    </g>
</svg>
