<?xml version="1.0" encoding="UTF-8" standalone="no"?>
<svg
   width="100%"
   height="100%"
   viewBox="0 0 26 26"
   version="1.1"
   xml:space="preserve"
   style="fill-rule:evenodd;clip-rule:evenodd;stroke-linejoin:round;stroke-miterlimit:2;"
   id="svg1"
   xmlns="http://www.w3.org/2000/svg"
   xmlns:svg="http://www.w3.org/2000/svg"><defs
   id="defs1" />
    <path
   d="m 4.1985865,18.00321 h -1.8074 v 0.6349 c 0,0.2492 0.203,0.4515 0.4522,0.4515 h 0.9037 c 0.2492,0 0.4515,-0.2023 0.4515,-0.4515 z m 7.8463005,0 h -1.8074 v 0.6349 c 0,0.2492 0.203,0.4515 0.4522,0.4515 h 0.9037 c 0.2492,0 0.4515,-0.2023 0.4515,-0.4515 z m -9.3044005,-5.5258 c 0.3864,-1.2908 0.8673,-2.7741 1.1424,-2.8693 0.9464,-0.3262 6.0171999,-0.2023 6.7186005,0.0154 0.4228,0.1309 0.8442,1.5904 1.1809,2.8448 h 0.7553 c 0.1113,0 0.2016,0.0903 0.2016,0.2009 v 0.4018 c 0,0.1106 -0.0903,0.2009 -0.2016,0.2009 h -0.5397 c 0.1204,0.4417 0.224,0.7903 0.3045,0.9436 0.0973,0.1841 0.1505,0.5243 0.1708,0.8218 0.0175,0.2583 0.0091,0.4865 0.0077,0.5243 v 1.8165 c 0,0.1477 -0.1197,0.2674 -0.2667,0.2674 H 2.1888865 c -0.1477,0 -0.2667,-0.1197 -0.2667,-0.2674 l -7e-4,-1.8214 c 0,0 -0.007,-0.0889 7e-4,-0.2296 v -0.084 c 0,-0.0301 0.0049,-0.0588 0.0133,-0.0854 0.0259,-0.2233 0.0861,-0.511 0.2254,-0.7819 0.049,-0.0952 0.1764,-0.5313 0.3444,-1.1039 h -0.6468 c -0.1113,0 -0.2009,-0.0903 -0.2009,-0.2009 v -0.4018 c 0,-0.1106 0.0896,-0.2009 0.2009,-0.2009 h 0.8225 c 0.0203,0 0.0406,0.0028 0.0595,0.0091 z m 8.6303005,3.6666 c 0,-0.1197 -0.0973,-0.217 -0.2177,-0.217 H 9.6606864 c -0.1204,0 -0.2177,0.0973 -0.2177,0.217 v 0.4354 c 0,0.1197 0.0973,0.217 0.2177,0.217 h 1.4924006 c 0.1204,0 0.2177,-0.0973 0.2177,-0.217 z m -6.4113005,0 c 0,-0.1197 -0.0973,-0.217 -0.217,-0.217 h -1.4931 c -0.1197,0 -0.2177,0.0973 -0.2177,0.217 v 0.4354 c 0,0.1197 0.098,0.217 0.2177,0.217 h 1.4931 c 0.1197,0 0.217,-0.0973 0.217,-0.217 z m 4.3035999,0.3444 H 5.2471865 v 0.1554 h 4.0158999 z m 2.1140006,-2.6999 c -0.1575,0.0364 -8.1116005,0.2268 -8.4490005,0 -0.1918,-0.1288 0.7672,-3.5378 1.2754,-3.7583 0.4599,-0.1995 5.4851999,-0.1414 6.0816005,0.0455 0.5586,0.1743 1.5246,3.6141 1.092,3.7128 z"
   style="fill:#ffffff;stroke-width:0.999999"
   id="path1" />
<path
   d="m 15.861606,17.946317 h -1.8074 v 0.6349 c 0,0.2492 0.203,0.4515 0.4522,0.4515 h 0.9037 c 0.2492,0 0.4515,-0.2023 0.4515,-0.4515 z m 7.846301,0 h -1.8074 v 0.6349 c 0,0.2492 0.203,0.4515 0.4522,0.4515 h 0.9037 c 0.2492,0 0.4515,-0.2023 0.4515,-0.4515 z m -9.304401,-5.5258 c 0.3864,-1.2908 0.8673,-2.7740998 1.1424,-2.8692998 0.9464,-0.3262 6.0172,-0.2023 6.718601,0.0154 0.4228,0.1309 0.8442,1.5903998 1.1809,2.8447998 h 0.7553 c 0.1113,0 0.2016,0.0903 0.2016,0.2009 v 0.4018 c 0,0.1106 -0.0903,0.2009 -0.2016,0.2009 h -0.5397 c 0.1204,0.4417 0.224,0.7903 0.3045,0.9436 0.0973,0.1841 0.1505,0.5243 0.1708,0.8218 0.0175,0.2583 0.0091,0.4865 0.0077,0.5243 v 1.8165 c 0,0.1477 -0.1197,0.2674 -0.2667,0.2674 H 13.851906 c -0.1477,0 -0.2667,-0.1197 -0.2667,-0.2674 l -7e-4,-1.8214 c 0,0 -0.007,-0.0889 7e-4,-0.2296 v -0.084 c 0,-0.0301 0.0049,-0.0588 0.0133,-0.0854 0.0259,-0.2233 0.0861,-0.511 0.2254,-0.7819 0.049,-0.0952 0.1764,-0.5313 0.3444,-1.1039 h -0.6468 c -0.1113,0 -0.2009,-0.0903 -0.2009,-0.2009 v -0.4018 c 0,-0.1106 0.0896,-0.2009 0.2009,-0.2009 h 0.8225 c 0.0203,0 0.0406,0.0028 0.0595,0.0091 z m 8.630301,3.6666 c 0,-0.1197 -0.0973,-0.217 -0.2177,-0.217 h -1.492401 c -0.1204,0 -0.2177,0.0973 -0.2177,0.217 v 0.4354 c 0,0.1197 0.0973,0.217 0.2177,0.217 h 1.492401 c 0.1204,0 0.2177,-0.0973 0.2177,-0.217 z m -6.411301,0 c 0,-0.1197 -0.0973,-0.217 -0.217,-0.217 h -1.4931 c -0.1197,0 -0.2177,0.0973 -0.2177,0.217 v 0.4354 c 0,0.1197 0.098,0.217 0.2177,0.217 h 1.4931 c 0.1197,0 0.217,-0.0973 0.217,-0.217 z m 4.3036,0.3444 h -4.0159 v 0.1554 h 4.0159 z m 2.114001,-2.6999 c -0.1575,0.0364 -8.111601,0.2268 -8.449001,0 -0.1918,-0.1288 0.7672,-3.5378 1.2754,-3.7582998 0.4599,-0.1995 5.4852,-0.1414 6.081601,0.0455 0.5586,0.1743 1.5246,3.6141 1.092,3.7128 z"
   style="fill:#ffffff;stroke-width:0.999999"
   id="path2" /></svg>
