<svg width="22" height="25" viewBox="-1 0 23 25" fill="none" xmlns="http://www.w3.org/2000/svg">
	<g id="Vector">
		<path d="M9.84673 4.2036C9.78949 3.76757 9.42906 3.46087 9.04337 3.51264L0.602062 4.69705C0.21562 4.75163 -0.050046 5.14829 0.00794535 5.58151L2.44229 23.8033C2.49953 24.2394 2.85996 24.5461 3.24565 24.4943L11.6897 23.3107C12.0761 23.2561 12.3418 22.8594 12.2838 22.4262L9.84673 4.2036ZM3.70409 11.774L3.1084 7.31359C3.08816 7.16893 3.23084 7.05494 3.36354 7.11034L7.43393 8.8128C7.56663 8.86821 7.59156 9.05044 7.47835 9.14251L4.00365 11.9005C3.8912 11.9897 3.72359 11.9215 3.70409 11.774ZM3.49525 15.658L3.38988 14.8731C3.37803 14.7852 3.42258 14.7071 3.48973 14.6987L9.02723 13.9221C9.09438 13.9138 9.15718 13.9767 9.16703 14.0611L9.27241 14.846C9.28425 14.9339 9.23971 15.012 9.17255 15.0203L3.63506 15.797C3.56791 15.8053 3.50511 15.7423 3.49525 15.658ZM3.9998 18.5097C3.93265 18.5181 3.86985 18.4551 3.86 18.3708L3.75462 17.5859C3.74278 17.4979 3.78732 17.4198 3.85447 17.4115L9.39197 16.6349C9.45912 16.6265 9.52192 16.6895 9.53178 16.7738L9.63715 17.5587C9.649 17.6467 9.60445 17.7248 9.5373 17.7331L3.9998 18.5097ZM9.8993 20.4451L4.36181 21.2217C4.29465 21.2301 4.23185 21.1671 4.222 21.0828L4.11663 20.2979C4.10478 20.2099 4.14932 20.1318 4.21648 20.1235L9.75397 19.3469C9.82113 19.3385 9.88393 19.4015 9.89378 19.4858L9.99916 20.2707C10.011 20.3587 9.96646 20.4368 9.8993 20.4451Z" fill="white"/>
		<path d="M21.6248 4.43096L13.9844 0.56842C13.6363 0.392059 13.1995 0.568442 13.0084 0.961906L11.0237 5.07505L11.8131 10.9706L15.9139 13.0441C15.974 13.0731 15.9913 13.1626 15.9523 13.2422L15.6085 13.9523C15.5695 14.032 15.4913 14.0704 15.4319 14.0386L11.9885 12.2978L12.2489 14.2441L14.7284 15.4966C14.7885 15.5256 14.8058 15.615 14.7667 15.6947L14.423 16.4048C14.3839 16.4844 14.3057 16.5229 14.2464 16.4911L12.4243 15.5714L12.6847 17.5176L13.5421 17.9519C13.6022 17.9808 13.6195 18.0703 13.5805 18.15L13.2367 18.86C13.1976 18.9397 13.1195 18.9782 13.0601 18.9464L12.8601 18.8449L13.0797 20.4806C13.0837 20.521 13.0828 20.557 13.084 20.5966L13.3274 22.4082C13.5812 22.3859 13.8258 22.222 13.9568 21.9536L21.9118 5.46324C22.1028 5.06978 21.973 4.60732 21.6248 4.43096ZM17.2496 8.19275L12.8627 8.48598C12.7181 8.49674 12.6208 8.3425 12.6824 8.21176L14.6288 4.17548C14.6939 4.04271 14.8709 4.032 14.9503 4.15402L17.3908 7.89708C17.4702 8.01909 17.3906 8.18403 17.2461 8.19479L17.2496 8.19275Z" fill="white"/>
	</g>
</svg>
