<?xml version="1.0" encoding="UTF-8" standalone="no"?>
<!DOCTYPE svg PUBLIC "-//W3C//DTD SVG 1.1//EN" "http://www.w3.org/Graphics/SVG/1.1/DTD/svg11.dtd">
<svg width="100%" height="100%" viewBox="0 0 26 26" version="1.1" xmlns="http://www.w3.org/2000/svg" xmlns:xlink="http://www.w3.org/1999/xlink" xml:space="preserve" xmlns:serif="http://www.serif.com/" style="fill-rule:evenodd;clip-rule:evenodd;stroke-linejoin:round;stroke-miterlimit:2;">
    <g transform="matrix(-0.538296,0,0,0.538296,17.870207,5.6392)">
        <g id="b" transform="matrix(1.155183,0,0,1.155183,2.681387,-1.743123)">
            <g id="Pedestrian-Lane" serif:id="Pedestrian Lane">
                <g>
                    <g transform="matrix(-0.975012,0,0,1,22.988,1.45571)">
                        <g transform="matrix(-0.842726,0,-0,-0.911114,17.3945,27.9104)">
                            <path d="M10.977,17.122C10.831,16.699 11.336,6.86 11.329,5.898C11.324,5.198 11.164,3.586 11.387,3.287C11.551,3.067 11.752,2.935 12.108,2.97C12.181,2.977 12.901,2.887 12.994,4.011C13.19,5.854 13.056,10.841 13.204,12.993C13.244,13.579 13.621,13.848 13.692,13.91C13.884,14.074 14.163,13.514 14.249,12.807C14.364,11.876 14.737,10.447 14.775,9.29C14.807,8.312 14.538,4.782 14.615,3.314C14.652,2.979 15.976,3.136 16.058,3.227C16.354,3.556 16.739,8.668 16.741,9.202C16.748,10.845 16.476,13.091 16.218,14.864C16.06,15.945 16.056,16.84 15.692,17.34C15.2,18.016 14.307,17.064 13.25,16.985C12.328,16.916 11.218,17.816 10.977,17.122Z" style="fill:rgb(125,150,159);fill-rule:nonzero;"/>
                        </g>
                        <g transform="matrix(0.842726,0,0,0.842726,8.63844,6.4292)">
                            <path d="M-3.674,-1.715C-3.115,-1.857 -2.45,-1.857 -1.918,-1.715C-1.714,-1.66 -1.903,-1.237 -1.701,-1.144C-1.377,-0.995 -0.825,-0.904 -0.486,-0.858C0.923,-0.667 1.038,2.221 1.101,2.879C1.304,4.995 1.306,8.759 0.43,9.732C-0.033,10.247 0.542,5.729 0.333,5.166C0.203,4.817 -0.379,2.663 -0.411,2.912C-0.627,4.567 -0.701,5.851 -0.75,6.962C-0.793,7.955 -2.15,7.735 -3.061,7.736C-3.929,7.737 -5.533,7.821 -5.653,6.962C-5.867,5.43 -5.853,4.119 -5.949,2.879C-5.959,2.742 -6.91,5.358 -6.924,5.185C-6.935,5.048 -6.099,9.975 -6.607,10.328C-6.925,10.549 -7.6,7.024 -7.712,5.378C-7.806,4.009 -7.552,3.197 -7.528,2.967C-7.418,1.888 -6.854,-0.485 -5.729,-0.79C-5.281,-0.911 -4.549,-0.981 -4.113,-1.144C-3.981,-1.194 -3.804,-1.681 -3.674,-1.715Z" style="fill:rgb(151,180,190);fill-rule:nonzero;"/>
                        </g>
                        <g transform="matrix(0.451179,0,0,0.58023,4.54853,0.685696)">
                            <path d="M3.518,0C5.46,0 7.036,1.055 7.036,2.996C7.036,4.938 5.46,7.036 3.518,7.036C1.576,7.036 0,4.938 0,2.996C0,1.055 1.576,0 3.518,0Z" style="fill:rgb(151,180,190);"/>
                        </g>
                    </g>
                    <g transform="matrix(0.968897,0,0,0.913959,1.877289,3.62476)">
                        <g transform="matrix(-0.842726,0,-0,-0.911114,17.3945,27.9104)">
                            <path d="M10.977,17.122C10.831,16.699 11.336,6.86 11.329,5.898C11.324,5.198 11.164,3.586 11.387,3.287C11.551,3.067 11.752,2.935 12.108,2.97C12.181,2.977 12.901,2.887 12.994,4.011C13.19,5.854 13.056,10.841 13.204,12.993C13.244,13.579 13.621,13.848 13.692,13.91C13.884,14.074 14.163,13.514 14.249,12.807C14.364,11.876 14.737,10.447 14.775,9.29C14.807,8.312 14.538,4.782 14.615,3.314C14.652,2.979 15.976,3.136 16.058,3.227C16.354,3.556 16.739,8.668 16.741,9.202C16.748,10.845 16.476,13.091 16.218,14.864C16.06,15.945 16.056,16.84 15.692,17.34C15.2,18.016 14.307,17.064 13.25,16.985C12.328,16.916 11.218,17.816 10.977,17.122Z" style="fill:rgb(162,162,133);fill-rule:nonzero;"/>
                        </g>
                        <g transform="matrix(-0.816361,0,0,0.842726,3.47121,6.3321)">
                            <path d="M-3.674,-1.715C-3.115,-1.857 -2.45,-1.857 -1.918,-1.715C-1.714,-1.66 -1.903,-1.237 -1.701,-1.144C-1.377,-0.995 -0.825,-0.904 -0.486,-0.858C0.923,-0.667 1.038,2.221 1.101,2.879C1.304,4.995 1.306,8.759 0.43,9.732C-0.033,10.247 0.542,5.729 0.333,5.166C0.203,4.817 -0.379,2.663 -0.411,2.912C-0.627,4.567 -0.701,5.851 -0.75,6.962C-0.793,7.955 -2.15,7.735 -3.061,7.736C-3.929,7.737 -5.533,7.821 -5.653,6.962C-5.867,5.43 -5.853,4.119 -5.949,2.879C-5.959,2.742 -6.91,5.358 -6.924,5.185C-6.935,5.048 -6.099,9.975 -6.607,10.328C-6.925,10.549 -7.6,7.024 -7.712,5.378C-7.806,4.009 -7.552,3.197 -7.528,2.967C-7.418,1.888 -6.854,-0.485 -5.729,-0.79C-5.281,-0.911 -4.549,-0.981 -4.113,-1.144C-3.981,-1.194 -3.804,-1.681 -3.674,-1.715Z" style="fill:rgb(190,190,151);fill-rule:nonzero;"/>
                        </g>
                        <g transform="matrix(0.39307,0,0,0.5055,4.47344,0.954978)">
                            <path d="M3.518,0C5.46,0 7.036,1.055 7.036,2.996C7.036,4.938 5.46,7.036 3.518,7.036C1.576,7.036 0,4.938 0,2.996C0,1.055 1.576,0 3.518,0Z" style="fill:rgb(190,190,151);"/>
                        </g>
                    </g>
                </g>
            </g>
        </g>
        <g id="b1" serif:id="b" transform="matrix(-1.857714,0,0,1.857714,-2.948956,-19.240506)">
            <g id="Sidewalk-Parking-Rear" serif:id="Sidewalk Parking Rear">
                <g id="biker-02-outbound" transform="matrix(0.060449,0,0,0.060449,-299.274253,-26.197468)">
                    <g transform="matrix(2.00022,0,0,2.00022,-4916.78,-863.694)">
                        <path d="M4932.26,816.084L4931.96,793.304L4935.37,793.313L4935.6,815.904L4932.26,816.084Z" style="fill:rgb(160,49,62);fill-rule:nonzero;"/>
                    </g>
                    <g transform="matrix(2.00022,0,0,2.00022,-4916.78,-863.694)">
                        <path d="M4932.1,789.814L4935.16,789.853L4942.53,786.91L4942.09,784.839L4935.09,787.189L4932.06,787.228L4925.16,785.04L4924.72,787.329L4932.1,789.814Z" style="fill:rgb(232,205,119);fill-rule:nonzero;"/>
                    </g>
                    <g transform="matrix(2.00022,0,0,2.00022,-4916.78,-863.694)">
                        <path d="M4943.37,785.214L4943.61,789.666L4959.11,788.185L4958.46,782.838L4943.37,785.214Z" style="fill:rgb(206,173,128);fill-rule:nonzero;"/>
                    </g>
                    <g transform="matrix(2.00022,0,0,2.00022,-4916.78,-863.694)">
                        <path d="M4923.18,784.491L4922.94,788.946L4907.44,787.462L4908.09,782.115L4923.18,784.491Z" style="fill:rgb(206,173,128);fill-rule:nonzero;"/>
                    </g>
                    <g transform="matrix(2.00022,0,0,2.00022,-4916.78,-863.694)">
                        <path d="M4931.76,822.692L4929.55,838.289L4931.64,853.395L4931.76,822.692Z" style="fill:rgb(194,191,188);fill-rule:nonzero;"/>
                    </g>
                    <g transform="matrix(2.00022,0,0,2.00022,-4916.78,-863.694)">
                        <path d="M4936.49,822.692L4938.7,838.289L4936.61,853.395L4936.49,822.692Z" style="fill:rgb(194,191,188);fill-rule:nonzero;"/>
                    </g>
                    <g transform="matrix(2.00022,0,0,2.00022,-4916.78,-863.694)">
                        <path d="M4932.86,814.367L4931.62,815.655L4931.67,861.664L4933.05,863.5L4935.3,863.5L4936.63,861.43L4936.45,815.421L4935.07,814.367L4932.86,814.367Z" style="fill:rgb(41,43,41);fill-rule:nonzero;"/>
                    </g>
                    <g transform="matrix(2.00022,0,0,2.00022,-4916.78,-863.694)">
                        <path d="M4939.82,837.086L4942.87,837.501L4941.05,804.988L4935.75,803.284L4931.85,803.314L4926.08,805.125L4924.89,837.875L4928.26,837.203L4929.78,807.477L4931.95,806.451L4935.89,806.481L4937.61,807.389L4939.82,837.086Z" style="fill:rgb(160,49,62);fill-rule:nonzero;"/>
                    </g>
                    <g transform="matrix(2.00022,0,0,2.00022,-4916.78,-863.694)">
                        <path d="M4938.53,836.919L4943.12,837.552L4943.12,838.767L4938.57,839.757L4938.53,836.919Z" style="fill:rgb(91,93,94);fill-rule:nonzero;"/>
                    </g>
                    <g transform="matrix(2.00022,0,0,2.00022,-4916.78,-863.694)">
                        <path d="M4929.82,836.919L4924.88,837.821L4924.88,839.003L4929.78,839.757L4929.82,836.919Z" style="fill:rgb(91,93,94);fill-rule:nonzero;"/>
                    </g>
                    <g transform="matrix(2.00022,0,0,2.00022,-4916.78,-863.694)">
                        <g transform="matrix(4.491996,0,0,4.491996,4907.358132,727.510566)">
                            <g transform="matrix(-0.842726,0,0,-0.911114,17.3945,27.9104)">
                                <path d="M10.977,17.122C10.831,16.699 9.753,12.504 9.585,11.555C9.492,11.033 9.318,7.909 9.327,7.546C9.337,7.144 9.383,6.005 9.739,6.04C9.812,6.047 10.604,5.856 10.513,7.546C10.458,8.582 10.928,10.202 11.108,10.949C11.426,12.264 11.773,12.617 12.125,12.876C12.568,13.203 13.621,13.848 13.692,13.91C13.884,14.074 15.007,12.802 15.356,12.169C15.906,11.173 15.97,10.706 16.261,9.614C16.513,8.664 16.095,6.717 16.172,5.249C16.208,4.914 17.533,5.072 17.614,5.162C17.91,5.491 17.838,6.575 17.867,8.375C17.883,9.378 17.778,10.219 17.646,10.739C17.348,11.912 17.31,12.388 16.877,14.015C16.595,15.074 16.056,16.84 15.692,17.34C15.2,18.016 14.307,17.064 13.25,16.985C12.328,16.916 11.218,17.816 10.977,17.122Z" style="fill:rgb(147,220,244);fill-rule:nonzero;"/>
                            </g>
                            <g transform="matrix(0.650606,0,0,0.803994,3.875852,-0.371645)">
                                <path d="M3.518,6.943C4.06,6.951 5.561,6.402 6.382,4.472C6.416,4.39 6.763,3.15 6.652,3.158C6.556,3.165 6.472,2.973 6.465,3.159C6.412,4.692 5.072,6.783 3.518,6.783C2.032,6.783 0.452,4.546 0.553,3.107C0.572,2.831 0.384,3.046 0.29,3.042C0.207,3.038 0.458,4.152 0.486,4.213C1.456,6.328 2.938,6.935 3.518,6.943Z" style="fill:rgb(160,49,62);"/>
                            </g>
                            <g transform="matrix(0.842726,0,0,0.842726,8.63844,6.4292)">
                                <path d="M-3.674,-1.715C-3.115,-1.857 -2.45,-1.857 -1.918,-1.715C-1.714,-1.66 -1.903,-1.237 -1.701,-1.144C-1.377,-0.995 -0.659,-0.644 -0.346,-0.508C0.844,0.012 1.701,1.995 1.764,2.653C1.967,4.769 2.105,7.063 1.229,7.476C0.602,7.771 0.617,4.278 0.605,3.924C0.483,3.654 -0.733,1.8 -0.765,2.049C-0.981,3.704 -0.701,5.851 -0.75,6.962C-0.793,7.955 -2.15,7.735 -3.061,7.736C-3.929,7.737 -5.533,7.821 -5.653,6.962C-5.867,5.43 -5.765,3.699 -5.861,2.459C-5.871,2.322 -7.465,4.079 -7.479,3.906C-7.49,3.769 -7.642,6.959 -8.15,7.312C-8.468,7.533 -8.823,7.683 -8.935,6.037C-9.029,4.668 -8.586,3.197 -8.562,2.967C-8.452,1.888 -6.416,-0.24 -5.729,-0.79C-5.367,-1.08 -4.549,-0.981 -4.113,-1.144C-3.981,-1.194 -3.804,-1.681 -3.674,-1.715Z" style="fill:rgb(194,240,255);fill-rule:nonzero;"/>
                            </g>
                            <g transform="matrix(0.451179,0,0,0.58023,4.54853,0.685696)">
                                <path d="M3.518,0C5.46,0 7.036,1.055 7.036,2.996C7.036,4.938 5.46,7.036 3.518,7.036C1.576,7.036 0,4.938 0,2.996C0,1.055 1.576,0 3.518,0Z" style="fill:rgb(194,240,255);"/>
                            </g>
                            <g transform="matrix(0.222618,0,0,0.222618,-1092.467183,-161.957085)">
                                <g transform="matrix(2.973307,0,0,4.070955,4924.446055,726.505776)">
                                    <path d="M3.518,0C5.46,0 7.036,1.055 7.036,2.996C7.036,3.082 7.137,3.246 7.027,3.253C6.438,3.295 5.374,2.769 3.518,2.769C1.64,2.769 0.454,3.208 0.005,3.189C-0.078,3.186 0,3.06 0,2.996C0,1.055 1.576,0 3.518,0Z" style="fill:rgb(160,49,62);"/>
                                </g>
                                <path d="M4910.66,782.159C4909.552,782.536 4909.766,784.425 4910.79,784.993C4912.055,785.696 4916.324,786.302 4917.589,785.871C4918.661,785.505 4918.639,783.477 4917.65,782.928C4916.385,782.225 4911.925,781.728 4910.66,782.159Z" style="fill:rgb(147,220,244);fill-rule:nonzero;"/>
                            </g>
                            <g transform="matrix(0.222618,0,0,0.222618,-1092.467183,-161.957085)">
                                <path d="M4947.805,783.867C4946.902,784.23 4946.726,785.576 4947.613,785.975C4948.77,786.496 4952.129,786.268 4953.389,785.761C4954.404,785.352 4954.537,783.82 4953.539,783.37C4952.382,782.85 4949.065,783.36 4947.805,783.867Z" style="fill:rgb(147,220,244);fill-rule:nonzero;"/>
                            </g>
                        </g>
                    </g>
                    <g transform="matrix(2.00022,0,0,2.00022,-4916.78,-863.694)">
                        <path d="M4949.89,823.5L4952.77,832.375L4950.6,835.974L4947.67,836.209L4945.52,833.063L4945.64,823.875" style="fill:rgb(89,97,125);fill-rule:nonzero;"/>
                    </g>
                    <g transform="matrix(2.00022,0,0,2.00022,-4916.78,-863.694)">
                        <path d="M4917.874,822.356L4917.858,831.276L4920.387,836.209L4922.97,836.209L4924.87,832.371L4923.77,822.001L4917.874,822.356Z" style="fill:rgb(89,97,125);fill-rule:nonzero;"/>
                    </g>
                    <g transform="matrix(2.00022,0,0,2.00022,-4916.78,-863.694)">
                        <path d="M4925.13,830.589L4913.2,832.191L4914.26,827.266L4925.37,826.334L4925.13,830.589Z" style="fill:rgb(55,56,55);fill-rule:nonzero;"/>
                    </g>
                    <g transform="matrix(2.00022,0,0,2.00022,-4916.78,-863.694)">
                        <path d="M4942.48,829.884L4956.37,830.04L4955.75,825.976L4942.24,825.351L4942.48,829.884Z" style="fill:rgb(55,56,55);fill-rule:nonzero;"/>
                    </g>
                    <g transform="matrix(2.00022,0,0,2.00022,-4916.78,-863.694)">
                        <g opacity="0.5">
                            <path d="M4935.47,800.322L4931.97,796.791L4931.96,796.924C4932.438,796.466 4932.94,796.082 4933.492,795.847L4935.376,797.182L4935.47,800.322Z" style="fill:rgb(23,24,23);fill-rule:nonzero;"/>
                        </g>
                    </g>
                </g>
            </g>
        </g>
    </g>
</svg>
