<?xml version="1.0" encoding="UTF-8" standalone="no"?>
<!DOCTYPE svg PUBLIC "-//W3C//DTD SVG 1.1//EN" "http://www.w3.org/Graphics/SVG/1.1/DTD/svg11.dtd">
<svg width="100%" height="100%" viewBox="0 0 32 32" version="1.1" xmlns="http://www.w3.org/2000/svg" xmlns:xlink="http://www.w3.org/1999/xlink" xml:space="preserve" xmlns:serif="http://www.serif.com/" style="fill-rule:evenodd;clip-rule:evenodd;stroke-linejoin:round;stroke-miterlimit:2;">
    <g transform="matrix(1.23077,0,0,1.23077,22.2512,0)">
        <g id="b">
            <g id="Parking-Front-0" serif:id="Parking Front 0">
                <g transform="matrix(1,0,0,1.13487,-13,-1.16489)">
                    <rect x="16.079" y="8.637" width="0.753" height="15.299" style="fill:rgb(105,105,105);"/>
                </g>
                <g transform="matrix(1.19144,0,0,1.18333,-16.6004,-1.89188)">
                    <path d="M18.951,6.036C18.951,5.444 18.474,4.964 17.887,4.964L15.758,4.964C15.17,4.964 14.693,5.444 14.693,6.036L14.693,8.338C14.693,8.93 15.17,9.41 15.758,9.41L17.887,9.41C18.474,9.41 18.951,8.93 18.951,8.338L18.951,6.036Z" style="fill:rgb(0,99,174);"/>
                </g>
                <g transform="matrix(-0.926087,0,0,0.926087,15.5907,9.22107)">
                    <path d="M11.546,-0.922L11.546,-4.698L12.77,-4.698C13.234,-4.698 13.536,-4.68 13.677,-4.642C13.893,-4.585 14.074,-4.462 14.22,-4.272C14.366,-4.082 14.439,-3.837 14.439,-3.537C14.439,-3.305 14.397,-3.11 14.313,-2.952C14.229,-2.794 14.122,-2.67 13.992,-2.58C13.863,-2.489 13.731,-2.43 13.597,-2.401C13.415,-2.364 13.151,-2.346 12.806,-2.346L12.309,-2.346L12.309,-0.922L11.546,-0.922ZM12.309,-4.06L12.309,-2.988L12.726,-2.988C13.027,-2.988 13.228,-3.008 13.329,-3.047C13.43,-3.087 13.51,-3.148 13.567,-3.233C13.625,-3.317 13.654,-3.415 13.654,-3.526C13.654,-3.664 13.613,-3.777 13.533,-3.866C13.452,-3.956 13.35,-4.011 13.226,-4.034C13.135,-4.051 12.952,-4.06 12.677,-4.06L12.309,-4.06Z" style="fill:white;fill-rule:nonzero;"/>
                </g>
                <g id="Car-Front" serif:id="Car Front" transform="matrix(1.11457,0,0,1.11457,-19.5685,-2.9788)">
                    <g transform="matrix(0.383745,0,0,0.383745,-0.416897,4.42969)">
                        <path d="M24.944,48.952C24.944,48.12 24.268,47.443 23.435,47.443L20.417,47.443C19.584,47.443 18.907,48.12 18.907,48.952L18.907,54.701C18.907,55.534 19.584,56.21 20.417,56.21L23.435,56.21C24.268,56.21 24.944,55.534 24.944,54.701L24.944,48.952Z" style="fill:rgb(83,83,83);"/>
                    </g>
                    <g transform="matrix(0.383745,0,0,0.383745,9.64004,4.42969)">
                        <path d="M24.944,48.952C24.944,48.12 24.268,47.443 23.435,47.443L20.417,47.443C19.584,47.443 18.907,48.12 18.907,48.952L18.907,54.701C18.907,55.534 19.584,56.21 20.417,56.21L23.435,56.21C24.268,56.21 24.944,55.534 24.944,54.701L24.944,48.952Z" style="fill:rgb(83,83,83);"/>
                    </g>
                    <g transform="matrix(0.435562,0,0,0.359699,-2.22833,7.13964)">
                        <path d="M50.507,39.882L19.434,39.846C19.434,39.846 19.297,37.622 20.139,35.636C20.628,34.482 23.811,19.23 25.206,18.648C27.992,17.485 42.913,17.928 44.977,18.703C47.012,19.466 49.031,32.881 49.982,35.065C50.268,35.722 50.426,36.933 50.485,37.995C50.542,39.004 50.507,39.882 50.507,39.882Z" style="fill:rgb(213,69,71);"/>
                    </g>
                    <g transform="matrix(0.444281,0,0,0.383745,0.410085,3.42319)">
                        <path d="M15.885,37.388C15.885,37.018 15.625,36.717 15.305,36.717L12.932,36.717C12.612,36.717 12.353,37.018 12.353,37.388L12.353,38.731C12.353,39.101 12.612,39.402 12.932,39.402L15.305,39.402C15.625,39.402 15.885,39.101 15.885,38.731L15.885,37.388Z" style="fill:rgb(213,69,71);"/>
                    </g>
                    <g transform="matrix(0.444281,0,0,0.383745,13.0443,3.42319)">
                        <path d="M15.885,37.388C15.885,37.018 15.625,36.717 15.305,36.717L12.932,36.717C12.612,36.717 12.353,37.018 12.353,37.388L12.353,38.731C12.353,39.101 12.612,39.402 12.932,39.402L15.305,39.402C15.625,39.402 15.885,39.101 15.885,38.731L15.885,37.388Z" style="fill:rgb(213,69,71);"/>
                    </g>
                    <g transform="matrix(0.395906,0,0,0.18511,-0.741403,10.9921)">
                        <path d="M48.238,44.371C47.728,44.62 21.976,45.941 20.885,44.371C20.263,43.477 23.368,19.876 25.013,18.348C26.502,16.965 42.772,17.367 44.703,18.66C46.511,19.869 49.638,43.689 48.238,44.371Z" style="fill:rgb(231,239,241);"/>
                    </g>
                    <g transform="matrix(0.394022,0,0,0.464005,0.395272,-0.019474)">
                        <path d="M49.174,45.45C49.174,45.043 48.785,44.713 48.306,44.713L15.694,44.713C15.215,44.713 14.826,45.043 14.826,45.45L14.826,51.349C14.826,51.756 15.215,52.086 15.694,52.086L48.306,52.086C48.785,52.086 49.174,51.756 49.174,51.349L49.174,45.45Z" style="fill:rgb(213,69,71);"/>
                    </g>
                    <g transform="matrix(0.383745,0,0,0.596547,0.591629,-3.61244)">
                        <path d="M24.858,43.311C24.858,43.054 24.533,42.844 24.132,42.844L19.146,42.844C18.745,42.844 18.419,43.054 18.419,43.311L18.419,44.246C18.419,44.503 18.745,44.713 19.146,44.713L24.132,44.713C24.533,44.713 24.858,44.503 24.858,44.246L24.858,43.311Z" style="fill:rgb(255,231,159);"/>
                    </g>
                    <g transform="matrix(0.383745,0,0,0.596547,8.80877,-3.61244)">
                        <path d="M24.858,43.311C24.858,43.054 24.533,42.844 24.132,42.844L19.146,42.844C18.745,42.844 18.419,43.054 18.419,43.311L18.419,44.246C18.419,44.503 18.745,44.713 19.146,44.713L24.132,44.713C24.533,44.713 24.858,44.503 24.858,44.246L24.858,43.311Z" style="fill:rgb(255,231,159);"/>
                    </g>
                    <g transform="matrix(0.383745,0,0,0.383745,0.670765,7.51383)">
                        <rect x="25.612" y="39.486" width="13.413" height="0.518" style="fill:rgb(83,83,83);"/>
                    </g>
                </g>
            </g>
        </g>
    </g>
</svg>
