<?xml version="1.0" encoding="UTF-8" standalone="no"?>
<!DOCTYPE svg PUBLIC "-//W3C//DTD SVG 1.1//EN" "http://www.w3.org/Graphics/SVG/1.1/DTD/svg11.dtd">
<svg width="100%" height="100%" viewBox="0 0 26 26" version="1.1" xmlns="http://www.w3.org/2000/svg" xmlns:xlink="http://www.w3.org/1999/xlink" xml:space="preserve" xmlns:serif="http://www.serif.com/" style="fill-rule:evenodd;clip-rule:evenodd;stroke-linejoin:round;stroke-miterlimit:2;">
    <g transform="matrix(1,0,0,1,1.42109e-14,1.29838)">
        <g id="b">
            <g>
                <g transform="matrix(1,0,0,1,-1.42109e-14,-1.29838)">
                    <path d="M4.515,16.391L3.056,19.843C3.056,19.843 2.863,21.824 4.514,21.824C6.165,21.824 6.058,19.843 6.058,19.843L4.515,16.391ZM4.187,19.632C4.417,19.632 4.604,19.913 4.604,20.258C4.604,20.604 4.417,20.885 4.187,20.885C3.956,20.885 3.769,20.604 3.769,20.258C3.769,19.913 3.956,19.632 4.187,19.632Z" style="fill:white;fill-rule:nonzero;"/>
                </g>
                <g transform="matrix(0.417469,0,0,0.417469,5.43894,19.5862)">
                    <path d="M0,0L0,1L0,0Z" style="fill:rgb(164,236,255);"/>
                </g>
                <g transform="matrix(0.417469,0,0,0.417469,2.21316,14.4526)">
                    <rect x="0" y="0" width="11.219" height="17.61" style="fill:none;"/>
                </g>
                <g transform="matrix(1,0,0,1,-1.42109e-14,-1.29838)">
                    <path d="M10.803,17.853C10.803,17.853 8.457,20.074 8.413,20.554C8.368,21.034 8.096,22.103 10.802,22.103C13.509,22.103 13.314,21.082 13.332,20.554C13.35,20.025 10.803,17.853 10.803,17.853ZM12.327,21.302C12.442,21.302 12.536,21.396 12.536,21.511C12.536,21.626 12.442,21.72 12.327,21.72C12.212,21.72 12.118,21.626 12.118,21.511C12.118,21.396 12.212,21.302 12.327,21.302ZM10.031,20.467C10.492,20.467 10.866,20.654 10.866,20.885C10.866,21.115 10.492,21.302 10.031,21.302C9.57,21.302 9.196,21.115 9.196,20.885C9.196,20.654 9.57,20.467 10.031,20.467Z" style="fill:white;fill-rule:nonzero;"/>
                </g>
                <g transform="matrix(1,0,0,1,-1.42109e-14,-1.29838)">
                    <path d="M9.184,18.37C8.884,17.978 8.637,17.515 8.466,16.996C7.801,14.979 8.545,12.881 10.121,12.313C11.698,11.744 13.514,12.919 14.178,14.937C14.717,16.578 14.329,18.271 13.317,19.152C13.017,18.845 12.693,18.532 12.379,18.237C13.27,17.747 13.653,16.435 13.235,15.163C12.783,13.787 11.563,12.979 10.512,13.358C9.461,13.737 8.976,15.16 9.428,16.536C9.558,16.93 9.751,17.278 9.984,17.565C9.744,17.803 9.467,18.079 9.184,18.37Z" style="fill:white;"/>
                </g>
                <g transform="matrix(1,0,0,1,-1.42109e-14,-1.29838)">
                    <path d="M14.077,13.236C19.896,8.607 22.584,7.141 22.72,7.068C23.081,7.494 23.378,8.017 23.574,8.613C24.207,10.538 23.563,12.534 22.134,13.208L14.944,18.058C15.229,17.068 15.217,15.908 14.842,14.769C14.655,14.199 14.393,13.683 14.077,13.236ZM11.277,11.386L18.584,6.588C18.847,6.322 19.166,6.117 19.517,5.989C20.428,5.661 21.418,5.914 22.22,6.574C21.635,6.403 16.234,10.573 13.596,12.649C12.929,11.949 12.114,11.501 11.277,11.386Z" style="fill:white;fill-rule:nonzero;"/>
                </g>
                <g transform="matrix(1,0,0,1,-1.42109e-14,-1.29838)">
                    <path d="M2.939,17.723C2.732,17.4 2.558,17.038 2.428,16.645C1.763,14.628 2.507,12.529 4.083,11.961C5.611,11.41 7.363,12.496 8.074,14.399C7.879,15.226 7.91,16.171 8.217,17.101C8.225,17.127 8.234,17.153 8.243,17.179C8.009,18.061 7.489,18.785 6.753,19.154L6.214,17.949C7.195,17.518 7.635,16.143 7.197,14.812C6.745,13.436 5.526,12.628 4.475,13.006C3.423,13.386 2.938,14.808 3.39,16.184C3.418,16.27 3.449,16.353 3.483,16.434L2.939,17.723Z" style="fill:white;"/>
                </g>
                <g transform="matrix(1,0,0,1,-1.42109e-14,-1.29838)">
                    <path d="M16.682,6.717C16.803,6.86 16.917,7.013 17.023,7.178L10.17,11.677L10.181,11.675L9.224,12.304L9.23,12.303C8.852,12.526 8.535,12.843 8.288,13.227C8.086,12.885 7.854,12.576 7.6,12.303L16.325,6.363L16.682,6.717ZM5.274,11.012L12.546,6.237C12.809,5.97 13.128,5.765 13.479,5.637C14.383,5.312 15.365,5.558 16.164,6.207L16.182,6.223L7.456,12.156C6.819,11.528 6.056,11.123 5.274,11.012Z" style="fill:white;fill-rule:nonzero;"/>
                </g>
                <g transform="matrix(0.417469,0,0,0.417469,7.03075,16.0544)">
                    <rect x="0" y="0" width="18.387" height="13.773" style="fill:none;"/>
                </g>
            </g>
        </g>
    </g>
</svg>
