<?xml version="1.0" encoding="UTF-8" standalone="no"?>
<!DOCTYPE svg PUBLIC "-//W3C//DTD SVG 1.1//EN" "http://www.w3.org/Graphics/SVG/1.1/DTD/svg11.dtd">
<svg width="100%" height="100%" viewBox="0 0 32 32" version="1.1" xmlns="http://www.w3.org/2000/svg" xmlns:xlink="http://www.w3.org/1999/xlink" xml:space="preserve" xmlns:serif="http://www.serif.com/" style="fill-rule:evenodd;clip-rule:evenodd;stroke-linejoin:round;stroke-miterlimit:2;">
    <g transform="matrix(1.23077,0,0,1.23077,22.258,0)">
        <g id="Car-Rear" serif:id="Car Rear" transform="matrix(-0.992759,-2.25514e-17,-2.00868e-17,1.11457,3.71267,-2.9788)">
            <g id="b">
                <g id="Parking-Front-90" serif:id="Parking Front 90">
                    <g id="Car-Rear1" serif:id="Car Rear">
                        <g transform="matrix(-0.829678,-1.67871e-17,-1.86067e-17,0.919608,29.5214,-3.42747)">
                            <circle cx="27.295" cy="29.449" r="2.551" style="fill:rgb(83,83,83);"/>
                        </g>
                        <g transform="matrix(-0.798301,-1.61523e-17,-1.7903e-17,0.88483,40.2446,-2.31457)">
                            <circle cx="27.295" cy="29.449" r="2.551" style="fill:rgb(83,83,83);"/>
                        </g>
                        <g transform="matrix(0.435562,0,0,0.359699,-4.09976,7.13964)">
                            <path d="M59.811,39.882L14.488,39.84C14.488,39.84 14.528,36.181 14.899,34.988C15.075,34.42 15.861,34.289 16.357,33.962C17.225,33.39 22.158,31.666 22.928,30.272C25.462,25.681 29.775,18.985 30.583,18.648C33.369,17.485 44.754,16.711 49.312,18.648C50.582,19.188 53.322,27.607 53.634,30.272C53.802,31.704 57.019,33.043 58.7,34.475C59.813,35.423 59.73,36.933 59.789,37.995C59.846,39.004 59.811,39.882 59.811,39.882Z" style="fill:rgb(213,69,71);"/>
                        </g>
                        <g transform="matrix(0.395906,0,0,0.18511,-2.61284,10.9921)">
                            <path d="M41.095,38.198L39.593,38.244" style="fill:none;"/>
                        </g>
                        <g transform="matrix(0.430274,6.95376e-19,3.2513e-19,0.18511,-3.48773,10.9921)">
                            <path d="M39.172,38.244C38.366,39.403 25.949,38.395 25.493,37.581C24.991,36.687 29.842,20.598 31.487,19.07C32.2,18.408 38.387,17.029 38.751,17.894C39.116,18.758 39.632,37.581 39.172,38.244Z" style="fill:rgb(231,239,241);"/>
                        </g>
                        <g transform="matrix(0.395906,0,0,0.18511,-2.61284,10.9921)">
                            <path d="M39.172,17.894L40.353,17.87" style="fill:none;"/>
                        </g>
                        <g transform="matrix(0.328839,-1.35698e-18,-6.34469e-19,0.18511,0.88469,10.9921)">
                            <path d="M40.34,17.916C40.69,17.086 47.246,18.094 48.151,18.7C49.959,19.909 53.037,36.899 51.907,37.581C51.725,37.691 41.532,39.011 41.082,38.244C40.721,37.628 39.99,18.746 40.34,17.916Z" style="fill:rgb(231,239,241);"/>
                        </g>
                        <g transform="matrix(0.394022,0,0,0.464005,-1.47616,-0.019474)">
                            <path d="M59.47,45.45C59.47,45.043 59.081,44.713 58.602,44.713L10.244,44.713C9.765,44.713 9.376,45.043 9.376,45.45L9.376,51.349C9.376,51.756 9.765,52.086 10.244,52.086L58.602,52.086C59.081,52.086 59.47,51.756 59.47,51.349L59.47,45.45Z" style="fill:rgb(213,69,71);"/>
                        </g>
                        <g transform="matrix(0.444281,-1.54074e-33,-3.08149e-33,0.383745,5.96543,3.42319)">
                            <path d="M6.542,37.473C6.542,37.056 6.249,36.717 5.888,36.717L3.216,36.717C2.856,36.717 2.564,37.056 2.564,37.473L2.564,38.985C2.564,39.401 2.856,39.74 3.216,39.74L5.888,39.74C6.249,39.74 6.542,39.401 6.542,38.985L6.542,37.473Z" style="fill:rgb(112,122,134);"/>
                        </g>
                        <g transform="matrix(0.12452,-6.4698e-18,-5.58826e-18,0.383745,2.14877,6.05753)">
                            <path d="M6.542,37.473C6.542,37.056 6.249,36.717 5.888,36.717L3.216,36.717C2.856,36.717 2.564,37.056 2.564,37.473L2.564,38.985C2.564,39.401 2.856,39.74 3.216,39.74L5.888,39.74C6.249,39.74 6.542,39.401 6.542,38.985L6.542,37.473Z" style="fill:rgb(255,231,159);"/>
                        </g>
                        <g transform="matrix(0.12452,-5.90966e-19,-5.10444e-19,0.132782,2.93855,15.2722)">
                            <path d="M6.542,37.473C6.542,37.056 6.249,36.717 5.888,36.717L3.216,36.717C2.856,36.717 2.564,37.056 2.564,37.473L2.564,38.985C2.564,39.401 2.856,39.74 3.216,39.74L5.888,39.74C6.249,39.74 6.542,39.401 6.542,38.985L6.542,37.473Z" style="fill:rgb(255,113,15);"/>
                        </g>
                        <g transform="matrix(0.12452,-5.90966e-19,-5.10444e-19,0.132782,19.6768,15.2722)">
                            <path d="M6.542,37.473C6.542,37.056 6.249,36.717 5.888,36.717L3.216,36.717C2.856,36.717 2.564,37.056 2.564,37.473L2.564,38.985C2.564,39.401 2.856,39.74 3.216,39.74L5.888,39.74C6.249,39.74 6.542,39.401 6.542,38.985L6.542,37.473Z" style="fill:rgb(255,113,15);"/>
                        </g>
                        <g transform="matrix(0.12452,-6.4698e-18,-5.58826e-18,0.383745,20.7537,6.05753)">
                            <path d="M6.542,37.473C6.542,37.056 6.249,36.717 5.888,36.717L3.216,36.717C2.856,36.717 2.564,37.056 2.564,37.473L2.564,38.985C2.564,39.401 2.856,39.74 3.216,39.74L5.888,39.74C6.249,39.74 6.542,39.401 6.542,38.985L6.542,37.473Z" style="fill:rgb(204,10,0);"/>
                        </g>
                        <g transform="matrix(0.114421,2.31511e-18,-7.76442e-18,0.383745,-0.712175,7.28559)">
                            <rect x="25.612" y="39.486" width="13.413" height="0.518" style="fill:rgb(83,83,83);"/>
                        </g>
                        <g transform="matrix(0.114421,2.31511e-18,-7.76442e-18,0.383745,17.491,7.28559)">
                            <rect x="25.612" y="39.486" width="13.413" height="0.518" style="fill:rgb(83,83,83);"/>
                        </g>
                    </g>
                </g>
            </g>
        </g>
        <g transform="matrix(1,0,0,1,-7.03629,0)">
            <g transform="matrix(0.999999,2.77556e-17,-2.77556e-17,0.999999,-7.14512,-2.22045e-15)">
                <rect x="16.079" y="8.637" width="0.753" height="15.299" style="fill:rgb(105,105,105);"/>
            </g>
            <g transform="matrix(0.8,0,0,0.999999,7.45487,-0.690176)">
                <path d="M9.371,39.69L9.371,24.282L1.5,24.282C1.102,24.282 0.721,24.409 0.439,24.634C0.158,24.859 -0,25.164 -0,25.482L0,39.69L9.371,39.69Z" style="fill:rgb(160,160,160);"/>
            </g>
            <g transform="matrix(0.540918,0,0,0.999999,8.05441,-0.690176)">
                <rect x="3.213" y="24.282" width="9.538" height="15.408" style="fill:rgb(125,125,125);"/>
            </g>
            <g transform="matrix(-0.524845,0,0,0.538296,14.8994,10.0219)">
                <g>
                    <g transform="matrix(-0.842726,1.03204e-16,-1.11579e-16,-0.911114,17.3945,27.9104)">
                        <path d="M10.977,17.122C10.831,16.699 11.336,6.86 11.329,5.898C11.324,5.198 11.164,3.586 11.387,3.287C11.551,3.067 11.752,2.935 12.108,2.97C12.181,2.977 12.901,2.887 12.994,4.011C13.19,5.854 13.056,10.841 13.204,12.993C13.244,13.579 13.621,13.848 13.692,13.91C13.884,14.074 14.163,13.514 14.249,12.807C14.364,11.876 14.737,10.447 14.775,9.29C14.807,8.312 14.538,4.782 14.615,3.314C14.652,2.979 15.976,3.136 16.058,3.227C16.354,3.556 16.739,8.668 16.741,9.202C16.748,10.845 16.476,13.091 16.218,14.864C16.06,15.945 16.056,16.84 15.692,17.34C15.2,18.016 14.307,17.064 13.25,16.985C12.328,16.916 11.218,17.816 10.977,17.122Z" style="fill:rgb(125,150,159);fill-rule:nonzero;"/>
                    </g>
                    <g transform="matrix(0.842726,0,0,0.842726,8.63844,6.4292)">
                        <path d="M-3.674,-1.715C-3.115,-1.857 -2.45,-1.857 -1.918,-1.715C-1.714,-1.66 -1.903,-1.237 -1.701,-1.144C-1.377,-0.995 -0.825,-0.904 -0.486,-0.858C0.923,-0.667 1.038,2.221 1.101,2.879C1.304,4.995 1.306,8.759 0.43,9.732C-0.033,10.247 0.542,5.729 0.333,5.166C0.203,4.817 -0.379,2.663 -0.411,2.912C-0.627,4.567 -0.701,5.851 -0.75,6.962C-0.793,7.955 -2.15,7.735 -3.061,7.736C-3.929,7.737 -5.533,7.821 -5.653,6.962C-5.867,5.43 -5.853,4.119 -5.949,2.879C-5.959,2.742 -6.91,5.358 -6.924,5.185C-6.935,5.048 -6.099,9.975 -6.607,10.328C-6.925,10.549 -7.6,7.024 -7.712,5.378C-7.806,4.009 -7.552,3.197 -7.528,2.967C-7.418,1.888 -6.854,-0.485 -5.729,-0.79C-5.281,-0.911 -4.549,-0.981 -4.113,-1.144C-3.981,-1.194 -3.804,-1.681 -3.674,-1.715Z" style="fill:rgb(151,180,190);fill-rule:nonzero;"/>
                    </g>
                    <g transform="matrix(0.451179,0,0,0.58023,4.54853,0.685696)">
                        <path d="M3.518,0C5.46,0 7.036,1.055 7.036,2.996C7.036,4.938 5.46,7.036 3.518,7.036C1.576,7.036 0,4.938 0,2.996C0,1.055 1.576,0 3.518,0Z" style="fill:rgb(151,180,190);"/>
                    </g>
                </g>
            </g>
            <g transform="matrix(1.19143,1.39632e-07,1.90064e-07,1.18333,-10.7455,-1.89188)">
                <path d="M18.951,6.036C18.951,5.444 18.474,4.964 17.887,4.964L15.758,4.964C15.17,4.964 14.693,5.444 14.693,6.036L14.693,8.338C14.693,8.93 15.17,9.41 15.758,9.41L17.887,9.41C18.474,9.41 18.951,8.93 18.951,8.338L18.951,6.036Z" style="fill:rgb(0,99,174);"/>
            </g>
            <g transform="matrix(-0.926085,-9.53441e-08,-9.53441e-08,0.926085,21.3289,9.21502)">
                <path d="M11.546,-0.922L11.546,-4.698L12.77,-4.698C13.234,-4.698 13.536,-4.68 13.677,-4.642C13.893,-4.585 14.074,-4.462 14.22,-4.272C14.366,-4.082 14.439,-3.837 14.439,-3.537C14.439,-3.305 14.397,-3.11 14.313,-2.952C14.229,-2.794 14.122,-2.67 13.992,-2.58C13.863,-2.489 13.731,-2.43 13.597,-2.401C13.415,-2.364 13.151,-2.346 12.806,-2.346L12.309,-2.346L12.309,-0.922L11.546,-0.922ZM12.309,-4.06L12.309,-2.988L12.726,-2.988C13.027,-2.988 13.228,-3.008 13.329,-3.047C13.43,-3.087 13.51,-3.148 13.567,-3.233C13.625,-3.317 13.654,-3.415 13.654,-3.526C13.654,-3.664 13.613,-3.777 13.533,-3.866C13.452,-3.956 13.35,-4.011 13.226,-4.034C13.135,-4.051 12.952,-4.06 12.677,-4.06L12.309,-4.06Z" style="fill:white;fill-rule:nonzero;"/>
            </g>
            <g id="Street-Lamp" serif:id="Street Lamp" transform="matrix(0.999999,0,0,0.999999,-11.0486,0)">
                <g transform="matrix(1.01033,0,0,0.787888,-0.0874172,4.59095)">
                    <path d="M15.642,-28.594L14.912,-28.818L15.358,-29.249L24.921,-23.204L25.083,-0.219L25.107,-23.204L24.921,-23.763L14.912,-29.43L13.507,-29.249L12.61,-29.524C12.61,-29.524 12.669,-28.999 13.99,-28.594C15.31,-28.188 15.642,-28.594 15.642,-28.594Z" style="fill:rgb(255,225,0);"/>
                </g>
                <path d="M15.716,-18.139L24.928,-13.37L25.182,5.477L25.596,5.477L25.182,-15.23L15.716,-18.873L15.716,-19.108L12.686,-19.598C12.686,-19.598 12.373,-19.633 12.378,-19.108C12.381,-18.763 12.653,-18.671 12.653,-18.671L15.716,-17.938L15.716,-18.139Z" style="fill:rgb(204,204,204);"/>
                <g transform="matrix(1.01033,0,0,0.787888,-0.0874172,4.59095)">
                    <path d="M25.462,-25.653L24.746,-25.653L24.759,23.592L25.568,23.592L25.462,-25.653Z" style="fill:rgb(182,182,182);"/>
                </g>
                <g transform="matrix(1.80416,0,0,0.0403742,-19.9971,22.6396)">
                    <path d="M25.449,3.122L24.806,3.122L24.759,23.592L25.495,23.592L25.449,3.122Z" style="fill:rgb(91,91,91);"/>
                </g>
            </g>
        </g>
    </g>
</svg>
