<?xml version="1.0" encoding="UTF-8" standalone="no"?>
<!DOCTYPE svg PUBLIC "-//W3C//DTD SVG 1.1//EN" "http://www.w3.org/Graphics/SVG/1.1/DTD/svg11.dtd">
<svg width="100%" height="100%" viewBox="0 0 32 32" version="1.1" xmlns="http://www.w3.org/2000/svg" xmlns:xlink="http://www.w3.org/1999/xlink" xml:space="preserve" xmlns:serif="http://www.serif.com/" style="fill-rule:evenodd;clip-rule:evenodd;stroke-linejoin:round;stroke-miterlimit:2;">
    <g transform="matrix(0.633906,0,0,0.633906,-21.6768,-31.5199)">
        <g transform="matrix(0.2,0,0,0.2,20.107,18.318)">
            <path d="M213.739,284.552L186.793,300.674L139.233,261.218L139.233,234.324L166.179,218.202L213.739,257.657L213.739,284.552Z" style="fill:rgb(67,67,67);"/>
        </g>
        <g transform="matrix(0.2,0,0,0.2,20.107,17.3364)">
            <path d="M263.767,330.962L236.821,347.084L186.793,305.582L186.793,290.582L213.739,262.565L263.767,304.067L263.767,330.962Z" style="fill:rgb(67,67,67);"/>
        </g>
        <g transform="matrix(0.2,0,0,0.2,20.107,17.3364)">
            <path d="M213.739,262.565L263.767,304.067L236.821,332.084L186.793,290.582L213.739,262.565Z" style="fill:rgb(113,110,110);"/>
        </g>
        <g transform="matrix(0.2,0,0,0.2,10.1547,24.2678)">
            <path d="M353.846,272.452L236.555,342.628L138.967,261.67L138.967,246.67L256.258,176.494L353.846,257.452L353.846,272.452Z" style="fill:rgb(67,67,67);"/>
        </g>
        <g transform="matrix(0.2,0,0,0.2,10.1547,24.2678)">
            <path d="M353.846,257.452L236.555,327.628L138.967,246.67L256.258,176.494L353.846,257.452Z" style="fill:rgb(146,145,145);"/>
        </g>
        <g transform="matrix(0.2,0,0,0.2,20.107,18.318)">
            <path d="M270.977,295.115L217.89,326.877L120.114,245.763L173.201,214.001L270.977,295.115Z" style="fill:rgb(176,172,172);"/>
        </g>
        <g transform="matrix(0.2,0,0,0.2,20.107,18.318)">
            <path d="M270.977,295.115L217.89,326.877L120.114,245.763L173.201,214.001L270.977,295.115Z" style="fill:rgb(85,85,85);"/>
        </g>
        <g transform="matrix(0.2,0,0,0.2,20.107,18.318)">
            <path d="M217.89,338.772L217.89,326.877L120.114,245.763L120.114,257.657L217.89,338.772Z" style="fill:rgb(67,67,67);"/>
        </g>
        <g transform="matrix(0.2,0,0,0.2,10.1547,24.2678)">
            <path d="M353.846,272.452L236.555,342.628L236.555,327.628L267.652,309.022L267.652,297.128L320.738,265.366L320.738,277.26L353.846,257.452L353.846,272.452Z" style="fill:rgb(53,53,53);"/>
        </g>
    </g>
</svg>
