<?xml version="1.0" encoding="UTF-8" standalone="no"?>
<!DOCTYPE svg PUBLIC "-//W3C//DTD SVG 1.1//EN" "http://www.w3.org/Graphics/SVG/1.1/DTD/svg11.dtd">
<svg width="100%" height="100%" viewBox="0 0 32 32" version="1.1" xmlns="http://www.w3.org/2000/svg" xmlns:xlink="http://www.w3.org/1999/xlink" xml:space="preserve" xmlns:serif="http://www.serif.com/" style="fill-rule:evenodd;clip-rule:evenodd;stroke-linejoin:round;stroke-miterlimit:2;">
    <g transform="matrix(0.633906,0,0,0.633906,-21.6768,-31.5199)">
        <g transform="matrix(0.2,0,0,0.2,10.1547,24.2678)">
            <path d="M353.846,272.452L236.555,342.628L138.967,261.67L138.967,246.67L256.258,176.494L353.846,257.452L353.846,272.452Z" style="fill:rgb(67,67,67);"/>
        </g>
        <g transform="matrix(0.2,0,0,0.2,10.1547,24.2678)">
            <path d="M353.846,257.452L236.555,327.628L138.967,246.67L256.258,176.494L353.846,257.452Z" style="fill:rgb(85,85,85);"/>
        </g>
        <g transform="matrix(0.2,0,0,0.2,10.1547,24.2678)">
            <path d="M353.846,272.452L236.555,342.628L236.555,327.628L353.846,257.452L353.846,272.452Z" style="fill:rgb(53,53,53);"/>
        </g>
    </g>
    <g transform="matrix(1.18232,0.030254,0,1.38276,-7.01941,-7.3645)">
        <g transform="matrix(0.0912059,0,0,0.0859575,10.1679,8.24299)">
            <path d="M20.111,82.198C20.464,82.873 21.859,84.307 22.525,84.768C33.332,92.231 54.363,106.757 62.657,112.484C64.717,113.907 67.471,113.788 69.4,112.192L112.113,87.485C112.609,87.074 114.134,85.313 114.134,85.313C114.134,86.131 114.134,84.965 114.134,85.783C114.134,87.637 113.542,94.332 112.113,95.514L69.4,120.221C67.471,121.817 64.717,121.937 62.657,120.514C54.363,114.786 33.332,100.261 22.525,92.797C21.017,91.755 20.115,85.151 20.111,83.318C20.109,82.287 20.117,83.058 20.111,82.198C20.163,82.198 114.134,85.313 114.134,85.313C114.134,85.313 20.059,82.198 20.111,82.198Z" style="fill:url(#_Linear1);fill-rule:nonzero;"/>
        </g>
        <g transform="matrix(0.0912059,0,0,0.0912058,10.1628,8.24763)">
            <path d="M41.258,60.655L87.42,61.4C87.42,61.4 106.621,73.067 111.286,75.471C112.913,76.308 113.994,77.853 114.171,79.593C114.348,81.334 113.598,83.043 112.169,84.157L69.456,107.443C67.527,108.947 64.773,109.059 62.713,107.719C54.419,102.321 33.388,88.631 22.581,81.597C21.073,80.615 20.171,78.999 20.167,77.271C20.163,75.544 21.058,73.924 22.562,72.936C27.512,69.684 41.258,60.655 41.258,60.655ZM86.761,70.548C87.897,73.106 86.488,75.67 84.108,77.3C70.777,86.434 58.346,87.085 43.622,77.789C41.264,76.3 39.863,73.824 40.821,71.305C41.934,68.28 43.272,64.76 43.272,64.76C59.758,72.482 69.363,71.45 84.005,64.335C84.005,64.335 85.473,67.644 86.761,70.548Z" style="fill:rgb(255,135,0);"/>
        </g>
        <g transform="matrix(0.114417,-2.63821e-18,0,0.0912058,9.08077,8.57547)">
            <path d="M55.906,21.289C57.533,17.59 58.888,15.005 59.681,14.485C61.421,13.342 63.699,13.225 65.561,14.184C66.648,14.744 68.402,17.572 70.455,21.586L70.553,21.778C70.553,21.778 74.364,29.819 75.899,33.24C77.244,36.237 78.522,39.261 79.764,42.298C80.597,44.332 82.146,48.193 83.634,51.912L83.681,51.894L83.888,52.412C86.011,57.72 87.42,61.4 87.42,61.4C87.42,61.4 90.677,71.941 90.785,73.054C90.893,74.168 90.331,77.067 89.561,77.789C87.08,80.118 82.468,84.554 75.899,86.769C69.33,88.984 60.004,88.844 52.659,86.978C45.313,85.113 41.854,81.451 38.676,79.385C37.799,78.815 37.202,75.907 37.2,74.802C37.197,73.697 41.258,60.655 41.258,60.655C41.258,60.655 42.524,56.923 44.405,51.578L44.439,51.591C45.721,47.945 47.069,44.124 47.804,42.078C48.936,38.924 50.096,35.777 51.313,32.65C52.651,29.214 53.512,27.697 55.828,21.466L55.906,21.289Z" style="fill:rgb(181,96,0);"/>
        </g>
        <g transform="matrix(0.111314,-3.77576e-19,0,0.0912058,9.28163,8.24763)">
            <path d="M55.906,21.289C57.533,17.59 58.888,15.005 59.681,14.485C61.421,13.342 63.699,13.225 65.561,14.184C66.648,14.744 68.402,17.572 70.455,21.586L70.553,21.778C70.553,21.778 74.364,29.819 75.899,33.24C77.244,36.237 78.522,39.261 79.764,42.298C80.597,44.332 82.146,48.193 83.634,51.912L83.681,51.894L83.888,52.412C86.011,57.72 87.42,61.4 87.42,61.4C87.42,61.4 90.677,71.941 90.785,73.054C90.893,74.168 90.331,77.067 89.561,77.789C87.08,80.118 82.468,84.554 75.899,86.769C69.33,88.984 60.004,88.844 52.659,86.978C45.313,85.113 41.854,81.451 38.676,79.385C37.799,78.815 37.202,75.907 37.2,74.802C37.197,73.697 41.258,60.655 41.258,60.655C41.258,60.655 42.524,56.923 44.405,51.578L44.439,51.591C45.721,47.945 47.069,44.124 47.804,42.078C48.936,38.924 50.096,35.777 51.313,32.65C52.651,29.214 53.512,27.697 55.828,21.466L55.906,21.289Z" style="fill:url(#_Linear2);"/>
        </g>
        <g transform="matrix(0.111314,-3.77576e-19,0,0.0912058,9.28163,8.24763)">
            <path d="M86.761,70.548C87.897,73.106 86.488,75.67 84.108,77.3C70.777,86.434 58.346,87.085 43.622,77.789C41.264,76.3 39.863,73.824 40.821,71.305C41.934,68.28 43.272,64.76 43.272,64.76C59.758,72.482 69.363,71.45 84.005,64.335C84.005,64.335 85.473,67.644 86.761,70.548ZM51.087,43.722L47.891,52.818C58.682,56.315 69.285,56.575 79.689,53.32L76.282,44.431C69.154,47.236 57.027,45.679 51.087,43.722ZM58.771,21.853L54.676,33.509C60.605,34.815 66.476,34.999 72.288,34.009L67.7,22.038C64.741,22.227 61.764,22.165 58.771,21.853Z" style="fill:white;"/>
        </g>
    </g>
    <g transform="matrix(0.51647,-0.0431605,0.0431605,0.51647,13.443,11.2284)">
        <path d="M21.06,4.946C20.971,4.599 20.365,4.282 20.107,4.536L17.189,7.383L14.519,6.945L14.068,4.338L16.986,1.491C17.245,1.238 17.339,-0.199 16.981,-0.286C15.116,-0.744 12.845,0.739 11.393,2.156C9.838,3.671 9.815,6.386 10.469,8.311L0.107,16.543C-0.874,17.5 -0.671,19.879 0.314,20.841C0.786,21.302 1.428,21.563 2.095,21.565C2.763,21.566 3.403,21.308 3.873,20.849L13.178,10.704C15.15,11.35 17.856,11.523 19.422,9.995C20.86,8.727 21.487,6.797 21.061,4.949L21.06,4.946Z" style="fill:rgb(48,48,48);fill-rule:nonzero;"/>
    </g>
    <g transform="matrix(0.51647,-0.0431605,0.0431605,0.51647,13.3998,10.712)">
        <path d="M19.975,4.482C19.926,4.282 19.745,4.14 19.539,4.14C19.419,4.14 19.304,4.188 19.22,4.273L16.427,7.09L13.878,6.662L13.453,4.091L16.246,1.274C16.33,1.189 16.378,1.073 16.378,0.953C16.378,0.745 16.235,0.561 16.033,0.51C14.191,0.05 12.238,0.598 10.905,1.95C9.416,3.45 9.387,6.125 10.008,8.023L0.287,16.981C-0.645,17.925 -0.645,19.465 0.287,20.409C0.736,20.864 1.348,21.12 1.987,21.12C2.626,21.12 3.238,20.864 3.687,20.409L12.587,10.375C14.469,11.008 17.052,11.175 18.55,9.661C19.894,8.303 20.434,6.336 19.973,4.482L19.975,4.482Z" style="fill:rgb(185,185,185);fill-rule:nonzero;"/>
    </g>
    <defs>
        <linearGradient id="_Linear1" x1="0" y1="0" x2="1" y2="0" gradientUnits="userSpaceOnUse" gradientTransform="matrix(10.3962,-0.241352,0,6.05941,60.6049,100.911)"><stop offset="0" style="stop-color:rgb(200,106,0);stop-opacity:1"/><stop offset="1" style="stop-color:rgb(117,62,0);stop-opacity:1"/></linearGradient>
        <linearGradient id="_Linear2" x1="0" y1="0" x2="1" y2="0" gradientUnits="userSpaceOnUse" gradientTransform="matrix(11.3438,-0.302913,0,11.8378,57.3485,50.4332)"><stop offset="0" style="stop-color:rgb(255,144,20);stop-opacity:1"/><stop offset="1" style="stop-color:rgb(169,89,0);stop-opacity:1"/></linearGradient>
    </defs>
</svg>
