<?xml version="1.0" encoding="UTF-8" standalone="no"?>
<!DOCTYPE svg PUBLIC "-//W3C//DTD SVG 1.1//EN" "http://www.w3.org/Graphics/SVG/1.1/DTD/svg11.dtd">
<svg width="100%" height="100%" viewBox="0 0 32 32" version="1.1" xmlns="http://www.w3.org/2000/svg" xmlns:xlink="http://www.w3.org/1999/xlink" xml:space="preserve" xmlns:serif="http://www.serif.com/" style="fill-rule:evenodd;clip-rule:evenodd;stroke-linejoin:round;stroke-miterlimit:2;">
    <g transform="matrix(0.633906,0,0,0.633906,-21.6768,-31.5199)">
        <g transform="matrix(0.2,0,0,0.2,10.1547,24.2678)">
            <path d="M353.846,272.452L236.555,342.628L138.967,261.67L138.967,246.67L256.258,176.494L353.846,257.452L353.846,272.452Z" style="fill:rgb(67,67,67);"/>
        </g>
        <g transform="matrix(0.2,0,0,0.2,10.1547,24.2678)">
            <path d="M353.846,257.452L236.555,327.628L138.967,246.67L256.258,176.494L353.846,257.452Z" style="fill:rgb(113,103,88);"/>
        </g>
        <g transform="matrix(1,0,0,1,-1.02128,0.488436)">
            <g transform="matrix(1.57752,0,0,1.57752,-45.3107,-23.6965)">
                <path d="M76.604,63.331L76.604,64.081L68.495,68.932L66.897,67.609L66.897,66.859L76.604,63.331ZM72.364,59.818L72.364,60.568L64.255,65.42L62.657,64.096L62.657,63.347L72.364,59.818ZM68.125,56.306L68.125,57.056L60.015,61.908L58.418,60.584L58.418,59.834L68.125,56.306Z" style="fill:rgb(81,53,14);"/>
            </g>
            <g transform="matrix(1.57752,0,0,1.57752,-45.3107,-24.8795)">
                <path d="M75.006,62.757L76.604,64.081L68.495,68.932L66.897,67.609L75.006,62.757ZM70.766,59.245L72.364,60.568L64.255,65.42L62.657,64.096L70.766,59.245ZM66.527,55.733L68.125,57.056L60.015,61.908L58.418,60.584L66.527,55.733Z" style="fill:url(#_Linear1);"/>
            </g>
            <g id="Rail" transform="matrix(2.46488,0,0,2.46488,-45.3107,-18.4435)">
                <g transform="matrix(0.128,0,0,0.128,5.44,-5.76)">
                    <path d="M254.983,310.918L316.845,362.238L316.845,368.35L313.418,370.401L251.557,319.081L251.557,312.968L254.983,310.918Z" style="fill:rgb(87,86,86);"/>
                </g>
                <g transform="matrix(0.128,0,0,0.128,5.44,-5.76)">
                    <path d="M254.983,310.918L316.845,362.238L313.418,364.288L313.418,370.401L251.557,319.081L251.557,312.968L254.983,310.918Z" style="fill:rgb(216,213,213);"/>
                </g>
                <g transform="matrix(0.128,0,0,0.128,5.44,-5.76)">
                    <path d="M251.557,312.968L313.418,364.288L313.418,370.401L251.557,319.081L251.557,312.968Z" style="fill:rgb(128,128,128);"/>
                </g>
            </g>
            <g id="Rail1" serif:id="Rail" transform="matrix(2.46488,0,0,2.46488,-45.3107,-18.4435)">
                <g transform="matrix(0.128,0,0,0.128,5.44,-5.76)">
                    <path d="M274.847,299.034L336.708,350.353L336.708,356.466L333.281,358.516L271.42,307.196L271.42,301.084L274.847,299.034Z" style="fill:rgb(87,86,86);"/>
                </g>
                <g transform="matrix(0.128,0,0,0.128,5.44,-5.76)">
                    <path d="M274.847,299.034L336.708,350.353L333.281,352.404L333.281,358.516L271.42,307.196L271.42,301.084L274.847,299.034Z" style="fill:rgb(216,213,213);"/>
                </g>
                <g transform="matrix(0.128,0,0,0.128,5.44,-5.76)">
                    <path d="M271.42,301.084L333.281,352.404L333.281,358.516L271.42,307.196L271.42,301.084Z" style="fill:rgb(128,128,128);"/>
                </g>
            </g>
        </g>
    </g>
    <defs>
        <linearGradient id="_Linear1" x1="0" y1="0" x2="1" y2="0" gradientUnits="userSpaceOnUse" gradientTransform="matrix(45.4251,37.2579,-29.5315,36.005,28.0477,29.8114)"><stop offset="0" style="stop-color:rgb(211,171,126);stop-opacity:1"/><stop offset="1" style="stop-color:rgb(176,138,97);stop-opacity:1"/></linearGradient>
    </defs>
</svg>
