<?xml version="1.0" encoding="UTF-8" standalone="no"?>
<!DOCTYPE svg PUBLIC "-//W3C//DTD SVG 1.1//EN" "http://www.w3.org/Graphics/SVG/1.1/DTD/svg11.dtd">
<svg width="100%" height="100%" viewBox="0 0 32 32" version="1.1" xmlns="http://www.w3.org/2000/svg" xmlns:xlink="http://www.w3.org/1999/xlink" xml:space="preserve" xmlns:serif="http://www.serif.com/" style="fill-rule:evenodd;clip-rule:evenodd;stroke-linejoin:round;stroke-miterlimit:2;">
    <g transform="matrix(0.633906,0,0,0.633906,-21.6768,-31.5199)">
        <g transform="matrix(0.2,0,0,0.2,10.1547,24.2678)">
            <path d="M353.846,272.452L236.555,342.628L138.967,261.67L138.967,246.67L256.258,176.494L353.846,257.452L353.846,272.452Z" style="fill:rgb(67,67,67);"/>
        </g>
        <g transform="matrix(0.2,0,0,0.2,10.1547,24.2678)">
            <path d="M353.846,257.452L236.555,327.628L138.967,246.67L256.258,176.494L353.846,257.452Z" style="fill:rgb(146,145,145);"/>
        </g>
        <g transform="matrix(1.57752,0,0,1.57752,34.1957,49.7233)">
            <path d="M22.721,20.358L21.738,20.945L19.529,19.113L20.512,18.525L22.721,20.358ZM18.205,16.611L17.222,17.199L14.701,15.107L15.684,14.52L18.205,16.611ZM13.376,12.606L12.394,13.193L10.037,11.238L11.02,10.651L13.376,12.606Z" style="fill:rgb(231,231,231);"/>
        </g>
        <g transform="matrix(1,0,0,1,12.3583,-6.90674)">
            <g transform="matrix(0.161324,0,0,0.160341,17.9116,34.4538)">
                <path d="M145.676,230.742C144.93,227.574 146.439,224.303 149.326,222.832C152.213,221.36 155.727,222.071 157.824,224.551C181.468,252.505 218.94,296.808 218.94,296.808L218.94,296.828C218.94,298.755 217.795,300.496 216.032,301.248C214.269,302.001 212.229,301.62 210.852,300.281C210.069,299.519 209.305,298.776 208.6,298.091C206.26,295.816 204.939,292.682 204.939,289.409C204.939,287.235 204.939,285.192 204.939,285.192L160.13,248.019C160.13,248.019 160.129,248.227 160.126,248.589C160.11,250.515 158.936,252.238 157.157,252.949C155.378,253.659 153.349,253.214 152.025,251.823C152.021,251.818 152.016,251.813 152.012,251.809C150.449,250.167 149.383,248.112 148.938,245.884C148.229,242.342 147.224,237.312 147.224,237.312C147.224,237.312 146.591,234.627 145.676,230.742Z" style="fill:rgb(72,72,72);"/>
            </g>
            <g transform="matrix(0.161324,0,0,0.160341,17.4165,34.4538)">
                <path d="M228.954,276.481C233.786,280.762 236.555,286.927 236.555,293.404C236.555,297.657 236.555,302.426 236.555,305.988C236.555,306.98 235.986,307.882 235.095,308.305C234.203,308.728 233.149,308.595 232.389,307.965C227.181,303.644 218.94,296.808 218.94,296.808L218.94,296.824C218.94,298.819 217.775,300.628 215.964,301.442C214.154,302.255 212.037,301.922 210.56,300.591C210,300.086 209.452,299.592 208.932,299.123C206.391,296.832 204.939,293.562 204.939,290.13C204.939,287.625 204.939,285.192 204.939,285.192L160.13,248.019C160.13,248.019 160.13,248.106 160.128,248.265C160.111,250.337 158.874,252.202 156.979,253.012C155.084,253.823 152.891,253.425 151.397,251.999C151.393,251.996 151.389,251.992 151.386,251.989C148.729,249.455 147.224,245.933 147.224,242.25C147.224,239.719 147.224,237.312 147.224,237.312C147.224,237.312 144.978,235.449 142.828,233.666C140.383,231.637 138.967,228.616 138.967,225.427C138.967,223.086 138.967,220.167 138.967,217.199C138.967,214.471 140.532,211.989 142.983,210.826C145.435,209.662 148.334,210.027 150.425,211.762C156.735,216.997 163.299,222.442 163.299,222.442C163.299,222.442 173.731,218.442 179.335,216.293C181.476,215.472 183.891,215.871 185.659,217.338C189.803,220.776 197.595,227.24 203.193,231.884C207.455,235.419 210.549,240.173 212.066,245.516C214.552,254.272 218.137,266.899 218.137,266.899C218.137,266.899 223.881,271.988 228.954,276.481Z" style="fill:rgb(83,83,83);"/>
            </g>
            <g transform="matrix(0.161324,0,0,0.160341,17.4165,34.4538)">
                <path d="M282.71,244.145C287.542,248.426 290.311,254.591 290.311,261.069L290.311,273.652C290.311,274.644 289.742,275.546 288.851,275.969C287.959,276.392 286.905,276.259 286.145,275.629C270.06,262.285 212.128,214.225 196.584,201.33C194.139,199.301 192.723,196.28 192.723,193.091C192.723,190.662 192.723,187.61 192.723,184.526C192.723,181.86 194.252,179.433 196.649,178.296C199.045,177.159 201.878,177.516 203.923,179.212C210.31,184.511 217.055,190.106 217.055,190.106C217.055,190.106 227.487,186.106 233.091,183.957C235.232,183.136 237.647,183.535 239.415,185.002C243.559,188.44 251.351,194.904 256.949,199.548C261.211,203.083 264.305,207.837 265.822,213.18C268.308,221.936 271.893,234.563 271.893,234.563C271.893,234.563 277.637,239.652 282.71,244.145Z" style="fill:url(#_Linear1);"/>
            </g>
            <g transform="matrix(0.2,0,0,0.2,10.1547,24.2678)">
                <path d="M270.48,270.563L227.119,296.506L227.119,288.577L270.48,262.634L270.48,270.563Z" style="fill:rgb(182,53,55);"/>
            </g>
            <g transform="matrix(0.2,0,0,0.2,10.1547,24.2678)">
                <path d="M255.624,238.961L212.263,264.904L227.119,288.577L227.102,296.506L270.464,270.573L270.48,262.634C270.48,262.634 270.48,261.588 270.48,260.149C270.48,254.899 268.206,249.907 264.245,246.461C260.179,242.924 255.624,238.961 255.624,238.961Z" style="fill:url(#_Linear2);"/>
            </g>
            <g transform="matrix(0.0558748,0,0,0.0558748,46.4011,64.3007)">
                <path d="M270.489,258.285L227.128,284.228L227.102,296.506L270.464,270.573L270.489,258.285Z" style="fill:rgb(83,83,83);"/>
            </g>
            <g transform="matrix(0.030856,0,0,0.030856,55.3851,68.8681)">
                <path d="M270.481,266.258C270.483,264.632 269.609,263.13 268.194,262.327C266.78,261.524 265.042,261.544 263.646,262.379C254.681,267.743 239.21,276.999 231.608,281.547C228.829,283.21 227.127,286.209 227.123,289.448C227.119,293.099 227.114,298.045 227.11,302.187C227.108,303.814 227.982,305.317 229.397,306.12C230.811,306.923 232.549,306.904 233.945,306.069C242.91,300.707 258.379,291.455 265.982,286.908C268.762,285.246 270.466,282.246 270.469,279.006C270.473,275.352 270.477,270.403 270.481,266.258Z" style="fill:rgb(204,10,0);"/>
            </g>
            <g transform="matrix(0.030856,0,0,0.030856,49.5408,72.4571)">
                <path d="M270.481,266.258C270.483,264.632 269.609,263.13 268.194,262.327C266.78,261.524 265.042,261.544 263.646,262.379C254.681,267.743 239.21,276.999 231.608,281.547C228.829,283.21 227.127,286.209 227.123,289.448C227.119,293.099 227.114,298.045 227.11,302.187C227.108,303.814 227.982,305.317 229.397,306.12C230.811,306.923 232.549,306.904 233.945,306.069C242.91,300.707 258.379,291.455 265.982,286.908C268.762,285.246 270.466,282.246 270.469,279.006C270.473,275.352 270.477,270.403 270.481,266.258Z" style="fill:rgb(204,10,0);"/>
            </g>
            <g transform="matrix(0.2,0,0,0.2,10.1547,24.2678)">
                <path d="M255.624,238.961L212.263,264.904C212.263,264.904 209.628,255.679 207.644,248.735C206.249,243.851 203.212,239.597 199.047,236.69C191.856,231.672 181.214,224.245 181.214,224.245L221.336,199.548C221.336,199.548 222.846,198.973 224.323,198.41C226.051,197.752 228,198.073 229.426,199.251C232.763,202.009 239.031,207.188 243.535,210.91C246.964,213.744 249.458,217.548 250.689,221.823C252.709,228.838 255.624,238.961 255.624,238.961Z" style="fill:url(#_Linear3);"/>
            </g>
            <g transform="matrix(0.2,0,0,0.2,10.1547,24.2678)">
                <path d="M248.799,238.299L216.318,257.733L212.263,243.465L244.697,224.05L248.799,238.299Z" style="fill:rgb(132,132,132);"/>
            </g>
            <g transform="matrix(0.2,0,0,0.2,10.1547,24.2678)">
                <path d="M224.504,198.345L181.143,224.288L168.117,229.229L151.342,220.112L191.764,195.937C191.764,195.937 193.457,194.952 195.083,194.008C196.852,192.98 199.074,193.159 200.655,194.458C204.558,197.663 211.429,203.305 211.429,203.305L224.504,198.345Z" style="fill:url(#_Linear4);"/>
            </g>
            <g transform="matrix(0.161324,0,0,0.160341,17.4165,34.4538)">
                <path d="M228.954,276.481C233.786,280.762 236.555,286.927 236.555,293.404C236.555,297.657 236.555,302.426 236.555,305.988C236.555,306.98 235.986,307.882 235.095,308.305C234.203,308.728 233.149,308.595 232.389,307.965C216.304,294.621 158.372,246.561 142.828,233.666C140.383,231.637 138.967,228.616 138.967,225.427C138.967,223.086 138.967,220.167 138.967,217.199C138.967,214.471 140.532,211.989 142.983,210.826C145.435,209.662 148.334,210.027 150.425,211.762C156.735,216.997 163.299,222.442 163.299,222.442C163.299,222.442 173.731,218.442 179.335,216.293C181.476,215.472 183.891,215.871 185.659,217.338C189.803,220.776 197.595,227.24 203.193,231.884C207.455,235.419 210.549,240.173 212.066,245.516C214.552,254.272 218.137,266.899 218.137,266.899C218.137,266.899 223.881,271.988 228.954,276.481Z" style="fill:rgb(213,69,71);"/>
            </g>
            <g transform="matrix(0.136433,0,0,0.135601,22.1638,40.4144)">
                <path d="M199.008,251.392L194.137,247.442" style="fill:none;"/>
            </g>
            <g transform="matrix(0.136433,0,0,0.135601,22.1638,40.4144)">
                <path d="M194.137,247.442L163.299,222.442C163.299,222.442 172.984,218.729 178.703,216.536C181.235,215.565 184.09,216.036 186.181,217.771C189.522,220.543 194.137,224.371 194.137,224.371" style="fill:rgb(231,239,241);"/>
            </g>
            <g transform="matrix(0.136433,0,0,0.135601,22.1638,40.4144)">
                <path d="M194.137,224.371L199.008,228.412" style="fill:none;"/>
            </g>
            <g transform="matrix(0.136433,0,0,0.135601,22.1638,40.4144)">
                <path d="M199.008,228.412C199.008,228.412 200.306,229.489 201.999,230.894C207.038,235.074 210.697,240.695 212.491,247.013C214.941,255.64 218.137,266.899 218.137,266.899L199.008,251.392" style="fill:rgb(231,239,241);"/>
            </g>
        </g>
    </g>
    <defs>
        <linearGradient id="_Linear1" x1="0" y1="0" x2="1" y2="0" gradientUnits="userSpaceOnUse" gradientTransform="matrix(19.4829,28.8859,-34.6953,23.689,246.824,249.631)"><stop offset="0" style="stop-color:rgb(213,69,71);stop-opacity:1"/><stop offset="1" style="stop-color:rgb(182,53,55);stop-opacity:1"/></linearGradient>
        <linearGradient id="_Linear2" x1="0" y1="0" x2="1" y2="0" gradientUnits="userSpaceOnUse" gradientTransform="matrix(15.7153,23.158,-27.986,18.9916,235.402,251.06)"><stop offset="0" style="stop-color:rgb(213,69,71);stop-opacity:1"/><stop offset="1" style="stop-color:rgb(182,53,55);stop-opacity:1"/></linearGradient>
        <linearGradient id="_Linear3" x1="0" y1="0" x2="1" y2="0" gradientUnits="userSpaceOnUse" gradientTransform="matrix(7.71521,13.5994,-16.4346,9.32366,221.443,223.166)"><stop offset="0" style="stop-color:rgb(230,78,80);stop-opacity:1"/><stop offset="1" style="stop-color:rgb(213,69,71);stop-opacity:1"/></linearGradient>
        <linearGradient id="_Linear4" x1="0" y1="0" x2="1" y2="0" gradientUnits="userSpaceOnUse" gradientTransform="matrix(7.71521,13.5994,-16.4346,9.32366,221.443,223.166)"><stop offset="0" style="stop-color:rgb(230,78,80);stop-opacity:1"/><stop offset="1" style="stop-color:rgb(213,69,71);stop-opacity:1"/></linearGradient>
    </defs>
</svg>
