<?xml version="1.0" encoding="UTF-8" standalone="no"?>
<!DOCTYPE svg PUBLIC "-//W3C//DTD SVG 1.1//EN" "http://www.w3.org/Graphics/SVG/1.1/DTD/svg11.dtd">
<svg width="100%" height="100%" viewBox="0 0 26 26" version="1.1" xmlns="http://www.w3.org/2000/svg" xmlns:xlink="http://www.w3.org/1999/xlink" xml:space="preserve" xmlns:serif="http://www.serif.com/" style="fill-rule:evenodd;clip-rule:evenodd;stroke-linejoin:round;stroke-miterlimit:2;">
    <g transform="matrix(1,0,0,1,13,0)">
        <g id="b">
            <g id="Sidewalk-Parking-Rear" serif:id="Sidewalk Parking Rear">
                <g transform="matrix(1,2.77556e-17,-2.77556e-17,1,-13,-2.22045e-15)">
                    <rect x="16.079" y="8.637" width="0.753" height="15.299" style="fill:rgb(105,105,105);"/>
                </g>
                <g transform="matrix(0.8,0,0,1,2.6,-0.690176)">
                    <path d="M13,39.69L13,24.282C13,24.282 6.09,24.282 1.5,24.282C1.102,24.282 0.721,24.409 0.439,24.634C0.158,24.859 -0,25.164 -0,25.482C0,25.772 0,39.69 0,39.69L13,39.69Z" style="fill:rgb(160,160,160);"/>
                </g>
                <g transform="matrix(0.845328,0,0,1,2.22147,-0.690176)">
                    <rect x="3.213" y="24.282" width="9.538" height="15.408" style="fill:rgb(125,125,125);"/>
                </g>
                <g transform="matrix(0.538296,0,0,0.538296,2.20049,9.23831)">
                    <g transform="matrix(-0.975012,0,0,1,19.9658,1.45571)">
                        <g transform="matrix(-0.842726,1.03204e-16,-1.11579e-16,-0.911114,17.3945,27.9104)">
                            <path d="M10.977,17.122C10.831,16.699 11.336,6.86 11.329,5.898C11.324,5.198 11.164,3.586 11.387,3.287C11.551,3.067 11.752,2.935 12.108,2.97C12.181,2.977 12.901,2.887 12.994,4.011C13.19,5.854 13.056,10.841 13.204,12.993C13.244,13.579 13.621,13.848 13.692,13.91C13.884,14.074 14.163,13.514 14.249,12.807C14.364,11.876 14.737,10.447 14.775,9.29C14.807,8.312 14.538,4.782 14.615,3.314C14.652,2.979 15.976,3.136 16.058,3.227C16.354,3.556 16.739,8.668 16.741,9.202C16.748,10.845 16.476,13.091 16.218,14.864C16.06,15.945 16.056,16.84 15.692,17.34C15.2,18.016 14.307,17.064 13.25,16.985C12.328,16.916 11.218,17.816 10.977,17.122Z" style="fill:rgb(125,150,159);fill-rule:nonzero;"/>
                        </g>
                        <g transform="matrix(0.842726,0,0,0.842726,8.63844,6.4292)">
                            <path d="M-3.674,-1.715C-3.115,-1.857 -2.45,-1.857 -1.918,-1.715C-1.714,-1.66 -1.903,-1.237 -1.701,-1.144C-1.377,-0.995 -0.825,-0.904 -0.486,-0.858C0.923,-0.667 1.038,2.221 1.101,2.879C1.304,4.995 1.306,8.759 0.43,9.732C-0.033,10.247 0.542,5.729 0.333,5.166C0.203,4.817 -0.379,2.663 -0.411,2.912C-0.627,4.567 -0.701,5.851 -0.75,6.962C-0.793,7.955 -2.15,7.735 -3.061,7.736C-3.929,7.737 -5.533,7.821 -5.653,6.962C-5.867,5.43 -5.853,4.119 -5.949,2.879C-5.959,2.742 -6.91,5.358 -6.924,5.185C-6.935,5.048 -6.099,9.975 -6.607,10.328C-6.925,10.549 -7.6,7.024 -7.712,5.378C-7.806,4.009 -7.552,3.197 -7.528,2.967C-7.418,1.888 -6.854,-0.485 -5.729,-0.79C-5.281,-0.911 -4.549,-0.981 -4.113,-1.144C-3.981,-1.194 -3.804,-1.681 -3.674,-1.715Z" style="fill:rgb(151,180,190);fill-rule:nonzero;"/>
                        </g>
                        <g transform="matrix(0.451179,0,0,0.58023,4.54853,0.685696)">
                            <path d="M3.518,0C5.46,0 7.036,1.055 7.036,2.996C7.036,4.938 5.46,7.036 3.518,7.036C1.576,7.036 0,4.938 0,2.996C0,1.055 1.576,0 3.518,0Z" style="fill:rgb(151,180,190);"/>
                        </g>
                    </g>
                    <g transform="matrix(1,0,0,1,2.96302,-0.00238321)">
                        <g transform="matrix(-0.842726,1.03204e-16,-1.11579e-16,-0.911114,17.3945,27.9104)">
                            <path d="M10.977,17.122C10.831,16.699 11.336,6.86 11.329,5.898C11.324,5.198 11.164,3.586 11.387,3.287C11.551,3.067 11.752,2.935 12.108,2.97C12.181,2.977 12.901,2.887 12.994,4.011C13.19,5.854 13.056,10.841 13.204,12.993C13.244,13.579 13.621,13.848 13.692,13.91C13.884,14.074 14.163,13.514 14.249,12.807C14.364,11.876 14.737,10.447 14.775,9.29C14.807,8.312 13.755,3.036 13.832,1.568C13.868,1.233 15.193,1.391 15.274,1.481C15.57,1.81 15.754,4.083 16.054,5.862C16.333,7.513 16.739,8.668 16.741,9.202C16.748,10.845 16.476,13.091 16.218,14.864C16.06,15.945 16.056,16.84 15.692,17.34C15.2,18.016 14.307,17.064 13.25,16.985C12.328,16.916 11.218,17.816 10.977,17.122Z" style="fill:rgb(147,220,244);fill-rule:nonzero;"/>
                        </g>
                        <g transform="matrix(0.842726,0,0,0.842726,8.63844,6.4292)">
                            <path d="M-3.674,-1.715C-3.115,-1.857 -2.45,-1.857 -1.918,-1.715C-1.714,-1.66 -1.903,-1.237 -1.701,-1.144C-1.377,-0.995 -0.825,-0.904 -0.486,-0.858C0.923,-0.667 1.038,2.221 1.101,2.879C1.304,4.995 1.306,8.759 0.43,9.732C-0.033,10.247 0.542,5.729 0.333,5.166C0.203,4.817 -0.379,2.663 -0.411,2.912C-0.627,4.567 -0.701,5.851 -0.75,6.962C-0.793,7.955 -2.15,7.735 -3.061,7.736C-3.929,7.737 -5.533,7.821 -5.653,6.962C-5.867,5.43 -5.853,4.119 -5.949,2.879C-5.959,2.742 -6.91,5.358 -6.924,5.185C-6.935,5.048 -6.099,9.975 -6.607,10.328C-6.925,10.549 -7.6,7.024 -7.712,5.378C-7.806,4.009 -7.552,3.197 -7.528,2.967C-7.418,1.888 -6.854,-0.485 -5.729,-0.79C-5.281,-0.911 -4.549,-0.981 -4.113,-1.144C-3.981,-1.194 -3.804,-1.681 -3.674,-1.715Z" style="fill:rgb(194,240,255);fill-rule:nonzero;"/>
                        </g>
                        <g transform="matrix(0.451179,0,0,0.58023,4.54853,0.685696)">
                            <path d="M3.518,0C5.46,0 7.036,1.055 7.036,2.996C7.036,4.938 5.46,7.036 3.518,7.036C1.576,7.036 0,4.938 0,2.996C0,1.055 1.576,0 3.518,0Z" style="fill:rgb(194,240,255);"/>
                        </g>
                    </g>
                </g>
                <g id="Car-Front" serif:id="Car Front" transform="matrix(1.11012,-0.0994666,0.0994666,1.11012,-20.9221,-2.12794)">
                    <g transform="matrix(1.0647,0.0953971,-0.0947481,1.05746,3.84307,0.556981)">
                        <path d="M18.951,6.036C18.951,5.444 18.474,4.964 17.887,4.964L15.758,4.964C15.17,4.964 14.693,5.444 14.693,6.036L14.693,8.338C14.693,8.93 15.17,9.41 15.758,9.41L17.887,9.41C18.474,9.41 18.951,8.93 18.951,8.338L18.951,6.036Z" style="fill:rgb(0,99,174);"/>
                    </g>
                    <g transform="matrix(0.827577,0.0741507,-0.0741507,0.827577,10.2149,11.1385)">
                        <path d="M11.546,-0.922L11.546,-4.698L12.77,-4.698C13.234,-4.698 13.536,-4.68 13.677,-4.642C13.893,-4.585 14.074,-4.462 14.22,-4.272C14.366,-4.082 14.439,-3.837 14.439,-3.537C14.439,-3.305 14.397,-3.11 14.313,-2.952C14.229,-2.794 14.122,-2.67 13.992,-2.58C13.863,-2.489 13.731,-2.43 13.597,-2.401C13.415,-2.364 13.151,-2.346 12.806,-2.346L12.309,-2.346L12.309,-0.922L11.546,-0.922ZM12.309,-4.06L12.309,-2.988L12.726,-2.988C13.027,-2.988 13.228,-3.008 13.329,-3.047C13.43,-3.087 13.51,-3.148 13.567,-3.233C13.625,-3.317 13.654,-3.415 13.654,-3.526C13.654,-3.664 13.613,-3.777 13.533,-3.866C13.452,-3.956 13.35,-4.011 13.226,-4.034C13.135,-4.051 12.952,-4.06 12.677,-4.06L12.309,-4.06Z" style="fill:white;fill-rule:nonzero;"/>
                    </g>
                    <g id="Car-Rear" serif:id="Car Rear" transform="matrix(0.99601,0.0892422,-0.0892422,0.99601,1.27276,-0.652418)">
                        <g transform="matrix(0.383745,0,0,0.383745,-0.416897,4.42969)">
                            <path d="M24.944,48.952C24.944,48.12 24.268,47.443 23.435,47.443L20.417,47.443C19.584,47.443 18.907,48.12 18.907,48.952L18.907,54.701C18.907,55.534 19.584,56.21 20.417,56.21L23.435,56.21C24.268,56.21 24.944,55.534 24.944,54.701L24.944,48.952Z" style="fill:rgb(83,83,83);"/>
                        </g>
                        <g transform="matrix(0.383745,0,0,0.383745,9.64004,4.42969)">
                            <path d="M24.944,48.952C24.944,48.12 24.268,47.443 23.435,47.443L20.417,47.443C19.584,47.443 18.907,48.12 18.907,48.952L18.907,54.701C18.907,55.534 19.584,56.21 20.417,56.21L23.435,56.21C24.268,56.21 24.944,55.534 24.944,54.701L24.944,48.952Z" style="fill:rgb(83,83,83);"/>
                        </g>
                        <g transform="matrix(0.444281,0,0,0.383745,0.410085,3.42319)">
                            <path d="M15.885,37.388C15.885,37.018 15.625,36.717 15.305,36.717L12.932,36.717C12.612,36.717 12.353,37.018 12.353,37.388L12.353,38.731C12.353,39.101 12.612,39.402 12.932,39.402L15.305,39.402C15.625,39.402 15.885,39.101 15.885,38.731L15.885,37.388Z" style="fill:rgb(112,122,134);"/>
                        </g>
                        <g transform="matrix(0.444281,0,0,0.383745,13.0443,3.42319)">
                            <path d="M15.885,37.388C15.885,37.018 15.625,36.717 15.305,36.717L12.932,36.717C12.612,36.717 12.353,37.018 12.353,37.388L12.353,38.731C12.353,39.101 12.612,39.402 12.932,39.402L15.305,39.402C15.625,39.402 15.885,39.101 15.885,38.731L15.885,37.388Z" style="fill:rgb(112,122,134);"/>
                        </g>
                        <g transform="matrix(0.435562,0,0,0.359699,-2.22833,7.13964)">
                            <path d="M50.507,39.882L19.434,39.846C19.434,39.846 19.297,37.622 20.139,35.636C20.628,34.482 23.811,19.23 25.206,18.648C27.992,17.485 42.913,17.928 44.977,18.703C47.012,19.466 49.031,32.881 49.982,35.065C50.268,35.722 50.426,36.933 50.485,37.995C50.542,39.004 50.507,39.882 50.507,39.882Z" style="fill:rgb(223,110,58);"/>
                        </g>
                        <g transform="matrix(0.395906,0,0,0.18511,-0.741403,10.9921)">
                            <path d="M45.74,37.581C45.328,37.83 24.558,39.151 23.678,37.581C23.176,36.687 23.368,19.876 25.013,18.348C26.502,16.965 42.772,17.367 44.703,18.66C46.511,19.869 46.869,36.899 45.74,37.581Z" style="fill:rgb(132,132,132);"/>
                        </g>
                        <g transform="matrix(0.394022,0,0,0.464005,0.395272,-0.019474)">
                            <path d="M49.174,45.45C49.174,45.043 48.785,44.713 48.306,44.713L15.694,44.713C15.215,44.713 14.826,45.043 14.826,45.45L14.826,51.349C14.826,51.756 15.215,52.086 15.694,52.086L48.306,52.086C48.785,52.086 49.174,51.756 49.174,51.349L49.174,45.45Z" style="fill:rgb(223,110,58);"/>
                        </g>
                        <g transform="matrix(0.383745,0,0,0.596547,0.315893,-5.91664)">
                            <path d="M24.858,43.311C24.858,43.054 24.533,42.844 24.132,42.844L19.146,42.844C18.745,42.844 18.419,43.054 18.419,43.311L18.419,44.246C18.419,44.503 18.745,44.713 19.146,44.713L24.132,44.713C24.533,44.713 24.858,44.503 24.858,44.246L24.858,43.311Z" style="fill:rgb(204,10,0);"/>
                        </g>
                        <g transform="matrix(0.383745,0,0,0.596547,9.23558,-5.91664)">
                            <path d="M24.858,43.311C24.858,43.054 24.533,42.844 24.132,42.844L19.146,42.844C18.745,42.844 18.419,43.054 18.419,43.311L18.419,44.246C18.419,44.503 18.745,44.713 19.146,44.713L24.132,44.713C24.533,44.713 24.858,44.503 24.858,44.246L24.858,43.311Z" style="fill:rgb(204,10,0);"/>
                        </g>
                        <g transform="matrix(0.263805,0,0,1.74249,4.55361,-46.104)">
                            <rect x="25.612" y="39.486" width="13.413" height="0.518" style="fill:rgb(83,83,83);"/>
                        </g>
                        <g transform="matrix(0.452781,0,0,0.424909,16.4407,23.1512)">
                            <circle cx="1.5" cy="1.5" r="1.5" style="fill:rgb(54,54,54);"/>
                        </g>
                    </g>
                </g>
            </g>
        </g>
    </g>
    <g id="Street-Lamp" serif:id="Street Lamp">
        <g transform="matrix(1.01033,0,0,0.787888,-0.0874172,4.59095)">
            <path d="M15.642,-28.594L14.912,-28.818L15.358,-29.249L24.921,-23.204L25.083,-0.219L25.107,-23.204L24.921,-23.763L14.912,-29.43L13.507,-29.249L12.61,-29.524C12.61,-29.524 12.669,-28.999 13.99,-28.594C15.31,-28.188 15.642,-28.594 15.642,-28.594Z" style="fill:rgb(255,225,0);"/>
        </g>
        <path d="M15.716,-18.139L24.928,-13.37L25.182,5.477L25.596,5.477L25.182,-15.23L15.716,-18.873L15.716,-19.108L12.686,-19.598C12.686,-19.598 12.373,-19.633 12.378,-19.108C12.381,-18.763 12.653,-18.671 12.653,-18.671L15.716,-17.938L15.716,-18.139Z" style="fill:rgb(204,204,204);"/>
        <g transform="matrix(1.01033,0,0,0.787888,-0.0874172,4.59095)">
            <path d="M25.462,-25.653L24.746,-25.653L24.759,23.592L25.568,23.592L25.462,-25.653Z" style="fill:rgb(182,182,182);"/>
        </g>
        <g transform="matrix(1.80416,0,0,0.0403742,-19.9971,22.6396)">
            <path d="M25.449,3.122L24.806,3.122L24.759,23.592L25.495,23.592L25.449,3.122Z" style="fill:rgb(91,91,91);"/>
        </g>
    </g>
</svg>
