<?xml version="1.0" encoding="UTF-8" standalone="no"?>
<!DOCTYPE svg PUBLIC "-//W3C//DTD SVG 1.1//EN" "http://www.w3.org/Graphics/SVG/1.1/DTD/svg11.dtd">
<svg width="100%" height="100%" viewBox="0 0 26 26" version="1.1" xmlns="http://www.w3.org/2000/svg" xmlns:xlink="http://www.w3.org/1999/xlink" xml:space="preserve" xmlns:serif="http://www.serif.com/" style="fill-rule:evenodd;clip-rule:evenodd;stroke-linejoin:round;stroke-miterlimit:2;">
    <g transform="matrix(1.00931,0,0,0.947181,-0.119708,0)">
        <g id="b">
            <g id="Train-White" serif:id="Train White">
                <g transform="matrix(0.849871,0,0,1.05576,1.95036,0)">
                    <path d="M20.029,25.381L23.264,24.86L25.067,24.86L25.657,26L0.343,26L0.933,24.86L2.736,24.86L5.971,25.381L20.029,25.381Z" style="fill:white;"/>
                </g>
                <g transform="matrix(0.849871,0,0,0.558874,2.81798,11.969)">
                    <path d="M19.806,23.655L17.892,23.77L17.622,26L19.114,26L20.047,25.648L19.806,23.655Z" style="fill:white;"/>
                </g>
                <g transform="matrix(-0.849871,0,0,0.558874,23.1794,11.969)">
                    <path d="M19.806,23.655L17.892,23.77L17.622,26L18.982,26L20.034,25.546L19.806,23.655Z" style="fill:white;"/>
                </g>
                <g transform="matrix(0.336483,0.0167596,-0.0197861,0.451069,12.0261,0.283054)">
                    <path d="M24.944,51.126C24.944,51.126 23.006,52.286 22.068,52.603C21.062,52.942 19.324,53.465 19.324,53.465C19.324,53.465 19.587,53.743 20.42,53.743L23.432,53.631C24.265,53.631 24.944,53.011 24.944,52.178L24.944,51.126Z" style="fill:white;"/>
                </g>
                <g transform="matrix(-0.336483,0.0167596,0.0197861,0.451069,13.9739,0.283054)">
                    <path d="M24.944,51.438C24.944,51.438 22.889,52.312 21.883,52.609C20.909,52.896 18.907,53.218 18.907,53.218C18.907,53.218 19.439,53.75 20.272,53.75L23.284,53.638C24.117,53.638 24.796,53.018 24.796,52.185L24.944,51.438Z" style="fill:white;"/>
                </g>
                <g transform="matrix(0.938444,0,0,1,-3.50449,0)">
                    <path d="M12.375,17.975C13.268,17.935 14.043,18.581 14.105,19.418C14.106,19.434 14.107,19.45 14.108,19.466C14.191,20.323 13.514,21.095 12.602,21.183C11.709,21.223 10.935,20.577 10.872,19.741C10.871,19.724 10.87,19.708 10.87,19.692C10.786,18.835 11.463,18.064 12.375,17.975ZM22.572,17.975C23.465,17.935 24.239,18.581 24.302,19.418C24.303,19.434 24.304,19.45 24.305,19.466C24.388,20.323 23.711,21.095 22.799,21.183C21.906,21.223 21.132,20.577 21.069,19.741C21.068,19.724 21.067,19.708 21.066,19.692C20.983,18.835 21.66,18.064 22.572,17.975Z" style="fill:white;fill-rule:nonzero;"/>
                </g>
                <g transform="matrix(0.938444,0,0,1,-1.20069,-2.0284)">
                    <path d="M7.521,18.762C7.976,18.741 8.371,19.07 8.403,19.497C8.403,19.505 8.404,19.513 8.404,19.521C8.447,19.958 8.102,20.352 7.637,20.397C7.182,20.417 6.787,20.088 6.755,19.661C6.754,19.653 6.754,19.645 6.754,19.637C6.711,19.2 7.056,18.807 7.521,18.762ZM22.628,18.762C23.083,18.741 23.477,19.07 23.509,19.497C23.51,19.505 23.51,19.513 23.511,19.521C23.553,19.958 23.208,20.352 22.743,20.397C22.288,20.417 21.893,20.088 21.862,19.661C21.861,19.653 21.86,19.645 21.86,19.637C21.818,19.2 22.163,18.807 22.628,18.762Z" style="fill:white;fill-rule:nonzero;"/>
                </g>
                <g transform="matrix(0.990775,0,0,1.05576,0.118603,0)">
                    <path d="M17.262,1.022L18.211,1.022C19.77,1.022 22.637,4.24 22.528,9.252C22.528,9.252 22.219,17.202 21.707,19.442C21.367,20.931 19.429,22.052 18.211,22.692C16.892,23.386 14.856,23.568 13.135,23.605C11.328,23.551 9.533,23.245 7.791,22.692C6.049,22.14 4.636,20.931 4.295,19.442C3.783,17.202 3.475,9.252 3.475,9.252C3.475,4.186 6.232,1.022 7.791,1.022L8.74,1.022C8.695,1.079 8.65,1.135 8.608,1.191C8.06,1.905 7.427,3.302 7.848,3.948C8.073,4.295 8.655,4.592 9.331,4.794C8.462,4.9 7.751,5.051 7.326,5.245C5.672,5.999 7.326,10.605 7.326,11.167C7.326,11.729 8.154,12.125 8.746,12.186C10.401,12.356 15.601,12.356 17.257,12.186C17.849,12.125 18.677,11.729 18.677,11.167C18.677,10.605 20.331,5.999 18.677,5.245C18.252,5.051 17.541,4.9 16.672,4.794C17.347,4.592 17.93,4.295 18.155,3.948C18.575,3.302 17.942,1.905 17.395,1.191C17.352,1.135 17.308,1.079 17.262,1.022ZM21.419,15.568C20.776,15.248 18.268,15.598 17.327,16.154C16.413,16.695 15.892,18.126 15.773,18.906C15.664,19.621 15.902,20.757 16.614,20.838C17.326,20.919 19.283,19.854 20.045,19.394C20.543,19.092 20.992,18.612 21.185,18.074C21.414,17.436 22.062,15.888 21.419,15.568ZM4.608,15.568C5.251,15.248 7.759,15.598 8.7,16.154C9.614,16.695 10.135,18.126 10.254,18.906C10.363,19.621 10.125,20.757 9.413,20.838C8.701,20.919 6.744,19.854 5.982,19.394C5.484,19.092 5.035,18.612 4.841,18.074C4.612,17.436 3.965,15.888 4.608,15.568Z" style="fill:white;"/>
                </g>
                <g transform="matrix(0.990775,0,0,1.05576,0.118603,0)">
                    <path d="M16.849,1.337C16.37,0.712 15.685,0 14.64,0L11.363,0C10.318,0 9.633,0.712 9.154,1.337C8.674,1.963 8.12,3.186 8.488,3.752C8.856,4.319 10.318,4.736 11.363,4.736L14.64,4.736C15.685,4.736 17.146,4.319 17.515,3.752C17.883,3.186 17.328,1.963 16.849,1.337ZM13.001,0.947C13.837,0.947 14.515,1.584 14.515,2.368C14.515,3.152 13.837,3.789 13.001,3.789C12.166,3.789 11.487,3.152 11.487,2.368C11.487,1.584 12.166,0.947 13.001,0.947Z" style="fill:white;"/>
                </g>
            </g>
        </g>
    </g>
</svg>
