<?xml version="1.0" encoding="UTF-8" standalone="no"?>
<!DOCTYPE svg PUBLIC "-//W3C//DTD SVG 1.1//EN" "http://www.w3.org/Graphics/SVG/1.1/DTD/svg11.dtd">
<svg width="100%" height="100%" viewBox="0 0 26 26" version="1.1" xmlns="http://www.w3.org/2000/svg" xmlns:xlink="http://www.w3.org/1999/xlink" xml:space="preserve" xmlns:serif="http://www.serif.com/" style="fill-rule:evenodd;clip-rule:evenodd;stroke-linejoin:round;stroke-miterlimit:2;">
    <g transform="matrix(0.955719,0,0,0.955719,0.575653,0.575649)">
        <g id="b">
            <g id="Traffic-Lights" serif:id="Traffic Lights">
                <path d="M17.911,18.74L13.974,21.881L8.089,18.211L8.089,3.723L12.479,0.923L17.909,4.061L17.911,18.74ZM13.579,20.712L8.8,17.834L8.8,4.514L13.579,7.294L13.579,20.712Z" style="fill:white;"/>
                <g transform="matrix(0.857208,0,0,0.857208,1.60305,2.34165)">
                    <path d="M11.681,18.222C10.858,18.427 9.987,17.777 9.736,16.771C9.485,15.764 9.949,14.781 10.772,14.576C11.595,14.371 12.466,15.021 12.717,16.028C12.967,17.034 12.504,18.017 11.681,18.222ZM11.052,14.966C10.682,15.126 10.508,15.56 10.665,15.931C10.769,16.32 11.174,16.555 11.564,16.453C11.933,16.293 12.107,15.859 11.95,15.488C11.846,15.1 11.441,14.864 11.052,14.966Z" style="fill:white;"/>
                </g>
                <g transform="matrix(0.858584,0,0,0.858584,1.58866,1.75069)">
                    <path d="M11.663,14.239C10.833,14.431 9.967,13.754 9.73,12.727C9.493,11.7 9.974,10.712 10.805,10.52C11.635,10.328 12.501,11.006 12.738,12.033C12.975,13.059 12.494,14.047 11.663,14.239ZM11.052,11.036C10.682,11.195 10.508,11.63 10.665,12.001C10.769,12.39 11.174,12.625 11.564,12.523C11.933,12.363 12.107,11.929 11.95,11.558C11.846,11.169 11.441,10.934 11.052,11.036Z" style="fill:white;"/>
                </g>
                <g transform="matrix(0.783551,0,0,0.783551,2.42195,1.82244)">
                    <path d="M10.545,6.548C9.702,6.839 9.307,7.91 9.663,8.945C10.019,9.98 10.991,10.581 11.834,10.291C12.676,10.001 13.072,8.929 12.716,7.894C12.36,6.859 11.388,6.258 10.545,6.548ZM11.052,6.712C10.682,6.871 10.508,7.306 10.665,7.677C10.769,8.066 11.174,8.301 11.564,8.198C11.933,8.039 12.107,7.605 11.95,7.234C11.846,6.845 11.441,6.61 11.052,6.712Z" style="fill:white;"/>
                </g>
                <path d="M13.974,22.565L11.519,21.034L11.519,23.358C11.519,24.307 12.29,25.077 13.239,25.077C14.188,25.077 14.958,24.307 14.958,23.358L14.958,21.779L13.974,22.565Z" style="fill:white;"/>
            </g>
        </g>
    </g>
</svg>
