<?xml version="1.0" encoding="UTF-8" standalone="no"?>
<!DOCTYPE svg PUBLIC "-//W3C//DTD SVG 1.1//EN" "http://www.w3.org/Graphics/SVG/1.1/DTD/svg11.dtd">
<svg width="100%" height="100%" viewBox="0 0 26 26" version="1.1" xmlns="http://www.w3.org/2000/svg" xmlns:xlink="http://www.w3.org/1999/xlink" xml:space="preserve" xmlns:serif="http://www.serif.com/" style="fill-rule:evenodd;clip-rule:evenodd;stroke-linejoin:round;stroke-miterlimit:2;">
    <g id="b">
        <g id="Tiled-Median" serif:id="Tiled Median">
            <g transform="matrix(0.8,0,0,1,2.6,-0.690176)">
                <path d="M26,25.482C26,25.164 25.842,24.859 25.561,24.634C25.279,24.409 24.898,24.282 24.5,24.282C19.91,24.282 6.09,24.282 1.5,24.282C1.102,24.282 0.721,24.409 0.439,24.634C0.158,24.859 -0,25.164 -0,25.482C0,25.772 0,39.69 0,39.69L26,39.69L26,25.482Z" style="fill:rgb(160,160,160);"/>
            </g>
            <g transform="matrix(0.845328,0,0,1,2.22147,-0.690176)">
                <rect x="3.213" y="24.282" width="19.087" height="15.408" style="fill:rgb(125,125,125);"/>
            </g>
            <g transform="matrix(1,0,0,1.68745,0,-16.2184)">
                <path d="M15.694,32.723L10.316,32.723L15.694,32.723ZM10.316,31.201L4.938,31.201L4.938,32.723L10.316,32.723L10.316,31.201ZM21.072,31.201L15.694,31.201L15.694,32.723L21.072,32.723L21.072,31.201ZM15.694,29.679L10.316,29.679L10.316,31.201L15.694,31.201L15.694,29.679ZM10.316,28.158L4.938,28.158L4.938,29.679L10.316,29.679L10.316,28.158ZM21.072,28.158L15.694,28.158L15.694,29.679L21.072,29.679L21.072,28.158ZM10.316,26.636L10.316,25.114L4.938,25.114L4.938,26.636L10.316,26.636L10.316,28.158L15.694,28.158L15.694,26.636L10.316,26.636ZM21.072,25.114L15.694,25.114L15.694,26.636L21.072,26.636L21.072,25.114ZM15.694,23.592L10.316,23.592L10.316,25.114L15.694,25.114L15.694,23.592Z" style="fill:rgb(78,78,78);"/>
            </g>
            <g transform="matrix(1,0,0,1.68745,0,-16.2184)">
                <path d="M10.316,32.723L4.938,32.723L10.316,32.723ZM21.072,32.723L15.694,32.723L21.072,32.723ZM15.694,31.201L10.316,31.201L10.316,32.723L15.694,32.723L15.694,31.201ZM10.316,29.679L4.938,29.679L4.938,31.201L10.316,31.201L10.316,29.679ZM21.072,29.679L15.694,29.679L15.694,31.201L21.072,31.201L21.072,29.679ZM15.694,28.158L10.316,28.158L10.316,29.679L15.694,29.679L15.694,28.158ZM21.072,26.636L15.694,26.636L15.694,28.158L21.072,28.158L21.072,26.636ZM10.316,25.114L10.316,26.636L4.938,26.636L4.938,28.158L10.316,28.158L10.316,26.636L15.694,26.636L15.694,25.114L10.316,25.114ZM10.316,23.592L4.938,23.592L4.938,25.114L10.316,25.114L10.316,23.592ZM21.072,23.592L15.694,23.592L15.694,25.114L21.072,25.114L21.072,23.592Z" style="fill:rgb(98,98,98);"/>
            </g>
        </g>
    </g>
</svg>
