<?xml version="1.0" encoding="UTF-8" standalone="no"?>
<!DOCTYPE svg PUBLIC "-//W3C//DTD SVG 1.1//EN" "http://www.w3.org/Graphics/SVG/1.1/DTD/svg11.dtd">
<svg width="100%" height="100%" viewBox="0 0 32 32" version="1.1" xmlns="http://www.w3.org/2000/svg" xmlns:xlink="http://www.w3.org/1999/xlink" xml:space="preserve" xmlns:serif="http://www.serif.com/" style="fill-rule:evenodd;clip-rule:evenodd;stroke-linejoin:round;stroke-miterlimit:2;">
    <g transform="matrix(0.0323293,0,0,0.0310296,2.4801,3.2573)">
        <g transform="matrix(30.9317,0,0,32.2273,-76.7137,-104.974)">
            <path d="M12.391,22.009C11.812,22.698 11.403,23.19 11.301,23.313L14.819,26.119L28.62,18.194L28.601,16.063L25.761,17.694L25.761,18.739L17.718,23.358L17.711,22.246L14.793,23.922L12.391,22.009ZM14.847,19.117L17.619,21.324L14.8,22.943L12.887,21.419C13.469,20.73 14.153,19.923 14.847,19.117ZM18.035,15.56C18.448,15.14 18.731,14.892 18.812,14.909C19.651,15.082 20.45,15.126 21.196,15.038L24.769,17.883L17.786,21.893L19.007,21.192L15.481,18.385C16.162,17.601 16.824,16.853 17.378,16.253L19.177,17.686L20.065,17.176L18.035,15.56ZM7.631,18.219L3.38,14.834L3.423,17.031L6.445,19.441C6.555,19.28 6.682,19.128 6.826,18.986L7.631,18.219ZM10.401,15.577L8.194,17.682L3.387,13.855L6.206,12.236L10.401,15.577ZM25.2,12.26L28.601,14.969L25.502,16.749L22.808,14.604C23.361,14.36 23.869,14.021 24.327,13.585C24.656,13.273 24.957,12.796 25.2,12.26ZM15.072,10.161C15.111,10.425 15.172,10.689 15.253,10.951L13.885,12.255L12.572,11.21L11.684,11.719L13.19,12.918L11.109,14.903L7.594,12.105L13.356,8.796L15.072,10.161ZM20.399,8.438L20.587,9.576L21.972,9.763L22.011,9.721L20.399,8.438ZM15.782,6.689L14.089,7.661L15.096,8.463C15.211,7.835 15.443,7.234 15.782,6.689Z" style="fill:white;"/>
        </g>
        <g transform="matrix(27.7699,0,0,28.9331,162.698,50.5991)">
            <path d="M19.288,4.132C19.239,3.932 19.058,3.79 18.852,3.79C18.732,3.79 18.617,3.838 18.533,3.923L15.74,6.74L13.191,6.312L12.766,3.741L15.559,0.924C15.643,0.839 15.691,0.723 15.691,0.603C15.691,0.395 15.548,0.211 15.346,0.16C13.504,-0.3 11.551,0.248 10.218,1.6C8.729,3.1 8.7,5.775 9.321,7.673L-0.4,16.631C-1.332,17.575 -1.332,19.115 -0.4,20.059C0.049,20.514 0.661,20.77 1.3,20.77C1.939,20.77 2.551,20.514 3,20.059L11.9,10.025C13.782,10.658 16.365,10.825 17.863,9.311C19.207,7.953 19.747,5.986 19.286,4.132L19.288,4.132Z" style="fill:white;fill-rule:nonzero;"/>
        </g>
    </g>
</svg>
