<?xml version="1.0" encoding="UTF-8" standalone="no"?>
<!DOCTYPE svg PUBLIC "-//W3C//DTD SVG 1.1//EN" "http://www.w3.org/Graphics/SVG/1.1/DTD/svg11.dtd">
<svg width="100%" height="100%" viewBox="0 0 32 32" version="1.1" xmlns="http://www.w3.org/2000/svg" xmlns:xlink="http://www.w3.org/1999/xlink" xml:space="preserve" xmlns:serif="http://www.serif.com/" style="fill-rule:evenodd;clip-rule:evenodd;stroke-linejoin:round;stroke-miterlimit:2;">
    <g id="b">
    </g>
    <g transform="matrix(0.914883,0,0,0.94295,-1.48595,-0.460166)">
        <path d="M9.939,3.458L6.771,3.458L6.771,28.372L9.939,28.359L9.939,3.458Z" style="fill:white;"/>
    </g>
    <g transform="matrix(0.914883,0,0,0.919451,3.8231,0.206575)">
        <path d="M6.771,23.2L6.771,28.372L9.939,28.359L9.939,23.2" style="fill:white;"/>
    </g>
    <g transform="matrix(0.914883,0,0,0.919451,3.8231,-8.8004)">
        <path d="M6.771,23.2L6.771,28.372L9.939,28.359L9.939,23.2" style="fill:white;"/>
    </g>
    <g transform="matrix(0.914883,0,0,0.919451,3.8231,-0.378893)">
        <path d="M9.939,8.486L9.939,3.458L6.771,3.458L6.771,8.486" style="fill:white;"/>
    </g>
    <path d="M16.881,7.968C16.881,6.911 16.99,6.06 17.207,5.416C17.425,4.772 17.748,4.275 18.177,3.925C18.606,3.575 19.146,3.4 19.796,3.4C20.276,3.4 20.697,3.497 21.059,3.69C21.421,3.883 21.72,4.162 21.955,4.526C22.191,4.889 22.376,5.333 22.51,5.855C22.645,6.378 22.712,7.082 22.712,7.968C22.712,9.017 22.604,9.864 22.388,10.509C22.173,11.153 21.851,11.651 21.422,12.003C20.993,12.355 20.451,12.53 19.796,12.53C18.934,12.53 18.257,12.221 17.765,11.603C17.176,10.859 16.881,9.648 16.881,7.968ZM18.009,7.968C18.009,9.436 18.181,10.413 18.525,10.899C18.868,11.385 19.292,11.628 19.796,11.628C20.301,11.628 20.724,11.384 21.068,10.896C21.412,10.408 21.583,9.432 21.583,7.968C21.583,6.497 21.412,5.519 21.068,5.035C20.724,4.551 20.296,4.309 19.784,4.309C19.28,4.309 18.877,4.523 18.577,4.949C18.198,5.494 18.009,6.501 18.009,7.968ZM24.09,4.974C24.09,4.506 24.256,4.108 24.587,3.778C24.918,3.449 25.316,3.284 25.779,3.284C26.251,3.284 26.652,3.449 26.981,3.778C27.31,4.108 27.475,4.506 27.475,4.974C27.475,5.441 27.309,5.841 26.978,6.172C26.647,6.504 26.247,6.669 25.779,6.669C25.316,6.669 24.918,6.505 24.587,6.175C24.256,5.846 24.09,5.446 24.09,4.974ZM24.755,4.974C24.755,5.258 24.855,5.501 25.057,5.703C25.258,5.904 25.501,6.005 25.786,6.005C26.066,6.005 26.307,5.904 26.508,5.703C26.71,5.501 26.81,5.258 26.81,4.974C26.81,4.689 26.71,4.446 26.508,4.245C26.307,4.044 26.066,3.943 25.786,3.943C25.501,3.943 25.258,4.044 25.057,4.245C24.855,4.446 24.755,4.689 24.755,4.974Z" style="fill:white;fill-rule:nonzero;"/>
</svg>
