<?xml version="1.0" encoding="UTF-8" standalone="no"?>
<!DOCTYPE svg PUBLIC "-//W3C//DTD SVG 1.1//EN" "http://www.w3.org/Graphics/SVG/1.1/DTD/svg11.dtd">
<svg width="100%" height="100%" viewBox="0 0 26 26" version="1.1" xmlns="http://www.w3.org/2000/svg" xmlns:xlink="http://www.w3.org/1999/xlink" xml:space="preserve" xmlns:serif="http://www.serif.com/" style="fill-rule:evenodd;clip-rule:evenodd;stroke-linejoin:round;stroke-miterlimit:2;">
    <g id="b">
        <g>
            <path d="M21.781,8.283L21.781,17.717C21.781,20.14 19.814,22.107 17.391,22.107L8.609,22.107C6.186,22.107 4.219,20.14 4.219,17.717L4.219,8.283C4.219,5.86 6.186,3.893 8.609,3.893L17.391,3.893C19.814,3.893 21.781,5.86 21.781,8.283ZM15.998,8.143C15.95,7.862 15.704,7.654 15.419,7.654L13.064,7.654C12.741,7.654 12.475,7.92 12.475,8.243C12.475,8.566 12.741,8.831 13.064,8.831L14.92,8.831L15.265,10.902L11.631,13.25C11.064,12.665 10.283,12.333 9.469,12.333C7.819,12.333 6.462,13.69 6.462,15.34C6.462,16.989 7.819,18.346 9.469,18.346C11.118,18.346 12.475,16.989 12.475,15.34C12.475,14.964 12.405,14.591 12.267,14.241L15.476,12.168L15.543,12.567C14.405,13.002 13.65,14.1 13.65,15.317C13.65,16.933 14.979,18.262 16.594,18.262C18.209,18.262 19.538,16.933 19.538,15.317C19.538,13.744 18.277,12.435 16.705,12.376C16.68,12.231 16.021,8.276 15.998,8.145C15.998,8.143 15.998,8.142 15.998,8.143ZM9.531,17.075C8.562,17.075 7.764,16.277 7.764,15.308C7.764,14.339 8.562,13.542 9.531,13.542C9.92,13.543 10.297,13.675 10.603,13.915L9.212,14.814C9.037,14.921 8.93,15.111 8.93,15.316C8.93,15.639 9.195,15.905 9.518,15.905C9.637,15.905 9.752,15.87 9.85,15.803L11.245,14.902C11.279,15.035 11.296,15.171 11.297,15.308C11.297,16.277 10.5,17.075 9.531,17.075ZM16.597,17.075L16.591,17.075C15.625,17.075 14.83,16.28 14.83,15.314C14.83,14.673 15.181,14.08 15.743,13.771L16.016,15.406C16.057,15.694 16.307,15.911 16.599,15.911C16.922,15.911 17.188,15.645 17.188,15.322C17.188,15.285 17.184,15.248 17.177,15.211L16.905,13.573C17.735,13.731 18.341,14.463 18.341,15.309C18.341,16.269 17.557,17.063 16.597,17.075ZM11.125,9.593C11.014,9.482 10.865,9.42 10.708,9.42L9.531,9.42C9.208,9.42 8.942,9.686 8.942,10.009C8.942,10.332 9.208,10.598 9.531,10.598L10.465,10.598L11.47,11.603C11.581,11.718 11.734,11.783 11.893,11.783C12.216,11.783 12.482,11.517 12.482,11.194C12.482,11.034 12.417,10.881 12.302,10.77L11.125,9.593Z" style="fill:white;"/>
        </g>
    </g>
</svg>
