<?xml version="1.0" encoding="UTF-8" standalone="no"?>
<!DOCTYPE svg PUBLIC "-//W3C//DTD SVG 1.1//EN" "http://www.w3.org/Graphics/SVG/1.1/DTD/svg11.dtd">
<svg width="100%" height="100%" viewBox="0 0 100 100" version="1.1" xmlns="http://www.w3.org/2000/svg" xmlns:xlink="http://www.w3.org/1999/xlink" xml:space="preserve" xmlns:serif="http://www.serif.com/" style="fill-rule:evenodd;clip-rule:evenodd;stroke-linejoin:round;stroke-miterlimit:2;">
    <g id="Small-Cables-and-Pipes" serif:id="Small Cables and Pipes" transform="matrix(1.5625,0,0,1.5625,0,0)">
        <g transform="matrix(0.992546,-0.121869,0.121869,0.992546,-1079.63,613.44)">
            <path d="M1192,-423.5L1176.37,-443.32L1172.37,-440.2L1189.17,-419.356L1192,-423.5Z" style="fill:rgb(180,115,0);fill-rule:nonzero;"/>
        </g>
        <g transform="matrix(0.992546,-0.121869,0.121869,0.992546,-1080.47,613.521)">
            <path d="M1193.07,-423.414L1177.17,-443.267L1175.43,-441.911L1191.71,-422.185L1193.07,-423.414Z" style="fill:rgb(227,156,3);fill-rule:nonzero;"/>
        </g>
        <g transform="matrix(1,0,0,1,-1139.99,472.025)">
            <path d="M1185.44,-423.674C1185.91,-424.778 1186.82,-425.635 1187.96,-426.032C1189.72,-426.518 1190.2,-426.032 1190.2,-426.032L1173.93,-441.963L1170.44,-438.471L1185.44,-423.674Z" style="fill:rgb(59,59,59);fill-opacity:0.61;fill-rule:nonzero;"/>
        </g>
        <g transform="matrix(0.97437,0.224951,-0.224951,0.97437,48.692,47.179)">
            <path d="M2.563,4.449C1.582,4.449 0.783,3.483 0.783,2.297C0.783,1.111 1.582,0.145 2.563,0.145C3.545,0.145 4.344,1.111 4.344,2.297C4.344,3.483 3.545,4.449 2.563,4.449Z" style="fill:rgb(116,137,145);fill-rule:nonzero;"/>
        </g>
        <g transform="matrix(0.97437,0.224951,-0.224951,0.97437,48.692,47.179)">
            <path d="M2.563,0.645C1.869,0.645 1.283,1.402 1.283,2.297C1.283,3.192 1.869,3.949 2.563,3.949C3.257,3.949 3.844,3.192 3.844,2.297C3.844,1.402 3.257,0.645 2.563,0.645M2.563,-0.355C3.823,-0.355 4.844,0.832 4.844,2.297C4.844,3.761 3.823,4.949 2.563,4.949C1.304,4.949 0.283,3.761 0.283,2.297C0.283,0.832 1.304,-0.355 2.563,-0.355Z" style="fill:rgb(141,91,3);fill-rule:nonzero;"/>
        </g>
    </g>
    <rect id="Extents" x="41.969" y="41.514" width="47.053" height="45.406" style="fill:none;"/>
    <rect id="Position" x="41.969" y="41.514" width="47.053" height="45.406" style="fill:none;"/>
</svg>
