<?xml version="1.0" encoding="UTF-8" standalone="no"?>
<!DOCTYPE svg PUBLIC "-//W3C//DTD SVG 1.1//EN" "http://www.w3.org/Graphics/SVG/1.1/DTD/svg11.dtd">
<svg width="100%" height="100%" viewBox="0 0 100 100" version="1.1" xmlns="http://www.w3.org/2000/svg" xmlns:xlink="http://www.w3.org/1999/xlink" xml:space="preserve" xmlns:serif="http://www.serif.com/" style="fill-rule:evenodd;clip-rule:evenodd;stroke-linejoin:round;stroke-miterlimit:2;">
    <g transform="matrix(0.2,0,0,0.2,8.5,-4.92702)">
        <path d="M350,364.635L299.973,394.567L65,199.635L65,184.635L115.027,154.703L350,349.635L350,364.635Z" style="fill:rgb(67,67,67);"/>
    </g>
    <g transform="matrix(0.2,0,0,0.2,8.5,-4.92702)">
        <path d="M350,349.635L299.973,379.567L65,184.635L115.027,154.703L350,349.635Z" style="fill:rgb(113,103,88);"/>
    </g>
    <g transform="matrix(1,0,0,1,-1.06581e-14,0.743105)">
        <path d="M76.604,63.331L76.604,64.081L68.495,68.932L66.897,67.609L66.897,66.859L76.604,63.331ZM72.364,59.818L72.364,60.568L64.255,65.42L62.657,64.096L62.657,63.347L72.364,59.818ZM68.125,56.306L68.125,57.056L60.015,61.908L58.418,60.584L58.418,59.834L68.125,56.306ZM63.885,52.794L63.885,53.544L55.776,58.396L54.178,57.072L54.178,56.322L63.885,52.794ZM59.646,49.282L59.646,50.032L51.536,54.884L49.939,53.56L49.939,52.81L59.646,49.282ZM55.406,45.77L55.406,46.52L47.297,51.371L45.699,50.048L45.699,49.298L55.406,45.77ZM51.167,42.257L51.167,43.007L43.057,47.859L41.46,46.536L41.46,45.786L51.167,42.257ZM46.927,38.745L46.927,39.495L38.818,44.347L37.22,43.023L37.22,42.273L46.927,38.745ZM42.688,35.233L42.688,35.983L34.578,40.835L32.981,39.511L32.981,38.761L42.688,35.233ZM38.448,31.721L38.448,32.471L30.339,37.323L28.741,35.999L28.741,35.249L38.448,31.721ZM34.209,28.209L34.209,28.959L26.099,33.81L24.502,32.487L24.502,31.737L34.209,28.209Z" style="fill:rgb(81,53,14);"/>
    </g>
    <g transform="matrix(1,0,0,1,-1.06581e-14,-0.0068325)">
        <path d="M75.006,62.757L76.604,64.081L68.495,68.932L66.897,67.609L75.006,62.757ZM70.766,59.245L72.364,60.568L64.255,65.42L62.657,64.096L70.766,59.245ZM66.527,55.733L68.125,57.056L60.015,61.908L58.418,60.584L66.527,55.733ZM62.287,52.22L63.885,53.544L55.776,58.396L54.178,57.072L62.287,52.22ZM58.048,48.708L59.646,50.032L51.536,54.884L49.939,53.56L58.048,48.708ZM53.808,45.196L55.406,46.52L47.297,51.371L45.699,50.048L53.808,45.196ZM49.569,41.684L51.167,43.007L43.057,47.859L41.46,46.536L49.569,41.684ZM45.329,38.172L46.927,39.495L38.818,44.347L37.22,43.023L45.329,38.172ZM41.09,34.659L42.688,35.983L34.578,40.835L32.981,39.511L41.09,34.659ZM36.85,31.147L38.448,32.471L30.339,37.323L28.741,35.999L36.85,31.147ZM32.611,27.635L34.209,28.959L26.099,33.81L24.502,32.487L32.611,27.635Z" style="fill:url(#_Linear1);"/>
    </g>
    <g transform="matrix(0.2,0,0,0.2,8.5,-4.92702)">
        <path d="M81.904,167.332L316.876,362.264L316.876,368.376L313.45,370.427L78.477,175.495L78.477,169.383L81.904,167.332Z" style="fill:rgb(87,86,86);"/>
    </g>
    <g transform="matrix(0.2,0,0,0.2,8.5,-4.92702)">
        <path d="M81.904,167.332L316.876,362.264L313.45,364.314L313.45,370.427L78.477,175.495L78.477,169.383L81.904,167.332Z" style="fill:rgb(216,213,213);"/>
    </g>
    <g transform="matrix(0.2,0,0,0.2,8.5,-4.92702)">
        <path d="M78.477,169.383L313.45,364.314L313.45,370.427L78.477,175.495L78.477,169.383Z" style="fill:rgb(128,128,128);"/>
    </g>
    <g transform="matrix(0.2,0,0,0.2,8.5,-4.92702)">
        <path d="M101.767,155.448L336.74,350.38L336.74,356.492L333.313,358.542L98.34,163.611L98.34,157.498L101.767,155.448Z" style="fill:rgb(87,86,86);"/>
    </g>
    <g transform="matrix(0.2,0,0,0.2,8.5,-4.92702)">
        <path d="M101.767,155.448L336.74,350.38L333.313,352.43L333.313,358.542L98.34,163.611L98.34,157.498L101.767,155.448Z" style="fill:rgb(216,213,213);"/>
    </g>
    <g transform="matrix(0.2,0,0,0.2,8.5,-4.92702)">
        <path d="M98.34,157.498L333.313,352.43L333.313,358.542L98.34,163.611L98.34,157.498Z" style="fill:rgb(128,128,128);"/>
    </g>
    <rect id="Position" x="68.495" y="68" width="10.005" height="5.986" style="fill:none;"/>
    <rect id="Extents" x="21.5" y="26.014" width="57" height="47.973" style="fill:none;"/>
    <defs>
        <linearGradient id="_Linear1" x1="0" y1="0" x2="1" y2="0" gradientUnits="userSpaceOnUse" gradientTransform="matrix(45.4251,37.2579,-37.2579,45.4251,28.0477,29.8114)"><stop offset="0" style="stop-color:rgb(211,171,126);stop-opacity:1"/><stop offset="1" style="stop-color:rgb(176,138,97);stop-opacity:1"/></linearGradient>
    </defs>
</svg>
