<?xml version="1.0" encoding="UTF-8" standalone="no"?>
<!DOCTYPE svg PUBLIC "-//W3C//DTD SVG 1.1//EN" "http://www.w3.org/Graphics/SVG/1.1/DTD/svg11.dtd">
<svg width="100%" height="100%" viewBox="0 0 100 100" version="1.1" xmlns="http://www.w3.org/2000/svg" xmlns:xlink="http://www.w3.org/1999/xlink" xml:space="preserve" xmlns:serif="http://www.serif.com/" style="fill-rule:evenodd;clip-rule:evenodd;stroke-linejoin:round;stroke-miterlimit:2;">
    <g transform="matrix(0.2,0,0,0.2,10.6715,-6.22626)">
        <path d="M328.285,377.628L299.973,394.567L65,199.635L65,184.635L93.312,167.696L328.285,362.628L328.285,377.628Z" style="fill:rgb(67,67,67);"/>
    </g>
    <g transform="matrix(0.2,0,0,0.2,10.6715,-6.22626)">
        <path d="M93.312,167.696L328.285,362.628L299.973,379.567L65,184.635L93.312,167.696Z" style="fill:rgb(176,172,172);"/>
    </g>
    <g transform="matrix(0.851442,-0.524447,0.922341,0.755592,-41.8728,40.8258)">
        <path d="M52.659,73.12L51.83,73.95L51.828,74.17L53.731,74.192L52.659,73.12ZM57.059,71.495L53.809,68.245L52.66,69.394L55.91,72.644L57.059,71.495ZM58.433,69.644L58.451,67.328L55.909,69.87L57.058,71.019L58.433,69.644ZM52.659,66.62L51.881,67.398L51.848,69.729L53.808,67.769L52.659,66.62ZM57.059,64.995L53.809,61.745L52.66,62.894L55.91,66.144L57.059,64.995ZM58.483,63.093L58.502,60.777L55.909,63.37L57.058,64.519L58.483,63.093ZM52.659,60.12L51.932,60.847L51.914,63.163L53.808,61.269L52.659,60.12ZM57.058,58.495L53.808,55.245L52.659,56.394L55.909,59.644L57.058,58.495ZM52.659,53.62L51.983,54.296L51.965,56.612L53.808,54.769L52.659,53.62ZM58.538,56.539L58.552,54.227L55.909,56.87L57.058,58.019L58.538,56.539ZM57.058,51.995L53.808,48.745L52.659,49.894L55.909,53.144L57.058,51.995ZM58.585,49.992L58.603,47.676L55.909,50.37L57.058,51.519L58.585,49.992ZM58.604,47.676L58.603,47.676L58.604,47.676ZM52.659,47.12L52.034,47.745L52.016,50.061L53.808,48.269L52.659,47.12ZM57.059,45.494L53.809,42.244L52.66,43.393L55.91,46.643L57.059,45.494ZM58.636,43.44L58.654,41.124L55.909,43.869L57.058,45.018L58.636,43.44ZM52.659,40.619L52.085,41.194L52.067,43.51L53.808,41.768L52.659,40.619ZM57.059,38.994L53.809,35.744L52.66,36.893L55.91,40.143L57.059,38.994ZM58.687,36.889L58.705,34.573L55.909,37.369L57.058,38.518L58.687,36.889ZM52.659,34.119L52.136,34.643L52.118,36.959L53.808,35.268L52.659,34.119ZM57.058,32.494L53.808,29.244L52.659,30.393L55.909,33.643L57.058,32.494ZM52.659,27.62L52.187,28.092L52.169,30.408L53.808,28.769L52.659,27.62ZM58.738,30.338L58.756,28.022L55.909,30.87L57.058,32.019L58.738,30.338ZM57.058,25.994L53.951,22.886L53.685,22.867L52.659,23.893L55.909,27.143L57.058,25.994ZM58.789,23.787L58.796,22.926L57.369,22.909L55.909,24.37L57.058,25.519L58.789,23.787ZM53.215,22.862L52.227,22.85L52.22,23.857L53.215,22.862Z" style="fill:rgb(121,124,132);"/>
    </g>
    <g transform="matrix(0.851442,-0.524447,0.922341,0.755592,-41.8728,40.8258)">
        <path d="M54.213,74.198L56.551,74.237L53.809,71.495L52.66,72.644L54.213,74.198ZM52.659,69.87L51.855,70.674L51.837,72.99L53.808,71.019L52.659,69.87ZM58.407,72.92L58.425,70.604L55.909,73.12L57.019,74.23L57.096,74.231L58.407,72.92ZM57.059,68.245L53.809,64.995L52.66,66.144L55.91,69.394L57.059,68.245ZM58.439,66.388L58.476,64.053L55.909,66.62L57.058,67.769L58.439,66.388ZM52.659,63.37L51.906,64.123L51.888,66.439L53.808,64.519L52.659,63.37ZM57.058,61.745L53.808,58.495L52.659,59.644L55.909,62.894L57.058,61.745ZM58.538,59.789L58.527,57.502L55.909,60.12L57.058,61.269L58.538,59.789ZM52.659,56.87L51.957,57.572L51.939,59.888L53.808,58.019L52.659,56.87ZM57.058,55.245L53.808,51.995L52.659,53.144L55.909,56.394L57.058,55.245ZM58.56,53.267L58.572,50.957L55.909,53.62L57.058,54.769L58.56,53.267ZM52.659,50.37L52.008,51.021L51.99,53.337L53.808,51.519L52.659,50.37ZM57.058,48.745L56.82,48.507L54.522,48.507L55.909,49.894L57.058,48.745ZM54.523,48.506L56.821,48.506L53.809,45.494L52.66,46.643L54.523,48.506ZM52.659,43.869L52.059,44.469L52.041,46.785L53.808,45.018L52.659,43.869ZM58.611,46.715L58.629,44.399L55.909,47.119L57.058,48.268L58.611,46.715ZM57.059,42.244L53.809,38.994L52.66,40.143L55.91,43.393L57.059,42.244ZM58.662,40.165L58.671,37.858L55.909,40.619L57.058,41.768L58.662,40.165ZM52.659,37.369L52.11,37.918L52.092,40.234L53.808,38.518L52.659,37.369ZM57.058,35.745L53.808,32.495L52.659,33.644L55.909,36.894L57.058,35.745ZM58.713,33.614L58.731,31.298L55.909,34.119L57.058,35.268L58.713,33.614ZM52.659,30.869L52.161,31.368L52.143,33.684L53.808,32.018L52.659,30.869ZM57.058,29.244L53.808,25.994L52.659,27.143L55.909,30.393L57.058,29.244ZM58.764,27.063L58.782,24.747L55.909,27.62L57.058,28.769L58.764,27.063ZM52.659,24.37L52.212,24.817L52.194,27.133L53.808,25.519L52.659,24.37ZM56.898,22.904L54.897,22.881L55.909,23.893L56.898,22.904Z" style="fill:rgb(135,140,149);"/>
    </g>
    <rect id="Position" x="70.666" y="69.299" width="5.662" height="3.388" style="fill:none;"/>
    <rect id="Extents" x="23.671" y="27.313" width="52.658" height="45.375" style="fill:none;"/>
</svg>
