<?xml version="1.0" encoding="UTF-8" standalone="no"?>
<!DOCTYPE svg PUBLIC "-//W3C//DTD SVG 1.1//EN" "http://www.w3.org/Graphics/SVG/1.1/DTD/svg11.dtd">
<svg width="100%" height="100%" viewBox="0 0 100 100" version="1.1" xmlns="http://www.w3.org/2000/svg" xmlns:xlink="http://www.w3.org/1999/xlink" xml:space="preserve" xmlns:serif="http://www.serif.com/" style="fill-rule:evenodd;clip-rule:evenodd;stroke-linejoin:round;stroke-miterlimit:2;">
    <g transform="matrix(0.2,0,0,0.2,8.5,-4.92018)">
        <path d="M376.487,348.788L299.973,394.567L65,199.635L65,184.635L141.514,138.856L376.487,333.788L376.487,348.788Z" style="fill:rgb(67,67,67);"/>
    </g>
    <g transform="matrix(0.2,0,0,0.2,8.5,-4.92018)">
        <path d="M376.487,333.788L299.973,379.567L65,184.635L141.514,138.856L376.487,333.788Z" style="fill:rgb(110, 110, 110);"/>
        <g transform="matrix(1,0,0,1,28.056,-16.8202)">
            <path d="M271.917,396.387L319.456,326.573L315.906,323.629L268.369,393.443L271.917,396.387Z" style="fill:rgb(216,216,216);"/>
        </g>
        <g transform="matrix(1,0,0,1,28.056,-16.8202)">
            <path d="M242.942,372.353L290.481,302.539L286.932,299.594L239.394,369.408L242.942,372.353Z" style="fill:rgb(216,216,216);"/>
        </g>
        <g transform="matrix(1,0,0,1,28.056,-16.8202)">
            <path d="M213.967,348.318L261.506,278.504L257.957,275.56L210.419,345.374L213.967,348.318Z" style="fill:rgb(216,216,216);"/>
        </g>
        <g transform="matrix(1,0,0,1,28.056,-16.8202)">
            <path d="M184.993,324.284L232.532,254.47L228.982,251.525L181.444,321.339L184.993,324.284Z" style="fill:rgb(216,216,216);"/>
        </g>
        <g transform="matrix(1,0,0,1,28.056,-16.8202)">
            <path d="M156.018,300.249L203.557,230.435L200.007,227.491L152.469,297.305L156.018,300.249Z" style="fill:rgb(216,216,216);"/>
        </g>
        <g transform="matrix(1,0,0,1,28.056,-16.8202)">
            <path d="M127.043,276.215L174.582,206.401L171.032,203.456L123.494,273.27L127.043,276.215Z" style="fill:rgb(216,216,216);"/>
        </g>
        <g transform="matrix(1,0,0,1,28.056,-16.8202)">
            <path d="M98.068,252.18L145.607,182.366L142.058,179.422L94.52,249.236L98.068,252.18Z" style="fill:rgb(216,216,216);"/>
        </g>
        <g transform="matrix(1,0,0,1,28.056,-16.8202)">
            <path d="M69.093,228.146L116.632,158.332L113.455,155.696L65.917,225.51L69.093,228.146Z" style="fill:rgb(216,216,216);"/>
        </g>
    </g>
    <rect id="Position" x="68.495" y="64.854" width="15.302" height="9.139" style="fill:none;"/>
    <rect id="Extents" x="21.5" y="22.851" width="62.297" height="51.142" style="fill:none;"/>
</svg>
