<?xml version="1.0" encoding="UTF-8" standalone="no"?>
<!DOCTYPE svg PUBLIC "-//W3C//DTD SVG 1.1//EN" "http://www.w3.org/Graphics/SVG/1.1/DTD/svg11.dtd">
<svg width="100%" height="100%" viewBox="0 0 100 100" version="1.1" xmlns="http://www.w3.org/2000/svg" xmlns:xlink="http://www.w3.org/1999/xlink" xml:space="preserve" xmlns:serif="http://www.serif.com/" style="fill-rule:evenodd;clip-rule:evenodd;stroke-linejoin:round;stroke-miterlimit:2;">
    <g transform="matrix(0.2,0,0,0.2,8.5,-4.92702)">
        <path d="M350,364.635L299.973,394.567L65,199.635L65,179.635L115.027,149.703L350,344.635L350,364.635Z" style="fill:rgb(67,67,67);"/>
    </g>
    <g transform="matrix(0.2,0,0,0.2,8.5,-4.92702)">
        <path d="M350,344.635L299.973,374.567L65,179.635L115.027,149.703L350,344.635Z" style="fill:rgb(176,172,172);"/>
    </g>
    <g transform="matrix(0.2,0,0,0.2,8.5,-4.92702)">
        <path d="M339.476,350.932L310.907,368.025L75.934,173.093L104.503,156L339.476,350.932Z" style="fill:rgb(56,129,0);"/>
    </g>
    <g transform="matrix(1.30158,0,0,1.30158,-8.2512,5.59533)">
        <g transform="matrix(1,0,0,1,28.721,19.706)">
            <ellipse cx="3.145" cy="1.836" rx="3.145" ry="1.836" style="fill:rgb(1,1,1);fill-opacity:0.17;"/>
        </g>
        <g transform="matrix(1,0,0,1,30.867,16.71)">
            <path d="M0.263,0L1.88,0L2.35,4.386C2.003,4.64 1.593,4.794 1.164,4.832C0.742,4.796 0.338,4.641 0,4.386L0.263,0Z" style="fill:rgb(151,108,79);fill-rule:nonzero;"/>
        </g>
        <g transform="matrix(1,0,0,1,27.95,9.67)">
            <ellipse cx="4.145" cy="4.671" rx="4.145" ry="4.671" style="fill:rgb(84,182,11);"/>
        </g>
        <g transform="matrix(1,0,0,1,26.107,8.401)">
            <ellipse cx="3.684" cy="4.171" rx="3.684" ry="4.171" style="fill:rgb(84,182,11);"/>
        </g>
        <g transform="matrix(1,0,0,1,33.169,10.003)">
            <ellipse cx="2.456" cy="2.669" rx="2.456" ry="2.669" style="fill:rgb(84,182,11);"/>
        </g>
        <g transform="matrix(1,0,0,1,26.107,8.335)">
            <ellipse cx="3.531" cy="3.67" rx="3.531" ry="3.67" style="fill:rgb(121,221,44);"/>
        </g>
        <g transform="matrix(1,0,0,1,32.555,9.67)">
            <ellipse cx="2.456" cy="2.002" rx="2.456" ry="2.002" style="fill:rgb(121,221,44);"/>
        </g>
        <g transform="matrix(1,0,0,1,27.632,8.904)">
            <path d="M4.145,0C6.379,-0.038 8.249,1.767 8.29,4C8.233,6.106 6.485,7.807 4.378,7.807C4.301,7.807 4.223,7.805 4.145,7.8C4.067,7.805 3.989,7.807 3.912,7.807C1.805,7.807 0.057,6.106 0,4C0.041,1.767 1.911,-0.038 4.145,0Z" style="fill:rgb(121,221,44);fill-rule:nonzero;"/>
        </g>
        <g transform="matrix(1,0,0,1,27.643,5.666)">
            <ellipse cx="4.605" cy="4.171" rx="4.605" ry="4.171" style="fill:rgb(121,221,44);"/>
        </g>
    </g>
    <g transform="matrix(1.30158,0,0,1.30158,-3.91709,9.51001)">
        <g transform="matrix(1,0,0,1,38.452,27.391)">
            <ellipse cx="3.145" cy="1.836" rx="3.145" ry="1.836" style="fill:rgb(1,1,1);fill-opacity:0.17;"/>
        </g>
        <g transform="matrix(1,0,0,1,40.598,24.395)">
            <path d="M0.263,0L1.88,0L2.35,4.386C2.003,4.64 1.593,4.794 1.164,4.832C0.742,4.796 0.338,4.641 0,4.386L0.263,0Z" style="fill:rgb(151,108,79);fill-rule:nonzero;"/>
        </g>
        <g transform="matrix(1,0,0,1,37.68,17.354)">
            <ellipse cx="4.145" cy="4.671" rx="4.145" ry="4.671" style="fill:rgb(84,182,11);"/>
        </g>
        <g transform="matrix(1,0,0,1,35.838,16.086)">
            <ellipse cx="3.684" cy="4.171" rx="3.684" ry="4.171" style="fill:rgb(84,182,11);"/>
        </g>
        <g transform="matrix(1,0,0,1,42.9,17.688)">
            <ellipse cx="2.456" cy="2.669" rx="2.456" ry="2.669" style="fill:rgb(84,182,11);"/>
        </g>
        <g transform="matrix(1,0,0,1,35.838,16.02)">
            <ellipse cx="3.531" cy="3.67" rx="3.531" ry="3.67" style="fill:rgb(121,221,44);"/>
        </g>
        <g transform="matrix(1,0,0,1,42.286,17.354)">
            <ellipse cx="2.456" cy="2.002" rx="2.456" ry="2.002" style="fill:rgb(121,221,44);"/>
        </g>
        <g transform="matrix(1,0,0,1,37.363,16.589)">
            <path d="M4.145,0C6.379,-0.038 8.249,1.767 8.29,4C8.233,6.106 6.485,7.807 4.378,7.807C4.301,7.807 4.223,7.805 4.145,7.8C4.067,7.805 3.989,7.807 3.912,7.807C1.805,7.807 0.057,6.106 0,4C0.041,1.767 1.911,-0.038 4.145,0Z" style="fill:rgb(121,221,44);fill-rule:nonzero;"/>
        </g>
        <g transform="matrix(1,0,0,1,37.373,13.351)">
            <ellipse cx="4.605" cy="4.171" rx="4.605" ry="4.171" style="fill:rgb(121,221,44);"/>
        </g>
    </g>
    <g transform="matrix(1.30158,0,0,1.30158,0.976256,13.8462)">
        <g transform="matrix(1,0,0,1,48.584,35.732)">
            <ellipse cx="3.145" cy="1.836" rx="3.145" ry="1.836" style="fill:rgb(1,1,1);fill-opacity:0.17;"/>
        </g>
        <g transform="matrix(1,0,0,1,50.73,32.736)">
            <path d="M0.263,0L1.88,0L2.35,4.386C2.003,4.64 1.593,4.794 1.164,4.832C0.742,4.796 0.338,4.641 0,4.386L0.263,0Z" style="fill:rgb(151,108,79);fill-rule:nonzero;"/>
        </g>
        <g transform="matrix(1,0,0,1,47.812,25.696)">
            <ellipse cx="4.145" cy="4.671" rx="4.145" ry="4.671" style="fill:rgb(84,182,11);"/>
        </g>
        <g transform="matrix(1,0,0,1,45.97,24.427)">
            <ellipse cx="3.684" cy="4.171" rx="3.684" ry="4.171" style="fill:rgb(84,182,11);"/>
        </g>
        <g transform="matrix(1,0,0,1,53.032,26.029)">
            <ellipse cx="2.456" cy="2.669" rx="2.456" ry="2.669" style="fill:rgb(84,182,11);"/>
        </g>
        <g transform="matrix(1,0,0,1,45.97,24.361)">
            <ellipse cx="3.531" cy="3.67" rx="3.531" ry="3.67" style="fill:rgb(121,221,44);"/>
        </g>
        <g transform="matrix(1,0,0,1,52.418,25.696)">
            <ellipse cx="2.456" cy="2.002" rx="2.456" ry="2.002" style="fill:rgb(121,221,44);"/>
        </g>
        <g transform="matrix(1,0,0,1,47.495,24.93)">
            <path d="M4.145,0C6.379,-0.038 8.249,1.767 8.29,4C8.233,6.106 6.485,7.807 4.378,7.807C4.301,7.807 4.223,7.805 4.145,7.8C4.067,7.805 3.989,7.807 3.912,7.807C1.805,7.807 0.057,6.106 0,4C0.041,1.767 1.911,-0.038 4.145,0Z" style="fill:rgb(121,221,44);fill-rule:nonzero;"/>
        </g>
        <g transform="matrix(1,0,0,1,47.505,21.692)">
            <ellipse cx="4.605" cy="4.171" rx="4.605" ry="4.171" style="fill:rgb(121,221,44);"/>
        </g>
    </g>
    <rect id="Position" x="68.603" y="68" width="9.897" height="5.986" style="fill:none;"/>
    <rect id="Extents" x="21.5" y="12.97" width="57" height="61.016" style="fill:none;"/>
</svg>
