<?xml version="1.0" encoding="UTF-8" standalone="no"?>
<!DOCTYPE svg PUBLIC "-//W3C//DTD SVG 1.1//EN" "http://www.w3.org/Graphics/SVG/1.1/DTD/svg11.dtd">
<svg width="100%" height="100%" viewBox="0 0 100 100" version="1.1" xmlns="http://www.w3.org/2000/svg" xmlns:xlink="http://www.w3.org/1999/xlink" xml:space="preserve" xmlns:serif="http://www.serif.com/" style="fill-rule:evenodd;clip-rule:evenodd;stroke-linejoin:round;stroke-miterlimit:2;">
    <g transform="matrix(0.2,0,0,0.2,8.5,-4.92018)">
        <path d="M376.487,348.788L299.973,394.567L65,199.635L65,184.635L141.514,138.856L376.487,333.788L376.487,348.788Z" style="fill:rgb(67,67,67);"/>
    </g>
    <g transform="matrix(0.2,0,0,0.2,8.5,-4.92018)">
        <path d="M376.487,333.788L299.973,379.567L65,184.635L141.514,138.856L376.487,333.788Z" style="fill:rgb(110, 110, 110);"/>
        <g transform="matrix(1,0,0,1,28.056,-16.8202)">
            <path d="M271.919,396.386L348.431,350.608L344.881,347.663L268.371,393.441L271.919,396.386Z" style="fill:rgb(216,216,216);"/>
        </g>
        <g transform="matrix(1,0,0,1,28.056,-16.8202)">
            <path d="M242.944,372.352L319.456,326.573L315.906,323.629L239.396,369.407L242.944,372.352Z" style="fill:rgb(216,216,216);"/>
        </g>
        <g transform="matrix(1,0,0,1,28.056,-16.8202)">
            <path d="M213.969,348.317L290.481,302.539L286.932,299.594L210.421,345.372L213.969,348.317Z" style="fill:rgb(216,216,216);"/>
        </g>
        <g transform="matrix(1,0,0,1,28.056,-16.8202)">
            <path d="M184.995,324.283L261.506,278.504L257.957,275.56L181.446,321.338L184.995,324.283Z" style="fill:rgb(216,216,216);"/>
        </g>
        <g transform="matrix(1,0,0,1,28.056,-16.8202)">
            <path d="M156.02,300.248L232.532,254.47L228.982,251.525L152.471,297.303L156.02,300.248Z" style="fill:rgb(216,216,216);"/>
        </g>
        <g transform="matrix(1,0,0,1,28.056,-16.8202)">
            <path d="M127.045,276.214L203.557,230.435L200.007,227.491L123.496,273.269L127.045,276.214Z" style="fill:rgb(216,216,216);"/>
        </g>
        <g transform="matrix(1,0,0,1,28.056,-16.8202)">
            <path d="M98.07,252.179L174.582,206.401L171.032,203.456L94.522,249.234L98.07,252.179Z" style="fill:rgb(216,216,216);"/>
        </g>
        <g transform="matrix(1,0,0,1,28.056,-16.8202)">
            <path d="M69.095,228.145L145.607,182.366L142.058,179.422L65.547,225.2L69.095,228.145Z" style="fill:rgb(216,216,216);"/>
        </g>
        <g transform="matrix(1,0,0,1,28.056,-16.8202)">
            <path d="M40.121,204.11L116.632,158.332L113.455,155.696L36.944,201.474L40.121,204.11Z" style="fill:rgb(216,216,216);"/>
        </g>
    </g>
    <rect id="Position" x="68.495" y="64.854" width="15.302" height="9.139" style="fill:none;"/>
    <rect id="Extents" x="21.5" y="22.851" width="62.297" height="51.142" style="fill:none;"/>
</svg>
