<?xml version="1.0" encoding="UTF-8" standalone="no"?>
<!DOCTYPE svg PUBLIC "-//W3C//DTD SVG 1.1//EN" "http://www.w3.org/Graphics/SVG/1.1/DTD/svg11.dtd">
<svg width="100%" height="100%" viewBox="0 0 100 100" version="1.1" xmlns="http://www.w3.org/2000/svg" xmlns:xlink="http://www.w3.org/1999/xlink" xml:space="preserve" xmlns:serif="http://www.serif.com/" style="fill-rule:evenodd;clip-rule:evenodd;stroke-linejoin:round;stroke-miterlimit:2;">
    <g transform="matrix(0.2,0,0,0.2,4.6269,-1.08407)">
        <path d="M388.731,341.462L299.973,394.567L65,199.635L65,184.635L153.758,131.531L388.731,326.462L388.731,341.462Z" style="fill:rgb(67,67,67);"/>
    </g>
    <g transform="matrix(0.2,0,0,0.2,4.6269,-1.08407)">
        <path d="M388.731,326.462L299.973,379.567L65,184.635L153.758,131.531L388.731,326.462Z" style="fill:rgb(113,103,88);"/>
    </g>
    <g transform="matrix(0.2,0,0,0.2,5.09301,-1.31244)">
        <path d="M72.217,171.047L307.19,362.253L307.19,375L72.217,180.034L72.217,171.047Z" style="fill:rgb(169,169,169);"/>
    </g>
    <g transform="matrix(0.2,0,0,0.2,5.09301,-1.31244)">
        <path d="M147.843,122.07L382.815,312.382L382.815,317.036L378.334,319.715L378.334,332.463L307.184,375L307.19,362.253L301.296,365.777L66.323,170.811L147.843,122.07Z" style="fill:rgb(131,124,117);"/>
    </g>
    <g transform="matrix(0.2,0,0,0.2,5.09301,-1.31244)">
        <path d="M66.323,166.157L301.296,361.122L301.296,365.777L66.323,170.811L66.323,166.157Z" style="fill:rgb(184,164,146);"/>
    </g>
    <g transform="matrix(0.2,0,0,0.2,5.09301,-1.31244)">
        <path d="M147.843,117.416L382.815,312.382L301.296,361.122L66.323,166.157L147.843,117.416Z" style="fill:rgb(214,203,192);"/>
    </g>
    <g transform="matrix(0.2,0,0,0.2,5.09301,-1.31244)">
        <path d="M144.541,136.402L353.686,309.938L301.296,341.263L92.151,167.727L144.541,136.402Z" style="fill:rgb(214,203,192);"/>
    </g>
    <g transform="matrix(0.2,0,0,0.2,5.09301,-1.31244)">
        <path d="M146.627,133.888C145.561,133.003 144.053,132.887 142.864,133.598L90.474,164.922C89.564,165.467 88.974,166.419 88.893,167.476C88.811,168.533 89.248,169.564 90.064,170.241L299.209,343.777C300.275,344.662 301.783,344.778 302.972,344.067L355.363,312.743C356.273,312.198 356.862,311.246 356.944,310.189C357.025,309.132 356.588,308.101 355.772,307.424L146.627,133.888ZM144.541,136.402L353.686,309.938L301.296,341.263L92.151,167.727L144.541,136.402Z" style="fill:rgb(255,187,52);"/>
    </g>
    <g transform="matrix(0.774589,-0.477109,0.839088,0.687391,-33.5179,39.2845)">
        <path d="M59.159,73.12L58.618,73.661L59.713,73.674L59.159,73.12ZM52.659,73.12L52.194,73.586L53.136,73.597L52.659,73.12ZM50.559,71.495L48.018,68.955L48,71.235L49.41,72.644L50.559,71.495ZM57.059,71.495L53.809,68.245L52.66,69.394L55.91,72.644L57.059,71.495ZM61.356,71.59L61.374,69.31L60.309,68.245L59.16,69.394L61.356,71.59ZM59.159,66.62L55.909,69.87L57.058,71.019L60.308,67.769L59.159,66.62ZM52.659,66.62L49.409,69.87L50.558,71.019L53.808,67.769L52.659,66.62ZM50.559,64.995L48.069,62.505L48.051,64.785L49.41,66.144L50.559,64.995ZM61.412,65.147L61.425,62.861L60.309,61.745L59.16,62.894L61.412,65.147ZM57.059,64.995L53.809,61.745L52.66,62.894L55.91,66.144L57.059,64.995ZM59.159,60.12L55.909,63.37L57.058,64.519L60.308,61.269L59.159,60.12ZM52.659,60.12L49.409,63.37L50.558,64.519L53.808,61.269L52.659,60.12ZM50.558,58.495L48.12,56.057L48.102,58.337L49.409,59.644L50.558,58.495ZM61.458,58.692L61.476,56.412L60.308,55.245L59.159,56.394L61.458,58.692ZM57.058,58.495L53.808,55.245L52.659,56.394L55.909,59.644L57.058,58.495ZM52.659,53.62L49.409,56.87L50.558,58.019L53.808,54.769L52.659,53.62ZM59.159,53.62L55.909,56.87L57.058,58.019L60.308,54.769L59.159,53.62ZM50.558,51.995L48.171,49.607L48.153,51.887L49.409,53.144L50.558,51.995ZM57.058,51.995L53.808,48.745L52.659,49.894L55.909,53.144L57.058,51.995ZM61.508,52.267L61.527,49.872L60.308,48.745L59.159,49.894L61.508,52.267ZM60.07,48.507L57.772,48.507L55.909,50.37L57.058,51.519L60.07,48.507ZM53.57,48.507L51.272,48.507L49.409,50.37L50.558,51.519L53.57,48.507ZM59.159,47.12L57.772,48.507L60.07,48.507L60.308,48.269L59.159,47.12ZM52.659,47.12L51.272,48.507L53.57,48.507L53.808,48.269L52.659,47.12ZM50.559,45.494L48.222,43.158L48.204,45.438L49.41,46.643L50.559,45.494ZM57.059,45.494L53.809,42.244L52.66,43.393L55.91,46.643L57.059,45.494ZM61.59,45.824L61.64,43.576L60.309,42.244L59.16,43.393L61.59,45.824ZM59.159,40.619L55.909,43.869L57.058,45.018L60.308,41.768L59.159,40.619ZM52.659,40.619L49.409,43.869L50.558,45.018L53.808,41.768L52.659,40.619ZM50.559,38.994L48.273,36.708L48.255,38.988L49.41,40.143L50.559,38.994ZM61.61,39.344L61.628,37.064L60.309,35.744L59.16,36.893L61.61,39.344ZM57.059,38.994L53.809,35.744L52.66,36.893L55.91,40.143L57.059,38.994ZM59.159,34.119L55.909,37.369L57.058,38.518L60.308,35.268L59.159,34.119ZM52.659,34.119L49.409,37.369L50.558,38.518L53.808,35.268L52.659,34.119ZM50.558,32.494L48.324,30.26L48.306,32.54L49.409,33.643L50.558,32.494ZM61.723,32.957L61.741,30.677L60.308,29.244L59.159,30.393L61.723,32.957ZM57.058,32.494L53.808,29.244L52.659,30.393L55.909,33.643L57.058,32.494ZM52.659,27.62L49.409,30.87L50.558,32.019L53.808,28.769L52.659,27.62ZM59.159,27.62L55.909,30.87L57.058,32.019L60.308,28.769L59.159,27.62ZM50.558,25.994L48.374,23.81L48.356,26.09L49.409,27.143L50.558,25.994ZM57.058,25.994L54.456,23.392L53.248,23.35L52.659,23.893L55.909,27.143L57.058,25.994ZM61.712,26.446L61.73,24.166L61.033,23.469L59.6,23.452L59.159,23.893L61.712,26.446ZM59.129,23.448L56.859,23.42L55.909,24.37L57.058,25.519L59.129,23.448ZM52.706,23.371L50.435,23.344L49.409,24.37L50.558,25.519L52.706,23.371Z" style="fill:rgb(203,189,176);"/>
    </g>
    <g transform="matrix(0.774589,-0.477109,0.839088,0.687391,-33.5179,39.2845)">
        <path d="M60.196,73.68L61.311,73.72L61.349,72.535L60.309,71.495L59.16,72.644L60.196,73.68ZM47.982,73.536L49.367,73.553L47.993,72.179L47.982,73.536ZM53.619,73.603L55.944,73.63L53.809,71.495L52.66,72.644L53.619,73.603ZM52.659,69.87L49.409,73.12L49.848,73.558L51.252,73.575L53.808,71.019L52.659,69.87ZM59.159,69.87L55.909,73.12L56.425,73.636L57.645,73.682L60.308,71.019L59.159,69.87ZM50.559,68.245L48.044,65.73L48.026,68.01L49.41,69.394L50.559,68.245ZM61.381,68.366L61.399,66.086L60.309,64.995L59.16,66.144L61.381,68.366ZM57.059,68.245L53.809,64.995L52.66,66.144L55.91,69.394L57.059,68.245ZM59.159,63.37L55.909,66.62L57.058,67.769L60.308,64.519L59.159,63.37ZM52.659,63.37L49.409,66.62L50.558,67.769L53.808,64.519L52.659,63.37ZM50.558,61.745L48.095,59.281L48.077,61.561L49.409,62.894L50.558,61.745ZM57.058,61.745L53.808,58.495L52.659,59.644L55.909,62.894L57.058,61.745ZM61.356,61.841L61.45,59.637L60.308,58.495L59.159,59.644L61.356,61.841ZM59.159,56.87L55.909,60.12L57.058,61.269L60.308,58.019L59.159,56.87ZM52.659,56.87L49.409,60.12L50.558,61.269L53.808,58.019L52.659,56.87ZM50.558,55.245L48.271,52.958L48.128,55.112L49.409,56.394L50.558,55.245ZM57.058,55.245L53.808,51.995L52.659,53.144L55.909,56.394L57.058,55.245ZM61.486,55.471L61.501,53.187L60.308,51.995L59.159,53.144L61.486,55.471ZM59.159,50.37L55.909,53.62L57.058,54.769L60.308,51.519L59.159,50.37ZM52.659,50.37L49.409,53.62L50.558,54.769L53.808,51.519L52.659,50.37ZM50.558,48.745L50.32,48.507L48.022,48.507L49.409,49.894L50.558,48.745ZM57.058,48.745L56.82,48.507L54.522,48.507L55.909,49.894L57.058,48.745ZM59.16,46.643L61.534,49.035L61.552,46.738L60.309,45.494L59.16,46.643ZM48.023,48.506L50.321,48.506L48.196,46.382L48.023,48.506ZM54.523,48.506L56.821,48.506L53.809,45.494L52.66,46.643L54.523,48.506ZM52.659,43.869L49.409,47.119L50.558,48.268L53.808,45.018L52.659,43.869ZM59.159,43.869L55.909,47.119L57.058,48.268L60.308,45.018L59.159,43.869ZM50.559,42.244L48.247,39.933L48.229,42.213L49.41,43.393L50.559,42.244ZM61.585,42.569L61.603,40.289L60.309,38.994L59.16,40.143L61.585,42.569ZM57.059,42.244L53.809,38.994L52.66,40.143L55.91,43.393L57.059,42.244ZM59.159,37.369L55.909,40.619L57.058,41.768L60.308,38.518L59.159,37.369ZM52.659,37.369L49.409,40.619L50.558,41.768L53.808,38.518L52.659,37.369ZM50.558,35.745L48.298,33.484L48.28,35.764L49.409,36.894L50.558,35.745ZM57.058,35.745L53.808,32.495L52.659,33.644L55.909,36.894L57.058,35.745ZM61.636,36.12L61.654,33.84L60.308,32.495L59.159,33.644L61.636,36.12ZM59.159,30.869L55.909,34.119L57.058,35.268L60.308,32.018L59.159,30.869ZM52.659,30.869L49.409,34.119L50.558,35.268L53.808,32.018L52.659,30.869ZM50.558,29.244L48.349,27.035L48.331,29.315L49.409,30.393L50.558,29.244ZM57.058,29.244L53.808,25.994L52.659,27.143L55.909,30.393L57.058,29.244ZM61.687,29.671L61.705,27.391L60.308,25.994L59.159,27.143L61.687,29.671ZM59.159,24.37L55.909,27.62L57.058,28.769L60.308,25.519L59.159,24.37ZM52.659,24.37L49.409,27.62L50.558,28.769L53.808,25.519L52.659,24.37ZM49.964,23.339L48.869,23.354L49.409,23.893L49.964,23.339ZM56.388,23.414L55.419,23.403L55.909,23.893L56.388,23.414Z" style="fill:rgb(200,184,170);"/>
    </g>
    <rect id="Position" x="64.622" y="67.208" width="17.751" height="10.621" style="fill:none;"/>
    <rect id="Extents" x="17.627" y="22.17" width="64.746" height="55.659" style="fill:none;"/>
</svg>
