<?xml version="1.0" encoding="UTF-8" standalone="no"?>
<!DOCTYPE svg PUBLIC "-//W3C//DTD SVG 1.1//EN" "http://www.w3.org/Graphics/SVG/1.1/DTD/svg11.dtd">
<svg width="100%" height="100%" viewBox="0 0 100 100" version="1.1" xmlns="http://www.w3.org/2000/svg" xmlns:xlink="http://www.w3.org/1999/xlink" xml:space="preserve" xmlns:serif="http://www.serif.com/" style="fill-rule:evenodd;clip-rule:evenodd;stroke-linejoin:round;stroke-miterlimit:2;">
    <g id="Cable-and-Pipes" serif:id="Cable and Pipes" transform="matrix(1.5625,0,0,1.5625,0,0)">
        <g transform="matrix(0.992546,-0.121869,0.121869,0.992546,-1074.63,611.44)">
            <path d="M1192,-423.5L1175.04,-444.973L1171.05,-441.857L1189.17,-419.356L1192,-423.5Z" style="fill:rgb(112,100,40);fill-rule:nonzero;"/>
        </g>
        <g transform="matrix(0.992546,-0.121869,0.121869,0.992546,-1079.63,615.44)">
            <path d="M1192,-423.5L1175.62,-444.531L1171.67,-441.443L1189.17,-419.356L1192,-423.5Z" style="fill:rgb(180,115,0);fill-rule:nonzero;"/>
        </g>
        <g transform="matrix(0.992546,-0.121869,0.121869,0.992546,-1085.63,618.44)">
            <path d="M1192,-423.5L1176.49,-442.516L1172.82,-439.649L1189.17,-419.356L1192,-423.5Z" style="fill:rgb(97,162,211);fill-rule:nonzero;"/>
        </g>
        <g transform="matrix(0.992546,-0.121869,0.121869,0.992546,-1075.47,612.521)">
            <path d="M1193.07,-423.414L1175.6,-445.627L1173.87,-444.276L1191.71,-422.185L1193.07,-423.414Z" style="fill:rgb(154,138,57);fill-rule:nonzero;"/>
        </g>
        <g transform="matrix(0.992546,-0.121869,0.121869,0.992546,-1080.47,615.521)">
            <path d="M1193.07,-423.414L1176.46,-444.509L1174.74,-443.162L1191.71,-422.185L1193.07,-423.414Z" style="fill:rgb(227,156,3);fill-rule:nonzero;"/>
        </g>
        <g transform="matrix(0.992546,-0.121869,0.121869,0.992546,-1086.47,618.521)">
            <path d="M1193.07,-423.414L1177.33,-442.494L1175.62,-441.158L1191.71,-422.185L1193.07,-423.414Z" style="fill:rgb(122,198,255);fill-rule:nonzero;"/>
        </g>
        <g transform="matrix(1,0,0,1,-1134.99,470.025)">
            <path d="M1185.44,-423.674C1185.91,-424.778 1186.82,-425.635 1187.96,-426.032C1189.72,-426.518 1190.04,-425.997 1190.04,-425.997L1172.41,-443.443L1168.83,-439.864L1185.44,-423.674Z" style="fill:rgb(59,59,59);fill-opacity:0.61;fill-rule:nonzero;"/>
        </g>
        <g transform="matrix(1,0,0,1,-1139.99,474.025)">
            <path d="M1185.44,-423.674C1185.91,-424.778 1186.82,-425.635 1187.96,-426.032C1189.72,-426.518 1190.2,-426.032 1190.2,-426.032L1173.04,-443.074L1169.49,-439.528L1185.44,-423.674Z" style="fill:rgb(59,59,59);fill-opacity:0.61;fill-rule:nonzero;"/>
        </g>
        <g transform="matrix(1,0,0,1,-1145.99,477.025)">
            <path d="M1185.44,-423.674C1185.91,-424.778 1186.82,-425.635 1187.96,-426.032C1189.72,-426.518 1190.2,-426.032 1190.2,-426.032L1174.14,-441.18L1170.88,-437.856L1185.44,-423.674Z" style="fill:rgb(59,59,59);fill-opacity:0.61;fill-rule:nonzero;"/>
        </g>
        <g transform="matrix(0.97437,0.224951,-0.224951,0.97437,53.692,45.179)">
            <path d="M2.563,4.449C1.582,4.449 0.783,3.483 0.783,2.297C0.783,1.111 1.582,0.145 2.563,0.145C3.545,0.145 4.344,1.111 4.344,2.297C4.344,3.483 3.545,4.449 2.563,4.449Z" style="fill:rgb(77,67,36);fill-rule:nonzero;"/>
        </g>
        <g transform="matrix(0.97437,0.224951,-0.224951,0.97437,53.692,45.179)">
            <path d="M2.563,0.645C1.869,0.645 1.283,1.402 1.283,2.297C1.283,3.192 1.869,3.949 2.563,3.949C3.257,3.949 3.844,3.192 3.844,2.297C3.844,1.402 3.257,0.645 2.563,0.645M2.563,-0.355C3.823,-0.355 4.844,0.832 4.844,2.297C4.844,3.761 3.823,4.949 2.563,4.949C1.304,4.949 0.283,3.761 0.283,2.297C0.283,0.832 1.304,-0.355 2.563,-0.355Z" style="fill:rgb(117,89,2);fill-rule:nonzero;"/>
        </g>
        <g transform="matrix(0.97437,0.224951,-0.224951,0.97437,48.692,49.179)">
            <path d="M2.563,4.449C1.582,4.449 0.783,3.483 0.783,2.297C0.783,1.111 1.582,0.145 2.563,0.145C3.545,0.145 4.344,1.111 4.344,2.297C4.344,3.483 3.545,4.449 2.563,4.449Z" style="fill:rgb(116,137,145);fill-rule:nonzero;"/>
        </g>
        <g transform="matrix(0.97437,0.224951,-0.224951,0.97437,48.692,49.179)">
            <path d="M2.563,0.645C1.869,0.645 1.283,1.402 1.283,2.297C1.283,3.192 1.869,3.949 2.563,3.949C3.257,3.949 3.844,3.192 3.844,2.297C3.844,1.402 3.257,0.645 2.563,0.645M2.563,-0.355C3.823,-0.355 4.844,0.832 4.844,2.297C4.844,3.761 3.823,4.949 2.563,4.949C1.304,4.949 0.283,3.761 0.283,2.297C0.283,0.832 1.304,-0.355 2.563,-0.355Z" style="fill:rgb(141,91,3);fill-rule:nonzero;"/>
        </g>
        <g transform="matrix(0.97437,0.224951,-0.224951,0.97437,42.692,52.179)">
            <path d="M2.563,4.449C1.582,4.449 0.783,3.483 0.783,2.297C0.783,1.111 1.582,0.145 2.563,0.145C3.545,0.145 4.344,1.111 4.344,2.297C4.344,3.483 3.545,4.449 2.563,4.449Z" style="fill:rgb(74,96,104);fill-rule:nonzero;"/>
        </g>
        <g transform="matrix(0.97437,0.224951,-0.224951,0.97437,42.692,52.179)">
            <path d="M2.563,0.645C1.869,0.645 1.283,1.402 1.283,2.297C1.283,3.192 1.869,3.949 2.563,3.949C3.257,3.949 3.844,3.192 3.844,2.297C3.844,1.402 3.257,0.645 2.563,0.645M2.563,-0.355C3.823,-0.355 4.844,0.832 4.844,2.297C4.844,3.761 3.823,4.949 2.563,4.949C1.304,4.949 0.283,3.761 0.283,2.297C0.283,0.832 1.304,-0.355 2.563,-0.355Z" style="fill:rgb(78,121,137);fill-rule:nonzero;"/>
        </g>
        <g transform="matrix(1,0,0,1,-1201.93,1152.89)">
            <path d="M1249.1,-1108.87L1260.41,-1115.56L1249.1,-1108.87Z" style="fill:rgb(128,128,128);fill-rule:nonzero;"/>
        </g>
    </g>
    <rect id="Position" x="38.857" y="41.534" width="51.728" height="48.51" style="fill:none;"/>
    <rect id="Extents" x="38.857" y="41.534" width="51.728" height="48.51" style="fill:none;"/>
</svg>
